<svg width="100%" height="100%" viewBox="0 0 448 148" fill="none" xmlns="http://www.w3.org/2000/svg" id="svgLogo">
<g clip-path="url(#clip0_890_1523)">
<path d="M141.533 109.891C141.158 108.703 140.054 108.478 139.086 109.367C138.618 109.784 138.17 110.234 137.743 110.673C132.892 115.663 127.416 120.063 121.502 124.057C119.066 125.706 116.464 127.109 113.486 127.912C109.135 129.09 105.835 127.837 103.794 124.261C102.795 122.505 102.337 120.631 102.191 118.671C101.826 113.575 102.961 108.681 104.741 103.874C107.146 97.3741 110.748 91.3779 114.569 85.4673C118.723 79.032 122.866 72.5754 126.937 66.0973C128.384 63.7845 129.633 61.3753 129.654 58.6448C129.685 55.2077 126.677 53.1411 123.012 54.2869C120.93 54.94 118.941 55.9037 117.078 56.953C110.998 60.3687 105.73 64.6625 100.494 68.9776C100.036 69.3631 99.5569 69.7272 99.0884 70.1019C99.078 69.77 99.1925 69.5451 99.3175 69.3203C102.586 63.3562 105.949 57.4349 109.083 51.4172C111.841 46.1063 114.205 40.6454 115.568 34.9062C116.037 32.936 116.412 30.9444 116.027 28.8992C115.496 26.1152 113.403 24.5412 110.217 24.5734C107.042 24.5948 104.065 25.4514 101.431 26.8862C96.5587 29.5524 91.801 32.3792 87.085 35.2381C84.8884 36.5658 82.8791 38.1184 80.7866 39.5747C80.7449 39.5425 80.7033 39.5211 80.6512 39.489C81.3175 38.2469 82.0046 37.0155 82.6605 35.7735C85.69 30.0128 88.1573 24.1129 88.6049 17.6884C88.8548 14.0264 88.3551 10.5143 86.2105 7.29134C83.2747 2.87982 78.6524 0.866796 73.0931 0.245757C66.7947 -0.460942 60.7045 0.513446 54.708 2.08746C47.9827 3.85421 41.6947 6.49898 35.6357 9.59346C23.5178 15.7717 13.4195 23.8667 5.8926 34.3279C2.6549 38.793 0.291693 43.4936 0.0314274 49.0294C-0.280891 55.7538 1.66589 61.6965 5.80932 67.243C7.58953 69.6308 10.0569 70.0912 12.9302 69.7807C13.4403 69.7272 14.1586 69.3417 14.294 68.9669C14.4189 68.5922 14.0441 67.9711 13.6902 67.6071C12.0349 65.9046 10.213 64.3198 8.6306 62.5638C6.72545 60.4544 5.30961 58.1095 5.12222 55.3255C5.03893 54.0299 4.96606 52.745 4.86195 51.4601C4.36224 45.4959 5.81973 39.9387 9.67166 34.9811C13.8359 29.6166 18.9371 24.9802 24.6838 20.9114C35.0736 13.5553 46.8376 8.58695 59.601 5.36397C64.369 4.16473 69.2308 3.4259 74.2175 4.00411C77.8612 4.42171 80.9635 5.6852 82.7854 8.69403C83.8577 10.4715 84.2221 12.4096 84.2429 14.3905C84.2845 19.6372 82.8999 24.6804 80.6825 29.4667C78.0069 35.2488 74.8317 40.8596 71.8543 46.5453C71.6773 46.8772 71.3233 47.1663 70.9902 47.4233C67.7421 49.9503 64.4419 52.4237 61.2458 55.0043C47.8474 65.8082 35.2193 77.2546 23.726 89.654C17.6045 96.2712 11.7017 103.049 6.85038 110.459C4.44553 114.131 2.11355 117.858 1.25988 122.109C0.479084 125.974 1.82205 129.208 5.43454 131.595C7.31886 132.838 9.41139 133.116 11.5664 132.249C12.8053 131.745 14.0233 131.156 15.1164 130.439C20.2593 127.055 24.5484 122.89 28.6918 118.618C37.6033 109.399 45.2655 99.4085 52.3239 89.0436C60.8815 76.4944 68.4708 63.4954 75.2898 50.1537C75.4876 49.7575 75.7687 49.3507 76.133 49.0616C78.1423 47.4233 80.1723 45.8065 82.2441 44.211C88.0532 39.7353 93.8103 35.2167 100.244 31.4262C102.628 30.0235 105.054 28.6636 107.875 28.0105C111.009 27.2931 112.529 28.4281 111.925 31.2335C111.415 33.5891 110.717 35.9448 109.832 38.2148C105.959 48.1621 100.931 57.6704 95.4031 66.9753C92.2487 72.2863 88.7611 77.4045 84.3782 82.0087C81.9838 84.525 79.454 86.9449 77.1845 89.5469C73.6553 93.605 71.0006 98.1129 69.0226 102.921C68.3979 104.441 68.5437 105.919 69.6784 107.225C70.4697 108.146 71.6044 108.232 72.5726 107.461C73.0619 107.064 73.5304 106.636 73.9468 106.176C77.5905 102.118 80.7137 97.7489 83.6807 93.2945C85.9502 89.8788 88.1052 86.3881 90.7079 83.1759C95.4551 77.3295 101.275 72.3077 107.302 67.4893C111.154 64.4162 115.09 61.4074 119.639 59.1481C120.763 58.5913 122.023 58.2379 123.262 57.8953C124.147 57.649 124.594 58.0024 124.636 58.8162C124.657 59.0945 124.615 59.3729 124.553 59.6513C123.949 62.2319 122.731 64.6197 121.263 66.8897C117.807 72.2542 114.246 77.5758 110.8 82.951C107.021 88.8402 103.357 94.7829 100.837 101.207C99.3799 104.923 97.8912 108.617 97.7559 112.611C97.5997 117.151 98.4222 121.445 101.16 125.364C105.095 130.974 110.873 132.677 117.848 130.257C122.179 128.758 125.969 126.499 129.456 123.833C133.381 120.834 137.139 117.676 140.564 114.217C141.855 112.911 142.053 111.465 141.564 109.891H141.533ZM66.3158 57.2636C65.6599 58.4628 65.0145 59.6728 64.3378 60.8613C56.6339 74.5242 48.2326 87.823 38.4778 100.447C32.2835 108.456 25.6207 116.155 17.6878 122.933C15.3975 124.893 13.0967 126.841 10.2651 128.201C9.57796 128.533 8.80758 128.758 8.0476 128.929C6.64217 129.24 5.48659 128.694 5.33043 127.398C5.17427 126.06 5.2055 124.646 5.52823 123.329C6.5797 119.046 8.97415 115.256 11.5664 111.572C17.3651 103.317 24.0591 95.6502 31.18 88.262C37.114 82.0944 43.2042 76.0339 49.8254 70.4339C55.0619 66.0009 60.4859 61.7393 65.8265 57.4028C65.9306 57.3171 66.0764 57.2528 66.1909 57.1886L66.3262 57.2743L66.3158 57.2636Z" fill="currentColor"/>
<path d="M139.94 92.3115C135.879 97.1299 128.176 104.411 122.866 104.411C119.743 104.411 117.453 102.484 117.453 98.8432C117.453 88.3497 132.34 73.8945 143.791 73.8945C148.997 73.8945 151.079 76.6785 151.079 79.3554C151.079 81.4969 149.621 82.996 148.893 82.996C148.476 82.996 148.06 82.6747 148.06 82.1394C148.06 81.3898 148.372 80.9615 148.372 79.8908C148.372 78.9271 147.852 76.7856 144.728 76.7856C133.693 76.7856 120.992 90.3842 120.992 98.8432C120.992 100.342 121.721 101.306 123.178 101.306C127.551 101.306 134.526 94.6672 137.962 90.3842C140.772 86.9578 142.542 83.8526 143.687 83.8526C144.52 83.8526 145.353 84.7092 145.353 85.5658C145.353 86.3153 143.271 88.8851 143.271 92.5257C143.271 96.3804 145.145 97.9866 147.435 97.9866C150.454 97.9866 154.306 95.6309 159.72 89.4205C159.72 89.4205 160.24 88.778 160.657 88.778C161.281 88.778 161.906 89.4205 161.906 89.9559C161.906 90.3842 161.385 91.0266 161.385 91.0266C155.555 97.5583 150.767 100.771 146.915 100.771C142.855 100.771 139.94 97.1299 139.94 92.3115Z" fill="currentColor" stroke="currentColor" stroke-miterlimit="10"/>
<path d="M188.661 98.9483C196.261 98.9483 204.277 89.4186 204.277 89.4186C204.277 89.4186 204.798 88.7762 205.214 88.7762C205.839 88.7762 206.463 89.4186 206.463 89.954C206.463 90.3823 205.943 91.0247 205.943 91.0247C205.943 91.0247 196.261 102.054 188.453 102.054C184.497 102.054 181.27 99.8049 181.061 94.4512C174.503 100.34 168.465 104.409 164.613 104.409C160.761 104.409 157.846 101.518 157.846 97.3422C157.846 86.9559 170.859 74.428 179.5 74.428C182.519 74.428 184.185 75.6058 185.017 76.4625C190.223 62.0072 199.592 45.5176 207.921 45.5176C210.523 45.5176 212.71 47.3379 212.71 50.5501C212.71 57.7242 198.343 77.5332 184.601 91.1318C184.497 91.9884 184.497 92.845 184.497 93.5946C184.497 97.7705 186.475 98.9483 188.661 98.9483ZM181.27 90.5964C181.79 87.3842 182.727 83.5294 184.08 79.2464C183.456 78.2827 182.311 77.212 179.916 77.212C172.629 77.212 161.281 88.9903 161.281 97.6634C161.281 99.8049 162.635 101.304 164.821 101.304C168.569 101.304 174.711 96.9139 181.27 90.5964ZM185.642 86.3134C197.718 73.7856 209.691 56.7605 209.691 50.336C209.691 49.4794 209.066 48.6228 207.713 48.6228C200.113 48.6228 189.078 72.0723 185.642 86.3134Z" fill="currentColor" stroke="currentColor" stroke-miterlimit="10"/>
<path d="M243.879 96.8818C240.34 99.9549 236.623 101.839 233.323 101.839C228.95 101.839 225.827 99.0554 225.619 94.4512C219.06 100.34 213.022 104.409 209.17 104.409C205.318 104.409 202.403 101.518 202.403 97.3422C202.403 86.9559 215.417 74.428 224.057 74.428C227.076 74.428 228.742 75.6058 229.575 76.4625C234.78 62.0072 244.15 45.5176 252.478 45.5176C255.081 45.5176 257.267 47.3379 257.267 50.5501C257.267 57.6171 242.901 77.5332 229.263 91.0247C229.054 92.2026 229.055 93.1663 229.055 94.0229C229.055 97.3422 230.928 99.1625 233.531 99.1625C236.352 99.1625 239.684 97.385 242.88 94.5154M225.827 90.5964C226.348 87.3842 227.285 83.5294 228.638 79.2464C228.013 78.2827 226.868 77.212 224.474 77.212C217.186 77.212 205.839 88.9903 205.839 97.6634C205.839 99.8049 207.192 101.304 209.378 101.304C213.126 101.304 219.269 96.9139 225.827 90.5964ZM230.304 86.2063C242.276 73.6785 254.248 56.7605 254.248 50.336C254.248 49.4794 253.624 48.6228 252.27 48.6228C244.67 48.6228 233.843 71.8582 230.304 86.2063Z" fill="currentColor"/>
<path d="M243.879 96.8818C240.34 99.9549 236.623 101.839 233.323 101.839C228.95 101.839 225.827 99.0554 225.619 94.4512C219.06 100.34 213.022 104.409 209.17 104.409C205.318 104.409 202.403 101.518 202.403 97.3422C202.403 86.9559 215.417 74.428 224.057 74.428C227.076 74.428 228.742 75.6058 229.575 76.4625C234.78 62.0072 244.15 45.5176 252.478 45.5176C255.081 45.5176 257.267 47.3379 257.267 50.5501C257.267 57.6171 242.901 77.5332 229.263 91.0247C229.054 92.2026 229.055 93.1663 229.055 94.0229C229.055 97.3422 230.928 99.1625 233.531 99.1625C236.352 99.1625 239.684 97.385 242.88 94.5154M225.827 90.5964C226.348 87.3842 227.285 83.5294 228.638 79.2464C228.013 78.2827 226.868 77.212 224.474 77.212C217.186 77.212 205.839 88.9903 205.839 97.6634C205.839 99.8049 207.192 101.304 209.378 101.304C213.126 101.304 219.269 96.9139 225.827 90.5964ZM230.304 86.2063C242.276 73.6785 254.248 56.7605 254.248 50.336C254.248 49.4794 253.624 48.6228 252.27 48.6228C244.67 48.6228 233.843 71.8582 230.304 86.2063Z" stroke="currentColor" stroke-miterlimit="10"/>
<path d="M251.645 104.625C246.024 104.625 241.443 101.198 241.443 95.0949C241.443 85.1369 254.456 74.3223 262.472 74.3223C265.7 74.3223 267.886 76.2496 267.886 78.9265C267.886 85.3511 253.936 91.2402 245.295 93.4888C245.087 94.1313 245.087 94.7737 245.087 95.4162C245.087 99.1638 247.793 101.519 251.645 101.519C264.138 101.519 273.716 89.4199 273.716 89.4199C273.716 89.4199 274.236 88.7775 274.757 88.7775C275.382 88.7775 275.902 89.4199 275.902 89.9553C275.902 90.3836 275.381 91.0261 275.381 91.0261C275.381 91.0261 263.722 104.625 251.645 104.625ZM246.232 90.3836C254.144 88.2421 264.763 83.1025 264.763 78.6053C264.763 78.2841 264.45 77.3204 262.889 77.3204C257.163 77.3204 249.251 83.7449 246.232 90.3836Z" fill="currentColor" stroke="currentColor" stroke-miterlimit="10"/>
<path d="M333.473 60.7233C332.952 61.0445 332.536 61.2587 332.119 61.2587C331.703 61.2587 331.287 60.6162 331.287 60.295C331.287 59.8667 331.495 59.6525 332.119 59.1171C334.514 57.0827 342.322 51.836 342.322 43.6982C342.322 38.6657 338.886 35.5605 330.662 35.5605C316.608 35.5605 301.304 46.3751 301.304 61.1516C301.304 78.0695 326.81 85.1365 326.81 107.515C326.81 125.825 306.509 147.455 284.855 147.455C269.864 147.455 261.64 137.925 261.64 126.147C261.64 106.23 280.066 92.4177 290.373 92.4177C296.828 92.4177 301.512 96.9149 301.512 103.554C301.512 114.154 292.143 121.114 289.748 122.934C289.332 123.255 289.02 123.363 288.707 123.363C288.291 123.363 287.77 122.934 287.77 122.399C287.77 121.971 287.978 121.756 288.499 121.328C290.789 119.508 298.077 113.512 298.077 103.554C298.077 98.521 295.37 95.8441 290.373 95.8441C280.899 95.8441 265.283 107.729 265.283 125.932C265.283 136.426 271.842 144.135 285.168 144.135C304.427 144.135 322.75 124.54 322.75 107.515C322.75 86.4214 297.556 80.104 297.556 61.1516C297.556 45.3044 314.63 31.9199 330.662 31.9199C340.344 31.9199 345.862 36.2029 345.862 43.5912C345.862 52.4784 336.492 58.903 333.473 60.7233Z" fill="currentColor" stroke="currentColor" stroke-miterlimit="10"/>
<path d="M339.73 102.108C336.086 102.108 333.483 99.7523 333.483 95.8976C333.483 88.6164 344.206 74.1612 345.976 74.1612C347.33 74.1612 347.642 75.1249 347.642 75.7673C347.642 75.9815 347.434 76.5169 347.017 77.0523C344.519 80.1574 337.023 89.9013 337.023 95.8976C337.023 98.1462 338.481 99.324 340.459 99.324C347.434 99.324 356.283 89.0447 356.283 89.0447C356.283 89.0447 356.803 88.4023 357.22 88.4023C357.844 88.4023 358.469 89.0447 358.469 89.5801C358.469 90.0084 357.948 90.6509 357.948 90.6509C357.948 90.6509 347.746 102.108 339.73 102.108ZM357.532 61.2051C357.532 63.1324 355.762 65.8093 354.096 65.8093C352.951 65.8093 352.118 64.9527 352.118 63.8819C352.118 62.0617 353.784 59.3848 355.554 59.3848C356.907 59.3848 357.532 60.3484 357.532 61.2051Z" fill="currentColor" stroke="currentColor" stroke-miterlimit="10"/>
<path d="M396.093 90.7571C390.783 97.1816 379.508 103.713 374.72 106.176C367.328 124.486 355.148 146.436 340.469 146.436C334.222 146.436 330.162 142.368 330.162 136.585C330.162 121.809 352.857 114.314 372.117 104.356C374.095 99.7515 375.656 95.2543 376.906 91.6137C371.492 97.5029 364.829 103.071 359.52 103.071C356.709 103.071 353.898 101.143 353.898 96.9675C353.898 87.0095 368.369 73.625 379.3 73.625C384.818 73.625 386.484 76.6231 386.484 78.8717C386.484 81.1203 385.026 82.6194 384.401 82.6194C383.673 82.6194 383.36 82.084 383.36 81.6557C383.36 81.2274 383.881 80.4778 383.881 79.1929C383.881 78.1222 383.152 76.516 380.029 76.516C370.347 76.516 357.542 88.7227 357.542 97.1816C357.542 99.4302 358.791 100.287 360.145 100.287C363.476 100.287 369.827 95.4684 375.136 89.6864C378.155 86.367 379.508 83.583 380.133 83.583C380.862 83.583 381.799 84.2255 381.799 84.7609C381.799 85.5104 381.07 88.1873 380.029 91.6137C378.988 94.7189 377.739 98.2524 376.281 102.107C383.36 98.3595 390.054 94.3977 394.427 89.151M370.451 108.318C352.233 117.633 333.598 124.807 333.598 136.585C333.598 140.654 336.304 143.438 340.365 143.438C352.128 143.438 363.164 125.021 370.451 108.318Z" fill="currentColor"/>
<path d="M396.093 90.7571C390.783 97.1816 379.508 103.713 374.72 106.176C367.328 124.486 355.148 146.436 340.469 146.436C334.222 146.436 330.162 142.368 330.162 136.585C330.162 121.809 352.857 114.314 372.117 104.356C374.095 99.7515 375.656 95.2543 376.906 91.6137C371.492 97.5029 364.829 103.071 359.52 103.071C356.709 103.071 353.898 101.143 353.898 96.9675C353.898 87.0095 368.369 73.625 379.3 73.625C384.818 73.625 386.484 76.6231 386.484 78.8717C386.484 81.1203 385.026 82.6194 384.401 82.6194C383.673 82.6194 383.36 82.084 383.36 81.6557C383.36 81.2274 383.881 80.4778 383.881 79.1929C383.881 78.1222 383.152 76.516 380.029 76.516C370.347 76.516 357.542 88.7227 357.542 97.1816C357.542 99.4302 358.791 100.287 360.145 100.287C363.476 100.287 369.827 95.4684 375.136 89.6864C378.155 86.367 379.508 83.583 380.133 83.583C380.862 83.583 381.799 84.2255 381.799 84.7609C381.799 85.5104 381.07 88.1873 380.029 91.6137C378.988 94.7189 377.739 98.2524 376.281 102.107C383.36 98.3595 390.054 94.3977 394.427 89.151M370.451 108.318C352.233 117.633 333.598 124.807 333.598 136.585C333.598 140.654 336.304 143.438 340.365 143.438C352.128 143.438 363.164 125.021 370.451 108.318Z" stroke="currentColor" stroke-miterlimit="10"/>
<path d="M427.502 96.4332C427.502 96.4332 428.126 95.7907 428.543 95.7907C429.063 95.7907 429.688 96.4332 429.688 96.9685C429.688 97.5039 428.855 98.1464 428.855 98.1464C428.855 98.1464 424.899 101.466 420.839 101.466C417.403 101.466 414.801 99.4313 414.801 96.3261C414.801 89.9015 424.795 83.2628 424.795 78.5515C424.795 78.0161 424.378 77.1595 423.129 77.1595C416.466 77.1595 403.037 88.0813 392.105 101.252C391.377 102.215 390.856 102.536 389.815 102.536C389.086 102.536 388.149 101.894 388.149 100.93C388.149 100.074 389.399 97.5039 391.585 93.6492C395.541 86.6893 403.661 75.018 405.327 75.018C406.68 75.018 407.097 76.1959 407.097 76.7312C407.097 77.0525 406.784 77.4808 406.056 78.3374C402.308 82.7275 398.976 87.2246 395.02 93.7563C403.453 84.3336 416.466 73.9473 423.754 73.9473C426.46 73.9473 428.543 75.9817 428.543 78.5515C428.543 84.4407 418.757 91.1864 418.757 96.4332C418.757 97.7181 419.694 98.6817 421.567 98.6817C424.482 98.6817 427.502 96.4332 427.502 96.4332Z" fill="currentColor" stroke="currentColor" stroke-miterlimit="10"/>
<path d="M444.773 94.0781C446.23 94.0781 447.479 95.256 447.479 96.9692C447.479 99.3248 445.501 101.895 443.732 101.895C442.378 101.895 441.025 100.931 441.025 99.0036C441.025 96.755 443.003 94.0781 444.773 94.0781Z" fill="currentColor" stroke="currentColor" stroke-miterlimit="10"/>
</g>
<defs>
<clipPath id="clip0_890_1523">
<rect width="448" height="148" fill="white"/>
</clipPath>
</defs>
</svg>
