<svg width="57" height="176" viewBox="0 0 57 176" fill="none" xmlns="http://www.w3.org/2000/svg">
<path d="M24.6925 152.734C25.0849 152.815 25.9729 152.769 25.7977 152.548L24.2897 152.389L24.6925 152.734Z" fill="#9F5225"/>
<path d="M27.486 151.239C26.7556 150.977 25.4717 150.678 24.0863 150.846C25.5348 151.105 24.9305 151.166 26.654 151.445C26.8292 151.666 26.1706 151.832 25.6154 151.795C26.0025 151.872 25.2843 152.139 26.2319 152.257C27.3984 151.968 27.4457 151.603 26.4824 151.221C26.8134 151.138 27.2075 151.221 27.486 151.236V151.239Z" fill="#9F5225"/>
<path d="M29.8376 129.589L29.659 129.727C29.7571 129.689 29.8131 129.641 29.8376 129.589Z" fill="#9F5225"/>
<path d="M30.6623 116.167C30.6991 116.27 30.848 116.313 30.9846 116.318C30.8865 116.223 30.7937 116.145 30.6623 116.167Z" fill="#9F5225"/>
<path d="M32.3264 113.875C32.2791 113.925 32.2564 113.965 32.2231 114.01C32.3615 113.96 32.4385 113.907 32.3264 113.875Z" fill="#9F5225"/>
<path d="M29.8383 129.587L30.3112 129.227C29.819 129.202 29.9468 129.411 29.8383 129.587Z" fill="#9F5225"/>
<path d="M23.8513 148.26C23.9248 148.336 24.065 148.398 24.2489 148.454C24.1841 148.393 24.128 148.333 24.0877 148.27C24.0072 148.268 23.9353 148.265 23.8513 148.258V148.26Z" fill="#9F5225"/>
<path d="M31.0585 135.507V135.615C31.2319 135.648 31.4404 135.678 31.6733 135.706L31.0585 135.507Z" fill="#9F5225"/>
<path d="M31.2899 140.038C31.3459 139.935 30.0656 139.9 29.5068 139.86C30.034 139.918 30.2845 139.993 30.3843 140.084C30.6278 140.084 30.9185 140.071 31.2899 140.038Z" fill="#9F5225"/>
<path d="M29.0398 147.245L29.2167 147.374C29.1606 147.341 29.1098 147.285 29.0398 147.245Z" fill="#9F5225"/>
<path d="M31.3373 132.259C31.5264 132.252 31.6946 132.234 31.7962 132.219C31.635 132.219 31.4826 132.234 31.3373 132.259Z" fill="#9F5225"/>
<path d="M21.715 5.28754C21.8061 5.28998 21.8639 5.28754 21.9427 5.28754C21.8131 5.26311 21.722 5.25334 21.715 5.28754Z" fill="#9F5225"/>
<path d="M28.056 0.0216327L28.1243 0.0945693C28.366 0.102114 28.6042 0.10966 28.8425 0.10966L28.056 0.0216327Z" fill="#9F5225"/>
<path d="M33.9636 109.687C33.9496 109.694 33.9496 109.697 33.939 109.704C34.0846 109.815 34.0601 109.752 33.9636 109.687Z" fill="#9F5225"/>
<path d="M33.0206 71.1948C31.8768 71.6299 31.551 70.4856 30.2812 71.142C30.7804 71.0816 32.2762 71.7381 33.0206 71.1948Z" fill="#9F5225"/>
<path d="M24.0184 148.137C24.0044 148.076 23.9922 148.013 24.0062 147.95C23.9641 148.036 23.9694 148.091 24.0184 148.137Z" fill="#9F5225"/>
<path d="M30.2817 71.1457H30.2695L30.1486 71.2136C30.2011 71.1859 30.2362 71.1708 30.28 71.1457H30.2817Z" fill="#9F5225"/>
<path d="M33.1964 100.021C32.9704 100.041 32.8005 100.079 32.6359 100.119C32.7673 100.117 32.9266 100.094 33.1964 100.021Z" fill="#9F5225"/>
<path d="M31.3749 107.217L31.5466 107.039C31.4292 107.109 31.3907 107.167 31.3749 107.217Z" fill="#9F5225"/>
<path d="M31.3898 96.2892C31.4879 96.1911 31.6648 96.1584 31.4931 96.0276C31.4283 96.0402 31.3828 96.0528 31.3373 96.0679C31.5124 96.1156 31.5947 96.1785 31.3898 96.2892Z" fill="#9F5225"/>
<path d="M31.3808 92.3977C31.2827 92.4178 31.2092 92.4454 31.1233 92.4706C31.1496 92.5083 31.1689 92.5536 31.1916 92.5938L31.3808 92.3977Z" fill="#9F5225"/>
<path d="M22.3334 17.1046C22.6942 17.0191 23.0901 16.9663 23.4842 16.926C22.5734 16.9864 22.2494 16.4155 22.3334 17.1046Z" fill="#9F5225"/>
<path d="M24.5687 148.257C24.2464 148.234 24.0853 148.201 24.017 148.141C24.031 148.186 24.0573 148.229 24.0853 148.269C24.2762 148.279 24.4549 148.282 24.5687 148.257Z" fill="#9F5225"/>
<path d="M21.2902 96.1314L21.4793 95.5127C21.3567 95.6863 21.2902 95.9101 21.2902 96.1314Z" fill="#9F5225"/>
<path d="M22.5159 45.0114L22.3618 44.8706C22.332 44.9259 22.3688 44.9762 22.5159 45.0114Z" fill="#9F5225"/>
<path d="M21.2919 93.6787C21.7438 93.568 22.0048 93.4523 22.1764 93.3316C22.0766 93.3064 21.9943 93.2762 21.8454 93.2586L21.2902 93.6787H21.2919Z" fill="#9F5225"/>
<path d="M23.4947 16.9211H23.4822C23.4822 16.9211 23.4884 16.9211 23.4947 16.9211Z" fill="#9F5225"/>
<path d="M20.4557 12.8523C20.419 13.4408 22.1022 13.129 23.069 13.2547C23.5454 13.9564 21.8307 13.5792 20.9689 13.8181C21.4138 14.2557 22.9587 14.5927 22.8921 14.9197C22.6154 14.9448 22.5138 15.0077 22.167 14.9323C23.5052 15.395 22.2318 16.3105 23.9133 16.8487C23.7644 16.889 23.6225 16.9091 23.4964 16.9192C24.3371 16.8311 25.1954 16.8186 25.8049 16.8362C25.8329 17.1002 26.8681 17.3266 25.7681 17.4247C25.7997 17.2637 25.3565 17.2486 25.0132 17.1732L25.4914 17.4498C23.9098 17.6988 24.9432 17.0726 23.7749 17.0726C24.2881 17.6108 25.5965 18.2396 25.1498 18.6545C23.6032 18.7401 24.6296 17.6888 23.2547 18.2396L23.8467 17.6007C21.4068 18.0887 24.0166 17.2134 21.4068 17.6611C20.9584 18.5036 22.195 18.6017 21.7431 19.4418C22.6031 19.6304 23.0147 19.3789 23.8747 19.5675C25.4196 20.7596 19.9863 20.5056 22.0461 21.3834C23.076 21.6097 25.0342 21.6978 23.9991 22.324L22.2511 22.1102C22.0794 22.9251 24.7645 22.5755 23.5892 23.4281C22.9026 23.2772 23.0095 22.7868 22.801 22.91C21.4208 23.4633 23.7924 23.2999 23.7924 23.7249L22.2441 23.8129C22.4875 24.6806 23.6067 25.6363 23.8887 26.5971C23.4281 26.5443 22.9429 26.3783 22.47 26.6046C23.2442 27.8169 22.2808 29.1901 21.363 30.3596L22.6995 30.8073C22.6854 30.9104 22.0952 31.0009 21.8359 30.8878C21.3298 31.343 22.6837 30.9104 23.2091 31.1292C23.302 31.3883 22.4402 31.4713 22.0391 31.3078C23.1724 32.1126 24.4807 33.5965 23.048 34.4441L22.6504 34.2781C22.1074 34.937 25.3898 35.0225 24.1445 35.6337L23.908 35.5155C23.3282 36.9465 24.5526 38.5285 22.5348 39.62C24.4597 39.8288 21.6766 41.036 24.3616 41.1291C23.0305 41.9465 22.5523 41.7126 21.6573 42.8645C21.5347 43.1713 23.3335 43.3222 23.6137 43.702L22.2108 43.712L23.6821 44.2276L22.0041 44.5018L22.3649 44.8589C22.449 44.7181 22.9955 44.5571 23.4001 44.5797C24.0341 45.1356 22.421 45.9379 21.7028 45.9504L22.8904 47.2683C22.3264 47.2381 22.132 47.0193 21.7711 46.8433C23.2039 47.5475 20.2929 46.9715 21.6047 47.6154C21.9235 47.5299 22.4402 47.6632 22.724 47.6758C21.8762 47.9977 21.8675 48.7271 22.2265 49.2703L21.2597 49.1672C21.0127 50.143 21.7239 51.227 21.7063 52.3236C22.1582 51.9312 23.8344 52.0218 23.9956 52.3412L22.5138 52.4695C23.4298 52.6782 23.0725 52.1324 24.1953 52.56C24.0236 52.9699 22.5085 52.8367 22.0269 52.6002L22.5418 53.0982C22.0987 53.1284 21.864 53.0102 21.3 52.98C22.2213 53.1837 19.8112 53.8402 21.4103 54.1344L20.9689 54.1621C20.9567 55.2587 21.4664 55.7566 21.5417 56.6495C22.8221 56.6671 22.5383 57.0167 23.5735 57.2833C23.1654 57.9397 22.1582 58.6665 22.2668 59.4588C22.9044 60.0146 23.351 59.6223 24.1129 59.8713C22.9464 59.9115 23.055 60.7012 22.2178 60.2913C22.4069 61.2395 22.4507 61.5035 23.3966 62.7032C23.8747 62.5724 24.0814 62.4266 24.479 62.502C24.6717 62.7208 23.9903 62.9975 23.4298 62.9673L23.3107 62.9094C25.0588 64.2575 19.9093 66.0181 22.3404 67.092L22.2195 67.0316L23.4876 68.1433C23.2862 68.6538 22.6101 67.8364 21.8885 68.2162C23.8344 69.4159 21.6065 70.1126 22.9026 71.101C19.4609 71.8656 23.1443 73.8147 20.9479 74.8484L21.7589 74.788C22.5541 75.0546 21.2947 75.11 21.1091 75.3087C21.7379 75.281 21.8377 75.0194 22.2773 75.1854C23.2547 77.4465 21.0933 79.8509 20.3612 82.1697C20.144 83.0173 24.5543 82.6501 22.6189 83.719L21.1143 83.4147C22.9201 85.1249 21.0513 86.9131 22.5839 88.5882C22.237 88.4876 21.7852 88.485 21.7904 88.3216C20.6975 88.6762 21.7379 89.6294 22.6294 89.6344C22.5278 89.896 21.8219 89.6948 21.3683 89.8557C20.7237 90.2104 22.7643 90.7461 21.6766 90.9347C21.4997 90.9674 21.321 90.8341 21.2369 90.7712C21.7659 91.0026 21.1021 91.8477 22.3632 91.6263C21.7624 92.2551 22.9254 92.8285 22.1775 93.329C23.5875 93.656 21.4997 94.4055 23.4929 94.5086C21.4331 94.4633 21.8324 95.6102 22.801 96.0076C22.1792 95.8743 22.1565 96.3521 21.293 96.1962C21.321 96.6489 21.7046 97.0664 22.7625 96.9859C20.2981 97.8209 24.747 98.666 21.5872 99.1363C22.6942 100.484 23.4438 101.729 23.9273 102.942C21.8727 102.899 23.7223 101.601 21.5662 101.654C22.4122 102.803 24.176 103.467 23.6803 104.607C23.4001 104.901 22.7905 104.438 22.4385 104.34C23.2845 105.489 22.2511 106.561 23.3703 107.582C23.1794 107.579 22.9692 107.469 22.8133 107.366C22.8816 107.567 22.5138 107.833 23.4456 107.811L23.1916 107.615C24.5473 107.293 26.0221 108.414 26.7385 108.45C24.0621 108.107 26.0659 109.458 22.6854 108.915C22.8606 109.048 23.3037 109.214 23.929 109.184C23.7469 109.38 23.3808 109.443 22.6714 109.244C23.1794 109.966 24.1725 109.71 24.1515 110.363C23.6996 110.363 23.5244 110.23 22.9937 110.162C23.8747 110.494 24.7575 110.826 24.3739 111.377C24.1024 111.344 23.7469 111.407 23.7539 111.244C23.8905 112.192 26.1009 112.861 25.2497 113.902C23.2845 113.595 24.6034 114.257 22.9026 114.312L23.4088 114.873L24.2338 114.649C24.204 115.14 25.4441 115.572 24.8871 115.995L24.1865 115.63L24.5088 116.548L25.1533 116.027C26.0291 116.523 27.3042 115.975 26.8313 116.626C26.6596 116.493 26.8103 117.116 25.8084 117.373C25.8084 117.373 25.8084 117.373 25.8032 117.373C26.3444 117.614 26.9154 117.866 26.4933 118.228C25.9503 118.321 24.6121 118.153 24.2513 118.213C25.6718 118.452 24.6454 119.36 26.1587 119.664C25.8032 119.564 24.9116 119.559 24.7295 119.591L25.8837 119.792C25.5142 120.019 25.3355 120.051 24.6244 120.016C24.4124 120.7 26.7805 119.8 25.8522 120.61C25.7594 120.547 25.586 120.577 25.4108 120.444C24.9256 121.259 26.1429 122.016 25.5755 122.765C23.8642 122.987 25.1568 122.111 23.7136 122.365C24.0236 123.444 25.7646 124.599 25.3618 125.642L25.5509 125.449C27.9663 125.595 24.3581 126.226 25.4966 126.754C25.318 126.626 24.155 126.586 24.4247 126.621C24.0359 127.335 25.0185 128.082 25.7786 129.166L25.1568 129.033C24.6034 129.453 24.8381 130.142 24.5561 130.597C25.1761 130.733 25.0745 130.992 25.9766 130.834C22.4437 132.237 27.8717 133.51 24.9274 134.754C24.9204 134.606 24.3844 134.4 24.3844 134.518L24.9554 135.579C26.0081 135.496 25.593 135.441 26.4109 135.217C27.0345 135.351 27.5179 135.65 27.5179 135.914C26.8208 135.436 25.8277 135.919 25.2409 136.125C25.5632 136.09 25.9188 136.16 26.2463 136.143C24.3739 136.696 28.3639 136.236 27.1028 136.993L26.5511 136.953C26.833 137.237 27.5634 137.496 27.4058 137.803C26.1885 137.928 26.8383 137.501 25.8364 137.481C25.9065 137.908 28.1432 138.326 26.9294 138.716C26.5896 138.535 26.5843 138.271 26.248 138.089C24.8188 138.512 25.1814 138.562 24.9554 138.874L24.9869 138.844L24.3406 139.571L24.7295 139.385C27.9032 139.92 25.3092 140.476 27.3883 141.201C25.4213 140.499 26.2498 141.085 24.8713 141.03C24.4878 141.213 24.0586 141.495 23.6698 141.414C24.782 141.756 22.794 141.985 24.4194 142.466C23.9781 142.488 24.3757 142.83 23.2617 142.755C23.6102 143.2 24.0341 142.649 24.5911 142.687C26.1097 143.371 22.752 144.297 24.8346 145.28C25.6911 146.13 27.1886 146.286 27.9348 147.073C27.2236 147.34 26.3163 146.854 26.3163 146.854C25.663 147.285 25.7821 147.606 26.2918 148.011C25.903 147.928 25.5755 148.011 25.078 148.137C25.1936 148.462 26.6947 148.353 26.0396 148.781C25.5457 148.708 24.7522 148.612 24.2566 148.457C24.6647 148.839 25.4931 149.216 25.8942 149.613C25.1201 149.719 24.7207 149.375 24.2163 149.236C24.5648 149.681 24.9169 150.388 26.1412 150.526L26.5791 150.242C26.6386 150.403 25.5264 150.325 25.304 150.207C24.3441 149.825 25.7296 149.656 26.1745 149.636L26.4582 149.918C29.0627 149.629 26.0396 148.786 26.192 148.218L28.0871 148.454L26.5143 147.873C27.0082 147.75 28.0661 147.664 28.3481 147.946C29.2852 147.539 27.6738 147.586 28.7177 147.237C28.8806 147.199 28.9717 147.217 29.047 147.252L28.483 146.854C28.8806 146.932 29.8212 146.789 29.5462 147.033C30.6391 146.319 28.1257 145.884 29.5602 145.615L29.6775 145.675C29.0365 144.684 28.2868 145.579 26.6544 144.837L30.0856 144.337L28.6949 144.239C28.7457 144.136 28.8491 143.934 29.406 143.972C28.455 143.592 28.8018 144.038 27.9032 143.816C29.1696 143.326 27.3112 142.461 29.5269 142.35C28.469 142.174 28.7107 142.82 27.975 142.295C30.3571 142.144 27.5669 141.689 28.6599 141.238C29.8895 141.377 29.2379 141.802 30.3361 141.351C28.257 141.08 30.7897 140.476 30.3921 140.099C28.737 140.081 29.702 139.277 29.1521 138.64C29.7073 138.68 30.0594 137.443 30.6584 136.852L30.9369 136.87C29.2642 136.754 29.5794 136.145 29.2344 135.7C30.2363 135.718 30.6304 135.798 31.077 136.037L31.07 135.62C30.534 135.522 30.252 135.391 30.0611 135.119L31.3099 135.225C31.2416 134.669 29.8387 134.106 30.6724 133.391C29.5059 133.351 27.4251 133.96 26.6474 133.205C27.2779 133.178 28.3569 133.15 28.6144 133.346C28.5338 133.281 28.0906 133.115 28.3604 132.984L29.4218 133.286C29.8877 132.961 28.5355 133.115 28.6336 132.856C29.5339 132.861 29.2747 132.662 29.9893 132.7C30.0769 132.765 29.618 132.926 29.97 133.027C30.1312 132.732 30.6654 132.378 31.345 132.262C30.8335 132.287 30.1347 132.262 30.0173 132.048C29.9525 131.492 31.098 131.857 31.5622 131.535C30.9369 131.402 31.5849 131.047 30.2398 131.037C30.2468 130.874 30.8738 130.844 31.2381 130.781C30.6444 130.494 31.0682 129.438 29.6372 129.762L29.5427 129.835C29.5146 129.822 29.5129 129.805 29.4831 129.787C28.1467 128.844 30.245 127.831 29.6705 126.895H30.1189C29.6057 126.339 29.8159 125.655 28.8473 125.255C28.8473 125.089 29.6688 124.865 30.2047 124.936C29.8667 124.508 29.3623 124.46 30.1031 123.844C30.8878 124.274 30.7985 123.696 30.6776 124.284C31.0665 123.731 31.7864 123.605 30.5568 123.009C31.7093 123.213 32.0071 122.592 31.6638 122.328L30.8388 122.715C30.6706 122.418 30.774 122.159 30.8703 121.895L32.3854 122.038C34.228 120.904 29.2484 119.991 32.3346 119.128C31.2749 118.829 31.5884 119.745 30.3484 119.476C30.5533 118.952 32.7269 118.409 32.7322 118.246C33.5712 117.531 30.5183 117.579 31.0928 116.83C30.5533 116.925 29.11 117.016 28.6021 116.457C28.8018 115.934 30.8686 115.816 31.3029 116.146C31.3485 116.271 31.1768 116.332 30.9929 116.327C31.1908 116.495 31.4203 116.717 32.0071 116.51L31.4658 116.442C32.0176 116.183 31.9598 115.464 32.8478 115.633C32.3311 115.238 31.9598 115.464 31.6795 115.756C32.4625 115.087 31.7023 114.71 32.2295 114.02C31.9317 114.131 31.2977 114.232 31.3029 114.121C31.972 113.11 30.2783 113.676 30.0418 112.989C30.8651 112.599 32.0088 113.128 31.3187 112.438C31.8757 112.018 32.7532 112.35 33.1928 112.516C32.1507 111.888 33.8777 111.342 34.0686 110.982L34.5047 111.314C34.2455 111.115 34.2525 110.955 34.256 110.789L33.1753 110.977C33.3645 110.784 33.368 110.618 33.8181 110.623C33.1105 110.421 32.0211 110.776 31.0525 110.379C31.6025 110.12 30.464 109.589 31.8967 109.501C31.4098 110.316 33.3382 109.41 33.5694 110.099C33.3978 109.966 33.4048 109.805 33.5957 109.609C33.7568 109.579 33.8934 109.637 33.9758 109.689C35.2579 108.91 32.3539 109.33 32.3871 108.522C33.1946 108.626 33.9197 108.336 33.7481 108.203C33.7323 108.53 32.3994 108.359 31.7811 108.06C32.4099 107.542 31.3135 107.496 31.387 107.225L31.091 107.534C30.2836 107.428 30.3886 107.169 30.1329 106.81C30.7617 106.78 30.5673 107.137 30.844 107.008C29.4236 106.609 32.3153 106.103 31.3572 105.542C31.9055 105.283 32.8758 105.517 33.2471 105.291C32.198 104.664 34.3541 104.612 33.4888 103.953C32.4029 104.141 32.6674 104.176 31.6095 103.711L32.3749 104.795L30.795 104.101C30.7792 104.428 31.4798 104.79 31.2924 104.986C30.4062 104.654 30.6759 104.69 29.7739 104.845C31.4045 104.398 28.8245 103.958 29.9245 103.442L32.6148 103.457C33.8129 102.68 31.2329 102.076 31.9107 101.065L31.4431 101.39C30.3746 101.254 31.2942 100.766 30.8598 100.439C31.7601 100.469 32.0859 100.266 32.6446 100.125C31.9773 100.142 32.7059 99.3853 30.9106 99.2947L32.0946 98.8446C32.5798 98.0297 29.5339 97.914 29.8387 97.1318C30.816 97.3682 31.4536 97.0111 32.1524 97.5367C32.1612 97.2752 32.3258 97.0387 31.704 97.0362C32.2663 96.8828 30.492 96.3119 31.3467 96.0704C30.9526 95.9598 30.0103 95.9246 30.0856 95.6303C30.2678 95.5976 30.5305 95.6303 30.5305 95.6303C30.0856 95.6303 29.9245 95.1701 28.9296 95.4266C31.7356 94.6218 28.7264 93.1731 31.1348 92.4739C30.8335 91.903 30.5445 91.2164 30.478 90.6958C30.7477 90.7285 30.9264 90.6958 30.8335 90.7964C31.669 90.0821 28.2535 90.3562 29.1853 89.5439C30.6391 89.1289 29.9718 89.9765 30.5218 89.7174C33.4801 89.6042 30.1189 88.7365 31.8459 88.1883L32.0211 88.3216C33.0264 87.9041 30.9001 87.3005 31.112 86.6164C31.112 86.6164 31.373 86.649 31.5587 86.6214C30.0506 86.1536 29.5514 85.2683 29.1311 84.6119C30.2888 84.8156 29.7441 84.9111 30.9194 84.7854C30.753 84.4911 29.0312 84.8709 28.7019 84.2824C29.336 84.0912 29.8895 83.6662 31.1453 83.6109L31.2136 84.1667C32.8373 83.8825 31.1576 83.4474 31.4396 83.1556L32.1489 83.1934C31.9177 82.3433 30.1294 82.3307 30.2573 81.4152L29.7196 81.5108C27.947 81.0103 30.7162 81.0908 29.3973 80.5928L31.1943 80.4419C30.76 80.1124 29.4568 79.2875 29.1188 78.6964C30.4517 79.0309 31.133 79.7226 31.9247 80.1527C31.9387 79.8257 31.7916 79.041 30.9053 78.8725C31.0787 79.0033 31.5184 79.1693 31.2416 79.3001C29.8282 78.9002 29.1328 78.372 29.1643 77.7206C32.6499 77.8363 30.0436 76.0229 32.7497 75.5501C31.4606 74.3982 33.2997 73.2639 33.093 71.9234C30.3816 72.3987 33.0159 71.531 30.2328 71.614C30.0559 71.3022 30.1014 71.1815 30.2801 71.1538L31.944 70.2056C32.755 69.9818 32.557 70.5024 33.1823 70.4747C33.396 69.7906 34.3629 70.188 35.102 69.7353C34.1054 69.8284 33.6763 69.4964 34.0563 69.1065L32.7725 69.6548C31.2907 68.6991 35.109 68.8274 33.6412 67.8641L34.517 68.1684C34.0003 67.673 34.5345 66.3425 32.2978 65.8571C32.6201 65.7691 33.3802 65.6534 33.5817 65.8722C33.918 64.6901 31.2014 63.2389 32.5781 62.3209L33.2576 62.4115C33.0615 62.1901 31.979 62.0267 32.6639 61.75C32.9459 61.7651 33.3435 61.838 33.3838 61.7374C33.1491 61.6217 32.191 61.1514 32.5886 60.8597L33.354 61.1087C34.2455 59.9543 31.4886 59.3381 31.0209 58.3723C33.0264 58.3723 33.6763 57.4669 34.002 57.0142L34.2858 57.0292C34.5328 55.6862 32.6253 54.7481 31.8372 53.5031C34.0126 52.731 32.7497 50.8875 33.9688 49.6476C33.6062 49.8362 32.4064 49.6174 32.205 49.3961C32.6113 49.1043 30.8143 48.5912 32.6534 48.6365L32.6183 48.7396C34.4224 48.5208 33.9425 47.9222 33.9915 47.4544L31.5867 47.3765C35.0845 46.1542 30.3011 44.1748 33.4345 43.5058C32.8338 43.2115 32.8408 42.8443 32.2383 42.5526L33.5274 42.5677C33.8567 41.7503 34.0196 41.3429 33.7113 40.3318L34.6326 40.538C34.7167 39.9671 30.9141 39.8187 30.8388 39.2931L32.7637 39.1346C32.7339 38.1412 34.4242 37.1352 32.6779 36.1518C32.9599 36.1669 33.5169 36.197 33.5939 36.358C33.6447 35.8902 34.8971 34.5472 32.2558 34.7182C33.9758 34.7056 32.4239 33.6921 31.6655 33.1563L32.9336 33.2393C31.3117 32.7866 30.8686 32.7715 30.4202 32.1403C30.5848 31.9894 31.4361 32.0095 31.112 32.2082C31.7776 31.7077 29.9105 31.8183 30.5866 31.2122L31.3975 31.4386C31.4956 30.9255 31.0612 30.9657 30.1154 30.6815C29.6057 30.3571 30.4359 29.7057 31.5832 29.6302C30.8843 29.5598 29.9473 29.2806 30.2783 28.9763C30.7127 28.9361 30.9807 29.0468 31.112 29.1021C31.9755 28.2419 29.6372 27.8244 30.8826 27.2334C31.3029 27.2208 31.5131 27.1831 31.6392 27.1328C31.6095 27.8169 31.5394 28.3652 31.4466 28.3149C32.6166 28.3149 32.8215 27.7641 34.4382 28.2017C33.5572 27.759 31.6392 27.002 32.1892 26.4638C32.3031 26.4386 32.4134 26.4135 32.5938 26.3934L32.7252 26.4487C32.8425 26.3255 32.7322 26.2123 32.536 26.1092C32.7287 25.9381 32.8706 25.8275 32.8881 25.664C33.8549 25.6011 33.41 25.0302 33.4556 24.7561C32.1752 24.7787 32.3819 24.419 31.3257 24.7561C31.4168 24.7133 31.4781 24.8089 31.5306 24.99C31.5692 25.0302 31.5884 25.0805 31.6638 25.1082C31.6287 25.1031 31.5884 25.0956 31.5517 25.0906C31.5884 25.2717 31.6165 25.5056 31.6375 25.7747C30.9877 25.5584 30.4394 25.3295 31.1506 25.0252C30.3273 24.8843 29.4814 24.7284 29.0855 24.6404C30.8703 24.2631 31.8354 23.5388 32.9371 23.4382C32.219 22.5982 32.4642 21.4588 30.0594 20.9307C29.7493 20.6917 30.7495 20.6565 31.126 20.566C31.3677 20.7043 31.331 20.8678 31.676 20.9432C31.0595 20.4654 31.4361 19.5298 29.7563 19.4141C30.5148 18.813 31.3029 19.7511 31.028 18.9262L31.5411 19.0368C34.2262 17.4096 27.2534 16.391 30.7004 14.5877C30.4885 14.7135 30.3904 14.7738 30.1102 14.8015C31.6305 12.7442 28.6844 10.5636 31.0945 8.53648C31.5797 7.96053 30.5077 7.89766 29.6915 7.54555L31.0665 7.4198L29.4796 6.8187C28.3183 5.96609 32.8548 5.33985 30.6566 4.26089L29.7301 4.39922C29.9052 4.0119 29.1836 3.16935 30.2485 3.23474C30.0804 3.1945 29.2852 3.10648 29.7686 2.95557L30.4885 2.943L29.2554 1.98979C29.7756 1.25037 32.1121 2.10549 32.2523 1.02653C31.9755 0.626633 30.1574 -0.115308 29.6758 0.0355954C29.6407 0.196559 29.2274 0.448064 28.5058 0.46064L28.1309 0.0934417C26.0098 0.0280503 23.8397 -0.253636 22.3579 0.644239L23.654 1.27049L22.6259 1.47169L22.5611 0.94353C21.5942 1.24282 22.4507 1.43397 23.0375 1.64523C22.491 1.69553 22.1074 1.78356 21.9043 1.9068L23.9308 2.52298C23.1005 2.59844 22.2843 2.24633 21.8254 2.6588C22.766 2.94803 23.6856 2.38214 24.3038 2.86C23.3405 3.15929 22.5558 3.07127 23.3773 3.42337C22.8308 3.47368 22.484 3.39822 22.2441 3.2599C22.8991 3.57428 22.5208 4.08986 23.6488 4.25083C22.4595 4.56269 23.9588 5.30967 21.9515 5.27697C22.4315 5.37506 23.5279 5.82777 23.6102 6.117C21.2072 5.59135 23.4684 7.19344 20.8936 7.05511C23.0533 7.44495 21.8535 8.46103 23.0515 9.15015C22.8799 9.11243 22.5331 9.03698 22.6434 8.9741C22.4647 9.36142 21.8132 9.4746 21.4051 9.72359C23.1899 9.77389 23.598 10.3775 24.6979 10.7045C22.9762 11.1798 22.6031 10.4152 20.9497 10.5661C22.3964 10.541 22.3929 11.3936 23.598 11.2301C22.5331 11.5948 23.0813 11.5445 21.603 11.7306C23.8344 11.7935 21.9813 12.0701 23.351 12.3719C22.2511 12.8976 21.2614 12.5078 21.941 13.0862C21.2562 13.3604 20.4663 12.8473 20.4663 12.8473L20.4557 12.8523ZM24.3144 26.6046H24.2881C24.2583 26.4864 24.2338 26.3858 24.2163 26.3204C24.2338 26.3808 24.2601 26.4613 24.3144 26.6046ZM24.3336 27.7616C24.3844 27.6207 24.3932 27.4447 24.3844 27.2611C24.8276 27.2208 25.2812 27.2636 25.2584 27.3818C24.9642 27.3189 24.7085 27.5905 24.3336 27.7641V27.7616ZM33.2051 25.3169C33.3855 25.5005 33.135 25.5609 32.8723 25.586C32.8495 25.5005 32.8075 25.3999 32.7182 25.2666C32.6709 25.2616 32.6148 25.2515 32.5623 25.244C32.8075 25.2616 33.0352 25.2817 33.2051 25.3169Z" fill="#9F5225"/>
<path d="M31.526 24.9877C31.498 24.96 31.4437 24.9474 31.4332 24.9122C31.3211 24.95 31.2247 24.9852 31.1459 25.0204C31.2808 25.043 31.4157 25.0657 31.547 25.0858C31.54 25.0531 31.5365 25.0179 31.5278 24.9877H31.526Z" fill="#9F5225"/>
<path d="M29.6276 129.748L29.6573 129.723C29.6065 129.743 29.5557 129.76 29.4752 129.773C29.5365 129.758 29.5768 129.758 29.6276 129.745V129.748Z" fill="#9F5225"/>
<path d="M21.8837 43.719L22.2078 43.7165L21.924 43.6159L21.8837 43.719Z" fill="#9F5225"/>
<path d="M25.2364 136.113C25.1243 136.126 25.0069 136.148 24.9089 136.196C24.9929 136.194 25.1085 136.156 25.2364 136.113Z" fill="#9F5225"/>
<path d="M24.9485 138.869L24.4931 139.259C24.7523 139.09 24.8749 138.967 24.9485 138.869Z" fill="#9F5225"/>
<path d="M24.3138 140.979C24.538 141.006 24.7079 141.014 24.8638 141.019C24.8673 141.019 24.8673 141.016 24.8725 141.014L24.3138 140.976V140.979Z" fill="#9F5225"/>
<path d="M22.809 107.366C22.802 107.339 22.7863 107.311 22.7512 107.286C22.5025 107.095 22.6006 107.226 22.809 107.366Z" fill="#9F5225"/>
<path d="M25.7999 117.372C25.567 117.267 25.3393 117.161 25.1956 117.05C25.0976 117.229 25.073 117.367 25.7999 117.372Z" fill="#9F5225"/>
<path d="M21.2691 96.1923C21.2691 96.1923 21.2788 96.1923 21.2902 96.1923C21.2853 96.1682 21.2902 96.1489 21.2902 96.1271L21.2691 96.1923Z" fill="#9F5225"/>
<path d="M25.2176 116.583C24.9637 116.762 25.018 116.91 25.1949 117.048C25.2807 116.902 25.412 116.731 25.2176 116.583Z" fill="#9F5225"/>
<path d="M23.7338 150.148L23.6795 150.249C23.7636 150.249 23.8337 150.254 23.8862 150.262L23.7338 150.148Z" fill="#9F5225"/>
<path d="M23.8859 150.257L24.0366 150.37C24.0366 150.317 24.026 150.272 23.8859 150.257Z" fill="#9F5225"/>
<path d="M24.3588 150.608L24.0366 150.37C24.033 150.453 23.9927 150.553 24.3588 150.608Z" fill="#9F5225"/>
<path d="M24.3245 147.342L23.8603 147.31C23.9566 147.327 24.1073 147.337 24.3245 147.342Z" fill="#9F5225"/>
<path d="M24.1897 146.492C24.0846 146.696 23.2001 147 23.4908 147.285L23.8604 147.312C23.1703 147.179 24.9726 146.686 24.1914 146.495L24.1897 146.492Z" fill="#9F5225"/>
<path d="M29.9279 142.938L29.5565 143.65C30.0505 143.525 30.716 143.361 30.8351 143.685C32.3099 142.788 29.7282 143.872 29.9279 142.936V142.938Z" fill="#9F5225"/>
<path d="M30.6443 140.731C30.8737 141.114 31.3624 140.726 31.6426 140.747C31.1907 140.503 31.0786 140.445 30.6443 140.731Z" fill="#9F5225"/>
<path d="M30.6488 124.769L31.8135 124.806C31.6454 124.512 31.3616 124.804 30.6488 124.769Z" fill="#9F5225"/>
<path d="M24.6289 121.714L23.9055 122.001L24.9722 122.137L24.6289 121.714Z" fill="#9F5225"/>
<path d="M32.9263 119.916L33.0944 120.044L32.6705 119.551L32.9263 119.916Z" fill="#9F5225"/>
<path d="M32.5126 93.0899L31.0781 93.1779C31.3356 93.3766 32.947 93.4194 32.5126 93.0899Z" fill="#9F5225"/>
<path d="M31.0508 81.5102C31.7671 81.3844 32.2295 81.0575 31.5237 80.8588C31.4256 81.1178 30.8651 81.3794 31.0508 81.5102Z" fill="#9F5225"/>
<path d="M33.3877 46.7901L33.8693 47.0215L33.4682 46.5839L33.3877 46.7901Z" fill="#9F5225"/>
<path d="M56.866 133.875C56.6891 133.578 56.2459 132.964 56.2915 133.145L57.0008 134.247L56.866 133.875Z" fill="#9F5225"/>
<path d="M55.2291 132.302C55.5391 132.883 56.1136 133.864 56.823 134.792C56.1609 133.705 56.4674 134.115 55.674 132.83C55.6285 132.649 55.9805 133.069 56.245 133.469C56.0698 133.177 56.4692 133.612 56.0278 132.915C55.4043 132.171 55.3149 132.231 55.7178 133.008C55.5409 132.797 55.3622 132.5 55.2291 132.299V132.302Z" fill="#9F5225"/>
<path d="M50.1656 136.271L50.2763 136.36C50.221 136.301 50.1864 136.276 50.1656 136.271Z" fill="#9F5225"/>
<path d="M47.3351 139.168C47.3351 139.115 47.2703 139 47.2038 138.902C47.2353 138.995 47.2668 139.08 47.3351 139.168Z" fill="#9F5225"/>
<path d="M46.1075 138.596C46.139 138.616 46.1583 138.621 46.1829 138.634C46.1057 138.548 46.0584 138.508 46.1075 138.596Z" fill="#9F5225"/>
<path d="M50.1664 136.272L49.8703 136.033C50.1068 136.385 50.0823 136.242 50.1664 136.272Z" fill="#9F5225"/>
<path d="M56.4687 135.631C56.4459 135.561 56.3881 135.445 56.3093 135.302C56.3303 135.365 56.3461 135.418 56.3548 135.463C56.3934 135.521 56.4284 135.571 56.4687 135.631Z" fill="#9F5225"/>
<path d="M50.6335 133.875L50.6528 133.845C50.5739 133.716 50.4794 133.563 50.369 133.39L50.6335 133.872V133.875Z" fill="#9F5225"/>
<path d="M51.3431 132.533C51.2976 132.52 51.9176 133.428 52.1838 133.833C51.9369 133.448 51.8265 133.252 51.795 133.159C51.6759 132.988 51.5305 132.787 51.3431 132.533Z" fill="#9F5225"/>
<path d="M53.7465 132.246L53.6834 132.087C53.7044 132.135 53.7202 132.185 53.7465 132.246Z" fill="#9F5225"/>
<path d="M49.9147 134.523C49.8202 134.393 49.7343 134.277 49.6835 134.212C49.7624 134.325 49.8394 134.428 49.9147 134.523Z" fill="#9F5225"/>
<path d="M31.6796 174.222C31.6364 174.158 31.607 174.12 31.5689 174.063C31.626 174.16 31.6692 174.225 31.6796 174.222Z" fill="#9F5225"/>
<path d="M27.6283 171.139L27.6073 171.071C27.4899 170.898 27.3743 170.729 27.2587 170.563L27.6283 171.139Z" fill="#9F5225"/>
<path d="M44.5498 138.527C44.5498 138.527 44.5585 138.534 44.5655 138.539C44.5147 138.408 44.5147 138.441 44.5498 138.527Z" fill="#9F5225"/>
<path d="M38.0561 149.177C38.6954 149.869 38.6463 150.394 39.3872 151.116C39.1315 150.782 38.5185 149.559 38.0561 149.177Z" fill="#9F5225"/>
<path d="M56.3663 135.544C56.363 135.568 56.3562 135.592 56.3394 135.6C56.3747 135.607 56.3815 135.59 56.3663 135.544Z" fill="#9F5225"/>
<path d="M39.3864 151.115L39.3916 151.123L39.4635 151.191C39.432 151.161 39.4127 151.141 39.3864 151.115Z" fill="#9F5225"/>
<path d="M43.1768 141.575C43.2906 141.729 43.3817 141.839 43.4693 141.943C43.4045 141.852 43.3222 141.744 43.1768 141.575Z" fill="#9F5225"/>
<path d="M45.37 140.985L45.2558 140.913C45.325 140.975 45.3544 140.99 45.37 140.985Z" fill="#9F5225"/>
<path d="M43.3889 143.816C43.3241 143.774 43.2313 143.658 43.2908 143.811C43.3259 143.854 43.3504 143.884 43.3749 143.912C43.2978 143.776 43.2698 143.703 43.3889 143.816Z" fill="#9F5225"/>
<path d="M42.6904 144.833C42.7412 144.896 42.7833 144.941 42.8288 144.997C42.8235 144.969 42.8218 144.944 42.8165 144.916L42.6887 144.833H42.6904Z" fill="#9F5225"/>
<path d="M33.5158 170.728C33.3249 170.497 33.12 170.233 32.9203 169.966C33.3774 170.59 33.4317 170.967 33.5158 170.728Z" fill="#9F5225"/>
<path d="M56.1149 135.124C56.2691 135.356 56.3409 135.479 56.3637 135.542C56.3637 135.519 56.3602 135.492 56.3532 135.459C56.2621 135.323 56.1745 135.195 56.1149 135.124Z" fill="#9F5225"/>
<path d="M48.3036 150.955L48.0987 150.983C48.1897 151.026 48.2633 151.013 48.3036 150.955Z" fill="#9F5225"/>
<path d="M38.4659 163.355L38.515 163.501C38.5395 163.509 38.5307 163.468 38.4659 163.355Z" fill="#9F5225"/>
<path d="M47.8607 151.59C47.6189 151.301 47.4701 151.147 47.365 151.059C47.4088 151.137 47.4438 151.202 47.5139 151.311L47.8607 151.592V151.59Z" fill="#9F5225"/>
<path d="M32.9128 169.953L32.9203 169.964C32.9203 169.964 32.9165 169.959 32.9128 169.953Z" fill="#9F5225"/>
<path d="M33.6662 173.145C33.7905 173.016 32.9095 171.915 32.4594 171.203C32.3525 170.685 33.125 171.99 33.5891 172.534C33.4507 172.106 32.7554 170.934 32.8465 170.896C32.9866 171.085 33.0479 171.14 33.2038 171.402C32.6328 170.34 33.421 170.999 32.6958 169.676C32.7764 169.77 32.8482 169.865 32.913 169.951C32.4856 169.382 32.0635 168.784 31.7675 168.351C31.8008 168.263 31.3349 167.476 31.8919 168.225C31.8463 168.245 32.0618 168.56 32.2159 168.821L32.032 168.414C32.8517 169.46 32.2317 168.897 32.8044 169.719C32.6503 169.219 32.1231 168.135 32.4173 168.343C33.1898 169.407 32.4979 168.96 33.2703 169.785L32.8657 169.536C34.1496 171.125 32.7116 169.515 34.0708 171.236C34.4421 171.331 33.8553 170.439 34.2284 170.537C33.8413 169.883 33.5944 169.659 33.2073 169.005C32.6661 167.609 35.2811 171.495 34.4316 169.82C33.9674 169.038 33.0269 167.639 33.6452 168.203L34.4631 169.488C34.6943 169.397 33.3159 167.599 34.0463 168.205C34.3545 168.728 34.2144 168.779 34.3388 168.892C35.1147 169.719 33.9237 168.092 34.0007 167.984L34.7749 169.05C34.8117 168.653 34.4369 167.619 34.4736 167.171C34.6891 167.508 34.8975 167.893 35.169 168.167C35.0096 167.31 35.7295 167.629 36.3898 167.971L35.8153 166.915C35.8416 166.897 36.1463 167.29 36.2514 167.501C36.5825 167.74 35.8398 166.897 35.6226 166.472C35.6226 166.339 36.0605 166.922 36.2269 167.247C35.817 166.241 35.4457 164.936 36.2987 165.723L36.4634 166.045C36.8487 166.256 35.2566 163.927 35.9782 164.644L36.0728 164.84C36.6157 164.875 36.3022 163.605 37.4863 164.739C36.5807 163.331 38.1623 164.976 36.8645 163.064C37.6632 163.789 37.8558 164.186 38.5021 164.516C38.6177 164.523 37.7647 163.218 37.6964 162.924L38.3848 163.907L37.7577 162.737L38.6283 163.847L38.5162 163.502C38.4496 163.479 38.1536 163.137 37.9592 162.848C37.749 162.257 38.6843 163.185 39.0381 163.686L38.6948 162.509C38.9663 162.913 39.0206 163.107 39.166 163.404C38.5915 162.214 39.9121 164.41 39.3867 163.321C39.215 163.12 38.9856 162.72 38.8489 162.519C39.3219 163.032 39.4585 162.848 39.3814 162.456L39.8368 163.162C40.1346 163.082 39.9822 162.302 40.1889 162.031C39.8964 161.814 39.0924 160.612 39.0714 160.416L39.8193 161.425C39.4077 160.728 39.4847 161.118 39.0136 160.22C39.1712 160.235 39.8893 161.334 40.082 161.734L39.9209 161.243C40.1433 161.548 40.2361 161.741 40.5076 162.146C40.0925 161.445 41.3922 162.969 40.6618 161.769L40.8825 162.071C41.0874 161.794 40.9263 161.306 41.0506 161.025C40.4271 160.119 40.6285 160.23 40.1696 159.433C40.4884 159.548 41.1119 160.069 41.203 159.787C40.9911 159.196 40.7021 158.982 40.3745 158.384C40.9525 159.194 41.0419 158.912 41.3781 159.606C41.457 159.226 41.4832 159.128 41.2363 158.152C40.9788 157.851 40.8509 157.743 40.6705 157.443C40.6162 157.252 40.9998 157.66 41.2678 158.059L41.3168 158.158C40.7038 156.578 43.543 159.742 42.5464 157.755L42.5937 157.856L42.1751 156.676C42.366 156.686 42.5482 157.373 42.9703 157.78C42.2346 156.1 43.4519 157.486 42.9948 156.319C44.8181 158.54 43.3661 155.444 44.629 156.721L44.2209 156.168C43.8793 155.539 44.5064 156.41 44.6325 156.49C44.319 156.055 44.2244 156.052 44.0387 155.7C43.9687 154.428 45.461 155.323 46.2386 155.235C46.4979 155.167 44.2734 152.164 45.4137 153.246L46.095 154.382C45.5205 152.67 46.7571 153.52 46.3104 152.008C46.4628 152.277 46.6835 152.597 46.6502 152.634C47.2493 153.311 46.913 152.333 46.4768 151.704C46.5732 151.709 46.8832 152.255 47.1337 152.534C47.5137 152.896 46.6117 151.322 47.1774 152.038C47.2703 152.154 47.3333 152.313 47.3631 152.39C47.1459 151.958 47.6241 152.207 46.9673 151.377C47.3754 151.636 46.9095 150.67 47.3666 151.065C46.7361 149.989 47.8938 151.264 46.9357 149.835C47.9359 151.294 47.9481 150.718 47.5453 149.933C47.8255 150.406 47.9236 150.298 48.3177 150.944C48.386 150.806 48.2739 150.429 47.7414 149.707C49.0989 151.224 47.0741 147.876 48.7048 149.976C48.407 148.849 48.2651 147.999 48.2476 147.345C49.246 148.801 48.1058 147.836 49.1707 149.34C48.964 148.447 48.2214 147.036 48.6697 147.089C48.8607 147.209 49.0761 147.758 49.2302 148.032C49.0236 147.139 49.7224 147.587 49.3598 146.535C49.4527 146.671 49.535 146.847 49.5928 146.983C49.5963 146.883 49.824 147.074 49.3633 146.422L49.4527 146.651C48.731 145.781 48.2108 144.453 47.8675 143.942C49.1164 145.912 48.379 144.154 49.9361 146.671C49.8748 146.513 49.6874 146.158 49.3756 145.728C49.5 145.806 49.6909 146.045 50.0027 146.596C49.8836 146.053 49.3511 145.421 49.4807 145.265C49.7014 145.585 49.7627 145.741 50.0114 146.133C49.6401 145.426 49.2688 144.722 49.556 144.848C49.6839 145.049 49.8678 145.28 49.8363 145.318C49.9413 144.976 48.9798 143.248 49.584 143.578C50.4896 145.039 49.9641 143.94 50.8066 145.122L50.6595 144.621L50.2146 144.101C50.3179 143.995 49.789 143.012 50.1375 143.294L50.4143 143.88L50.423 143.414L50.0132 143.095C49.6734 142.35 48.95 141.596 49.3003 141.759C49.3598 141.915 49.3984 141.646 49.9361 142.285C49.9361 142.285 49.9361 142.285 49.9378 142.288C49.7172 141.845 49.4825 141.377 49.7539 141.581C50.0377 141.938 50.6612 142.921 50.8486 143.16C50.1971 142.099 50.8626 142.587 50.1761 141.442C50.3319 141.719 50.7681 142.348 50.8627 142.466L50.3337 141.603C50.5561 141.805 50.649 141.92 50.9905 142.431C51.2182 142.403 49.8958 140.972 50.4966 141.415C50.5316 141.498 50.6209 141.611 50.6822 141.767C51.0658 141.895 50.6069 140.844 51.0203 141.05C51.8978 142.194 51.1079 141.515 51.8593 142.464C51.9031 141.966 51.2585 140.441 51.6456 140.454L51.5177 140.371C50.3617 138.636 52.2429 141.007 51.7805 140.069C51.8453 140.228 52.4057 141.055 52.2814 140.856C52.6002 140.944 52.2551 140.059 52.0782 139.244L52.3585 139.717C52.7053 139.996 52.7158 139.654 52.9365 139.735C52.658 139.264 52.7543 139.267 52.2831 138.673C54.2659 140.794 51.84 136.646 53.5057 138.394C53.4829 138.437 53.7071 138.867 53.7299 138.837L53.6423 138.16C53.1116 137.441 53.306 137.748 52.8646 137.23C52.5827 136.757 52.4005 136.339 52.4478 136.271C52.7035 136.885 53.2763 137.459 53.6003 137.818C53.4356 137.599 53.2745 137.333 53.1116 137.107C54.1275 138.279 52.0922 135.595 52.8454 136.284L53.1081 136.684C53.0205 136.412 52.7105 135.831 52.8436 135.864C53.4619 136.686 53.0678 136.342 53.5547 137.051C53.5985 136.89 52.5791 135.21 53.243 135.962C53.3761 136.249 53.3323 136.319 53.4637 136.604C54.2396 137.499 54.0714 137.23 54.2378 137.308L54.2168 137.293L54.6652 137.559L54.441 137.335C52.9837 134.966 54.3552 136.644 53.4672 134.996C54.3044 136.561 54.0031 135.826 54.6687 136.81C54.8894 137.031 55.1504 137.26 55.3255 137.554C54.8421 136.684 55.858 138.022 55.1486 136.754C55.3693 137.059 55.2362 136.689 55.7687 137.494C55.6776 137.134 55.3711 136.978 55.1048 136.576C54.4848 135.331 56.2959 137.451 55.4552 135.733C55.1889 134.911 54.4848 133.817 54.2624 133.09C54.6582 133.52 55.0155 134.285 55.0155 134.285C55.4131 134.634 55.4131 134.466 55.2362 134.003C55.4114 134.297 55.5865 134.506 55.8527 134.823C55.8545 134.657 55.1013 133.631 55.4989 133.98C55.7284 134.347 56.0997 134.928 56.3134 135.318C56.182 134.933 55.8457 134.252 55.7214 133.867C56.119 134.383 56.2521 134.755 56.4745 135.145C56.3852 134.785 56.3397 134.353 55.7652 133.457L55.4989 133.223C55.4989 133.138 56.0297 133.94 56.1172 134.129C56.5183 134.903 55.8107 133.973 55.5883 133.666L55.5007 133.392C54.173 131.636 55.5007 133.98 55.3238 134.021L54.4393 132.627L55.1031 133.882C54.8386 133.568 54.3062 132.846 54.2186 132.574C53.6861 132.021 54.4831 133.14 53.9086 132.499C53.8227 132.396 53.7807 132.325 53.7492 132.263L53.9541 132.763C53.7737 132.464 53.2868 131.84 53.4654 131.968C52.8016 131.385 53.9523 133.266 53.2027 132.325L53.1572 132.227C53.292 132.934 53.821 133.231 54.4848 134.569L52.7158 132.288L53.3796 133.291C53.3358 133.284 53.2482 133.261 52.9837 132.861C53.3813 133.628 53.292 133.269 53.6914 133.958C52.982 133.196 53.7369 134.725 52.6317 133.196C53.1169 133.985 53.1169 133.648 53.3813 134.3C52.1886 132.665 53.4707 134.745 52.8559 134.091C52.2796 133.191 52.6737 133.538 52.0554 132.884C53.024 134.415 51.6754 132.791 51.8015 133.168C52.6089 134.335 51.9906 133.867 52.1448 134.418C51.8803 134.018 51.4844 134.091 51.0851 133.822L50.952 133.623C51.7507 134.828 51.4844 134.765 51.5738 135.122C51.0868 134.413 50.9082 134.116 50.733 133.739L50.6612 133.852C50.9064 134.254 51.0203 134.486 51.0658 134.692L50.4738 133.787C50.4073 133.98 50.9923 135.112 50.4545 134.71C51.0185 135.54 52.1465 136.845 52.3917 137.587C52.0782 137.152 51.5457 136.4 51.4547 136.168C51.4827 136.241 51.6701 136.596 51.5142 136.44L51.0501 135.615C50.7628 135.371 51.4529 136.282 51.3583 136.279C50.9187 135.645 51.0098 135.879 50.6665 135.366C50.6367 135.288 50.8889 135.567 50.7348 135.296C50.6034 135.258 50.2776 134.976 49.9238 134.529C50.1796 134.881 50.5159 135.379 50.5351 135.517C50.4668 135.708 49.9711 134.805 49.6856 134.564C49.9676 135.039 49.5858 134.674 50.2426 135.623C50.2093 135.66 49.8976 135.228 49.7084 134.986C49.9466 135.479 49.549 135.454 50.3074 136.375L50.367 136.422C50.3775 136.445 50.3757 136.45 50.388 136.475C50.8714 137.66 49.6611 136.448 49.7732 137.094L49.5543 136.777C49.7049 137.283 49.4789 137.313 49.88 138.097C49.8503 138.14 49.4071 137.62 49.1584 137.227C49.246 137.574 49.486 137.944 49.0113 137.582C48.7048 136.918 48.6452 137.132 48.8099 137.064C48.5191 136.935 48.1443 136.46 48.6382 137.479C48.111 136.616 47.8535 136.568 47.9726 136.878L48.4473 137.358C48.4753 137.554 48.379 137.549 48.2844 137.547L47.568 136.445C46.4611 135.444 48.7328 139.181 47.0671 137.235C47.5313 138.057 47.5435 137.599 48.1022 138.54C47.9078 138.533 46.7448 137.144 46.7133 137.184C46.1738 136.78 47.6766 138.915 47.2598 138.704C47.5418 139.058 48.2634 140.049 48.4123 140.552C48.2196 140.547 47.1862 139.126 47.0338 138.734C47.0338 138.668 47.1302 138.774 47.2177 138.905C47.1512 138.721 47.0794 138.502 46.7536 138.145L47.0058 138.543C46.6888 138.223 46.5872 138.45 46.1843 137.781C46.3647 138.246 46.5889 138.447 46.7781 138.57C46.2737 138.193 46.5784 138.824 46.1948 138.636C46.3612 138.817 46.6888 139.237 46.6677 139.262C46.1581 139.053 47.0899 140.097 47.0811 140.441C46.6082 139.964 46.144 139.023 46.356 139.687C46.0074 139.405 45.6379 138.701 45.4522 138.349C45.848 139.244 44.904 138.173 44.7463 138.13L44.5922 137.738C44.6833 137.972 44.65 138.007 44.6185 138.05L45.1825 138.761C45.0546 138.678 45.0231 138.719 44.8041 138.402C45.1142 138.953 45.7114 139.627 46.1143 140.409C45.799 140.089 46.2596 141.027 45.5415 140.044C45.9269 140.175 44.8199 139.056 44.8322 138.714C44.8917 138.87 44.8584 138.905 44.7306 138.822C44.6465 138.716 44.5904 138.605 44.5589 138.535C43.79 137.836 45.2875 139.767 45.1264 139.954C44.7498 139.357 44.3417 138.925 44.403 139.081C44.4696 139.008 45.0914 139.989 45.3401 140.502C44.939 140.195 45.468 140.977 45.3821 140.995L45.5836 141.123C45.9601 141.719 45.8621 141.712 45.9216 141.983C45.6081 141.548 45.7692 141.593 45.6098 141.432C46.2334 142.534 44.7253 140.633 45.0931 141.453C44.7779 141.133 44.3452 140.391 44.1228 140.19C44.5221 141.09 43.4572 139.586 43.7637 140.369C44.3295 141.083 44.2051 140.887 44.6412 141.752L44.4626 140.934L45.1106 142.225C45.1772 142.152 44.9005 141.566 45.0266 141.644C45.4014 142.353 45.2753 142.154 45.7447 142.748C44.8654 141.719 46.0495 143.646 45.4172 143.007L44.1035 141.11C43.3766 140.469 44.5309 142.441 44.0159 142.225L44.3032 142.469C44.8024 143.256 44.2629 142.735 44.417 143.125C43.9827 142.484 43.7847 142.308 43.487 141.95C43.8163 142.416 43.3241 142.099 44.1858 143.384L43.5255 142.67C43.1402 142.542 44.6115 144.712 44.3207 144.699C43.8846 143.952 43.508 143.595 43.261 142.969C43.2085 143.029 43.0859 142.977 43.3906 143.414C43.0876 143.06 43.8531 144.455 43.3906 143.917C43.564 144.224 44.0177 144.896 43.9284 144.918C43.8338 144.798 43.7112 144.606 43.7112 144.606C43.9284 144.918 43.9249 145.152 44.4573 145.783C42.9388 144.02 44.1491 146.51 42.8442 144.999C42.888 145.358 42.9055 145.741 42.8442 145.922C42.7181 145.723 42.6252 145.607 42.6883 145.648C42.1506 145.245 43.8723 147.577 43.268 147.132C42.4816 146.219 42.9615 146.468 42.6445 146.148C41.175 144.098 42.6638 146.686 41.7197 145.615L41.6584 145.459C41.0909 144.86 42.0227 146.513 41.795 146.54C41.795 146.54 41.6724 146.349 41.5778 146.226C42.2311 147.408 42.317 147.989 42.4028 148.454C41.8738 147.587 42.1576 147.946 41.5586 147.152C41.5866 147.345 42.4991 148.457 42.5534 148.842C42.2084 148.447 41.8616 148.168 41.2363 147.3L41.3028 147.109C40.4568 146.04 41.1995 147.335 41.0086 147.212L40.6688 146.704C40.6285 147.086 41.5008 148.346 41.2731 148.495L41.5533 148.847C42.331 150.223 40.9893 148.256 41.5445 149.31L40.6372 148.085C40.7896 148.475 41.2801 149.606 41.3379 149.996C40.7458 148.973 40.5374 148.314 40.2274 147.647C40.1626 147.723 40.0908 148.029 40.4954 148.696C40.4341 148.54 40.2484 148.188 40.4078 148.349C41.0278 149.445 41.2713 150.072 41.1399 150.217C39.455 147.738 40.4025 150.041 38.9926 148.261C39.4164 149.465 38.3112 148.467 38.1693 148.962C39.5828 150.743 38.1361 149.118 39.5145 151.052C39.5443 151.259 39.5005 151.256 39.4077 151.138L38.4216 150.215C37.9837 149.704 38.1746 149.707 37.8646 149.274C37.6369 149.302 37.234 148.52 36.7909 148.117C37.2953 148.794 37.446 149.181 37.1902 149.015L37.9189 149.775C38.4706 151.065 36.6263 148.346 37.1692 149.629L36.7962 148.935C36.959 149.428 36.4581 149.395 37.4652 151.095C37.2918 150.892 36.8977 150.386 36.8399 150.19C36.4616 150.26 37.53 152.546 36.6893 151.817L36.3723 151.317C36.4283 151.513 36.9293 152.315 36.5439 151.905C36.4091 151.704 36.2269 151.405 36.1901 151.402C36.2847 151.598 36.6683 152.393 36.4213 152.189L36.092 151.586C35.4475 151.259 36.6858 153.356 36.7401 153.935C35.7593 152.524 35.2758 152.302 35.0359 152.192L34.8993 151.988C34.5349 152.162 35.3004 153.749 35.4615 154.624C34.2564 153.296 34.5419 154.662 33.7222 154.126C33.9342 154.332 34.4806 155.232 34.5402 155.431C34.288 155.22 35.0762 156.618 34.1829 155.313H34.2197C33.2966 154.101 33.4227 154.591 33.3159 154.679L34.4789 156.389C32.5452 154.247 34.5297 158.125 32.8745 156.095C33.1162 156.596 33.0461 156.684 33.2878 157.182L32.659 156.271C32.3508 156.251 32.1967 156.244 32.1651 156.721L31.7518 156.02C31.6081 156.108 33.442 158.819 33.3842 159.01L32.4138 157.697C32.2492 157.976 31.2403 157.048 31.9164 158.532C31.7815 158.329 31.5136 157.931 31.5048 157.836C31.3962 157.921 30.5397 157.39 31.8639 159.201C31.0196 157.994 31.5959 159.35 31.8709 160.021L31.2648 159.108C31.976 160.366 32.1914 160.68 32.2965 161.16C32.1879 161.083 31.7745 160.481 31.9707 160.657C31.5556 160.32 32.4892 161.603 32.0478 161.286L31.6922 160.657C31.5521 160.723 31.771 161.017 32.1826 161.754C32.3736 162.197 31.8498 161.782 31.2736 160.994C31.6029 161.505 32.011 162.234 31.7938 162.081C31.5749 161.787 31.4628 161.568 31.4085 161.462C30.8305 161.077 31.9006 162.83 31.1825 162.109C30.9741 161.817 30.8637 161.679 30.7937 161.603C30.932 161.447 31.0652 161.354 31.1019 161.432C30.5292 160.61 30.3295 160.61 29.6167 159.36C29.9687 160.094 30.7692 161.638 30.4031 161.392C30.3435 161.319 30.284 161.249 30.1929 161.125L30.1386 161.02C30.0598 160.969 30.0931 161.075 30.1701 161.241C30.0458 161.15 29.9564 161.077 29.9179 161.108C29.4327 160.444 29.5483 160.906 29.4765 160.944C30.1071 161.837 29.9407 161.787 30.5187 162.441C30.4661 162.388 30.4539 162.32 30.4609 162.234C30.4504 162.197 30.4486 162.172 30.4171 162.111C30.4329 162.136 30.4521 162.167 30.4679 162.194C30.4819 162.121 30.5117 162.041 30.5502 161.958C30.8287 162.471 31.0564 162.913 30.6536 162.493C31.0301 163.11 31.4172 163.743 31.5959 164.045C30.6536 162.888 30.051 162.398 29.494 161.651C29.6937 162.373 29.3679 162.496 30.4504 164.324C30.559 164.604 30.0633 163.912 29.8619 163.668C29.769 163.462 29.8163 163.447 29.6604 163.183C29.8759 163.741 29.5221 163.718 30.3243 164.928C29.8443 164.551 29.6289 163.753 29.6131 164.161L29.3819 163.771C27.774 162.305 31.0039 167.471 28.9896 165.517C29.1157 165.632 29.1753 165.685 29.3171 165.876C28.2014 165.34 29.2506 167.979 27.704 166.809C27.3624 166.618 27.8756 167.388 28.2119 168.052L27.5166 167.119L28.1839 168.391C28.599 169.43 26.2642 166.402 27.1453 168.228L27.6234 168.844C27.4675 168.821 27.669 169.546 27.1593 168.781C27.2346 168.909 27.6077 169.49 27.3449 169.191L26.9911 168.688L27.422 169.802C27.0332 169.629 26.0453 167.765 25.7808 167.946C25.8439 168.245 26.6005 169.714 26.8633 170.013C26.9105 169.996 27.1575 170.222 27.5131 170.725L27.6304 171.085C28.6568 172.591 29.6692 174.191 30.5555 175.001L30.0335 173.927L30.573 174.598L30.5099 174.782C31.0371 175.383 30.6536 174.734 30.4031 174.266C30.6798 174.639 30.883 174.885 31.0056 174.996L30.1246 173.411C30.545 173.975 30.8813 174.641 31.179 174.855C30.7709 174.118 30.2192 173.62 30.002 173.062C30.5274 173.663 30.897 174.236 30.5572 173.567C30.834 173.939 30.9898 174.201 31.0827 174.407C30.8182 173.867 31.0967 173.997 30.5747 173.162C31.214 173.917 30.615 172.669 31.5906 174.09C31.3734 173.728 30.9198 172.84 30.9303 172.707C32.011 174.533 31.1948 172.526 32.4296 174.375C31.4417 172.755 32.2142 173.336 31.7518 172.315C31.8288 172.446 31.9847 172.71 31.9199 172.647C32.0775 172.672 32.4173 173.099 32.6626 173.323C31.7973 172.056 31.708 171.613 31.2281 170.755C32.1564 171.842 32.2019 172.302 33.0374 173.426C32.3245 172.415 32.4804 172.197 31.8604 171.392C32.4471 172.046 32.1704 171.673 32.927 172.664C31.8463 171.08 32.8027 172.31 32.1879 171.268C32.8219 171.905 33.2353 172.702 33.0076 172.076C33.3929 172.486 33.6854 173.175 33.6854 173.175L33.6662 173.145ZM34.2617 166.865C34.2617 166.865 34.2722 166.88 34.274 166.882C34.267 166.933 34.2617 166.978 34.2582 167.008C34.2599 166.98 34.2617 166.94 34.2617 166.865ZM34.4614 166.55C34.4106 166.55 34.3755 166.59 34.3458 166.646C34.1216 166.344 33.9079 166.015 33.9394 165.999C34.0725 166.223 34.2459 166.331 34.4614 166.55ZM29.6762 160.949C29.6202 160.773 29.755 160.934 29.8881 161.113C29.8829 161.15 29.8864 161.208 29.9057 161.304C29.9284 161.339 29.9529 161.379 29.9792 161.42C29.8619 161.243 29.7533 161.077 29.678 160.949H29.6762Z" fill="#9F5225"/>
<path d="M30.4405 162.214C30.4493 162.239 30.4738 162.282 30.4721 162.3C30.5334 162.368 30.5877 162.428 30.6332 162.473C30.5701 162.373 30.5088 162.272 30.4493 162.174C30.4475 162.189 30.4423 162.199 30.4405 162.214Z" fill="#9F5225"/>
<path d="M50.2979 136.368L50.2786 136.353C50.3067 136.383 50.3347 136.414 50.3768 136.469C50.3435 136.429 50.3242 136.401 50.2962 136.368H50.2979Z" fill="#9F5225"/>
<path d="M38.5439 164.135L38.3845 163.909L38.5054 164.135H38.5439Z" fill="#9F5225"/>
<path d="M53.596 137.807C53.6538 137.882 53.7151 137.958 53.7712 138.016C53.7291 137.958 53.6661 137.885 53.596 137.807Z" fill="#9F5225"/>
<path d="M54.2348 137.296L54.529 137.515C54.3714 137.377 54.2891 137.322 54.2348 137.296Z" fill="#9F5225"/>
<path d="M54.9274 137.193C54.8223 137.027 54.7417 136.906 54.6664 136.795C54.6646 136.795 54.6646 136.795 54.6611 136.79L54.9274 137.193Z" fill="#9F5225"/>
<path d="M49.5901 146.975C49.5901 146.975 49.5901 147.005 49.6041 147.038C49.6917 147.262 49.6672 147.158 49.5901 146.975Z" fill="#9F5225"/>
<path d="M49.9336 142.272C50.0282 142.463 50.121 142.649 50.1718 142.78C50.2524 142.803 50.2892 142.785 49.9336 142.272Z" fill="#9F5225"/>
<path d="M48.3213 150.955C48.3213 150.955 48.3169 150.949 48.3124 150.942C48.3109 150.951 48.305 150.953 48.302 150.957H48.3213V150.955Z" fill="#9F5225"/>
<path d="M50.0763 142.89C50.2339 143.023 50.2339 142.945 50.1709 142.784C50.1026 142.762 50.008 142.714 50.0763 142.89Z" fill="#9F5225"/>
<path d="M56.8681 135.226L56.9137 135.238C56.8716 135.18 56.84 135.13 56.8155 135.09L56.8699 135.226H56.8681Z" fill="#9F5225"/>
<path d="M56.8113 135.087L56.7569 134.951C56.7482 134.964 56.7447 134.984 56.8113 135.087Z" fill="#9F5225"/>
<path d="M56.6452 134.666L56.7608 134.955C56.7766 134.935 56.8151 134.937 56.6452 134.666Z" fill="#9F5225"/>
<path d="M56.0713 135.535L56.2937 135.87C56.2499 135.797 56.1781 135.689 56.0713 135.535Z" fill="#9F5225"/>
<path d="M55.9836 135.85C56.0712 135.872 56.5599 136.413 56.4688 136.136L56.2937 135.87C56.6072 136.391 55.6351 135.248 55.9836 135.85Z" fill="#9F5225"/>
<path d="M52.5355 132.737L52.8455 132.812C52.581 132.498 52.2255 132.073 52.2255 131.904C51.341 131.1 52.8 132.634 52.5337 132.737H52.5355Z" fill="#9F5225"/>
<path d="M51.7852 132.803C51.7414 132.541 51.4332 132.3 51.3001 132.096C51.477 132.476 51.5225 132.571 51.7852 132.803Z" fill="#9F5225"/>
<path d="M48.8962 136.945L48.3322 136.115C48.3602 136.309 48.5529 136.432 48.8962 136.945Z" fill="#9F5225"/>
<path d="M51.2917 141.975L51.6981 142.408L51.2006 141.623L51.2917 141.975Z" fill="#9F5225"/>
<path d="M46.9045 136.605L46.8467 136.457L46.9641 136.88L46.9045 136.605Z" fill="#9F5225"/>
<path d="M42.2609 143.858L42.979 144.844C42.8897 144.612 42.1085 143.468 42.2609 143.858Z" fill="#9F5225"/>
<path d="M40.8844 147.886C40.5113 147.415 40.2258 147.174 40.5341 147.722C40.6286 147.722 40.9509 148.049 40.8844 147.886Z" fill="#9F5225"/>
<path d="M33.467 155.255L33.2743 154.858L33.3899 155.253L33.467 155.255Z" fill="#9F5225"/>
<path d="M1.59861 129.616C1.39193 129.87 0.964556 130.507 1.09067 130.441L1.85783 129.423L1.59861 129.616Z" fill="#9F5225"/>
<path d="M0.501594 131.962C0.906196 131.517 1.58929 130.692 2.2356 129.674C1.47894 130.624 1.76444 130.184 0.869414 131.324C0.743304 131.389 1.03581 130.883 1.3143 130.504C1.11112 130.755 1.41414 130.182 0.928966 130.816C0.410515 131.711 0.452551 131.839 0.993773 131.261C0.846644 131.515 0.639965 131.771 0.499843 131.962H0.501594Z" fill="#9F5225"/>
<path d="M3.26434 139.23L3.3266 139.071C3.28509 139.15 3.2678 139.2 3.26434 139.23Z" fill="#9F5225"/>
<path d="M5.28346 143.298C5.24667 143.298 5.1661 143.391 5.0978 143.487C5.1626 143.441 5.22215 143.396 5.28346 143.298Z" fill="#9F5225"/>
<path d="M4.88366 145.063C4.89769 145.018 4.90119 144.99 4.90996 144.955C4.85033 145.066 4.82227 145.134 4.88366 145.063Z" fill="#9F5225"/>
<path d="M3.26501 139.235L3.09862 139.66C3.34383 139.321 3.244 139.356 3.26501 139.235Z" fill="#9F5225"/>
<path d="M2.81886 130.18C2.76982 130.213 2.68925 130.296 2.58941 130.409C2.6332 130.379 2.66998 130.356 2.70151 130.343C2.74179 130.288 2.77682 130.238 2.81886 130.18Z" fill="#9F5225"/>
<path d="M1.59568 138.562L1.57466 138.535C1.48533 138.648 1.37849 138.783 1.25763 138.942L1.59392 138.562H1.59568Z" fill="#9F5225"/>
<path d="M0.662639 137.544C0.653881 137.609 1.28618 136.719 1.56818 136.337C1.30019 136.691 1.16357 136.85 1.09877 136.895C0.979665 137.066 0.839543 137.275 0.662639 137.544Z" fill="#9F5225"/>
<path d="M0.465702 134.095L0.355215 134.186C0.388537 134.156 0.423612 134.133 0.465702 134.095Z" fill="#9F5225"/>
<path d="M2.04881 139.599C1.95773 139.735 1.87716 139.858 1.83162 139.931C1.91044 139.818 1.98225 139.707 2.04881 139.599Z" fill="#9F5225"/>
<path d="M29.6957 165.779C29.6508 165.841 29.6248 165.883 29.5851 165.938C29.6525 165.856 29.6975 165.794 29.6957 165.779Z" fill="#9F5225"/>
<path d="M27.5456 171.602L27.4983 171.632C27.3774 171.801 27.2601 171.967 27.1445 172.133L27.5456 171.602Z" fill="#9F5225"/>
<path d="M4.83824 147.301C4.83824 147.301 4.8435 147.289 4.84701 147.278C4.75581 147.351 4.77861 147.351 4.83824 147.301Z" fill="#9F5225"/>
<path d="M12.2538 156.623C12.7355 155.705 13.1016 155.775 13.6043 154.711C13.3713 155.079 12.5201 155.959 12.2538 156.623Z" fill="#9F5225"/>
<path d="M2.75814 130.329C2.77496 130.334 2.79179 130.344 2.79683 130.368C2.80188 130.317 2.7901 130.308 2.75814 130.329Z" fill="#9F5225"/>
<path d="M13.6082 154.714L13.6135 154.707L13.6608 154.603C13.6398 154.649 13.6258 154.676 13.6082 154.714Z" fill="#9F5225"/>
<path d="M6.96138 149.273C7.06822 149.11 7.14529 148.979 7.2171 148.853C7.15405 148.946 7.07873 149.065 6.96138 149.273Z" fill="#9F5225"/>
<path d="M6.55053 146.123L6.50038 146.287C6.54362 146.188 6.55399 146.146 6.55053 146.123Z" fill="#9F5225"/>
<path d="M8.51909 148.966C8.48932 149.059 8.40875 149.192 8.51559 149.107C8.54537 149.056 8.56638 149.021 8.58565 148.986C8.49107 149.097 8.44027 149.137 8.51909 148.966Z" fill="#9F5225"/>
<path d="M9.22721 149.969C9.271 149.896 9.30253 149.836 9.34106 149.771C9.3218 149.778 9.30428 149.781 9.28502 149.788L9.22721 149.972V149.969Z" fill="#9F5225"/>
<path d="M27.2609 163.144C27.0997 163.418 26.9158 163.712 26.7302 163.999C27.1645 163.343 27.4273 163.265 27.2609 163.144Z" fill="#9F5225"/>
<path d="M2.46889 130.689C2.63003 130.467 2.71585 130.364 2.75964 130.331C2.74388 130.331 2.72461 130.336 2.70184 130.346C2.60726 130.477 2.51793 130.603 2.46889 130.689Z" fill="#9F5225"/>
<path d="M13.4937 141.909L13.513 142.203C13.5428 142.073 13.534 141.967 13.4937 141.909Z" fill="#9F5225"/>
<path d="M22.1322 156.033L22.2339 155.963C22.2392 155.927 22.2111 155.94 22.1322 156.033Z" fill="#9F5225"/>
<path d="M13.9356 142.55C13.7342 142.897 13.6273 143.11 13.566 143.261C13.6203 143.198 13.6659 143.148 13.7412 143.048L13.9374 142.55H13.9356Z" fill="#9F5225"/>
<path d="M26.7241 164.012L26.7317 164.001C26.7317 164.001 26.7279 164.006 26.7241 164.012Z" fill="#9F5225"/>
<path d="M28.9483 162.927C28.859 162.748 28.0918 164.013 27.5961 164.66C27.2353 164.813 28.1444 163.704 28.5227 163.037C28.2249 163.236 27.4087 164.234 27.3825 164.104C27.5138 163.902 27.5524 163.814 27.7345 163.591C26.9954 164.411 27.4543 163.279 26.533 164.32C26.5978 164.204 26.6643 164.101 26.7239 164.008C26.328 164.622 25.9112 165.228 25.6099 165.653C25.5486 165.605 25.0004 166.274 25.5223 165.474C25.5364 165.54 25.7553 165.23 25.9375 165.009L25.6537 165.273C26.3823 164.096 25.99 164.986 26.5627 164.164C26.2142 164.385 25.4593 165.142 25.6047 164.72C26.3456 163.611 26.0338 164.604 26.6083 163.495L26.4349 164.076C27.5418 162.232 26.4209 164.297 27.6189 162.346C27.6855 161.812 27.0637 162.655 27.132 162.122C26.6766 162.678 26.5207 163.032 26.0653 163.588C25.0932 164.365 27.7993 160.61 26.6328 161.83C26.0881 162.497 25.1142 163.847 25.5066 162.959L26.4016 161.785C26.3386 161.453 25.0862 163.432 25.5083 162.383C25.8726 161.941 25.9077 162.142 25.9865 161.963C26.5627 160.849 25.4295 162.559 25.3542 162.449L26.0968 161.337C25.8201 161.284 25.1002 161.823 24.7885 161.77C25.0232 161.46 25.2911 161.161 25.4821 160.771C24.8848 161 25.1072 159.966 25.3454 159.018L24.6098 159.843C24.5975 159.805 24.8708 159.368 25.0179 159.217C25.1843 158.742 24.5975 159.808 24.3015 160.12C24.2087 160.12 24.615 159.491 24.841 159.252C24.1404 159.841 23.2313 160.374 23.7796 159.149L24.0038 158.913C24.1509 158.359 22.529 160.645 23.0282 159.609L23.1648 159.473C23.1893 158.694 22.3048 159.144 23.0947 157.444C22.1139 158.744 23.2594 156.473 21.9282 158.337C22.4326 157.19 22.7094 156.913 22.9388 155.985C22.9441 155.819 22.0351 157.044 21.8301 157.142L22.515 156.154L21.7005 157.054L22.4729 155.804L22.233 155.965C22.2172 156.061 21.979 156.486 21.7776 156.765C21.366 157.067 22.0123 155.724 22.3608 155.215L21.5411 155.708C21.8231 155.319 21.958 155.241 22.1647 155.032C21.3362 155.857 22.8653 153.96 22.1069 154.715C21.9667 154.961 21.6883 155.291 21.5481 155.487C21.9054 154.808 21.7776 154.612 21.5043 154.723L21.9965 154.069C21.9405 153.641 21.3975 153.86 21.2083 153.563C21.0577 153.983 20.2205 155.138 20.0839 155.168L20.7862 154.094C20.301 154.685 20.5725 154.574 19.9472 155.251C19.9577 155.024 20.7232 153.993 21.0017 153.717L20.6601 153.948C20.872 153.628 21.0069 153.495 21.2889 153.105C20.8002 153.701 21.8617 151.835 21.0262 152.884L21.2364 152.567C21.0437 152.273 20.7039 152.504 20.5077 152.326C19.8772 153.221 19.9542 152.932 19.399 153.591C19.4796 153.133 19.8421 152.238 19.646 152.107C19.2344 152.411 19.0855 152.826 18.6686 153.297C19.2326 152.467 19.0364 152.338 19.5199 151.855C19.2554 151.742 19.1871 151.704 18.5075 152.059C18.2973 152.429 18.222 152.612 18.0136 152.871C17.8804 152.949 18.1642 152.399 18.4427 152.014L18.511 151.943C17.411 152.824 19.6144 148.747 18.2307 150.178L18.3008 150.11L17.4793 150.711C17.4863 150.437 17.9645 150.175 18.2483 149.569C17.0782 150.626 18.0433 148.878 17.2306 149.534C18.7772 146.916 16.6211 149.001 17.5109 147.187L17.1255 147.773C16.6876 148.264 17.2937 147.363 17.3497 147.182C17.0467 147.633 17.045 147.768 16.7997 148.035C15.9135 148.136 16.537 145.993 16.4757 144.876C16.4284 144.504 14.3371 147.698 15.0903 146.061L15.8819 145.082C14.6892 145.907 15.2812 144.132 14.2285 144.773C14.4159 144.554 14.6384 144.237 14.6646 144.285C15.1358 143.425 14.4545 143.908 14.0166 144.534C14.0201 144.396 14.4002 143.951 14.5946 143.591C14.8468 143.045 13.7503 144.34 14.2495 143.528C14.3301 143.395 14.4404 143.304 14.4947 143.261C14.1935 143.573 14.3669 142.887 13.7889 143.83C13.9693 143.244 13.2967 143.913 13.5717 143.256C12.822 144.162 13.7101 142.499 12.7152 143.875C13.7311 142.439 13.33 142.421 12.7835 143C13.1128 142.597 13.0375 142.457 13.4876 141.891C13.3913 141.793 13.1285 141.954 12.6259 142.718C13.682 140.769 11.3507 143.676 12.8133 141.335C12.0286 141.762 11.4366 141.966 10.9812 141.991C11.9953 140.558 11.3227 142.195 12.3701 140.666C11.7483 140.963 10.7657 142.029 10.8025 141.385C10.8866 141.111 11.2684 140.802 11.4593 140.58C10.8376 140.877 11.1493 139.874 10.4172 140.394C10.5118 140.261 10.6344 140.143 10.729 140.06C10.6589 140.055 10.792 139.728 10.3384 140.389L10.4978 140.261C9.89173 141.297 8.96692 142.044 8.61136 142.537C9.98281 140.744 8.75849 141.803 10.5118 139.567C10.4014 139.655 10.1545 139.924 9.85495 140.372C9.90924 140.193 10.0756 139.919 10.4592 139.471C10.0809 139.642 9.64126 140.407 9.53267 140.221C9.75511 139.904 9.8637 139.816 10.1369 139.459C9.64476 139.992 9.15434 140.525 9.24191 140.113C9.38203 139.929 9.54318 139.665 9.56945 139.71C9.33124 139.559 8.12794 140.94 8.35739 140.072C9.37503 138.772 8.60961 139.527 9.43283 138.317L9.08428 138.528L8.72171 139.167C8.64815 139.019 7.9633 139.778 8.15947 139.278L8.56758 138.88L8.24354 138.868L8.0211 139.456C7.50265 139.944 6.97719 140.983 7.09104 140.48C7.19963 140.394 7.01222 140.339 7.45711 139.567C7.45711 139.567 7.45711 139.567 7.45886 139.564C7.15059 139.881 6.82481 140.218 6.96668 139.828C7.2154 139.421 7.90024 138.526 8.06664 138.256C7.3275 139.192 7.66729 138.236 6.87035 139.22C7.06302 138.996 7.5009 138.37 7.58322 138.234L6.98245 138.993C7.12257 138.674 7.20314 138.541 7.5587 138.05C7.53943 137.723 6.54281 139.622 6.85108 138.759C6.90888 138.709 6.9877 138.581 7.09629 138.493C7.18562 137.942 6.45348 138.601 6.59711 138.007C7.39405 136.747 6.92114 137.882 7.58147 136.803C7.23467 136.74 6.17324 137.665 6.182 137.11L6.1242 137.293C4.91565 138.953 6.56733 136.252 5.91402 136.916C6.02436 136.823 6.60061 136.018 6.46224 136.197C6.52355 135.739 5.90701 136.234 5.33951 136.488L5.6688 136.086C5.86322 135.588 5.62501 135.573 5.68106 135.256C5.35353 135.656 5.35528 135.518 4.94192 136.194C6.41845 133.347 3.53019 136.83 4.7475 134.439C4.77728 134.471 5.07679 134.149 5.05577 134.117L4.58461 134.242C4.08367 135.005 4.29736 134.725 3.93654 135.359C3.60726 135.764 3.3165 136.026 3.26921 135.958C3.69658 135.591 4.09593 134.768 4.3464 134.303C4.19402 134.539 4.00836 134.771 3.85072 135.005C4.66693 133.546 2.79805 136.468 3.27797 135.387L3.55646 135.01C3.3673 135.135 2.9627 135.58 2.98547 135.389C3.55821 134.501 3.31825 135.067 3.81219 134.368C3.70009 134.305 2.53007 135.769 3.05377 134.816C3.25345 134.625 3.30249 134.688 3.50041 134.499C4.12396 133.385 3.93654 133.626 3.99084 133.387L3.98033 133.418L4.16599 132.774L4.01011 133.096C2.36017 135.188 3.52844 133.219 2.38119 134.494C3.47064 133.292 2.95919 133.724 3.64404 132.769C3.79817 132.452 3.95756 132.077 4.16249 131.825C3.55646 132.52 4.48827 131.061 3.60551 132.08C3.81744 131.763 3.55997 131.954 4.12045 131.189C3.86999 131.32 3.76139 131.76 3.48115 132.142C2.61414 133.033 4.09068 130.432 2.89439 131.639C2.32164 132.022 1.55972 133.033 1.05353 133.352C1.35304 132.784 1.88551 132.271 1.88551 132.271C2.12897 131.7 2.01162 131.7 1.68934 131.954C1.89427 131.702 2.03964 131.451 2.26033 131.068C2.14473 131.066 1.43011 132.147 1.67357 131.577C1.9293 131.247 2.3339 130.714 2.60538 130.407C2.3374 130.596 1.86274 131.079 1.59475 131.257C1.95382 130.686 2.21304 130.495 2.48453 130.176C2.23406 130.304 1.9328 130.369 1.30926 131.194L1.14636 131.577C1.08681 131.577 1.64555 130.814 1.77691 130.689C2.31638 130.113 1.66832 131.129 1.45463 131.448L1.26372 131.574C0.0411515 133.48 1.67357 131.574 1.7016 131.828L0.731252 133.098L1.60526 132.145C1.38632 132.525 0.883635 133.289 0.69447 133.415C0.309135 134.18 1.08856 133.035 0.641925 133.86C0.570112 133.983 0.52107 134.044 0.477281 134.089L0.825835 133.795C0.617403 134.054 0.183025 134.753 0.272353 134.496C-0.134001 135.45 1.17614 133.797 0.521069 134.874L0.45276 134.939C0.944939 134.745 1.15162 133.986 2.08343 133.033L0.494797 135.573L1.19366 134.62C1.1884 134.683 1.17264 134.808 0.894144 135.188C1.42836 134.617 1.17789 134.745 1.65781 134.172C1.1271 135.191 2.19202 134.107 1.1271 135.694C1.67708 134.997 1.44237 134.997 1.89602 134.617C0.757525 136.33 2.20604 134.489 1.75064 135.372C1.12359 136.199 1.3653 135.633 0.909908 136.521C1.97659 135.13 0.845102 137.067 1.10783 136.886C1.92054 135.726 1.59475 136.614 1.97834 136.393C1.69985 136.773 1.75064 137.341 1.56323 137.914L1.42486 138.106C2.26384 136.959 2.22005 137.341 2.46877 137.213C1.97484 137.912 1.76816 138.168 1.50543 138.42L1.58425 138.523C1.86449 138.171 2.02563 138.007 2.16925 137.942L1.53871 138.792C1.67357 138.888 2.46176 138.048 2.18152 138.82C2.75952 138.01 3.66856 136.39 4.18526 136.038C3.88225 136.488 3.35854 137.253 3.1974 137.384C3.24819 137.344 3.49516 137.074 3.38656 137.298L2.81206 137.965C2.64217 138.377 3.27622 137.386 3.27447 137.522C2.83308 138.153 2.99597 138.023 2.63866 138.516C2.58437 138.558 2.77879 138.196 2.58962 138.417C2.56335 138.606 2.36718 139.074 2.05541 139.582C2.30062 139.215 2.64742 138.732 2.74375 138.704C2.87687 138.802 2.24807 139.514 2.07993 139.924C2.41096 139.519 2.15699 140.067 2.81732 139.124C2.84359 139.172 2.54233 139.62 2.37418 139.891C2.71748 139.549 2.69997 140.12 3.34102 139.031L3.3743 138.946C3.39007 138.931 3.39357 138.933 3.41109 138.915C4.23605 138.221 3.39182 139.959 3.84196 139.798L3.62127 140.113C3.97333 139.896 3.99434 140.221 4.54082 139.645C4.5706 139.688 4.20803 140.324 3.93479 140.681C4.1765 140.555 4.43398 140.211 4.18176 140.892C3.71935 141.332 3.86823 141.418 3.82094 141.181C3.73162 141.599 3.40058 142.137 4.10994 141.428C3.50917 142.185 3.47589 142.555 3.69133 142.384L4.02587 141.702C4.16249 141.662 4.15899 141.8 4.15724 141.936L3.39007 142.965C2.69296 144.554 5.29573 141.292 3.94005 143.684C4.5128 143.017 4.19402 143 4.84909 142.198C4.84383 142.477 3.87699 144.147 3.90502 144.192C3.62302 144.967 5.11007 142.809 4.96294 143.407C5.2099 143.002 5.9 141.966 6.25031 141.752C6.2468 142.029 5.25719 143.513 4.98396 143.732C4.93842 143.732 5.01198 143.593 5.10306 143.468C4.9752 143.563 4.82282 143.666 4.5741 144.134L4.85084 143.772C4.6284 144.227 4.78603 144.373 4.32013 144.952C4.64416 144.693 4.78428 144.371 4.87011 144.099C4.60738 144.823 5.04701 144.386 4.91565 144.936C5.04176 144.698 5.33426 144.227 5.35178 144.257C5.2064 144.989 5.93328 143.651 6.17324 143.664C5.84045 144.343 5.18538 145.009 5.64778 144.705C5.45161 145.206 4.96119 145.736 4.71597 146.003C5.33952 145.434 4.59337 146.79 4.56359 147.016L4.29035 147.238C4.45324 147.107 4.47776 147.155 4.50754 147.2L5.00322 146.39C4.94542 146.574 4.97345 146.619 4.75275 146.933C5.13634 146.488 5.60575 145.631 6.15047 145.052C5.92803 145.505 6.58135 144.843 5.8965 145.875C5.98758 145.321 5.20815 146.911 4.96994 146.893C5.07854 146.808 5.10306 146.855 5.04526 147.039C4.97169 147.16 4.89463 147.24 4.84558 147.286C4.35866 148.39 5.70383 146.239 5.83344 146.471C5.41833 147.011 5.11707 147.597 5.22567 147.509C5.17487 147.414 5.85797 146.521 6.21528 146.164C6.00159 146.74 6.54632 145.98 6.55858 146.103L6.6479 145.814C7.06302 145.273 7.05776 145.414 7.24693 145.329C6.94391 145.779 6.97544 145.548 6.86334 145.776C7.63051 144.881 6.30636 147.047 6.87735 146.518C6.65491 146.971 6.13821 147.592 5.99809 147.912C6.62513 147.338 5.57772 148.868 6.12245 148.427C6.61988 147.615 6.48326 147.794 7.08579 147.167L6.51654 147.424L7.41507 146.493C7.36428 146.398 6.95617 146.795 7.01047 146.614C7.5044 146.076 7.36603 146.257 7.77939 145.583C7.06302 146.845 8.40468 145.145 7.9598 146.053L6.63915 147.939C6.19251 148.983 7.5657 147.326 7.41507 148.065L7.58497 147.653C8.1332 146.936 7.77063 147.711 8.04212 147.489C7.59548 148.113 7.47287 148.397 7.22416 148.825C7.54819 148.352 7.3275 149.059 8.22253 147.821L7.72509 148.769C7.63576 149.323 9.14733 147.21 9.13857 147.628C8.61837 148.254 8.36965 148.795 7.93352 149.149C7.97556 149.225 7.93878 149.401 8.24354 148.963C7.99658 149.398 8.96867 148.299 8.59385 148.963C8.80753 148.714 9.27519 148.063 9.29096 148.191C9.20688 148.327 9.07377 148.503 9.07377 148.503C9.29095 148.191 9.45385 148.196 9.89348 147.431C8.66566 149.612 10.3997 147.874 9.347 149.748C9.59747 149.685 9.8637 149.66 9.98981 149.748C9.85144 149.929 9.77087 150.062 9.7989 149.972C9.51865 150.744 11.1423 148.271 10.8323 149.139C10.1965 150.268 10.3699 149.579 10.1475 150.034C8.71996 152.145 10.5223 150.007 9.77613 151.362L9.66753 151.45C9.25067 152.265 10.4014 150.927 10.4207 151.254C10.4207 151.254 10.2876 151.43 10.2017 151.566C11.025 150.628 11.4296 150.505 11.7536 150.382C11.1493 151.141 11.3998 150.734 10.8463 151.594C10.9812 151.554 11.7554 150.243 12.0233 150.165C11.7483 150.661 11.5539 151.159 10.9496 152.057L10.8165 151.961C10.0721 153.176 10.9742 152.109 10.8883 152.384L10.5345 152.871C10.8008 152.929 11.6783 151.677 11.7816 152.004L12.0268 151.601C12.9849 150.485 11.6152 152.411 12.3491 151.614L11.4961 152.917C11.7676 152.698 12.5558 151.994 12.8273 151.911C12.1144 152.761 11.6555 153.06 11.1914 153.505C11.2439 153.598 11.4576 153.701 11.9217 153.12C11.8132 153.208 11.5679 153.475 11.68 153.246C12.4437 152.356 12.8798 152.006 12.9814 152.195C11.2544 154.614 12.8588 153.254 11.6187 155.278C12.4577 154.67 11.7624 156.257 12.1074 156.46C13.3475 154.431 12.216 156.508 13.5629 154.529C13.7066 154.486 13.7048 154.549 13.6225 154.682L12.9797 156.098C12.6241 156.727 12.6259 156.453 12.3246 156.898C12.3439 157.225 11.7991 157.803 11.5189 158.44C11.9901 157.715 12.2598 157.499 12.1442 157.866L12.6732 156.82C13.5717 156.028 11.6783 158.676 12.5716 157.897L12.0881 158.432C12.4314 158.198 12.4087 158.918 13.5927 157.471C13.4508 157.72 13.0988 158.286 12.9622 158.369C13.0112 158.913 14.6033 157.378 14.0954 158.586L13.7468 159.041C13.8835 158.96 14.4422 158.241 14.1567 158.794C14.0166 158.988 13.8081 159.25 13.8064 159.302C13.943 159.167 14.4965 158.616 14.3546 158.97L13.9342 159.443C13.7066 160.369 15.1673 158.591 15.5702 158.513C14.5876 159.921 14.4334 160.615 14.3564 160.96L14.2145 161.156C14.3353 161.679 15.4406 160.58 16.0501 160.349C15.1253 162.079 16.0764 161.669 15.7033 162.846C15.8469 162.542 16.474 161.757 16.6123 161.672C16.4652 162.034 17.439 160.902 16.53 162.185V162.132C15.6858 163.457 16.0273 163.276 16.0886 163.43L17.2797 161.76C15.7874 164.536 18.4882 161.687 17.0747 164.063C17.4233 163.716 17.4846 163.817 17.8314 163.47L17.1973 164.373C17.1833 164.815 17.1781 165.037 17.5109 165.082L17.0222 165.676C17.0835 165.882 18.9716 163.249 19.1047 163.332L18.1905 164.725C18.3849 164.961 17.7386 166.41 18.772 165.439C18.6301 165.633 18.3533 166.018 18.2868 166.03C18.3463 166.186 17.9768 167.416 19.2379 165.515C18.3971 166.727 19.3412 165.899 19.8089 165.505L19.1731 166.375C20.0488 165.354 20.2678 165.044 20.6023 164.893C20.548 165.049 20.1294 165.643 20.252 165.361C20.0173 165.957 20.9106 164.617 20.6899 165.251L20.252 165.761C20.2975 165.962 20.5025 165.648 21.0157 165.057C21.3239 164.783 21.0349 165.535 20.4867 166.362C20.8423 165.889 21.3502 165.303 21.2434 165.615C21.0384 165.93 20.8861 166.091 20.8125 166.169C20.5445 166.999 21.7653 165.462 21.2626 166.493C21.0595 166.792 20.9631 166.951 20.9106 167.051C20.802 166.853 20.7372 166.662 20.7915 166.609C20.2187 167.431 20.2187 167.718 19.3482 168.741C19.8597 168.236 20.9351 167.087 20.7634 167.612C20.7127 167.698 20.6636 167.783 20.5778 167.914L20.5042 167.992C20.4692 168.105 20.5428 168.057 20.6584 167.947C20.5953 168.125 20.5445 168.254 20.5655 168.309C20.1031 169.006 20.4254 168.84 20.4517 168.943C21.0735 168.037 21.0384 168.276 21.4938 167.446C21.457 167.522 21.4098 167.539 21.3502 167.529C21.3239 167.544 21.3064 167.547 21.2644 167.592C21.2819 167.569 21.3029 167.542 21.3222 167.517C21.2714 167.496 21.2153 167.454 21.1575 167.398C21.5148 166.999 21.8231 166.672 21.5306 167.25C21.9597 166.709 22.4011 166.153 22.6113 165.897C21.8056 167.25 21.4641 168.115 20.9439 168.915C21.4465 168.628 21.5324 169.096 22.8057 167.542C23.0001 167.386 22.5185 168.098 22.3486 168.387C22.205 168.52 22.1944 168.452 22.0105 168.676C22.3994 168.367 22.3836 168.875 23.2261 167.723C22.9634 168.412 22.4081 168.721 22.6919 168.744L22.4204 169.076C21.3993 171.385 24.9969 166.747 23.6359 169.639C23.7165 169.458 23.7533 169.373 23.8864 169.169C23.5133 170.771 25.3507 169.265 24.5362 171.485C24.4031 171.976 24.9391 171.239 25.4015 170.756L24.7517 171.754L25.6379 170.796C26.3613 170.2 24.2525 173.553 25.5241 172.288L25.9532 171.601C25.9375 171.825 26.4419 171.536 25.9094 172.268C25.9988 172.159 26.4034 171.624 26.1949 172.001L25.8446 172.509L26.6205 171.89C26.4997 172.449 25.2018 173.867 25.3279 174.247C25.5364 174.156 26.5592 173.07 26.7677 172.693C26.7554 172.625 26.9131 172.27 27.2634 171.76L27.5138 171.591C28.563 170.117 29.677 168.663 30.2409 167.391L29.493 168.14L29.9607 167.366L30.0886 167.456C30.5072 166.699 30.0553 167.25 29.7295 167.61C29.9887 167.212 30.1604 166.921 30.2374 166.744L29.134 168.01C29.5263 167.406 29.9905 166.923 30.1394 166.495C29.6262 167.082 29.2794 167.874 28.8905 168.186C29.3091 167.431 29.7085 166.9 29.2426 167.388C29.5018 166.991 29.684 166.767 29.8276 166.634C29.451 167.014 29.5421 166.614 28.9606 167.363C29.486 166.445 28.6173 167.305 29.6069 165.904C29.3547 166.216 28.7364 166.868 28.6436 166.853C29.9152 165.301 28.5174 166.473 29.8048 164.7C28.6768 166.118 29.0814 165.009 28.3703 165.673C28.4614 165.562 28.6453 165.339 28.6015 165.432C28.619 165.205 28.9168 164.717 29.0727 164.365C28.1899 165.608 27.8816 165.736 27.2844 166.425C28.041 165.092 28.3616 165.027 29.1445 163.827C28.4404 164.851 28.288 164.627 27.7275 165.517C28.1829 164.675 27.9237 165.072 28.6138 163.985C27.5103 165.537 28.3668 164.164 27.6417 165.047C28.0848 164.136 28.6401 163.543 28.2039 163.87C28.4894 163.316 28.9693 162.896 28.9693 162.896L28.9483 162.927ZM24.5748 162.072C24.5748 162.072 24.5853 162.056 24.587 162.054C24.6221 162.064 24.6536 162.072 24.6746 162.077C24.6553 162.074 24.6273 162.072 24.5748 162.072ZM24.3558 161.785C24.3558 161.858 24.3838 161.908 24.4224 161.951C24.2122 162.273 23.9828 162.58 23.9722 162.534C24.1281 162.343 24.2034 162.094 24.3558 161.785ZM20.4552 168.656C20.3326 168.736 20.4447 168.543 20.569 168.352C20.5953 168.359 20.6356 168.354 20.7021 168.326C20.7267 168.294 20.7547 168.259 20.7827 168.221C20.6601 168.389 20.5445 168.545 20.4552 168.653V168.656Z" fill="#9F5225"/>
<path d="M21.3362 167.565C21.3537 167.553 21.3835 167.518 21.3957 167.52C21.443 167.432 21.485 167.354 21.5166 167.289C21.4465 167.379 21.3764 167.467 21.3081 167.553C21.3186 167.555 21.3257 167.563 21.3362 167.565Z" fill="#9F5225"/>
<path d="M3.33512 139.05L3.3246 139.078C3.34565 139.038 3.36669 138.997 3.40527 138.937C3.37721 138.985 3.35792 139.012 3.33512 139.053V139.05Z" fill="#9F5225"/>
<path d="M22.6695 155.923L22.5119 156.152L22.6695 155.978V155.923Z" fill="#9F5225"/>
<path d="M4.33699 134.308C4.38954 134.225 4.44209 134.137 4.48237 134.057C4.44209 134.117 4.39129 134.207 4.33699 134.308Z" fill="#9F5225"/>
<path d="M3.97994 133.393L4.13233 132.971C4.03599 133.197 3.99746 133.315 3.97994 133.393Z" fill="#9F5225"/>
<path d="M3.90766 132.395C3.79206 132.546 3.70798 132.662 3.63092 132.77C3.63092 132.772 3.63092 132.772 3.62741 132.777L3.90766 132.395Z" fill="#9F5225"/>
<path d="M10.7187 140.066C10.7187 140.066 10.7397 140.066 10.7625 140.046C10.9184 139.921 10.8465 139.956 10.7187 140.066Z" fill="#9F5225"/>
<path d="M7.44799 139.568C7.58111 139.432 7.71072 139.299 7.8018 139.226C7.81757 139.11 7.8053 139.058 7.44799 139.568Z" fill="#9F5225"/>
<path d="M13.4888 141.879C13.4888 141.879 13.4845 141.885 13.4802 141.892C13.4859 141.894 13.4873 141.902 13.4902 141.907V141.879H13.4888Z" fill="#9F5225"/>
<path d="M7.87531 139.363C7.96814 139.137 7.9139 139.136 7.8018 139.226C7.78604 139.324 7.7527 139.461 7.87531 139.363Z" fill="#9F5225"/>
<path d="M2.53647 129.614L2.54524 129.548C2.50315 129.609 2.46983 129.654 2.44177 129.689L2.53647 129.611V129.614Z" fill="#9F5225"/>
<path d="M2.44156 129.695L2.34686 129.773C2.35563 129.786 2.36966 129.791 2.44156 129.695Z" fill="#9F5225"/>
<path d="M2.14799 129.935L2.34942 129.769C2.33541 129.746 2.33716 129.691 2.14799 129.935Z" fill="#9F5225"/>
<path d="M2.75362 130.755L2.98658 130.435C2.93578 130.498 2.86047 130.601 2.75362 130.755Z" fill="#9F5225"/>
<path d="M2.97383 130.88C2.98959 130.754 3.36617 130.052 3.1735 130.183L2.98784 130.437C3.35041 129.987 2.55521 131.383 2.97383 130.882V130.88Z" fill="#9F5225"/>
<path d="M0.806168 135.839L0.858713 135.393C0.639773 135.773 0.343765 136.284 0.226413 136.284C-0.334075 137.554 0.734355 135.459 0.806168 135.841V135.839Z" fill="#9F5225"/>
<path d="M0.854926 136.912C0.672768 136.975 0.504621 137.418 0.362748 137.609C0.627228 137.355 0.693786 137.289 0.854926 136.912Z" fill="#9F5225"/>
<path d="M3.73688 141.057L3.15888 141.867C3.29375 141.826 3.37957 141.55 3.73688 141.057Z" fill="#9F5225"/>
<path d="M7.23673 137.621L7.53799 137.038L6.99151 137.752L7.23673 137.621Z" fill="#9F5225"/>
<path d="M3.5005 143.92L3.39541 144.003L3.69142 143.835L3.5005 143.92Z" fill="#9F5225"/>
<path d="M8.54944 150.59L9.23604 149.559C9.0749 149.687 8.27795 150.809 8.54944 150.59Z" fill="#9F5225"/>
<path d="M11.3546 152.561C11.0271 153.097 10.8589 153.507 11.2407 153.064C11.2407 152.928 11.4684 152.465 11.3546 152.561Z" fill="#9F5225"/>
<path d="M16.4837 163.213L16.207 163.49L16.482 163.324L16.4837 163.213Z" fill="#9F5225"/>
</svg>
