<svg width="318" height="58" viewBox="0 0 318 58" fill="none" xmlns="http://www.w3.org/2000/svg">
<path d="M318 22.1036C317.898 21.733 317.284 21.0948 317.003 21.4242L317.642 22.7006L318 22.1036Z" fill="#9F5225"/>
<path d="M313.757 21.2389C313.757 22.0212 314.013 23.2565 315.112 24.183C314.703 22.8448 315.163 23.2565 314.601 21.7124C314.882 21.383 315.546 21.7536 315.828 22.2065C315.725 21.8359 316.62 22.1653 316.236 21.3418C315.035 20.7036 314.396 20.9712 314.32 22.0212C313.987 21.8359 313.885 21.4653 313.757 21.2389Z" fill="#9F5225"/>
<path d="M274.371 34.7859L274.704 34.8477C274.704 34.8477 274.474 34.7654 274.371 34.7859Z" fill="#9F5225"/>
<path d="M249.017 40.633C249.196 40.5506 249.247 40.4065 249.196 40.283C249.043 40.4065 248.915 40.5301 249.017 40.633Z" fill="#9F5225"/>
<path d="M244.238 40.0771C244.238 40.0771 244.417 40.0977 244.519 40.1183C244.391 40.0153 244.263 39.9742 244.238 40.0771Z" fill="#9F5225"/>
<path d="M274.371 34.7859L273.528 34.6006C273.681 35.033 274.014 34.8065 274.371 34.7859Z" fill="#9F5225"/>
<path d="M310.792 26.5918C310.869 26.4683 310.895 26.3036 310.895 26.1183C310.818 26.2212 310.767 26.3242 310.665 26.4065C310.716 26.4683 310.741 26.5301 310.792 26.5918Z" fill="#9F5225"/>
<path d="M284.544 30.1536L284.748 30.0712C284.748 29.9065 284.697 29.7212 284.62 29.5153L284.544 30.1536Z" fill="#9F5225"/>
<path d="M292.441 26.9418C292.237 26.9624 292.799 28.033 293.029 28.5065C292.876 28.033 292.876 27.7859 292.978 27.6418C292.85 27.4359 292.697 27.2095 292.441 26.9418Z" fill="#9F5225"/>
<path d="M306.09 23.3595L306.217 23.1124C306.217 23.1124 306.115 23.2565 306.09 23.3595Z" fill="#9F5225"/>
<path d="M278.589 31.9653C278.486 31.8212 278.384 31.6771 278.307 31.6153C278.384 31.7595 278.461 31.8624 278.589 31.9653Z" fill="#9F5225"/>
<path d="M32.5105 28.2595C32.5105 28.2595 32.5872 28.1359 32.6128 28.0742C32.5105 28.1565 32.4594 28.2389 32.5105 28.2595Z" fill="#9F5225"/>
<path d="M25.942 19.5095L26.0953 19.4889L26.4787 18.9124L25.942 19.5095Z" fill="#9F5225"/>
<path d="M235.906 40.1183C235.906 40.1183 235.906 40.1183 235.957 40.1183C236.136 39.9536 236.008 39.9948 235.906 40.1183Z" fill="#9F5225"/>
<path d="M161.709 45.0595C162.476 46.1506 160.227 46.2948 161.403 47.5301C161.326 47.0771 162.706 45.8006 161.709 45.0595Z" fill="#9F5225"/>
<path d="M310.486 26.5712C310.486 26.5712 310.281 26.6948 310.179 26.7359C310.358 26.6948 310.435 26.633 310.486 26.5712Z" fill="#9F5225"/>
<path d="M161.403 47.5301L161.53 47.6536C161.479 47.5918 161.454 47.5712 161.403 47.5301Z" fill="#9F5225"/>
<path d="M217.606 43.3918C217.683 43.5977 217.785 43.7418 217.887 43.8653C217.861 43.7418 217.785 43.6183 217.606 43.3918Z" fill="#9F5225"/>
<path d="M231.765 43.1448L231.382 43.0418C231.535 43.1242 231.663 43.1448 231.765 43.1448Z" fill="#9F5225"/>
<path d="M210.628 45.7183C210.424 45.6565 210.347 45.4918 210.117 45.6771C210.143 45.7389 210.168 45.7801 210.219 45.8006C210.296 45.6359 210.398 45.5536 210.654 45.7183H210.628Z" fill="#9F5225"/>
<path d="M203.063 46.2948C203.063 46.2948 203.165 46.4389 203.216 46.5212C203.293 46.5006 203.37 46.4595 203.446 46.4389L203.037 46.2948H203.063Z" fill="#9F5225"/>
<path d="M54.7721 35.1153C54.7721 34.7653 54.8232 34.3948 54.8999 34.0448C54.6443 34.8477 53.443 34.7859 54.7721 35.1153Z" fill="#9F5225"/>
<path d="M310.384 26.0359C310.537 26.3036 310.562 26.4683 310.511 26.5712C310.588 26.5301 310.639 26.4683 310.69 26.4065C310.588 26.2418 310.511 26.0977 310.384 26.0359Z" fill="#9F5225"/>
<path d="M211.548 54.8389L210.271 54.7977C210.628 54.88 211.088 54.88 211.548 54.8389Z" fill="#9F5225"/>
<path d="M108.598 48.2712L108.292 48.3536C108.292 48.3536 108.496 48.3948 108.598 48.2712Z" fill="#9F5225"/>
<path d="M206.59 55.2095C206.309 54.8183 206.053 54.5918 205.798 54.4683C205.747 54.5712 205.696 54.633 205.696 54.7771L206.59 55.2095Z" fill="#9F5225"/>
<path d="M46.031 34.1271C47.13 34.5183 47.2323 32.9124 47.8968 32.1918C49.4048 32.233 47.9735 33.4271 48.0757 34.2918C49.0725 34.1889 50.3504 33.0977 50.9383 33.3448C50.8616 33.5918 50.9383 33.7153 50.6571 33.9624C52.0884 33.1183 53.2641 34.7242 54.9765 33.6124C54.9765 33.7565 54.9765 33.9006 54.951 34.0036C55.1299 33.2418 55.4621 32.5212 55.7177 32.0065C56.2289 32.1301 57.0468 31.3889 56.7912 32.3771C56.51 32.2536 56.3056 32.6242 56.0244 32.8712L56.7401 32.6242C56.5612 34.1065 55.82 32.8712 55.3344 33.8595C56.5612 33.7359 58.248 32.9948 58.8359 33.6124C58.3758 34.9712 56.8168 33.4889 57.3024 34.9712L56.3311 34.1065C56.28 36.4536 55.6666 33.7359 55.4622 36.2065C56.8679 37.0712 57.5324 36.1036 58.9637 36.9477C59.6538 36.33 59.3471 35.8359 60.0371 35.2183C62.8741 34.5595 60.3183 39.0271 62.7719 37.7712C63.5898 37.0301 64.5099 35.4036 65.3022 36.6183L64.2287 37.9977C65.7111 38.5948 66.0434 36.1036 67.2191 37.5859C66.6824 38.0801 65.7878 37.73 65.9412 37.9771C66.4779 39.4595 67.0402 37.3389 67.8581 37.5859L67.4491 38.9653C69.1871 39.2124 71.4363 38.7389 73.3532 39.0065C73.0976 39.3771 72.612 39.7065 72.8676 40.2212C75.449 40.2006 77.7492 41.7242 79.6917 43.0624L80.9952 42.1153C81.1997 42.1771 81.1741 42.733 80.8674 42.8977C81.583 43.5565 81.1997 42.1771 81.7875 41.8271C82.3242 41.8683 82.1964 42.6506 81.7364 42.9183C83.6788 42.3212 86.9248 41.9095 88.126 43.5153L87.6915 43.783C88.8161 44.5448 89.9918 41.7242 90.7841 43.083L90.4774 43.2477C93.0844 44.3801 96.4837 44.0095 98.0428 46.1918C98.9884 44.5859 100.573 47.5095 101.493 45.2036C102.72 46.7065 102.132 47.0153 104.151 48.2712C104.714 48.4977 105.506 46.9742 106.298 46.8506L105.966 48.0859L107.346 46.9742L107.448 48.5595L108.241 48.3742C107.985 48.2506 107.806 47.7153 107.96 47.3653C109.212 46.9948 110.388 48.7242 110.234 49.3624L113.122 48.7859C112.943 49.28 112.458 49.3624 112.023 49.6301C113.761 48.6212 111.921 50.9889 113.506 50.0624C113.403 49.7536 113.787 49.3418 113.889 49.0948C114.324 49.9595 115.78 50.1859 116.931 50.0418L116.496 50.8653C118.387 51.4006 120.688 51.1124 122.86 51.4624C122.17 50.9271 122.707 49.4653 123.371 49.4242L123.32 50.783C123.908 50.0418 122.758 50.1859 123.831 49.3212C124.598 49.5889 124.036 50.9065 123.474 51.2565L124.573 50.9271C124.547 51.3389 124.266 51.5036 124.087 51.9977C124.675 51.2359 125.518 53.5624 126.413 52.2242V52.6153C128.585 52.9242 129.659 52.6153 131.473 52.78C131.729 51.6477 132.368 51.9977 133.084 51.133C134.31 51.6477 135.614 52.7183 137.224 52.8006C138.425 52.3477 137.71 51.8742 138.323 51.2359C138.221 52.2859 139.831 52.3683 138.885 53.0271C140.828 53.0683 141.339 53.13 143.895 52.4918C143.69 52.0389 143.435 51.833 143.639 51.483C144.099 51.3389 144.559 52.0183 144.432 52.5124L144.304 52.6153C147.217 51.2771 150.157 56.2389 152.585 54.2212L152.457 54.3242L154.834 53.3359C155.856 53.583 154.118 54.0771 154.834 54.7771C157.441 53.1712 158.642 55.2712 160.738 54.2418C162.041 57.4536 166.233 54.2418 168.227 56.3212L168.15 55.5801C168.738 54.8801 168.789 56.033 169.172 56.1977C169.147 55.6212 168.61 55.5183 168.968 55.1271C173.568 54.4065 178.399 56.4036 183.153 57.0418C184.891 57.2065 184.073 53.233 186.271 54.9624L185.683 56.3212C187.396 55.4771 189.185 55.4771 190.948 55.4771C192.712 55.4565 194.475 55.4565 196.137 54.6948C195.958 55.0242 195.983 55.4153 195.651 55.4359C196.443 56.383 198.309 55.3742 198.258 54.5712C198.795 54.633 198.437 55.2918 198.795 55.683C199.561 56.2389 200.507 54.3653 200.967 55.2918C201.044 55.4565 200.788 55.6212 200.661 55.7036C201.095 55.1889 202.859 55.6624 202.296 54.5712C203.625 55.0242 204.673 53.8918 205.772 54.4889C206.283 53.1712 208.021 54.9418 208.021 53.1301C208.149 54.983 210.449 54.4889 211.114 53.5212C210.91 54.0977 211.881 54.0359 211.676 54.8389C212.596 54.7153 213.389 54.3036 213.082 53.3565C215.101 55.3948 216.175 51.2359 217.58 53.9742C220.136 52.7389 222.513 51.6889 224.839 50.9683C225.12 52.8212 222.206 51.483 222.666 53.3977C224.839 52.3477 225.836 50.5977 228.213 50.7624C228.852 50.9271 228.059 51.6065 227.906 51.9359C230.053 50.9065 232.379 51.4212 234.168 50.1448C234.193 50.3095 234.04 50.5359 233.861 50.7006C234.245 50.5771 234.858 50.8242 234.602 50.0006L234.27 50.2889C233.35 49.1771 235.241 47.5301 235.139 46.8918C235.062 49.3624 237.286 47.18 236.979 50.33C237.209 50.1242 237.439 49.6918 237.235 49.1359C237.669 49.2389 237.874 49.5477 237.644 50.2271C238.973 49.5477 238.232 48.7653 239.51 48.5389C239.612 48.9301 239.407 49.1359 239.382 49.6301C239.816 48.7242 240.251 47.8183 241.452 47.9624C241.452 48.2095 241.656 48.4977 241.35 48.5595C243.19 48.0859 243.931 45.9036 246.18 46.2536C246.104 48.0859 247.049 46.6859 247.612 48.1683L248.583 47.5095L247.918 46.8918C248.89 46.7065 249.375 45.4301 250.346 45.7389L249.835 46.5006L251.522 45.8212L250.321 45.4712C251.037 44.5036 249.605 43.6183 250.985 43.7418C250.781 43.9477 251.931 43.5565 252.723 44.3183C253.03 43.7418 253.337 43.1448 254.155 43.3506C254.512 43.783 254.589 45.0183 254.819 45.3065C254.819 43.9683 256.941 44.483 257.017 43.0212C256.941 43.3712 257.222 44.1536 257.324 44.2977V43.2065C257.886 43.4124 258.014 43.5565 258.167 44.1948C259.548 44.0506 257.043 42.4242 258.909 42.8359C258.806 42.9389 258.909 43.083 258.73 43.2889C260.442 43.3095 261.49 41.8889 263.126 42.0124C264.148 43.3712 262.027 42.6918 262.998 43.8036C264.991 43.0212 266.576 40.9418 268.672 40.6948L268.237 40.633C267.624 38.4918 270.154 41.2301 270.717 39.9742C270.538 40.2006 270.896 41.2095 270.87 40.9624C272.378 40.9006 273.426 39.6653 275.164 38.4095V39.0065C276.161 39.2124 277.362 38.5948 278.333 38.5536C278.333 37.9565 278.844 37.8742 278.18 37.2153C282.295 39.2948 282.346 34.0653 285.898 35.6506C285.617 35.7536 285.489 36.3301 285.72 36.2683L287.406 35.0948C286.767 34.2918 286.87 34.6624 286.077 34.1271C286.026 33.5301 286.359 32.933 286.844 32.7477C286.307 33.633 287.636 34.1477 288.275 34.4771C288.071 34.2301 288.02 33.9006 287.841 33.633C289.732 34.8065 287.023 31.8212 288.991 32.3565L289.17 32.8301C289.553 32.4183 289.681 31.6359 290.294 31.5742C291.112 32.4801 290.013 32.233 290.448 33.0771C291.189 32.7271 290.882 30.6477 292.16 31.3477C292.007 31.7595 291.521 31.9448 291.368 32.3359C292.825 33.2212 292.748 32.8918 293.413 32.8506H293.336H294.972L294.435 32.6653C293.822 29.7006 296.122 31.3889 296.352 29.1859C296.096 31.2859 296.71 30.1948 297.323 31.3477C297.86 31.5124 298.575 31.6565 298.627 32.0271C298.678 30.8742 300.109 32.3153 300.135 30.6477C300.416 30.9771 300.825 30.4212 301.259 31.3683C301.873 30.7712 300.671 30.833 300.441 30.3595C300.876 28.6712 304.275 30.5653 304.888 28.1359C305.911 26.7771 305.349 25.4801 306.294 24.2859C307.163 24.6359 306.831 25.7271 306.831 25.7271C307.956 25.8918 308.441 25.5624 308.85 24.8418C308.927 25.2124 309.259 25.3977 309.745 25.6859C310.23 25.3153 309.182 24.2448 310.307 24.3889C310.46 24.8418 310.767 25.5212 310.767 26.0565C311.201 25.4183 311.355 24.4506 311.789 23.7918C312.428 24.3065 312.07 24.9036 312.122 25.4183C312.684 24.7595 313.706 23.8948 313.195 22.8242L312.454 22.7212C312.684 22.5359 313.221 23.4624 313.144 23.7301C313.067 24.8006 311.943 23.8742 311.661 23.5448L311.968 23.0918C309.949 21.3212 310.281 24.3683 309.233 24.7389L308.543 23.0712L308.441 24.7801C307.955 24.4918 307.189 23.7301 307.521 23.2977C306.294 22.8859 307.291 24.1006 306.09 23.5653C305.936 23.4624 305.911 23.3801 305.936 23.2977L305.579 24.0389C305.502 23.6683 304.71 23.0506 305.297 23.0712C303.457 22.7624 304.096 25.0889 302.844 24.1624L302.895 24.0183C301.54 25.2948 303.483 25.1918 303.099 27.0653L300.39 24.7389L300.978 25.9124C300.774 25.9536 300.365 26.0359 300.135 25.5624C299.981 26.6124 300.569 25.9948 300.671 26.8801C299.163 26.2624 298.601 28.3624 297.246 26.6742C297.476 27.6418 298.499 26.983 297.962 27.9506C296.454 26.1389 297.093 28.7124 295.738 28.1565C295.355 27.0653 296.429 27.2918 295.074 26.7153C295.662 28.5889 293.31 26.9624 292.85 27.5595C293.643 28.9183 291.751 28.7124 290.908 29.6183C290.729 29.1653 288.326 29.6595 286.997 29.5565L286.895 29.3095C287.483 30.7506 286.231 30.8948 285.592 31.4712C285.157 30.6271 285.132 30.2565 285.336 29.7212L284.595 29.9889C284.672 30.5036 284.569 30.8124 284.16 31.1418L283.777 30.0506C282.831 30.4624 282.448 32.0065 280.787 31.7595C281.221 32.7477 283.266 34.1271 282.218 35.2183C281.886 34.7036 281.375 33.8389 281.63 33.4889C281.553 33.5918 281.426 34.0653 281.068 33.9212L281.17 32.8506C280.378 32.6653 281.247 33.6948 280.736 33.7565C280.352 32.9948 280.097 33.3448 279.867 32.7271C279.943 32.6242 280.454 32.8918 280.48 32.5418C279.867 32.583 278.998 32.3565 278.486 31.8418C278.742 32.2536 278.998 32.8506 278.665 33.0771C277.669 33.4683 277.847 32.2948 277.081 32.0889C277.081 32.6859 276.186 32.3565 276.723 33.4889C276.416 33.5712 276.109 33.0771 275.854 32.8095C275.573 33.4683 273.477 33.7359 274.653 34.7653L274.832 34.8065C274.832 34.8065 274.78 34.8477 274.78 34.8889C273.605 36.5977 270.87 35.3418 269.362 36.3301L269.183 35.9389C268.34 36.6801 267.011 36.8653 266.627 37.8948C266.321 37.9771 265.605 37.4006 265.528 36.9065C264.864 37.4212 264.966 37.8948 263.535 37.5653C264.046 36.6801 263.023 37.0506 264.148 36.8653C262.972 36.8036 262.487 36.2477 261.797 37.5859C261.797 36.4948 260.519 36.5359 260.135 36.9477L261.132 37.483C260.647 37.7712 260.11 37.8124 259.599 37.833L259.343 36.4536C256.634 35.383 256.557 40.1389 253.95 37.8536C253.72 38.9036 255.33 38.2448 255.228 39.4183C254.18 39.4595 252.468 37.7918 252.161 37.8536C250.576 37.4212 251.573 40.0565 249.989 39.8712C250.321 40.3036 250.934 41.5183 249.989 42.1977C248.941 42.2389 248.123 40.4889 248.608 39.9742C248.838 39.8918 248.992 40.0153 249.043 40.1595C249.299 39.9124 249.656 39.6242 249.094 39.1918V39.6859C248.481 39.3153 247.152 39.6653 247.203 38.8212C246.615 39.4389 247.126 39.6653 247.765 39.7889C246.283 39.3771 245.797 40.2212 244.34 39.9948C244.621 40.2212 245.005 40.7359 244.775 40.7771C242.679 40.5506 244.212 41.8271 242.96 42.3006C241.989 41.7242 242.704 40.5301 241.58 41.3742C240.634 41.0242 241.043 40.1389 241.248 39.7065C240.327 40.8389 238.845 39.5212 238.129 39.4801L238.641 38.9859C238.334 39.2742 238.027 39.3359 237.72 39.3977L238.334 40.283C237.925 40.1801 237.618 40.2418 237.516 39.8506C237.312 40.5506 238.232 41.3742 237.72 42.383C237.107 41.9918 236.34 43.1859 235.855 41.93C237.516 42.1153 235.344 40.6948 236.596 40.2624C236.391 40.4683 236.085 40.5095 235.65 40.4065C235.548 40.283 235.65 40.1389 235.727 40.0565C233.963 39.1506 235.42 41.6006 233.861 41.8065C233.861 41.0653 233.171 40.5095 232.941 40.6948C233.554 40.6124 233.529 41.8477 233.094 42.4859C231.97 42.0742 232.123 43.0624 231.586 43.083L232.251 43.2477C232.225 43.9889 231.689 43.9889 231.05 44.3183C230.871 43.7624 231.586 43.8242 231.28 43.6183C230.794 44.9977 229.235 42.5889 228.366 43.6183C227.753 43.2065 228.008 42.2801 227.497 42.0124C226.5 43.1242 225.989 41.1889 224.89 42.1359C225.452 43.0624 225.478 42.8153 224.762 43.8653L226.705 42.9183L225.657 44.5036C226.296 44.4418 226.858 43.7212 227.267 43.8448C226.807 44.7095 226.807 44.4624 227.267 45.2242C226.091 43.8859 225.708 46.2948 224.507 45.4301L224.047 43.0212C222.334 42.1359 221.644 44.5859 219.574 44.2359L220.264 44.5653C220.187 45.5536 219.088 44.8536 218.526 45.3271C218.449 44.5242 217.989 44.2771 217.631 43.8036C217.759 44.4006 216.2 43.8859 216.277 45.5124L215.229 44.5448C213.593 44.2565 213.772 47.0153 212.213 46.8918C212.545 45.9653 211.779 45.4712 212.699 44.7301C212.187 44.7712 211.702 44.6683 211.779 45.2242C211.421 44.7506 210.526 46.4595 209.938 45.7389C209.759 46.1095 209.81 46.9742 209.223 46.9536C209.146 46.7889 209.172 46.5624 209.172 46.5624C209.223 46.9742 208.354 47.1801 208.967 48.0448C207.076 45.6359 204.545 48.5389 202.935 46.4595C201.836 46.8095 200.533 47.1595 199.51 47.283C199.561 47.0359 199.485 46.8712 199.689 46.9536C198.232 46.2742 199.025 49.3212 197.338 48.5389C196.418 47.2624 198.13 47.7977 197.593 47.3242C197.159 44.6683 195.702 47.7771 194.526 46.2536L194.782 46.0889C193.913 45.2242 192.84 47.1801 191.511 47.0565C191.511 47.0565 191.562 46.8095 191.511 46.6448C190.667 48.0653 188.929 48.5389 187.651 48.9301C188.009 47.8801 188.213 48.3742 187.932 47.3036C187.37 47.4683 188.162 49.0124 187.012 49.3212C186.603 48.7448 185.76 48.2712 185.632 47.1389L186.706 47.0565C186.118 45.5948 185.3 47.1183 184.712 46.8712L184.763 46.233C183.102 46.4595 183.102 48.0859 181.313 48.0036L181.492 48.4771C180.52 50.1036 180.674 47.5712 179.677 48.7653L179.396 47.1389C178.757 47.5301 177.121 48.683 175.945 48.9712C176.635 47.7771 177.99 47.1801 178.833 46.4595C178.195 46.4595 176.661 46.5624 176.303 47.3448C176.559 47.2006 176.891 46.7889 177.147 47.0565C176.354 48.333 175.281 48.9506 174.003 48.8889C174.31 45.7389 170.68 48.0653 169.862 45.5536C167.562 46.6242 165.441 44.8948 162.834 44.9771C163.575 47.4683 162.067 45.0183 162.041 47.5301C161.403 47.6536 161.172 47.5918 161.147 47.4271L159.435 45.8006C159.051 45.0389 160.073 45.2859 160.048 44.7095C158.744 44.4418 159.588 43.6183 158.77 42.8771C158.872 43.783 158.182 44.133 157.466 43.7418L158.412 44.9771C156.419 46.1918 157.006 42.7742 155.013 43.9683L155.677 43.2065C154.655 43.6183 152.15 42.9595 150.975 44.8742C150.847 44.5653 150.693 43.8653 151.154 43.7212C148.93 43.2271 145.761 45.4095 144.15 44.0095L144.406 43.4124C143.946 43.5565 143.486 44.5036 143.051 43.8242C143.128 43.5771 143.307 43.2271 143.128 43.1859C142.873 43.3712 141.825 44.133 141.313 43.7006L141.901 43.0624C139.806 42.0124 138.195 44.3389 136.227 44.5448C136.56 42.7536 134.924 41.9918 134.106 41.5801L134.183 41.333C131.652 40.7565 129.505 42.2183 126.95 42.5889C125.876 40.4889 122.119 41.0036 119.998 39.5624C120.279 39.933 119.589 40.9418 119.129 41.0448C118.669 40.5918 117.263 42.033 117.774 40.4065L117.953 40.4683C117.953 38.8006 116.701 39.0683 115.806 38.8418L115.09 40.9418C113.608 37.4212 108.65 40.9418 108.164 37.9565C107.448 38.3889 106.758 38.2448 106.043 38.6565L106.426 37.5242C104.969 36.9271 104.253 36.6183 102.26 36.4948L102.899 35.7742C101.851 35.4859 100.496 38.7595 99.474 38.6153L99.7296 36.8653C97.8127 36.5153 96.4581 34.5801 94.0812 35.6918C94.209 35.4448 94.4134 34.9712 94.7457 34.9918C93.8767 34.7448 91.7554 33.0977 91.2442 35.4653C91.7554 33.9624 89.3529 34.8889 88.1005 35.3006L88.6628 34.2301C87.3082 35.4242 87.1292 35.7948 85.8002 35.8977C85.5702 35.6918 85.8769 34.9506 86.158 35.3212C85.4424 34.5183 85.0334 36.1859 84.1133 35.3212L84.8034 34.7242C83.8577 34.3948 83.8066 34.7859 82.9632 35.4859C82.1709 35.7742 81.2252 34.7448 81.4808 33.7359C81.123 34.3124 80.254 34.9712 79.7939 34.5595C79.8706 34.1683 80.1773 33.983 80.3051 33.9006C79.0016 32.7477 77.3914 34.5389 76.7269 33.1801C76.8547 32.8095 76.8547 32.6036 76.8036 32.4801C78.0559 32.8506 79.0783 33.1801 78.9505 33.2418C79.3594 32.233 78.4138 31.7801 79.7684 30.6065C78.6438 31.1418 76.5735 32.4183 75.7557 31.6771C75.7557 31.5742 75.7557 31.4506 75.7557 31.2859L75.909 31.2036C75.7301 31.0389 75.4745 31.0801 75.2189 31.2036C74.9634 30.9565 74.81 30.7712 74.5289 30.6683C74.7589 29.8036 73.5321 29.9065 73.0465 29.7212C72.612 30.833 72.0241 30.4624 72.2797 31.533C72.2286 31.4301 72.4331 31.4301 72.7909 31.4712C72.8931 31.4712 72.9698 31.4712 73.0465 31.4095L72.9698 31.4918C73.3276 31.5536 73.7621 31.6359 74.2733 31.7595C73.6343 32.2124 73.0209 32.5624 72.7142 31.8006C72.1519 32.4389 71.5641 33.0771 71.2318 33.3653C71.1807 31.6565 70.1839 30.4624 70.4139 29.4536C68.5993 29.6183 66.6057 28.7948 64.6888 30.5448C64.1265 30.6683 64.4332 29.8036 64.4332 29.433C64.791 29.3095 65.0722 29.433 65.3533 29.1653C64.2287 29.433 62.6441 28.6095 61.7751 29.9683C60.9572 29.0006 63.0019 28.8565 61.3662 28.6301L61.7751 28.2595C59.8838 25.0683 55.181 30.3595 53.2641 26.4271C53.4175 26.6742 53.4686 26.7977 53.4175 27.0448C50.2993 24.533 45.0342 25.7065 42.4273 22.4124C41.6094 21.6506 41.0215 22.4948 39.9992 22.9477L40.3826 21.733L38.5679 22.6595C36.4977 23.0712 37.4178 18.9536 34.4785 20.0448L34.2996 20.9095C33.6862 20.4977 31.846 20.5389 32.4594 19.6948C32.3061 19.7977 31.7693 20.3948 31.7438 19.9006L32.0505 19.3036L29.7502 19.6742C28.6767 18.7477 31.3093 17.4095 29.4435 16.5859C28.6001 16.5448 26.402 17.533 26.4276 18.0271C26.7087 18.1712 26.9643 18.6653 26.6321 19.2624L25.7886 19.3242C24.6385 21.0124 23.0794 22.5977 24.0251 24.4095L25.7886 23.7712L25.6608 24.7595L24.664 24.4506C24.7407 25.4389 25.5075 24.883 26.172 24.533C25.9931 25.0065 25.9931 25.3977 26.1209 25.6448L28.1911 24.4095C27.9355 25.1506 26.9132 25.583 27.4499 26.2212C28.4212 25.6448 27.8333 24.5124 28.9834 24.3271C29.0857 25.3153 28.5489 25.9124 29.5713 25.4801C29.4179 25.9536 29.1112 26.2006 28.7534 26.3036C29.6224 25.9742 30.3892 26.633 31.207 25.8301C31.207 27.0242 33.2773 26.283 32.3061 27.9095C32.715 27.5801 34.044 26.9624 34.6063 27.0859C32.5361 28.733 36.5232 27.9095 35.1175 29.9477C36.8044 28.4036 38.159 30.0712 39.9481 29.5153C39.7947 29.6389 39.5136 29.8653 39.4369 29.7418C40.0759 30.133 39.9992 30.7712 40.2803 31.2653C41.1493 29.8036 42.4528 29.8448 43.5263 29.1242C43.6541 30.8536 42.0694 30.6889 41.635 32.1712C42.2228 30.9565 43.8074 31.4712 44.0119 30.3801C44.2164 31.4918 44.3697 30.9977 44.0886 32.3565C45.162 30.5242 44.8809 32.2536 46.031 31.2859C46.5422 32.5212 45.3921 33.1183 46.7722 32.9124C47.0023 33.6536 45.6988 34.0036 45.6988 34.0036L46.031 34.1271ZM73.5065 38.6153V38.6359C73.2765 38.5948 73.072 38.5742 72.9442 38.5536C73.072 38.5536 73.2254 38.5742 73.5065 38.6153ZM75.7046 39.1918C75.449 39.0683 75.1167 38.9859 74.7589 38.883C74.8356 38.4918 75.0911 38.1212 75.2956 38.2036C75.0656 38.4301 75.5001 38.78 75.7046 39.1918ZM74.2733 30.3389C74.6822 30.2771 74.7078 30.5242 74.6567 30.7506C74.4777 30.7301 74.2733 30.7095 74.0177 30.7301C73.9921 30.7712 73.941 30.8124 73.9155 30.8536C74.0432 30.6477 74.1455 30.4624 74.2733 30.3389Z" fill="#9F5225"/>
<path d="M73.0465 31.6153C73.0465 31.6153 72.9442 31.6565 72.8675 31.6565C72.8931 31.7801 72.9187 31.8624 72.9698 31.9653C73.072 31.8624 73.1487 31.7595 73.2254 31.6565L73.0465 31.6153Z" fill="#9F5225"/>
<path d="M274.704 34.8683C274.704 34.8683 274.806 34.9301 274.883 34.9712C274.832 34.9301 274.806 34.8889 274.78 34.8683H274.704Z" fill="#9F5225"/>
<path d="M105.889 48.3536L105.966 48.0653L105.71 48.2918L105.889 48.3536Z" fill="#9F5225"/>
<path d="M288.326 34.5595C288.326 34.5595 288.505 34.7242 288.633 34.7653C288.582 34.7036 288.48 34.6212 288.326 34.5595Z" fill="#9F5225"/>
<path d="M293.489 32.933L294.409 33.0154C293.975 32.933 293.694 32.9124 293.489 32.933Z" fill="#9F5225"/>
<path d="M297.604 31.9036C297.528 31.6977 297.476 31.5536 297.4 31.4301L297.604 31.9036Z" fill="#9F5225"/>
<path d="M233.887 50.7006C233.887 50.7006 233.784 50.7418 233.733 50.783C233.401 51.0712 233.631 50.9271 233.887 50.7006Z" fill="#9F5225"/>
<path d="M252.749 44.3595C252.621 44.6065 252.468 44.8536 252.314 45.0183C252.698 45.0183 252.953 44.9977 252.749 44.3595Z" fill="#9F5225"/>
<path d="M211.702 54.8381V54.8183L211.548 54.8389L211.702 54.8381Z" fill="#9F5225"/>
<path d="M251.394 45.2036C251.803 45.3477 252.084 45.2448 252.314 45.0183C252.008 45.0183 251.624 44.9565 251.394 45.2036Z" fill="#9F5225"/>
<path d="M314.115 25.0683L314.32 25.0271C314.32 25.0271 314.243 24.9036 314.217 24.8624L314.115 25.0683Z" fill="#9F5225"/>
<path d="M314.217 24.8418L314.32 24.6359C314.32 24.6359 314.166 24.7183 314.217 24.8418Z" fill="#9F5225"/>
<path d="M314.55 24.183L314.32 24.6359C314.473 24.5742 314.652 24.5124 314.55 24.183Z" fill="#9F5225"/>
<path d="M308.927 26.9624L309.131 27.3536C309.131 27.3536 309.054 27.1477 308.927 26.9624Z" fill="#9F5225"/>
<path d="M307.495 27.7448C307.904 27.6624 308.952 28.1153 309.285 27.6624L309.131 27.3536C309.285 27.9918 307.393 26.983 307.495 27.7448Z" fill="#9F5225"/>
<path d="M298.218 25.9742C298.703 25.9124 299.163 25.8301 299.649 25.7271C299.163 25.4389 298.55 25.0271 299.036 24.6771C296.71 24.183 299.956 25.4389 298.218 25.9536V25.9742Z" fill="#9F5225"/>
<path d="M293.975 26.9624C294.537 26.5095 293.592 26.3859 293.489 26.1389C293.285 26.6742 293.259 26.8183 293.975 26.9624Z" fill="#9F5225"/>
<path d="M265.17 36.7006L264.813 35.6918C264.327 36.0006 264.966 36.083 265.17 36.7006Z" fill="#9F5225"/>
<path d="M261.49 43.3918L262.282 43.8653L262.18 42.8771L261.49 43.3918Z" fill="#9F5225"/>
<path d="M255.356 37.0712L255.56 36.8653L254.768 37.4624L255.356 37.0712Z" fill="#9F5225"/>
<path d="M204.29 45.183L204.597 46.4595C204.954 46.1918 204.878 44.7506 204.29 45.183Z" fill="#9F5225"/>
<path d="M181.773 47.3653C181.517 46.7271 180.878 46.3153 180.495 46.933C181.006 47.0359 181.517 47.5301 181.773 47.3653Z" fill="#9F5225"/>
<path d="M114.707 39.2948L115.269 38.9653L114.324 39.1506L114.707 39.2948Z" fill="#9F5225"/>
<path d="M73.3787 13.2712C73.4298 12.9212 73.4554 12.1183 73.3787 12.2624L73.2509 13.6212L73.4043 13.2712H73.3787Z" fill="#9F5225"/>
<path d="M72.8931 10.7389C72.7398 11.3977 72.5608 12.5506 72.5608 13.8065C72.7398 12.5095 72.7398 13.0448 72.9187 11.5006C73.0209 11.3359 73.0465 11.9536 73.0209 12.4477C73.072 12.0977 73.1487 12.7565 73.2509 11.8918C73.1998 10.8418 73.0465 10.7801 72.842 11.6448C72.842 11.3359 72.8675 10.9859 72.8931 10.7389Z" fill="#9F5225"/>
<path d="M64.1776 8.2477L64.2287 8.41241C64.2287 8.41241 64.2287 8.26829 64.1776 8.2477Z" fill="#9F5225"/>
<path d="M58.7848 7.21829C58.7848 7.21829 58.8614 7.05358 58.8614 6.93006C58.8103 7.01241 58.7848 7.09476 58.7848 7.21829Z" fill="#9F5225"/>
<path d="M57.9924 5.67417C57.9924 5.67417 58.018 5.73594 58.0436 5.77711C58.0436 5.65358 58.0436 5.57123 57.9924 5.67417Z" fill="#9F5225"/>
<path d="M64.1776 8.2477L64.0498 7.81535C63.9987 8.26829 64.101 8.14476 64.1776 8.2477Z" fill="#9F5225"/>
<path d="M71.4874 13.9712C71.4874 13.9712 71.5641 13.7859 71.5896 13.6212C71.5641 13.683 71.5385 13.7242 71.5129 13.7653C71.5129 13.8477 71.5129 13.9095 71.5129 13.9712H71.4874Z" fill="#9F5225"/>
<path d="M66.6824 7.25947H66.7335C66.7335 7.09476 66.7846 6.90947 66.8102 6.70358L66.6824 7.25947Z" fill="#9F5225"/>
<path d="M68.5226 7.13594C68.5226 7.13594 68.3948 8.2477 68.3437 8.74182C68.3948 8.26829 68.4459 8.04182 68.497 7.95947C68.497 7.733 68.497 7.48594 68.5226 7.13594Z" fill="#9F5225"/>
<path d="M71.334 9.27711L71.3851 9.11241C71.3851 9.11241 71.3596 9.21535 71.334 9.27711Z" fill="#9F5225"/>
<path d="M65.3789 6.95064C65.3789 6.78594 65.3789 6.62123 65.3789 6.53888C65.3789 6.683 65.3789 6.82711 65.3789 6.95064Z" fill="#9F5225"/>
<path d="M12.3959 11.3359C12.3959 11.3359 12.3959 11.2124 12.4215 11.1301C12.3959 11.2536 12.3704 11.3153 12.3959 11.3359Z" fill="#9F5225"/>
<path d="M11.2969 5.42711L11.348 5.36535L11.4758 4.72711L11.2969 5.42711Z" fill="#9F5225"/>
<path d="M56.4078 4.10947V4.13006C56.4572 4.00653 56.4325 4.02711 56.4078 4.10947Z" fill="#9F5225"/>
<path d="M40.7915 3.86241C40.8426 4.91241 40.3315 5.15947 40.4593 6.333C40.4848 5.88006 40.9193 4.56241 40.7915 3.86241Z" fill="#9F5225"/>
<path d="M71.4618 13.8271C71.4618 13.8271 71.4107 13.8477 71.3852 13.8271C71.4107 13.8683 71.4363 13.8683 71.4618 13.8271Z" fill="#9F5225"/>
<path d="M40.4593 6.333V6.45744C40.4593 6.41596 40.4593 6.37448 40.4593 6.333Z" fill="#9F5225"/>
<path d="M52.4462 4.56241C52.4462 4.76829 52.4462 4.91241 52.4462 5.07711C52.4462 4.95358 52.4462 4.80947 52.4462 4.56241Z" fill="#9F5225"/>
<path d="M55.2066 6.37417L55.1554 6.20947C55.1554 6.31241 55.2066 6.35358 55.2066 6.37417Z" fill="#9F5225"/>
<path d="M50.7849 6.08594C50.7849 6.08594 50.7594 5.83888 50.6827 5.983C50.6827 6.04476 50.6827 6.08594 50.6827 6.12711C50.7083 5.96241 50.7594 5.90064 50.7849 6.08594Z" fill="#9F5225"/>
<path d="M49.2003 5.983C49.2003 5.983 49.2003 6.1477 49.2003 6.20947L49.2514 6.1477L49.2003 5.96241V5.983Z" fill="#9F5225"/>
<path d="M17.3543 11.3565C17.3798 11.0271 17.431 10.6771 17.4565 10.3271C17.3287 11.1506 17.0476 11.4183 17.3543 11.3565Z" fill="#9F5225"/>
<path d="M71.5385 13.333C71.5129 13.6212 71.4874 13.7653 71.4618 13.8271C71.4618 13.8271 71.4874 13.7859 71.5129 13.7653C71.5129 13.6006 71.5129 13.4359 71.5129 13.333H71.5385Z" fill="#9F5225"/>
<path d="M49.7881 15.1859L49.5581 15.0006C49.6092 15.1242 49.7115 15.1859 49.7881 15.1859Z" fill="#9F5225"/>
<path d="M28.8301 12.3859L28.7534 12.5095C28.7534 12.5095 28.8045 12.5095 28.8301 12.3859Z" fill="#9F5225"/>
<path d="M48.7658 15.1242C48.7658 14.7124 48.7402 14.4653 48.7147 14.3212C48.7147 14.4036 48.6891 14.4859 48.6636 14.6095L48.7914 15.1242H48.7658Z" fill="#9F5225"/>
<path d="M15.3096 12.8389C15.5396 12.9006 15.693 11.3771 15.8974 10.5124C16.2553 10.1212 15.8463 11.6448 15.7952 12.4271C16.0508 12.0565 16.4342 10.6771 16.5364 10.7595C16.5109 11.0065 16.5364 11.1095 16.4342 11.4183C16.8431 10.2448 17.022 11.4183 17.4821 9.93594C17.4821 10.0801 17.4821 10.2036 17.4565 10.3065C17.5588 9.54476 17.6865 8.783 17.7888 8.22711C17.891 8.22711 18.1466 7.30064 18.0188 8.28888C17.9677 8.2477 17.891 8.63888 17.7888 8.9477L17.9677 8.53594C17.8143 9.95652 17.7377 9.00947 17.5588 10.0595C17.8655 9.62711 18.3255 8.47417 18.4277 8.90652C18.2233 10.2859 17.9421 9.31829 17.9677 10.5948L17.7888 10.0389C17.6099 12.2418 17.661 9.87417 17.431 12.2212C17.7121 12.6536 17.9421 11.5624 18.2233 11.9948C18.4277 11.233 18.4022 10.8624 18.6067 10.1006C19.3223 8.76241 18.4022 13.6212 19.0667 11.8095C19.3223 10.9036 19.6546 9.15358 19.7568 10.1006L19.399 11.6653C19.7057 11.8506 19.9613 9.44182 20.1402 10.533C19.9868 11.1506 19.7824 11.0271 19.8079 11.2124C19.8079 12.4683 20.1146 10.3477 20.2935 10.3683L20.0891 11.7683C20.4724 11.583 21.0347 10.6359 21.4692 10.4095C21.3925 10.8212 21.2392 11.2536 21.2647 11.6859C21.8782 11.0477 22.2871 11.9742 22.6449 12.8389L23.0283 11.6653C23.0283 11.6653 23.0283 12.2212 22.9261 12.4477C23.0283 12.9212 23.0539 11.6859 23.2328 11.233C23.3606 11.1506 23.2583 11.933 23.1305 12.283C23.6161 11.2948 24.4085 10.183 24.5618 11.5006L24.434 11.8506C24.6385 12.3653 25.1241 9.42123 25.2008 10.5742L25.1241 10.7801C25.6353 11.3565 26.4531 10.3271 26.6065 12.1801C26.9643 10.4506 27.0665 13.0036 27.4755 10.5948C27.6288 11.8301 27.4755 12.2418 27.8333 13.0859C27.9355 13.2095 28.2422 11.6036 28.4467 11.3565L28.2678 12.6124L28.6767 11.3153L28.5745 12.8389L28.779 12.5301C28.779 12.5301 28.7279 11.9536 28.779 11.583C29.0857 11.0271 29.2135 12.5095 29.1112 13.1683L29.8013 12.1595C29.7246 12.6742 29.5969 12.8389 29.4691 13.1477C29.9547 11.8918 29.3413 14.4859 29.7758 13.333C29.7758 13.0448 29.9036 12.5918 29.9547 12.3242C29.9547 13.1065 30.2869 13.1271 30.5425 12.8389L30.3636 13.7036C30.747 13.9712 31.2837 13.3742 31.7182 13.4153C31.616 13.0036 31.8716 11.5006 32.0249 11.3565L31.8971 12.6948C32.1016 11.8712 31.8204 12.1801 32.1527 11.1918C32.3061 11.3565 32.0505 12.7153 31.8971 13.1477L32.1783 12.6948C32.1272 13.0859 32.0505 13.2918 31.9738 13.8065C32.1783 12.983 32.1527 15.1859 32.4594 13.7448L32.4083 14.1359C32.8683 14.1977 33.1239 13.7448 33.5073 13.7242C33.6607 12.5712 33.7885 12.8389 34.0185 11.9124C34.2485 12.3036 34.4274 13.2301 34.7597 13.1683C35.0664 12.6124 34.9642 12.2006 35.1431 11.5212C35.0153 12.5712 35.3475 12.5095 35.0919 13.2301C35.5009 13.0859 35.6287 13.0653 36.2165 12.2624C36.2165 11.8301 36.191 11.6448 36.2676 11.2742C36.3699 11.1095 36.421 11.7271 36.3443 12.2418V12.3448C37.06 10.8212 37.1878 15.5153 37.9034 13.3536L37.8523 13.4565L38.4657 12.3448C38.6446 12.5506 38.2357 13.1271 38.3123 13.7859C39.028 12.0771 39.0535 14.0948 39.6158 12.9624C39.5391 16.0918 40.766 12.8389 40.9449 14.8359L40.996 14.0948C41.2005 13.3948 41.0727 14.5271 41.1493 14.6918C41.2005 14.1153 41.0982 14.033 41.226 13.6418C42.2739 12.8389 43.0151 14.8565 43.9097 15.5771C44.2419 15.8036 44.5486 11.8095 44.7787 13.6006L44.4975 14.9389C45.3921 13.3742 45.9288 15.1036 46.7722 13.7653C46.6955 14.0742 46.6444 14.4859 46.5933 14.4653C46.6444 15.4536 47.13 14.5477 47.2067 13.7448C47.309 13.8477 47.1556 14.4653 47.1812 14.8771C47.2578 15.4742 47.6923 13.6418 47.6668 14.6301C47.6668 14.7948 47.5901 14.9389 47.5645 15.0212C47.7179 14.5477 47.999 15.1653 48.0246 14.033C48.2291 14.5889 48.5613 13.5595 48.7147 14.2389C48.9703 12.983 49.0981 14.8771 49.3281 13.0859C49.1236 14.9389 49.6348 14.6095 49.8904 13.7448C49.7881 14.3006 49.967 14.3418 49.8393 15.1036C50.0182 15.1036 50.2482 14.7536 50.2993 13.8065C50.4271 16.0506 51.1683 12.0565 51.0916 14.9183C51.7561 13.9506 52.3184 13.3124 52.8552 12.9006C52.6507 14.7536 52.2929 13.0448 52.114 15.0006C52.6763 14.2595 53.0852 12.6948 53.5197 13.1683C53.6219 13.4359 53.3663 13.9712 53.3152 14.2801C53.852 13.5389 54.2098 14.5065 54.7209 13.5183C54.7209 13.683 54.6443 13.8683 54.5932 14.0124C54.6698 13.9506 54.7721 14.3006 54.8232 13.4565L54.7209 13.683C54.7209 12.4477 55.2832 11.1506 55.3599 10.5124C55.0021 12.9212 55.7177 11.1506 55.2066 14.1771C55.2832 14.0124 55.3855 13.6212 55.411 13.0653C55.4877 13.2301 55.4621 13.5595 55.3344 14.1977C55.6666 13.7653 55.6411 12.8595 55.9222 12.8801C55.8966 13.2918 55.82 13.4359 55.7433 13.9301C55.9478 13.1477 56.1522 12.3653 56.3567 12.7153C56.3311 12.9624 56.3311 13.2918 56.2545 13.2712C56.6634 13.1683 57.0979 11.1918 57.4557 11.9948C57.1746 13.7653 57.5579 12.5918 57.4557 14.1153L57.7369 13.6624V12.9212C57.9158 12.9624 58.1714 11.8506 58.2991 12.3653L58.0947 12.983L58.5036 12.7153L58.3503 12.1183C58.6314 11.3359 58.5036 10.183 58.7336 10.6153C58.657 10.7595 58.9381 10.6359 58.9637 11.5624C59.0915 11.0889 59.2448 10.5742 59.3726 10.9653C59.3726 11.4595 59.1937 12.6536 59.1937 12.983C59.3982 11.7065 59.7049 12.6536 59.9349 11.2948C59.8582 11.6036 59.8071 12.4271 59.8071 12.5918L59.986 11.5624C60.0627 11.8918 60.0627 12.0565 59.986 12.6948C60.2416 12.9006 60.0627 10.7389 60.3183 11.6036C60.2927 11.6859 60.2927 11.8506 60.216 11.9948C60.5227 12.4477 60.9061 11.3771 61.1873 11.8918C61.1617 13.4359 60.8806 12.2624 60.8806 13.5595C61.3406 13.3124 61.954 11.7477 62.3374 12.1389L62.2607 11.9742C62.4908 9.79182 62.4908 13.0653 62.7975 12.0565C62.7208 12.2212 62.6441 13.2712 62.6697 13.0242C62.9253 13.3948 63.3086 12.5095 63.7942 11.8506L63.692 12.4065C63.8198 12.9212 64.1265 12.7153 64.3054 12.983C64.4077 12.4271 64.5099 12.5301 64.4843 11.7065C64.8421 14.9183 65.7111 10.0595 66.0178 12.7359C65.9667 12.7359 65.8389 13.2301 65.8901 13.2301L66.3501 12.7359C66.3757 11.7889 66.3501 12.1595 66.299 11.4183C66.4012 10.8624 66.5546 10.4301 66.6568 10.4301C66.4268 11.0477 66.5546 11.9536 66.6057 12.4889C66.6057 12.2006 66.6568 11.8712 66.6824 11.583C66.7846 13.2918 66.8357 9.66829 67.0913 10.8212L67.0402 11.3153C67.168 11.0683 67.3213 10.4095 67.4491 10.5536C67.4491 11.6448 67.2958 11.0683 67.2191 11.9742C67.398 11.9124 67.7047 9.91535 67.7814 11.0065C67.6792 11.3153 67.5769 11.3153 67.4747 11.6036C67.5769 12.9006 67.6025 12.5712 67.7303 12.7771L67.9859 13.3536L67.9347 13.0036C68.3437 10.1418 68.4204 12.5095 68.8293 10.6359C68.4204 12.4065 68.7271 11.6653 68.6248 12.9006C68.6759 13.2506 68.7782 13.6418 68.7271 13.9918C68.9315 12.983 68.906 14.7948 69.2127 13.333C69.2127 13.7242 69.366 13.3742 69.2638 14.383C69.4683 14.0742 69.2638 13.683 69.3149 13.1889C69.6727 11.8301 69.8772 14.8771 70.3884 13.0036C70.7717 12.2418 70.9251 10.883 71.2829 10.2242C71.3596 10.8624 71.104 11.6859 71.104 11.6859C71.2574 12.283 71.3852 12.1801 71.5896 11.7271C71.5385 12.0771 71.5641 12.3653 71.5896 12.8183C71.7174 12.7153 71.7685 11.3565 71.8963 11.9536C71.8452 12.4065 71.7685 13.1065 71.6663 13.5595C71.8452 13.1889 72.0497 12.4477 72.2286 12.0977C72.2286 12.7977 72.0752 13.1477 71.9986 13.6006C72.203 13.2918 72.5097 12.983 72.612 11.8712L72.5097 11.4801C72.5097 11.4801 72.5097 12.4271 72.4331 12.633C72.2286 13.4977 72.2286 12.2418 72.2286 11.8301L72.3564 11.583C72.3564 9.23594 71.8708 11.9536 71.6407 11.7889L71.8452 10.0801L71.5385 11.5006C71.5129 11.0477 71.5385 10.1006 71.6663 9.85358C71.5385 9.00947 71.4874 10.4506 71.3852 9.50358C71.3852 9.35947 71.3852 9.27711 71.3852 9.21535L71.2062 9.70947C71.2574 9.35947 71.2574 8.49476 71.334 8.74182C71.104 7.75358 70.7973 9.9977 70.7462 8.70064V8.5977C70.3372 9.15358 70.6695 9.85358 70.2861 11.3153V8.20652L70.1583 9.46241C70.1072 9.42123 70.0305 9.31829 70.0817 8.82417C69.8772 9.66829 70.0817 9.38005 69.9283 10.183C69.8005 9.03005 69.3405 10.6977 69.4171 8.70064C69.2893 9.6477 69.5705 9.44182 69.3149 10.1006C69.3916 7.93888 69.0338 10.4506 68.9315 9.46241C69.0593 8.35064 69.1871 8.9477 69.0849 7.95947C68.8548 9.833 68.7526 7.52711 68.5737 7.87711C68.4715 9.38005 68.1903 8.49476 67.9092 8.96829C67.9603 8.47417 67.4747 8.12417 67.2702 7.56829V7.32123C67.1424 8.82417 66.9124 8.53594 66.7079 8.84476C66.7846 7.93888 66.8357 7.58888 66.9635 7.17711H66.7846C66.7079 7.65064 66.6313 7.91829 66.529 8.083L66.6568 6.95064C66.4268 7.01241 66.1201 8.26829 65.8645 7.48594C65.7623 8.53594 65.8901 10.4301 65.5322 11.1095C65.5578 10.533 65.6089 9.56535 65.7111 9.33888C65.6856 9.40064 65.5834 9.81241 65.5578 9.56535L65.7367 8.61829C65.6345 8.18594 65.6089 9.42123 65.5067 9.31829C65.5578 8.51535 65.4556 8.74182 65.5067 8.083C65.5322 8.00064 65.5834 8.41241 65.6345 8.10358C65.5322 7.95947 65.4044 7.46535 65.4044 6.8477C65.4044 7.30064 65.3278 7.93888 65.2255 8.04182C64.9955 8.083 65.2255 7.05358 65.1233 6.64182C65.0211 7.1977 64.9188 6.62123 64.8422 7.81535C64.7655 7.81535 64.8166 7.23888 64.791 6.90947C64.6377 7.44476 64.2287 7.033 64.2799 8.33005V8.41241C64.2799 8.41241 64.2799 8.433 64.2799 8.47417C63.8198 9.66829 63.5387 7.75358 63.1042 8.2477V7.83594C62.8741 8.28888 62.6186 8.083 62.3885 8.9477C62.3119 8.9477 62.2863 8.20652 62.363 7.71241C62.1585 8.00064 62.1074 8.47417 61.9029 7.77417C62.1329 7.07417 61.9029 7.13594 62.1329 7.25947C61.9285 6.88888 61.9285 6.25064 61.5962 7.34182C61.7496 6.31241 61.5195 6.02417 61.3917 6.333L61.494 7.09476C61.3662 7.23888 61.264 7.13594 61.1617 7.05358L61.3151 5.69476C60.9828 4.00653 60.2672 8.47417 60.1394 5.69476C59.9349 6.64182 60.3438 6.37417 60.1394 7.48594C59.9349 7.28005 59.8838 5.32417 59.8071 5.30358C59.5771 4.52123 59.3726 7.28005 59.117 6.74476C59.117 7.23888 59.0403 8.53594 58.7848 8.98888C58.5803 8.80358 58.7081 6.93005 58.8614 6.53888C58.9126 6.4977 58.9381 6.66241 58.9126 6.82711C58.9892 6.66241 59.0915 6.45653 59.0659 5.92123L58.9892 6.41535C58.9381 5.92123 58.6314 5.94182 58.7592 5.15947C58.5547 5.61241 58.6314 5.96241 58.7081 6.20947C58.5036 5.48888 58.2736 6.16829 58.0436 5.67417C58.0436 5.94182 58.0436 6.51829 58.018 6.51829C57.6602 5.90064 57.7624 7.42417 57.4557 7.63005C57.3535 6.86829 57.6602 5.85947 57.3279 6.45653C57.2001 5.94182 57.4046 5.15947 57.5068 4.76829C57.1746 5.69476 57.0979 4.13005 56.9445 3.94476L57.1235 3.55358C57.0212 3.78005 56.9701 3.78006 56.8934 3.75947V4.7477C56.8168 4.56241 56.7656 4.56241 56.7912 4.15064C56.6634 4.78888 56.7145 5.77711 56.4589 6.64182C56.4078 6.1477 56.1011 7.15652 56.1778 5.85947C56.4589 6.31241 56.2545 4.56241 56.5612 4.35653C56.4845 4.50064 56.4334 4.50064 56.3567 4.31535C56.3567 4.17123 56.3823 4.0477 56.4078 3.96535C56.2033 2.79182 56.1267 5.42711 55.7944 5.36535C55.8966 4.64476 55.8455 3.98594 55.7944 4.13005C55.9222 4.15064 55.7433 5.34476 55.5644 5.90064C55.411 5.32417 55.3088 6.31241 55.181 6.23005L55.2832 6.4977C55.181 7.21829 55.0788 7.11535 54.8999 7.34182C54.951 6.76535 55.0788 6.95064 55.0277 6.70358C54.7465 7.98005 54.7721 5.36535 54.4654 6.20947C54.4142 5.71535 54.5932 4.83005 54.5165 4.50064C54.1842 5.42711 54.3376 3.49182 54.0053 4.25358C54.0053 5.24182 54.0053 4.99476 53.7497 5.94182L54.2609 5.283L53.852 6.683C53.9797 6.70358 54.1842 6.08594 54.2609 6.25064C54.0564 7.033 54.082 6.80652 54.082 7.60947C54.0309 6.12711 53.6475 8.433 53.5197 7.44476L53.7497 5.01535C53.5453 3.92417 53.0596 6.23005 52.7274 5.59182L52.8296 6.02417C52.6763 6.99182 52.574 6.1477 52.3951 6.51829C52.4973 5.71535 52.4207 5.40653 52.4207 4.89182C52.3696 5.48888 52.1395 4.80947 51.9351 6.43594L51.8584 5.36535C51.5772 4.91241 51.245 7.65064 50.9638 7.36241C51.1427 6.4977 51.0661 5.90064 51.3472 5.283C51.245 5.283 51.1683 5.11829 51.0916 5.67417C51.0916 5.15947 50.6827 6.74476 50.6571 5.96241C50.5805 6.31241 50.4782 7.15653 50.3504 7.09476C50.3504 6.93005 50.4015 6.70358 50.4015 6.70358C50.3504 7.09476 50.1715 7.23888 50.1715 8.14476C50.0948 5.59182 49.2258 8.26829 49.1747 6.06535C48.9191 6.31241 48.6124 6.55947 48.3824 6.60064C48.4335 6.35358 48.4335 6.18888 48.4591 6.29182C48.2546 5.50947 48.0246 8.5977 47.7946 7.733C47.769 6.41535 48.0502 7.033 47.999 6.53888C48.2291 3.86241 47.5645 6.86829 47.5134 5.30358L47.5901 5.15947C47.5134 4.233 47.0789 6.1477 46.7978 5.92123C46.7978 5.92123 46.8233 5.69476 46.8489 5.50947C46.5166 6.8477 46.1077 7.28005 45.801 7.63005C46.0055 6.60064 45.9799 7.09476 46.0566 6.02417C45.9288 6.16829 45.9032 7.733 45.6221 8.00064C45.6221 7.42417 45.4943 6.90947 45.6221 5.77711L45.8521 5.73594C45.9032 4.27417 45.5454 5.75653 45.4687 5.50947L45.5454 4.87123C45.1876 5.05653 44.9831 6.66241 44.6253 6.51829V7.01241C44.2164 8.5977 44.5486 6.10652 44.1908 7.28005L44.3186 5.65358C44.1397 6.02417 43.6796 7.17711 43.3985 7.46535C43.6796 6.27123 44.0375 5.67417 44.293 4.97417C44.1652 4.95358 43.833 5.05652 43.6796 5.85947C43.7563 5.71535 43.8585 5.32417 43.8841 5.57123C43.5774 6.82711 43.2963 7.44476 43.0151 7.383C43.424 4.25358 42.4273 6.53888 42.5295 4.08888C41.9161 5.22123 41.6605 3.51241 41.0982 3.65653C40.996 6.10653 40.9193 3.71829 40.6637 6.23005C40.5104 6.37417 40.4848 6.333 40.4848 6.16829L40.2803 4.64476C40.2803 3.90358 40.4593 4.10947 40.5359 3.533C40.2803 3.32711 40.5359 2.46241 40.4593 1.783C40.3826 2.68888 40.2037 3.05947 40.0759 2.70947L40.1525 3.883C39.5903 5.18005 40.0759 1.76241 39.5391 3.03888L39.7692 2.25653C39.5136 2.70947 39.028 2.17417 38.5935 4.17123C38.5935 3.883 38.6446 3.183 38.7468 3.01829C38.3123 2.66829 37.4178 5.07711 37.1878 3.80064L37.3155 3.183C37.2133 3.3477 37.0088 4.31535 36.9833 3.6977C37.0344 3.45064 37.1111 3.08006 37.06 3.05947C36.9833 3.26535 36.6766 4.10947 36.5999 3.73888L36.8044 3.05947C36.4466 2.21535 35.8587 4.66535 35.4242 5.05653C35.6798 3.24476 35.3731 2.6477 35.2453 2.33888L35.2964 2.09182C34.7852 1.82417 34.1718 3.49182 33.584 4.17123C33.5584 2.19476 32.6383 3.26535 32.3061 2.11241C32.3316 2.44182 32.1016 3.51241 31.9738 3.67711C31.8971 3.30653 31.4626 4.89182 31.7182 3.24476V3.28594C31.8971 1.65947 31.5904 2.07123 31.4115 2.00947L31.0792 4.17123C31.0537 0.980055 29.6224 5.20064 29.7502 2.35947C29.5457 2.89476 29.3924 2.87417 29.2135 3.38888L29.3924 2.23594C29.1112 1.90653 28.9579 1.74182 28.5234 1.98888L28.7279 1.16535C28.5234 1.06241 27.9355 4.48005 27.7055 4.52123L27.91 2.79182C27.501 2.79182 27.3221 1.22711 26.7087 2.75064C26.7598 2.50358 26.8365 2.00947 26.9132 1.92711C26.7343 1.86535 26.3765 0.69182 26.0698 3.05947C26.2998 1.51535 25.6864 2.87417 25.3541 3.533L25.5586 2.40064C25.1497 3.84182 25.073 4.233 24.7663 4.60358C24.7407 4.43888 24.8685 3.67711 24.8941 3.98594C24.7918 3.36829 24.5618 5.05653 24.4085 4.41829L24.6129 3.6977C24.4085 3.59476 24.3829 3.98594 24.1273 4.80947C23.9228 5.26241 23.7695 4.48005 23.9228 3.45064C23.795 4.06829 23.5395 4.91241 23.4628 4.583C23.5139 4.19182 23.5906 3.96535 23.6417 3.84182C23.4117 3.03888 22.9005 5.11829 22.8494 3.96535C22.9005 3.59476 22.9261 3.38888 22.9261 3.28594C23.2072 3.3477 23.4117 3.43006 23.3861 3.51241C23.565 2.46241 23.3861 2.25653 23.7695 0.835938C23.4628 1.5977 22.8749 3.28594 22.7471 2.77123C22.7471 2.66829 22.7471 2.56535 22.7727 2.40064L22.8238 2.27711C22.7983 2.17417 22.7216 2.27711 22.6705 2.44182C22.6194 2.25653 22.6194 2.133 22.5427 2.11241C22.6705 1.2477 22.3638 1.61829 22.2615 1.55653C22.0826 2.70947 21.9548 2.50358 21.9548 3.47123C21.9548 3.38888 22.0059 3.32711 22.0826 3.30653C22.0826 3.26535 22.1337 3.26535 22.1593 3.183V3.28594C22.1593 3.28594 22.3127 3.24476 22.4149 3.24476C22.236 3.82123 22.0571 4.29476 22.0315 3.65653C21.8526 4.37711 21.6481 5.13888 21.5715 5.48888C21.6737 3.86241 21.5459 2.97711 21.6481 1.98888C21.2136 2.58594 20.7791 2.31829 20.2168 4.45947C20.0635 4.72711 20.2168 3.82123 20.2168 3.49182C20.3191 3.28594 20.3702 3.32711 20.4469 3.01829C20.1657 3.55358 19.8335 3.16241 19.5268 4.66535C19.399 3.96535 19.9101 3.28594 19.5268 3.51241L19.6546 3.05947C19.4245 0.588879 17.9166 6.78594 17.7377 3.61535C17.7377 3.80064 17.7632 3.90358 17.7377 4.15064C17.1498 2.68888 15.7952 5.24182 15.3607 2.97711C15.2074 2.52417 15.0029 3.47123 14.7473 4.19182L14.9262 2.95653L14.415 4.35653C13.8783 5.34476 14.3639 1.26829 13.5716 3.183L13.4694 4.02711C13.3416 3.84182 12.8815 4.45947 13.086 3.51241C13.0349 3.65653 12.8815 4.37711 12.8815 3.92417L12.9838 3.28594L12.3959 4.33594C12.1914 3.84182 12.9071 1.783 12.4982 1.61829C12.2937 1.84476 11.6803 3.43005 11.6803 3.883C11.7314 3.92417 11.7825 4.29476 11.6803 4.95358L11.4758 5.26241C11.0924 7.15652 10.6068 9.09182 10.7346 10.4506L11.2202 9.31829L11.1435 10.2448L10.9135 10.2859C10.8624 11.1712 11.0924 10.4095 11.2713 9.89476C11.1947 10.3889 11.1691 10.7389 11.1947 10.9242L11.7825 9.133C11.6803 9.87417 11.3991 10.5948 11.5014 11.0271C11.7825 10.2036 11.7058 9.35947 11.987 8.82417C11.9614 9.70947 11.7825 10.3889 12.0637 9.68888C11.987 10.183 11.9103 10.4918 11.8081 10.6977C12.0381 10.1212 12.1914 10.4918 12.447 9.483C12.3704 10.5536 12.9326 9.25653 12.6004 11.0477C12.7282 10.6153 13.086 9.66829 13.2138 9.60652C12.6004 11.7271 13.6227 9.79182 13.1627 12.0771C13.6738 10.1624 13.9039 11.2948 14.3639 10.2448C14.3128 10.3889 14.2361 10.6977 14.2361 10.5948C14.3639 10.7801 14.3128 11.3565 14.3384 11.7477C14.6451 10.1624 14.9518 9.81241 15.2585 8.84476C15.1818 10.4095 14.7984 10.6977 14.594 12.2006C14.824 10.9036 15.1562 10.9448 15.284 9.85358C15.284 10.8212 15.3352 10.3271 15.1818 11.6653C15.5652 9.66829 15.3863 11.3359 15.7185 10.1212C15.7697 11.1301 15.4374 11.9948 15.7952 11.4183C15.7952 12.0359 15.4629 12.7359 15.4629 12.7359L15.3096 12.8389ZM21.5459 9.9977V10.0183C21.4948 10.0389 21.4437 10.0595 21.4181 10.0801C21.4437 10.0801 21.4692 10.0389 21.5459 9.9977ZM22.0315 10.0389C22.0315 10.0389 21.9037 9.97711 21.827 9.97711C21.8782 9.58594 21.9548 9.17417 22.0059 9.19476C21.9293 9.46241 22.0059 9.68888 22.0059 10.0389H22.0315ZM22.3382 1.98888C22.4404 1.82417 22.4149 2.07123 22.3893 2.2977C22.3638 2.2977 22.3127 2.33888 22.236 2.42123C22.236 2.46241 22.236 2.50358 22.2104 2.56535C22.2615 2.33888 22.3127 2.15358 22.3382 1.98888Z" fill="#9F5225"/>
<path d="M21.9548 3.47123C21.9548 3.47123 21.9293 3.533 21.9037 3.55358C21.9037 3.65653 21.9037 3.73888 21.9037 3.82123L21.9804 3.47123H21.9293L21.9548 3.47123Z" fill="#9F5225"/>
<path d="M64.2543 8.433C64.2543 8.433 64.2543 8.49522 64.2543 8.57818C64.2543 8.51596 64.2543 8.49522 64.2543 8.433Z" fill="#9F5225"/>
<path d="M28.2167 12.9006L28.2678 12.5918L28.1911 12.8595L28.2167 12.9006Z" fill="#9F5225"/>
<path d="M66.5801 12.5301C66.5801 12.5301 66.5801 12.7359 66.5801 12.8183C66.5801 12.7359 66.5801 12.633 66.5801 12.5301Z" fill="#9F5225"/>
<path d="M67.6792 12.8389L67.8069 13.2506C67.7558 13.0036 67.7047 12.9006 67.6792 12.8389Z" fill="#9F5225"/>
<path d="M68.5226 13.4359C68.5226 13.2301 68.5481 13.0859 68.5737 12.9418L68.5226 13.4359Z" fill="#9F5225"/>
<path d="M54.5676 14.0948C54.5676 14.0948 54.5676 14.0948 54.5165 14.1359C54.4142 14.3624 54.4909 14.2801 54.5676 14.0948Z" fill="#9F5225"/>
<path d="M58.9126 11.6448C58.8614 11.8506 58.7848 12.0565 58.7337 12.1801C58.8103 12.2624 58.8614 12.3036 58.9126 11.6448Z" fill="#9F5225"/>
<path d="M49.8119 15.2058V15.1859L49.7881 15.1859L49.8119 15.2058Z" fill="#9F5225"/>
<path d="M58.5292 12.1595C58.5803 12.3859 58.657 12.3448 58.7081 12.1801C58.657 12.0977 58.6059 11.9742 58.5292 12.1595Z" fill="#9F5225"/>
<path d="M72.2797 14.1153L72.3308 14.1565C72.3308 14.1565 72.3308 14.0124 72.3308 13.9712L72.2797 14.1153Z" fill="#9F5225"/>
<path d="M72.3308 13.9712L72.3819 13.8271C72.3819 13.8271 72.3308 13.8271 72.3308 13.9712Z" fill="#9F5225"/>
<path d="M72.4842 13.5595L72.3819 13.8477C72.3819 13.8477 72.4586 13.8889 72.4842 13.5595Z" fill="#9F5225"/>
<path d="M71.1551 13.5389V13.9506C71.1551 13.9506 71.1551 13.7242 71.1551 13.5389Z" fill="#9F5225"/>
<path d="M70.7973 13.6418C70.7973 13.6418 70.9507 14.5477 71.0784 14.2801V13.9506C71.0273 14.5683 70.8995 12.9418 70.7973 13.6418Z" fill="#9F5225"/>
<path d="M69.6472 8.41241L69.9283 8.76241C69.9283 8.30947 69.8772 7.71241 70.005 7.60947C69.7238 6.27123 70.005 8.61829 69.6472 8.41241Z" fill="#9F5225"/>
<path d="M68.7782 7.71241C68.9571 7.50653 68.8293 7.05358 68.8293 6.80653C68.7015 7.21829 68.6759 7.32123 68.7782 7.71241Z" fill="#9F5225"/>
<path d="M62.2863 7.42417L62.3885 6.37417C62.2607 6.51829 62.363 6.78594 62.2863 7.42417Z" fill="#9F5225"/>
<path d="M60.5994 12.7977L60.6761 13.4565L60.8039 12.4889L60.5994 12.7977Z" fill="#9F5225"/>
<path d="M60.4716 5.26241L60.5483 5.11829L60.3183 5.48888L60.4716 5.26241Z" fill="#9F5225"/>
<path d="M49.5837 4.99476L49.4814 6.29182C49.5837 6.06535 49.7626 4.62417 49.5837 4.99476Z" fill="#9F5225"/>
<path d="M44.7531 5.96241C44.7531 5.30358 44.702 4.89182 44.5486 5.50947C44.6509 5.61241 44.702 6.12711 44.7531 5.96241Z" fill="#9F5225"/>
<path d="M31.0026 2.68888L31.1559 2.25653L30.9259 2.60653L31.0026 2.68888Z" fill="#9F5225"/>
<path d="M4.88169 53.8301C5.31619 53.9124 6.31297 54.0153 6.1085 53.933L4.4472 53.6653L4.88169 53.8301Z" fill="#9F5225"/>
<path d="M8.05096 53.7477C7.25864 53.5624 5.85292 53.2948 4.29384 53.1506C5.87848 53.4183 5.21395 53.3565 7.10529 53.6859C7.2842 53.7889 6.543 53.7477 5.92959 53.6448C6.36409 53.7271 5.54621 53.7065 6.59412 53.8712C7.8976 53.933 7.97428 53.8301 6.92638 53.583C7.30976 53.583 7.7187 53.6859 8.0254 53.7271L8.05096 53.7477Z" fill="#9F5225"/>
<path d="M11.7825 47.0359H11.578C11.578 47.0359 11.757 47.0359 11.7825 47.0359Z" fill="#9F5225"/>
<path d="M13.1882 42.733C13.1882 42.733 13.3927 42.7948 13.5461 42.7948C13.4438 42.7536 13.3416 42.733 13.1882 42.733Z" fill="#9F5225"/>
<path d="M15.1051 42.0742C15.1051 42.0742 15.0285 42.0948 14.9773 42.1153C15.1307 42.1153 15.2329 42.0948 15.1051 42.0742Z" fill="#9F5225"/>
<path d="M11.7825 47.0359L12.3192 46.9536C11.7825 46.8918 11.9103 46.9742 11.7825 47.0359Z" fill="#9F5225"/>
<path d="M4.19161 52.3065C4.19161 52.3065 4.42164 52.3683 4.6261 52.4095C4.54943 52.3889 4.49831 52.3477 4.4472 52.3271C4.34496 52.3271 4.26828 52.3065 4.19161 52.2859V52.3065Z" fill="#9F5225"/>
<path d="M12.8815 49.0948V49.1359C13.0604 49.1565 13.2905 49.1977 13.5461 49.2389L12.8815 49.1154V49.0948Z" fill="#9F5225"/>
<path d="M12.9071 50.5977C12.9071 50.5977 11.5525 50.4124 10.9391 50.3301C11.5269 50.4124 11.8081 50.4536 11.9103 50.4948C12.1914 50.5154 12.4982 50.5565 12.9326 50.5771L12.9071 50.5977Z" fill="#9F5225"/>
<path d="M10.019 52.6565L10.1979 52.7183C10.1979 52.7183 10.0701 52.6771 10.019 52.6565Z" fill="#9F5225"/>
<path d="M13.3416 48.0448C13.5461 48.0448 13.7505 48.0653 13.8528 48.0859C13.6738 48.0859 13.4949 48.0653 13.3416 48.0448Z" fill="#9F5225"/>
<path d="M0.894551 7.87711C0.894551 7.87711 1.0479 7.85653 1.15014 7.83594C0.996785 7.83594 0.894551 7.85653 0.894551 7.87711Z" fill="#9F5225"/>
<path d="M7.53978 5.20064H7.61646L8.40878 5.07711L7.53978 5.20064Z" fill="#9F5225"/>
<path d="M17.0476 40.7771H17.022C17.1754 40.8168 17.1498 40.797 17.0476 40.7771Z" fill="#9F5225"/>
<path d="M16.2041 27.9095C14.9262 28.0742 14.5428 27.7242 13.1371 27.9712C13.6994 27.9301 15.3863 28.1153 16.2041 27.9095Z" fill="#9F5225"/>
<path d="M4.37052 52.3065C4.37052 52.3065 4.37052 52.2653 4.37052 52.2448C4.3194 52.2653 4.3194 52.2859 4.37052 52.3065Z" fill="#9F5225"/>
<path d="M13.1371 27.9506L13.0093 27.9705C13.0604 27.9705 13.1116 27.9705 13.1627 27.9506H13.1371Z" fill="#9F5225"/>
<path d="M16.3575 37.5036C16.1019 37.5036 15.923 37.5036 15.7185 37.5036C15.8719 37.5036 16.0508 37.5036 16.3575 37.5036Z" fill="#9F5225"/>
<path d="M14.185 39.8301L14.3895 39.7889C14.2617 39.7889 14.2106 39.8301 14.185 39.8301Z" fill="#9F5225"/>
<path d="M14.3895 36.2271C14.3895 36.2271 14.6962 36.1859 14.5173 36.1448C14.4406 36.1448 14.3895 36.1448 14.3384 36.1448C14.5428 36.1448 14.6195 36.1859 14.3895 36.2271Z" fill="#9F5225"/>
<path d="M14.415 34.9301C14.415 34.9301 14.2106 34.9301 14.1339 34.9301L14.2106 34.9712L14.415 34.9095V34.9301Z" fill="#9F5225"/>
<path d="M2.32583 11.4183C2.73477 11.3565 3.16927 11.2742 3.60376 11.2124C2.60698 11.3565 2.19804 11.2124 2.32583 11.4183Z" fill="#9F5225"/>
<path d="M4.98393 52.4095C4.62611 52.3683 4.44719 52.3271 4.37052 52.3065C4.37052 52.3065 4.42164 52.3477 4.4472 52.3477C4.65166 52.3683 4.85613 52.4095 4.98393 52.4095Z" fill="#9F5225"/>
<path d="M3.06703 35.9183L3.29706 35.733C3.14371 35.7742 3.06703 35.8565 3.06703 35.9183Z" fill="#9F5225"/>
<path d="M3.83379 20.0242L3.65488 19.983C3.65488 19.983 3.65488 20.0242 3.83379 20.0242Z" fill="#9F5225"/>
<path d="M3.09259 35.1565C3.60376 35.1359 3.88491 35.0948 4.08937 35.0742C3.98714 35.0742 3.88491 35.0742 3.73155 35.0536L3.11815 35.1771L3.09259 35.1565Z" fill="#9F5225"/>
<path d="M0 10.3889C0 10.5742 1.84022 10.2448 2.91368 10.1418C3.47597 10.2859 1.55907 10.4301 0.613406 10.6153C1.12458 10.6771 2.86256 10.5742 2.81144 10.6771C2.50474 10.7183 2.40251 10.7595 2.01913 10.7801C3.52709 10.7389 2.17248 11.1918 4.06382 11.1301C3.91046 11.1506 3.75711 11.1918 3.60376 11.2124C4.52387 11.0683 5.46954 10.9448 6.15962 10.8624C6.21074 10.9448 7.36087 10.8624 6.15962 11.0477C6.18518 10.9859 5.69957 11.0477 5.31619 11.0683H5.85292C4.11493 11.3771 5.21395 11.0477 3.93602 11.2124C4.54943 11.3153 6.03183 11.3359 5.57177 11.5212C3.85935 11.7477 4.93281 11.2948 3.45041 11.6448L4.06382 11.3771C1.38016 11.8506 4.21717 11.233 1.35461 11.7271C0.894551 12.0359 2.30027 11.9124 1.84022 12.2212C2.81145 12.1595 3.24594 12.0359 4.21717 11.9742C6.00627 12.1389 -0.0511174 12.7771 2.27471 12.7771C3.42485 12.7153 5.62289 12.4889 4.49831 12.8183L2.5303 12.9624C2.37695 13.2301 5.34175 12.7977 4.08937 13.2095C3.32262 13.2506 3.39929 13.0859 3.19482 13.1477C1.68687 13.4977 4.3194 13.1477 4.34496 13.2712L2.63253 13.4977C2.93924 13.7448 4.24273 13.8889 4.60055 14.1565C4.08937 14.1977 3.52709 14.1977 3.01591 14.3212C3.93602 14.6095 2.93924 15.1448 1.96801 15.5977H3.47597C3.47597 15.5977 2.81145 15.7212 2.5303 15.7006C1.99357 15.8859 3.47597 15.6183 4.06382 15.6183C4.19161 15.6801 3.22038 15.8036 2.76033 15.8036C4.06382 15.9271 5.57177 16.2565 4.0127 16.6683H3.55264C2.9648 16.9153 6.64523 16.6065 5.29063 16.9359H5.00948C4.42164 17.4301 5.87848 17.8006 3.65488 18.3359C5.8018 18.233 2.73477 18.8506 5.75068 18.6448C4.29384 19.0153 3.75711 18.9948 2.78589 19.4271C2.65809 19.5301 4.67722 19.4271 5.00948 19.5301L3.45041 19.6536L5.11172 19.6948L3.24594 19.9212L3.65488 20.0036C3.65488 20.0036 4.34496 19.8595 4.80502 19.8389C5.54621 19.9624 3.75711 20.333 2.9648 20.3948L4.34496 20.7036C3.706 20.7448 3.47597 20.683 3.06703 20.6624C4.70278 20.7653 1.40572 20.8065 2.91368 20.9095C3.2715 20.8683 3.85935 20.8683 4.16605 20.8477C3.22038 21.0124 3.24594 21.2389 3.65488 21.383L2.58142 21.4242C2.32583 21.733 3.14371 22.0212 3.16927 22.3712C3.65488 22.2271 5.54621 22.1448 5.72512 22.2271L4.06382 22.3712C5.08616 22.3712 4.67722 22.2271 5.95515 22.2889C5.77624 22.433 4.06382 22.4742 3.52709 22.433L4.11493 22.5565C3.62932 22.5977 3.34818 22.5565 2.70921 22.5977C3.75711 22.5977 1.07346 22.9477 2.86256 22.9477L2.37695 22.9889C2.37695 23.3183 2.99036 23.4418 3.09259 23.7301C4.52387 23.6683 4.21717 23.7918 5.39286 23.8124C4.95837 24.0389 3.83379 24.3271 3.96158 24.5536C4.67722 24.6977 5.18839 24.5536 6.03183 24.5948C4.72834 24.6565 4.85613 24.9036 3.91046 24.8212C4.14049 25.1095 4.19161 25.1918 5.29063 25.5212C5.82736 25.4595 6.05739 25.3977 6.49188 25.4183C6.72191 25.4801 5.95515 25.6036 5.31619 25.6036H5.18839C7.18196 25.9536 1.43128 26.6948 4.19161 26.9418H4.06382L5.4951 27.2301C5.26507 27.3948 4.49831 27.1683 3.706 27.3124C5.90403 27.6212 3.39929 27.9095 4.88169 28.1771C1.02234 28.5065 5.18839 29.0212 2.73477 29.3918L3.65488 29.3506C4.54943 29.4124 3.14371 29.4536 2.93924 29.5153C3.65488 29.5153 3.75711 29.4124 4.24273 29.4536C5.3673 30.1536 2.93924 30.9153 2.12136 31.6359C1.89134 31.9036 6.82414 31.7801 4.65166 32.1095L2.9648 32.0271C5.00948 32.5624 2.88812 33.0977 4.60055 33.633C4.21717 33.5918 3.706 33.5918 3.706 33.5506C2.47918 33.6536 3.62932 33.9624 4.65166 33.9624C4.52387 34.0448 3.75711 33.9624 3.24594 34.0242C2.5303 34.1271 4.80502 34.3124 3.5782 34.3536C3.37373 34.3536 3.16927 34.3124 3.09259 34.2918C3.68044 34.3742 2.93924 34.6212 4.34496 34.5801C3.65488 34.7653 4.95837 34.9712 4.11493 35.1153C5.69957 35.2389 3.34818 35.4448 5.57177 35.5065C3.2715 35.4448 3.706 35.8153 4.77946 35.9595C4.08937 35.8977 4.06382 36.0418 3.09259 35.98C3.11815 36.1242 3.55264 36.2683 4.72834 36.2683C1.94245 36.4536 6.92638 36.8448 3.37373 36.9065C4.60055 37.3595 5.41842 37.7712 5.95515 38.183C3.65488 38.1006 5.75068 37.7506 3.32262 37.6889C4.26828 38.08 6.2363 38.3477 5.64845 38.6977C5.34175 38.7801 4.65166 38.6153 4.26828 38.5536C5.21395 38.9448 4.0127 39.233 5.23951 39.6036C5.03504 39.6036 4.80501 39.5418 4.6261 39.5006C4.70278 39.5624 4.26828 39.6242 5.31619 39.6653L5.03504 39.583C6.56856 39.5418 8.17875 39.9742 8.99662 40.0154C6.00627 39.7683 8.22987 40.3036 4.4472 39.9536C4.65166 39.9948 5.13728 40.0771 5.82736 40.0977C5.62289 40.1595 5.21395 40.1595 4.42164 40.0565C4.98393 40.3036 6.08294 40.283 6.05739 40.4889C5.54621 40.4683 5.3673 40.4065 4.7539 40.3653C5.72512 40.5095 6.72191 40.6742 6.26186 40.8183C5.95515 40.7977 5.54621 40.7977 5.57177 40.7359C5.69957 41.0448 8.15319 41.3742 7.18196 41.6624C4.98393 41.4565 6.44076 41.7448 4.54943 41.6624L5.11172 41.8683H6.03183C5.98071 41.9918 7.36087 42.2183 6.72191 42.3212L5.95515 42.1565L6.28741 42.4653L7.02861 42.3418C7.99984 42.5477 9.43112 42.4653 8.89439 42.6506C8.71548 42.5889 8.84327 42.8153 7.71869 42.8153C8.30654 42.9183 8.94551 43.0418 8.45989 43.1242C7.84649 43.1242 6.36409 42.9595 5.95515 42.9595C7.53978 43.1242 6.36409 43.3506 8.05096 43.5565C7.66758 43.4948 6.67079 43.433 6.46632 43.433L7.74425 43.5771C7.33532 43.6183 7.13085 43.6183 6.33853 43.5565C6.08294 43.7624 8.7666 43.6389 7.69314 43.8448C7.5909 43.8242 7.38643 43.8242 7.20752 43.7624C6.64523 43.9889 7.97428 44.3183 7.30976 44.5036C5.39286 44.4418 6.8497 44.2565 5.23951 44.2359C5.54621 44.6065 7.46311 45.1006 6.9775 45.4095L7.20752 45.3683C9.89117 45.6153 5.85292 45.5124 7.10529 45.7801C6.90082 45.7183 5.62289 45.6153 5.90403 45.6359C5.44398 45.8212 6.51744 46.1506 7.30976 46.5624L6.61967 46.4595C5.98071 46.5418 6.21074 46.7889 5.87848 46.8918C6.56856 46.9948 6.44076 47.0565 7.46311 47.0977C3.45041 47.2006 9.48224 48.1271 6.13406 48.2301C6.13406 48.1889 5.54621 48.0653 5.54621 48.1065L6.13406 48.4977C7.30976 48.5801 6.8497 48.5183 7.76981 48.5389C8.45989 48.6418 8.97107 48.7859 8.97107 48.8683C8.20431 48.6418 7.07973 48.683 6.41521 48.7036C6.77303 48.7448 7.18196 48.7859 7.53978 48.8065C5.41842 48.7859 9.89117 49.0536 8.45989 49.1771L7.84649 49.0948C8.15319 49.2183 8.94551 49.383 8.7666 49.4653C7.41199 49.3624 8.15319 49.3006 7.02861 49.1977C7.07973 49.3418 9.55891 49.7124 8.17875 49.7124C7.82093 49.6095 7.82093 49.5271 7.43755 49.4448C5.82736 49.4242 6.2363 49.4859 5.95515 49.5477H5.98071L5.21395 49.6918H5.64845C9.14998 50.2065 6.2363 50.083 8.51101 50.5565C6.36409 50.1036 7.25864 50.3918 5.72512 50.2065C5.29063 50.2065 4.80502 50.2477 4.37052 50.2065C5.59733 50.4536 3.37373 50.2889 5.16284 50.6183C4.67722 50.5771 5.08616 50.7212 3.85935 50.5771C4.21717 50.7624 4.72834 50.6389 5.34175 50.7212C7.00305 51.1124 3.19482 51.0095 5.46954 51.5653C6.36409 51.9359 8.0254 52.183 8.81771 52.533C8.0254 52.533 7.02861 52.2653 7.02861 52.2653C6.28741 52.3271 6.38965 52.4301 6.92638 52.6359C6.49188 52.5536 6.13406 52.5536 5.57177 52.5124C5.67401 52.6359 7.36087 52.8006 6.59412 52.8418C6.05739 52.7595 5.16284 52.6153 4.6261 52.5124C5.0606 52.6771 5.95515 52.9036 6.38965 53.0889C5.52066 53.0271 5.11172 52.8624 4.54943 52.7389C4.90725 52.9242 5.26507 53.1918 6.61967 53.3977L7.13085 53.3565C7.13085 53.3565 5.95515 53.233 5.72512 53.1712C4.67722 52.9242 6.2363 53.0477 6.72191 53.1095L7.02861 53.233C9.94229 53.4801 6.61968 52.8212 6.82414 52.6565L8.91995 52.9859L7.20752 52.5948C7.76981 52.6153 8.94551 52.7389 9.25221 52.8624C10.3257 52.8624 8.53657 52.6565 9.71226 52.6771C9.89117 52.6771 9.99341 52.6977 10.0701 52.7183L9.45668 52.5124C9.89117 52.5948 10.9391 52.6565 10.6324 52.6977C11.8847 52.6153 9.12442 52.1418 10.7346 52.2448L10.8624 52.2859C10.1979 51.8948 9.32889 52.0801 7.53978 51.6477L11.3736 51.9153L9.84006 51.7095C9.84006 51.7095 10.019 51.6271 10.6579 51.7095C9.61003 51.4624 9.99341 51.6477 8.99662 51.483C10.4279 51.483 8.40878 50.9889 10.888 51.2153C9.71227 51.03 9.96785 51.2771 9.17553 51.0095C11.8336 51.2359 8.74104 50.7624 9.99341 50.7418C11.348 50.9271 10.6068 50.9889 11.8592 50.9683C9.55891 50.6389 12.3959 50.7418 11.987 50.5771C10.1468 50.3918 11.2713 50.2271 10.6835 49.9595C11.2969 50.0418 11.757 49.6712 12.447 49.5477L12.7537 49.5889C10.888 49.3624 11.2713 49.2183 10.9135 49.033C12.0381 49.1359 12.4726 49.2183 12.9582 49.3418V49.1977C12.3704 49.1153 12.0637 49.033 11.8592 48.9301L13.2393 49.0948C13.1882 48.9095 11.6547 48.5801 12.6259 48.4359C11.3225 48.3124 8.97107 48.2918 8.15319 47.9624C8.86883 48.0242 10.0701 48.1065 10.3512 48.2095C10.2746 48.1889 9.78894 48.0859 10.0701 48.0653L11.2458 48.2712C11.7825 48.2095 10.2746 48.1271 10.3768 48.0448C11.3736 48.1271 11.0924 48.0448 11.8847 48.1271C11.987 48.1477 11.4502 48.1683 11.8592 48.2301C12.0637 48.1477 12.6515 48.0859 13.4183 48.1065C12.856 48.0653 12.0637 47.983 11.9359 47.9006C11.8847 47.7153 13.1627 47.9418 13.6738 47.9006C12.9838 47.7977 13.725 47.7359 12.217 47.6124C12.217 47.5506 12.9326 47.6124 13.3416 47.6124C12.7026 47.4683 13.2138 47.1595 11.6036 47.1389H11.5014C11.5014 47.1389 11.4758 47.1389 11.4502 47.1389C9.99341 46.7065 12.3704 46.583 11.7825 46.2124L12.2937 46.2536C11.7314 46.0271 12.0125 45.8212 10.9391 45.6153C10.9391 45.5536 11.8847 45.5536 12.4726 45.6153C12.1148 45.4506 11.5525 45.3889 12.3959 45.2448C13.2649 45.4506 13.1882 45.2448 13.0349 45.4301C13.4949 45.2859 14.2873 45.2859 12.9326 44.9977C14.2106 45.1624 14.5684 44.9771 14.185 44.8536L13.2393 44.9153C13.0604 44.8124 13.1882 44.7301 13.2905 44.6477L14.9773 44.8124C17.0731 44.5653 11.5269 43.9065 15.0029 43.8448C13.8272 43.6801 14.1595 43.9889 12.7793 43.8242C13.0349 43.6595 15.4885 43.6389 15.4885 43.5977C16.4597 43.4124 13.0349 43.2271 13.6994 43.0212C13.086 43.0212 11.4758 42.9595 10.9135 42.733C11.1435 42.5683 13.4694 42.6712 13.955 42.8153C14.0061 42.8565 13.8016 42.8771 13.5972 42.8565C13.8016 42.9183 14.0572 43.0212 14.7217 42.9801L14.1083 42.9183C14.7217 42.8771 14.6962 42.6301 15.693 42.733C15.1307 42.5683 14.6962 42.6301 14.3895 42.6918C15.284 42.5271 14.4406 42.3418 15.054 42.1565C14.7217 42.1565 14.0061 42.1565 14.0061 42.1359C14.7729 41.8477 12.856 41.9301 12.6259 41.683C13.5461 41.6006 14.824 41.8477 14.0572 41.5801C14.6962 41.4771 15.6674 41.6418 16.153 41.7242C15.0029 41.4565 16.9453 41.3742 17.1754 41.2712L17.661 41.4153C17.3798 41.333 17.3798 41.2712 17.4054 41.2301H16.1786C16.3831 41.1889 16.4086 41.1271 16.9198 41.1477C16.1275 41.0448 14.9007 41.1065 13.8272 40.9212C14.4406 40.8595 13.1882 40.633 14.7984 40.6742C14.2361 40.9212 16.4086 40.7153 16.6642 40.9624C16.4853 40.9006 16.4853 40.8595 16.7153 40.7977C16.8942 40.7977 17.0476 40.8183 17.1498 40.8389C18.6067 40.6536 15.3352 40.633 15.3863 40.3653C16.2808 40.4477 17.0987 40.3653 16.9198 40.3242C16.8942 40.4271 15.4118 40.3242 14.7217 40.1801C15.4374 40.0359 14.2106 39.9742 14.2873 39.8918L13.955 39.9742C13.0604 39.8918 13.1882 39.8301 12.9071 39.6859C13.6227 39.6859 13.3927 39.8095 13.6994 39.7889C12.1148 39.583 15.3607 39.5624 14.3128 39.3359C14.9262 39.2742 16.0252 39.3977 16.4342 39.3359C15.284 39.0889 17.6865 39.1506 16.7153 38.9036C15.4885 38.9036 15.7952 38.9448 14.6195 38.7389L15.4629 39.1301L13.6994 38.8418C13.6994 38.9448 14.4662 39.0889 14.2361 39.1506C13.2394 39.0065 13.5461 39.0271 12.5237 39.0477C14.3639 38.9653 11.4758 38.7183 12.7026 38.5948L15.7185 38.6977C17.0731 38.4918 14.185 38.183 14.9773 37.8742L14.4406 37.9565C13.2394 37.8742 14.2873 37.7506 13.8016 37.6271C14.7984 37.6683 15.1818 37.6271 15.8208 37.5859C15.0796 37.5859 15.8974 37.3389 13.8783 37.2565L15.2074 37.1536C15.7697 36.9065 12.3448 36.783 12.7026 36.5359C13.8016 36.6389 14.5173 36.5359 15.284 36.7212C15.284 36.6389 15.4885 36.5565 14.7984 36.5359C15.4374 36.4948 13.4438 36.2683 14.415 36.2065C13.9805 36.1653 12.9071 36.1242 13.0093 36.0418C13.2138 36.0418 13.5205 36.0418 13.5205 36.0418C13.0349 36.0418 12.856 35.8771 11.7314 35.9389C14.8751 35.733 11.5269 35.1977 14.2361 35.0124C13.9039 34.8271 13.5716 34.5801 13.5205 34.4153C13.8272 34.4153 14.0317 34.4153 13.9294 34.4565C14.8751 34.23 11.0413 34.2712 12.0892 34.0242C13.725 33.9006 12.9582 34.1683 13.5972 34.0859C16.9198 34.0859 13.1627 33.7565 15.0796 33.5918L15.284 33.633C16.4086 33.5095 14.0317 33.283 14.2617 33.0565C14.2617 33.0565 14.5428 33.0565 14.7729 33.0565C13.086 32.8918 12.5237 32.6036 12.0381 32.3977C13.3416 32.4595 12.7282 32.5006 14.0572 32.4595C13.8783 32.3565 11.9359 32.4801 11.578 32.2948C12.2937 32.233 12.9071 32.0889 14.3128 32.0683L14.3895 32.2536C16.2041 32.1506 14.3128 32.0065 14.6451 31.9242H15.4374C15.1818 31.6565 13.1627 31.6565 13.316 31.3477L12.7026 31.3889C10.709 31.2448 13.8272 31.2448 12.3448 31.1006L14.3639 31.0389C13.8783 30.9359 12.4215 30.6683 12.0381 30.483C13.5461 30.5859 14.3128 30.7918 15.1818 30.9359C15.1818 30.833 15.0285 30.5653 14.0317 30.5242C14.2361 30.5653 14.7217 30.6065 14.415 30.6683C12.8304 30.5448 12.0381 30.3801 12.0892 30.1742C15.9997 30.1742 13.0604 29.5977 16.1019 29.4124C14.6451 29.0624 16.6898 28.6506 16.4342 28.1977C13.3927 28.4242 16.3319 28.0742 13.2138 28.1771C13.0093 28.0742 13.0604 28.033 13.2649 28.033L15.1307 27.683C16.0252 27.5801 15.8208 27.7653 16.5108 27.7448C16.7409 27.5183 17.8399 27.6212 18.6578 27.4359C17.5332 27.4977 17.0476 27.3948 17.4821 27.2506L16.0508 27.4771C14.3895 27.2095 18.6578 27.1271 16.9965 26.8595L17.9932 26.9418C17.4054 26.7977 17.9932 26.3242 15.4629 26.2418C15.8208 26.2006 16.6642 26.1389 16.8942 26.2006C17.252 25.7889 14.1595 25.4183 15.693 25.0683H16.4597C16.2297 25.0065 15.0285 25.0065 15.7697 24.883C16.0764 24.883 16.5364 24.883 16.5875 24.8418C16.3319 24.8212 15.2329 24.6977 15.6674 24.5948L16.5364 24.6359C17.5076 24.2036 14.415 24.1418 13.8783 23.8536C16.1275 23.7506 16.8431 23.4212 17.1754 23.2359H17.4821C17.7121 22.7624 15.5652 22.5565 14.6451 22.2065C17.0476 21.8153 15.5907 21.2801 16.9198 20.7859C16.5108 20.8683 15.1818 20.8889 14.9262 20.8271C15.3607 20.7036 13.3416 20.6624 15.4118 20.5389V20.5801C17.3798 20.3742 16.8431 20.2095 16.8687 20.0448L14.185 20.1889C18.0444 19.5095 12.6259 19.2418 16.1019 18.7683C15.4118 18.7271 15.4118 18.6036 14.7217 18.5624L16.153 18.4595C16.4853 18.1506 16.6642 18.0065 16.2808 17.6977H17.3287C17.4054 17.4918 13.1371 17.7801 13.0349 17.6153L15.1818 17.3889C15.1051 17.0595 16.9453 16.5653 14.9518 16.4006C15.2585 16.3801 15.8974 16.3389 15.9741 16.3801C15.9997 16.2153 17.3543 15.6389 14.415 15.9683C16.3319 15.783 14.5428 15.6183 13.6738 15.5153L15.1051 15.4124C13.2649 15.4124 12.7793 15.4742 12.2426 15.3095C12.4215 15.2477 13.3671 15.1653 13.0093 15.2683C13.725 15.0418 11.6547 15.2683 12.3704 15.0006H13.2905C13.3671 14.8153 12.8815 14.8771 11.8336 14.8771C11.2458 14.8359 12.1403 14.5271 13.4183 14.3624C12.6259 14.4242 11.578 14.4242 11.9359 14.3006C12.4215 14.2389 12.7282 14.2389 12.8815 14.2389C13.8016 13.8683 11.1691 13.9918 12.5237 13.6624C12.9838 13.6006 13.2138 13.5801 13.3671 13.5389C13.3671 13.7653 13.316 13.9506 13.2138 13.9506C14.5173 13.8271 14.7217 13.6212 16.5364 13.5801C15.5396 13.5389 13.3416 13.4977 13.9294 13.2712C14.0572 13.2712 14.185 13.2301 14.3639 13.2095H14.5173C14.5173 13.2095 14.5173 13.1271 14.2873 13.1271C14.4917 13.0448 14.6451 13.0036 14.6451 12.9418C15.7185 12.7977 15.1818 12.6742 15.2329 12.5712C13.8016 12.7359 14.0317 12.5712 12.856 12.8183C12.9582 12.7977 13.0349 12.8183 13.086 12.8801C13.1371 12.8801 13.1627 12.9006 13.2393 12.9006H13.1116C13.1116 12.9006 13.2138 13.0448 13.2393 13.1271C12.4982 13.1271 11.8847 13.1271 12.6515 12.9418C11.7314 12.983 10.7857 13.0448 10.3257 13.0653C12.2937 12.7359 13.316 12.3653 14.5428 12.2006C13.6994 12.0153 13.9039 11.6036 11.1947 11.7477C10.8368 11.7065 11.9359 11.5624 12.3704 11.5006C12.6515 11.5006 12.6259 11.583 13.0093 11.5624C12.2937 11.4801 12.6515 11.1301 10.7857 11.3153C11.6036 11.0271 12.5237 11.2124 12.1659 10.9859L12.7537 10.9448C15.6163 10.0389 7.82093 10.6771 11.5269 9.60652C11.2969 9.66829 11.1947 9.70947 10.888 9.75064C12.447 8.86535 9.04774 8.5977 11.578 7.56829C12.0637 7.30064 10.888 7.44476 9.94229 7.46535L11.4502 7.21829L9.66115 7.28005C8.30654 7.1977 13.2905 6.27123 10.7857 6.27123L9.76338 6.45653C9.91673 6.31241 9.0733 6.1477 10.249 6.00358C10.0701 6.00358 9.17553 6.12711 9.68671 6.00358L10.479 5.88005L9.04774 5.77711C9.55891 5.4477 12.217 5.34476 12.2937 4.95358C11.9614 4.87123 9.89117 4.95358 9.38 5.07711C9.35444 5.13888 8.91995 5.283 8.12763 5.40653L7.69314 5.34476C5.34175 5.69476 2.93924 5.96241 1.38016 6.4977H2.86256L1.73798 6.70358L1.63575 6.55947C0.587848 6.80653 1.55907 6.72417 2.19804 6.70358C1.61019 6.80653 1.1757 6.90947 0.971226 6.97123L3.24594 6.82711C2.32583 6.99182 1.40572 7.01241 0.920109 7.21829C1.96801 7.15653 2.9648 6.82711 3.68044 6.86829C2.63254 7.11535 1.76354 7.21829 2.70921 7.1977C2.12136 7.30064 1.71243 7.34182 1.45684 7.34182C2.19804 7.34182 1.81466 7.5477 3.06703 7.42417C1.76354 7.71241 3.47597 7.69182 1.25237 8.02123C1.7891 7.98005 3.04147 7.93888 3.14371 8.02123C0.460055 8.2477 3.06703 8.37123 0.204469 8.74182C2.63253 8.51535 1.35461 9.03005 2.73477 9.05064C2.5303 9.05064 2.14692 9.09182 2.27471 9.05064C2.0958 9.19476 1.38016 9.33888 0.945668 9.46241C2.91368 9.21535 3.39929 9.33888 4.65166 9.27711C2.78589 9.68888 2.32583 9.50358 0.485613 9.79182C2.0958 9.56535 2.14692 9.833 3.45041 9.60652C2.30027 9.87417 2.88812 9.77123 1.27793 10.0595C3.75711 9.75064 1.71243 10.1006 3.24594 9.9977C2.07025 10.3271 0.945668 10.3477 1.73798 10.4301C0.894551 10.4301 0 10.3889 0 10.3889ZM5.0606 14.1153H5.03504C4.98393 14.0742 4.95837 14.0536 4.93281 14.033C4.93281 14.033 4.98393 14.0742 5.0606 14.1153ZM5.13728 14.4653C5.13728 14.4653 5.18839 14.3624 5.16284 14.3006C5.64845 14.2389 6.15962 14.1977 6.13406 14.2389C5.8018 14.2389 5.52066 14.3624 5.13728 14.4653ZM14.8751 12.633C15.0796 12.6742 14.7984 12.7153 14.5173 12.7565C14.4917 12.7359 14.4406 12.6948 14.3384 12.6742C14.2873 12.6742 14.2361 12.6742 14.1595 12.6742C14.4406 12.6742 14.6962 12.633 14.8751 12.6124V12.633Z" fill="#9F5225"/>
<path d="M12.8815 12.7359C12.7537 12.7565 12.6515 12.7771 12.5748 12.7977H13.0349L13.0093 12.7359H12.8815Z" fill="#9F5225"/>
<path d="M11.5269 47.0771H11.5525C11.5525 47.0771 11.4247 47.0771 11.348 47.0771C11.4247 47.0771 11.4502 47.0771 11.5269 47.0771Z" fill="#9F5225"/>
<path d="M3.06703 19.6734L3.45041 19.6536L3.11815 19.6536L3.06703 19.6734Z" fill="#9F5225"/>
<path d="M6.36409 48.683C6.36409 48.683 6.1085 48.683 6.00627 48.683C6.1085 48.683 6.2363 48.683 6.36409 48.683Z" fill="#9F5225"/>
<path d="M5.90403 49.5065L5.3673 49.5683C5.67401 49.5477 5.8018 49.5271 5.90403 49.5065Z" fill="#9F5225"/>
<path d="M5.08616 50.1036C5.34175 50.1448 5.52066 50.1653 5.69957 50.1859L5.08616 50.1036Z" fill="#9F5225"/>
<path d="M4.60055 39.4595C4.60055 39.4595 4.60055 39.4595 4.54943 39.4389C4.26828 39.3771 4.37052 39.4183 4.60055 39.4595Z" fill="#9F5225"/>
<path d="M7.69314 42.7948C7.43755 42.7536 7.18196 42.6918 7.02861 42.6506C6.90082 42.6918 6.87526 42.733 7.69314 42.7948Z" fill="#9F5225"/>
<path d="M3.04147 35.9381H3.06525V35.9183L3.04147 35.9381Z" fill="#9F5225"/>
<path d="M7.05417 42.5065C6.77303 42.5477 6.82414 42.5889 7.00305 42.6506C7.10529 42.6095 7.25864 42.5683 7.05417 42.5065Z" fill="#9F5225"/>
<path d="M3.96158 52.883H3.88491C3.88491 52.883 4.06382 52.9242 4.11493 52.9448L3.96158 52.883Z" fill="#9F5225"/>
<path d="M4.11493 52.9448L4.26828 53.0065C4.26828 53.0065 4.26829 52.9653 4.11493 52.9448Z" fill="#9F5225"/>
<path d="M4.6261 53.1095L4.29384 52.9859C4.29384 52.9859 4.24273 53.0271 4.6261 53.1095Z" fill="#9F5225"/>
<path d="M4.7539 52.0801L4.24273 52.0183C4.24273 52.0183 4.52387 52.0595 4.7539 52.0801Z" fill="#9F5225"/>
<path d="M4.67722 51.8124C4.54943 51.8536 3.55264 51.8536 3.85935 51.9771L4.26828 52.0389C3.50153 51.9153 5.54621 51.9771 4.67722 51.833V51.8124Z" fill="#9F5225"/>
<path d="M11.2458 51.3801L10.7857 51.5653C11.348 51.5653 12.0892 51.6065 12.217 51.7301C13.9039 51.6065 10.9902 51.6477 11.2458 51.3801Z" fill="#9F5225"/>
<path d="M12.1659 50.7624C12.3959 50.9065 12.9582 50.8448 13.2649 50.8859C12.7793 50.7624 12.6515 50.7212 12.1659 50.7624Z" fill="#9F5225"/>
<path d="M12.8815 45.533L14.185 45.6359C14.0061 45.533 13.6738 45.5948 12.8815 45.533Z" fill="#9F5225"/>
<path d="M6.2363 44.0712L5.41842 44.1124L6.61967 44.2359L6.2363 44.0712Z" fill="#9F5225"/>
<path d="M15.5907 44.1124L15.7697 44.1742L15.3096 43.9683L15.5907 44.1124Z" fill="#9F5225"/>
<path d="M15.693 35.1977H14.0828C14.3639 35.2801 16.1786 35.3212 15.693 35.1977Z" fill="#9F5225"/>
<path d="M14.0828 31.3477C14.8751 31.3065 15.4118 31.183 14.6195 31.1212C14.5173 31.2036 13.8783 31.3065 14.0828 31.3477Z" fill="#9F5225"/>
<path d="M16.0508 19.7565L16.6131 19.7977L16.1275 19.6742L16.0508 19.7565Z" fill="#9F5225"/>
</svg>
