<svg width="149" height="124" viewBox="0 0 149 124" fill="none" xmlns="http://www.w3.org/2000/svg">
<g clip-path="url(#clip0_889_31519)">
<path d="M111.683 113.805C109.954 115.048 105.75 116.653 105.567 115.762C105.76 116.634 105.75 116.662 103.055 118.174C102.945 117.581 100.397 118.545 98.7231 119.074C100.241 119.074 102.136 118.601 105.934 117.525C107.461 116.365 110.138 115.623 112.796 114.779C114.13 114.371 115.445 113.888 116.595 113.388C117.745 112.859 118.72 112.256 119.364 111.588C116.945 112.33 114.388 112.441 111.683 113.796V113.805Z" stroke="#9F5225"/>
<path d="M95.3016 114.927L94.8877 115.4C96.8101 114.695 98.7049 113.943 100.591 113.164C99.5051 113.823 95.5959 115.288 95.3016 114.917V114.927Z" stroke="#9F5225"/>
<path d="M75.9118 118.22C76.2153 117.914 75.5899 117.608 74.9184 117.311C74.247 116.987 73.5387 116.643 73.6031 116.356C73.5755 117.024 72.3705 116.94 70.8529 116.588C70.0894 116.421 69.2708 116.152 68.4613 115.929C67.6611 115.679 66.8885 115.447 66.2354 115.326L64.9385 116.003C66.0882 116.736 68.3142 117.413 70.9724 117.914C73.6307 118.415 76.712 118.647 79.5451 118.675C78.3217 118.554 77.1076 118.443 75.9026 118.22H75.9118Z" fill="#9F5225"/>
<path d="M71.0187 116.848C70.4025 116.978 69.7954 117.052 69.1699 117.145C70.6508 117.321 74.0173 117.71 71.0187 116.848Z" stroke="#9F5225"/>
<path d="M74.3667 120.912C78.9841 121.357 71.6348 120.272 76.2799 120.411C74.7162 120.494 72.9226 120.309 74.3667 120.912Z" stroke="#9F5225"/>
<path d="M56.688 114.158C59.6406 115.169 62.6576 116.06 65.7113 116.719C64.5064 116.227 63.3106 115.726 62.1425 115.179C60.3212 114.9 58.5 114.557 56.688 114.158Z" fill="#9F5225"/>
<path d="M57.0188 111.969C58.1134 112.442 59.7691 113.434 58.0306 113.156C55.262 111.199 52.9533 111.394 50.4422 109.473C51.3712 109.789 52.3094 110.095 53.2476 110.392C53.22 109.492 47.3424 108.574 48.1243 107.275C44.1047 106.449 50.2766 109.77 45.3188 108.138C49.8075 110.076 52.9349 111.895 56.6601 113.694C55.6667 112.961 55.1976 112.831 53.7535 111.932C56.4393 113.073 60.2658 114.102 63.5311 115.011C62.0778 113.555 59.4471 113.555 57.0188 111.969Z" fill="#9F5225"/>
<path d="M43.8198 105.549C41.0603 104.065 36.866 101.727 35.5967 102.275C38.0894 104.612 39.0828 104.028 40.6096 104.325C41.3639 104.937 44.1141 106.449 42.716 106.394C42.4125 105.967 44.896 106.579 43.829 105.559L43.8198 105.549Z" fill="#9F5225"/>
<path d="M33.1869 99.4448C32.359 99.352 31.5496 99.2222 30.731 99.1016L32.0647 99.7416L31.8439 100.447C32.1751 100.419 33.7571 99.9086 36.4246 101.513C35.2748 100.243 34.4838 100.521 33.196 99.4541L33.1869 99.4448Z" fill="#9F5225"/>
<path d="M29.9859 103.295C28.3854 101.709 27.1529 101.282 24.8901 100.076C27.8427 102.052 32.1106 104.603 33.2236 104.761L32.9017 104.779C32.9017 104.779 36.0014 105.967 38.347 106.421C36.6361 105.902 34.5389 104.622 32.8833 103.713C31.2368 102.785 30.0135 102.265 29.9951 103.304L29.9859 103.295Z" fill="#9F5225"/>
<path d="M33.7939 105.643C32.9568 105.392 32.129 105.142 31.292 104.863C32.1198 105.142 32.9568 105.401 33.7939 105.643Z" fill="#9F5225"/>
<path d="M25.0557 94.3062C26.2698 95.3266 27.5024 96.347 28.7717 97.3118L27.9715 96.4027C26.9689 95.744 26.0307 95.0019 25.0557 94.2969V94.3062Z" fill="#9F5225"/>
<path d="M28.0912 100.095C24.8994 97.7663 29.4525 101.959 26.3711 99.8628C25.9296 99.6216 27.0518 100.41 28.3855 101.162C29.7192 101.922 31.2277 102.674 31.4853 102.534C30.7494 101.904 27.9808 101.013 28.0912 100.095Z" fill="#9F5225"/>
<path d="M22.6547 92.3392C21.5049 91.6991 20.3184 91.0683 19.187 90.3633C20.3184 91.0683 21.4957 91.6991 22.6547 92.3392Z" fill="#9F5225"/>
<path d="M15.8853 85.3629L14.9839 85.1496C14.7079 84.76 14.4136 84.3703 14.1008 83.9714C13.7973 83.5726 13.4846 83.1551 13.1718 82.7377C12.8499 82.3295 12.5188 81.912 12.1968 81.4946C11.8933 81.0586 11.5898 80.6319 11.2954 80.2052C10.6883 79.361 10.1824 78.489 9.79612 77.6541C9.60296 77.2367 9.4282 76.8285 9.29943 76.4389C9.18905 76.04 9.12466 75.6504 9.09707 75.2793C8.83952 76.1606 7.13787 74.5372 8.58197 77.5706C9.16145 77.8396 9.76853 78.8508 10.0261 78.4612C10.6515 79.7413 10.1457 79.7321 10.5228 80.6319C11.0011 81.0493 11.4518 81.5874 11.9393 82.144C12.436 82.6913 12.9235 83.285 13.4018 83.8601C14.3952 84.9919 15.361 86.0587 16.2348 86.5874C15.4713 85.9845 15.4346 85.6969 15.0114 85.1403C15.4438 85.4464 15.7933 85.7526 16.0968 86.0401C16.4096 86.3184 16.6671 86.5874 16.8879 86.8565C17.3202 87.3852 17.5961 87.8676 17.8353 88.2943C18.332 89.1199 18.6999 89.6951 19.8772 89.7415C19.1874 89.4075 18.5251 88.6468 17.8996 87.7841C17.2926 86.9028 16.6303 86.003 15.9221 85.3629H15.8853Z" fill="#9F5225"/>
<path d="M13.4658 88.1089C14.2201 89.0088 15.0019 89.8808 15.7837 90.762C15.1491 90.6414 14.3856 89.8715 13.6774 89.1479C12.9599 88.4336 12.362 87.6822 11.9113 87.6915C11.8285 87.9049 12.3344 88.7305 12.7484 89.3798C13.1807 90.0106 13.4934 90.5023 12.9231 90.1405C13.6774 89.7138 14.5328 90.5672 15.2226 91.1888C15.9401 91.7825 16.446 92.1628 16.4184 90.8641C18.1476 92.3205 18.2304 92.7472 18.35 93.1925C18.4696 93.6378 18.5799 94.148 20.4748 95.623L22.0752 95.7528C20.9623 95.0385 20.1252 94.4077 19.4354 93.8048C18.7455 93.2111 18.166 92.6916 17.6325 92.1164C17.0899 91.5598 16.5472 91.0032 15.8849 90.3724C15.2502 89.7138 14.4684 88.9995 13.475 88.1089H13.4658Z" fill="#9F5225"/>
<path d="M5.77641 76.9221L5.48207 75.1503L5.20612 76.3284C4.97617 75.8924 4.75542 75.4564 4.55306 75.0297C4.3599 74.603 4.23113 74.1577 4.08396 73.731C3.80801 72.8775 3.59646 72.0519 3.41249 71.2541C3.18254 69.6214 3.04457 68.1465 3.07216 66.7642C3.13655 65.3635 3.12735 64.1204 3.19174 62.9145C3.25613 61.7085 3.14575 60.6046 2.93419 59.4914C2.75023 58.8049 2.60306 58.1092 2.48349 57.4135C2.4283 57.0702 2.37311 56.7177 2.33632 56.3745L2.30872 55.3355C2.30872 54.6398 2.30872 53.944 2.34552 53.2576C2.36391 52.5711 2.50188 51.8846 2.59386 51.1982C2.70424 50.5117 2.79622 49.8345 2.925 49.1573C3.08136 48.4801 3.22853 47.8029 3.3849 47.1257C3.63325 45.7621 4.03797 44.417 4.27712 42.9977C4.19433 40.0941 3.32971 45.5487 2.8882 45.7714C2.29952 45.2611 2.63066 44.6025 2.98018 43.8975C3.33891 43.1925 3.69764 42.4503 3.35731 41.6804C2.9158 41.3743 2.35471 42.7936 1.76603 44.6118C1.4349 45.5116 1.26934 46.5506 1.02099 47.4968C0.781838 48.443 0.561084 49.315 0.395518 49.9644C0.395518 52.2371 0.680659 52.2093 1.18655 52.905C0.662263 53.4524 0.524292 55.7344 0 56.3374C0.53349 58.6843 0.487499 60.4747 0.662263 62.2744C0.735848 64.074 1.03939 65.883 1.99599 68.0351C1.88561 68.8236 1.53608 68.0166 1.39811 67.1539C1.24174 66.3004 1.15896 65.4377 1.27854 66.2077C1.48089 67.0333 1.66486 67.8682 1.95 68.6752L1.97759 68.3876C2.4191 69.1576 2.82382 70.1224 3.20094 71.1799C3.64245 72.2096 4.07476 73.3135 4.44268 74.4081C5.3073 76.5418 6.05235 78.6197 6.46626 79.6865C6.10754 78.8702 5.90518 78.1281 5.98796 77.7848C6.06155 77.4416 6.3007 77.5529 6.92617 78.3692L7.08254 80.2431C7.63442 80.7812 8.2139 81.2728 8.81178 81.7552C9.40965 82.2376 9.97074 82.7292 10.5778 83.1745C9.28088 82.0706 8.38867 80.4936 7.76319 79.1763C7.07334 77.8961 6.60423 76.885 5.77641 76.9499V76.9221Z" fill="#9F5225"/>
<path d="M7.00871 81.9779C8.37923 84.3249 8.54479 84.0095 8.73795 83.7405C8.94951 83.4715 9.15187 83.2766 10.8075 85.6607C9.4922 84.1023 8.26885 82.451 7.12828 80.7441C7.0731 81.1523 7.02711 81.5698 6.99951 81.9779H7.00871Z" fill="#9F5225"/>
<path d="M0.975098 57.4226C1.06708 56.5599 1.27863 55.6972 1.4626 54.8438C0.202457 56.2816 2.20764 60.2242 0.975098 57.4226Z" stroke="#9F5225"/>
<path d="M1.2417 47.9423C1.54524 48.434 1.82118 48.9163 2.15231 49.3987C2.02354 48.5917 1.94995 47.7846 1.84877 46.959L1.2417 47.9423Z" stroke="#9F5225"/>
<path d="M4.24026 39.8332C4.24026 37.848 3.15489 39.8888 2.71338 42.0874C3.26526 40.1579 4.01951 39.3044 4.24026 39.8332Z" fill="#9F5225"/>
<path d="M11.7091 28.377C9.51998 31.7629 13.8707 25.5291 13.1072 28.4976C12.9969 27.8204 13.6131 25.7331 11.7091 28.377Z" stroke="#9F5225"/>
<path d="M21.9648 20.5664C21.4865 21.0673 21.1278 21.4013 20.8611 21.5961C20.5851 21.7909 20.3644 21.828 20.208 21.8002C20.5851 21.4662 20.9163 21.1601 21.2106 20.9467C21.5233 20.7427 21.7809 20.6128 21.9556 20.5664H21.9648Z" fill="#9F5225"/>
<path d="M4.61768 64.6484C4.72805 65.1123 4.84763 65.6039 4.92121 66.0678C4.82003 65.5854 4.71885 65.1308 4.61768 64.6484Z" fill="#9F5225"/>
<path d="M4.41504 63.7207C4.47943 64.0268 4.54381 64.3422 4.6174 64.6484C4.53461 64.3051 4.47023 63.9897 4.41504 63.7207Z" fill="#9F5225"/>
<path d="M10.0352 34.666V34.6753C9.96162 34.7588 9.89724 34.833 9.81445 34.9165L10.0352 34.666Z" fill="#9F5225"/>
<path d="M83.2705 116.718C84.0707 116.598 84.687 116.496 85.1837 116.449C84.5582 116.542 83.9236 116.644 83.2981 116.728C83.2889 116.728 83.2889 116.728 83.2797 116.728L83.2705 116.718Z" fill="#9F5225"/>
<path d="M85.6895 117.96C83.9879 118.526 82.9945 118.202 81.7803 117.84C80.5478 117.478 79.1221 117.079 76.3442 117.172C78.5886 117.172 80.9249 117.042 83.298 116.727C86.5909 117.469 80.8605 117.599 85.6895 117.97V117.96Z" fill="#9F5225"/>
<path d="M40.2324 106.996C40.168 106.977 40.1129 106.949 40.0393 106.931C39.7173 106.801 39.8921 106.857 40.2324 106.996Z" fill="#9F5225"/>
<path d="M99.5876 16.7635L99.4221 17.014L96.8374 15.2793L99.5876 16.7635Z" stroke="#9F5225"/>
<path d="M99.7076 17.4484C101.133 18.4688 102.577 19.4428 103.939 20.5282C95.1361 15.2684 85.5149 11.4279 75.627 8.64491L76.7031 8.53359C76.5744 8.19964 82.7371 10.0271 88.6055 12.4483C94.5015 14.8231 99.9927 17.8751 99.6984 17.4484H99.7076Z" fill="white"/>
<path d="M101.234 17.7559C102.044 17.8579 102.715 18.0713 103.313 18.3867C103.902 18.7113 104.426 19.1102 104.96 19.5277C106.045 20.344 107.112 21.2995 108.896 21.9674C107.701 21.5314 106.67 21.1789 105.677 20.7986C104.684 20.4275 103.764 19.9637 102.835 19.2123L101.234 17.7559Z" fill="white"/>
<path d="M117.239 21.1777C117.469 21.3354 117.68 21.5024 117.883 21.6787C117.597 21.521 117.321 21.3911 117.119 21.2983L117.239 21.1777Z" fill="#9F5225"/>
<path d="M117.119 21.2999L116.825 21.606C116.476 21.1144 116.678 21.1144 117.119 21.2999Z" fill="#9F5225"/>
<path d="M117.892 21.6797C118.545 22.0322 119.327 22.4496 119.778 22.6073C119.603 22.4218 119.41 22.2548 119.226 22.0786C120.118 22.6352 121.728 23.6092 121.958 24.1101C120.44 22.7001 120.219 22.9135 119.796 23.3309L122.261 25.5666C121.553 25.8913 121.029 25.4089 120.403 24.5925C119.787 23.7669 119.042 22.6166 117.892 21.6797Z" fill="#9F5225"/>
<path d="M128.829 32.7459C128.157 32.2728 125.894 29.8516 127.026 31.5492C126.529 31.2709 126.115 30.7885 125.646 30.2969C126.492 31.0297 126.722 30.8535 127.026 30.8813C127.32 30.9184 127.752 31.1132 128.829 32.7459Z" fill="#9F5225"/>
<path d="M125.646 30.2973C125.443 30.1211 125.223 29.9262 124.947 29.6387C125.195 29.8428 125.425 30.0747 125.646 30.2973Z" fill="#9F5225"/>
<path d="M132.526 38.5625L133.271 39.6015C133.06 39.3046 132.848 39.0449 132.637 38.7944L132.526 38.5625Z" fill="#9F5225"/>
<path d="M40.3795 4.04443C44.5003 4.7309 48.3727 5.43592 54.3606 5.82554C54.3882 4.78656 56.7797 5.92758 57.304 4.93498C54.2134 4.49899 60.045 5.23184 65.987 6.30792C71.9382 7.33762 77.9537 8.87753 75.6266 7.94987C75.1023 7.96842 74.5872 7.95915 74.0629 7.99625C74.6608 7.78289 75.2403 7.59736 75.8382 7.39328C78.6804 8.46008 82.2952 10.5659 84.4016 10.6865C84.6132 10.9369 78.6068 8.75693 72.4533 7.19847C66.3273 5.56579 60.1186 4.48043 60.5785 4.70307C59.5391 3.91456 68.2681 5.05558 77.1535 7.51387C81.6054 8.71055 86.0665 10.2226 89.4698 11.4935C92.8547 12.7922 95.191 13.7941 95.4669 13.7756L95.5773 14.5362C96.7087 14.8795 97.7388 15.1856 98.7138 15.4825C99.698 15.7515 100.618 16.0298 101.51 16.3173C102.402 16.6049 103.285 16.8647 104.159 17.1986C105.024 17.5326 105.907 17.9036 106.817 18.3211L107.176 19.4621C104.821 17.7274 103.883 17.7367 101.133 16.6142C103.423 17.7645 104.665 18.655 105.778 19.425C106.909 20.1857 107.838 20.9649 109.512 21.9668C109.954 21.067 107.001 19.6476 111.398 22.0039C112.299 23.1913 109.016 22.1801 112.686 24.5828C116.678 28.0708 116.797 26.2433 120.366 29.286C119.695 28.4511 118.959 27.6997 118.241 26.9019C119.612 27.9594 122.132 30.0374 122.932 31.6051C122.27 30.8723 120.9 29.7869 119.658 28.9706C118.379 28.1914 117.211 27.7183 116.944 28.1543C117.754 28.7109 118.94 29.7498 119.998 30.8723C120.532 31.4196 121.065 31.9669 121.534 32.4586C121.985 32.9595 122.39 33.3955 122.693 33.6924L121.47 33.4512C122.27 35.2508 123.769 35.2879 124.846 37.4679C126.612 38.8594 124.717 35.7796 125.756 36.5125C125.922 36.9948 128.369 40.557 129.61 41.494C129.914 40.5941 128.994 39.6665 127.964 38.5533C126.961 37.4216 125.683 36.2805 125.306 34.7221C126.143 35.826 127.026 36.8928 127.826 38.0245C129.196 38.5811 128.203 37.2453 126.934 35.9188C126.317 35.2508 125.664 34.5458 125.269 34.0449C124.864 33.5532 124.726 33.2285 125.177 33.2657C126.823 33.8779 127.623 35.3993 128.451 36.8093C129.206 38.2936 130.024 39.6294 131.652 40.2509C131.257 39.3233 130.006 37.6906 129.04 36.262C128.01 34.8891 127.2 33.7666 127.669 33.8965C128.746 35.9095 130.539 36.4568 132.609 38.8038L134.237 42.2547C135.46 43.3307 134.835 42.2175 134.329 41.0487C134.982 42.2825 135.718 43.7389 136.656 45.2417C137.088 46.0117 137.539 46.828 138.008 47.6536C138.247 48.0711 138.486 48.4885 138.726 48.9152C138.946 49.3512 139.167 49.7965 139.397 50.2418C139.839 51.1416 140.326 52.0414 140.731 52.9877C141.135 53.9339 141.522 54.8986 141.899 55.8634C142.267 56.8282 142.543 57.83 142.819 58.8133C143.104 59.7874 143.325 60.78 143.481 61.754C144.925 66.1975 144.272 62.1344 145.33 64.0732C145.201 65.4183 145.532 67.0695 145.854 68.7764C146.185 70.474 146.553 72.2087 146.59 73.5724C146.572 74.3609 147.455 75.8451 147.804 75.0566C147.593 72.7004 147.188 70.4183 146.636 68.2105C147.151 68.4703 147.795 67.32 147.16 64.9266C146.489 65.947 146.286 63.5351 145.735 60.9284C145.477 59.6204 145.1 58.2939 144.695 57.2827C144.29 56.2808 143.849 55.6129 143.343 55.6871L144.208 55.4459L142.239 51.6426L140.068 47.9876L140.087 48.2659C140.234 48.2102 139.213 46.726 137.916 44.7501C137.226 43.7946 136.444 42.7185 135.718 41.6238C134.954 40.5478 134.191 39.4995 133.593 38.4976C134.081 38.9615 135.451 40.7704 136.325 42.032C137.217 43.2844 137.787 43.8781 136.95 41.6702C139.342 44.2677 141.835 50.0748 144.447 55.9191C144.502 55.4459 144.52 54.9914 144.539 54.5276C144.989 55.2604 145.33 56.086 145.698 56.9209C146.047 57.7651 146.415 58.6371 146.719 59.5647C147.326 61.4108 147.823 63.4053 148.181 65.4647C148.908 69.5927 149.083 73.9805 148.908 78.0808C148.706 77.2459 148.43 76.4481 148.181 75.6503C147.868 78.4797 146.792 81.9213 146.737 84.6857C147.491 81.2812 147.528 83.1087 147.749 83.823C147.602 85.0197 147.271 86.3555 146.774 87.7099C146.535 88.3964 146.296 89.1014 146.001 89.8157C145.661 90.5021 145.311 91.2072 144.962 91.9214C144.778 92.274 144.594 92.6357 144.41 92.9975C144.198 93.3408 143.978 93.684 143.766 94.0272C143.334 94.7137 142.892 95.4094 142.451 96.1052L140.988 98.0625L140.262 99.0459L139.489 99.9642C139.489 99.9642 139.572 99.621 139.296 99.7323C137.953 101.504 136.463 103.109 134.908 104.63C132.452 106.458 131.303 106.597 129.509 107.172C128.672 107.877 126.382 109.213 127.495 109.111C128.01 108.851 128.525 108.591 128.828 108.35C127.725 109.556 127.219 109.788 126.612 110.029C125.995 110.243 125.278 110.456 123.696 111.625C125.968 109.519 122.39 111.115 122.353 110.224C118.545 112.46 122.574 111.643 122.252 112.2C117.165 114.13 116.282 113.74 111.297 115.465C111.177 116.031 114.912 114.464 115.528 114.76C114.075 115.233 112.428 115.874 112.235 116.143C113.293 115.892 114.36 115.623 115.418 115.317C110.018 116.866 105.061 118.295 99.4129 120.363L99.9372 120.465C98.7322 120.809 97.5181 121.152 96.2763 121.467L97.3709 120.252C95.4577 121.022 93.1214 120.772 92.1924 121.699L92.9558 121.588C92.1372 121.876 91.291 122.145 90.4448 122.414C91.2818 121.95 92.1004 121.477 92.8915 120.994C91.245 121.18 89.3962 121.931 87.1886 122.655C84.9903 123.378 82.3964 124.056 79.499 124C78.8828 123.397 81.3662 123.323 83.9877 122.914C86.6275 122.534 89.3686 121.829 89.5617 120.994C87.7773 121.096 84.7143 121.245 83.6566 121.727C83.9141 122.135 85.2202 122.015 86.5172 121.838C84.2084 122.581 81.1271 122.72 78.2757 122.581C76.85 122.543 75.507 122.414 74.3021 122.404C73.1155 122.33 72.0578 122.404 71.2483 122.608C72.4349 122.961 73.649 123.286 74.8816 123.545C70.4665 123.313 68.1578 121.022 66.5941 121.597C67.7898 121.356 68.9764 121.078 70.1354 120.772C65.8123 120.79 60.6521 119.046 56.8625 118.165C56.6601 118.564 57.9755 119.074 59.3276 119.436C60.6705 119.816 62.0594 120.029 61.8939 120.085L59.8979 120.122C57.0741 118.861 56.7429 118.545 56.237 118.211C55.7403 117.868 55.0597 117.488 51.8495 115.809L51.5552 116.328C49.688 114.547 43.2217 113.332 46.0639 112.933L47.6552 114.111L47.8116 113.387C45.2637 112.348 42.771 111.272 40.2599 110.178C41.2073 110.076 37.6293 108.369 38.8986 108.23C37.9052 107.961 36.921 107.645 35.9276 107.358C35.5689 106.578 36.9302 106.977 38.4663 107.497C40.0116 107.998 41.7132 108.619 42.0352 108.341C42.1455 107.877 40.8762 107.274 40.2323 107.014C43.7736 108.007 44.5462 110.391 47.7932 111.987L49.688 112.172L49.2281 112.942C50.6538 113.434 52.0795 113.415 52.705 113.304C54.1031 114.575 55.8507 115.261 57.8743 115.827C59.8979 116.412 62.1882 116.903 64.7821 117.766C62.5285 117.386 63.154 117.785 64.2762 118.295C65.3799 118.824 67.008 119.343 66.5941 119.371C67.8174 119.705 70.0802 119.76 72.2417 119.844C74.4217 119.881 76.5004 119.927 77.5766 120.493C79.0759 120.976 74.3665 121.022 77.9813 121.347C80.3544 121.31 81.9273 120.725 80.4188 120.354C85.5514 119.992 91.4933 119.028 96.7179 117.534L95.6141 118.443C99.0634 118.044 101.961 116.272 103.451 115.131C103.966 115.215 104.168 114.974 103.773 115.465C105.971 115.28 107.204 114.556 108.703 113.601C110.211 112.655 111.987 111.486 115.307 110.243C114.608 109.621 111.674 110.744 109.706 111.866L109.926 110.771C107.084 111.801 104.04 112.84 101.142 113.851C98.2447 114.872 95.4761 115.855 93.149 116.718C93.8297 116.31 94.5011 115.901 95.1726 115.475C92.965 115.4 92.312 115.855 91.6681 116.3C91.0242 116.736 90.3804 117.163 88.3016 116.811C85.4502 117.645 90.4907 116.922 88.366 117.71C86.2596 117.766 88.6051 116.031 85.2018 116.467C91.5485 115.419 98.162 113.285 104.84 111.05C111.472 108.796 118.076 106.152 123.769 102.617C123.898 102.33 123.264 102.645 122.638 102.951C123.052 102.515 123.926 101.875 125.14 101.096C125.719 100.669 126.391 100.205 127.118 99.7045C127.863 99.2221 128.589 98.5913 129.417 97.9976C130.254 97.4039 131.008 96.6525 131.873 95.9382C132.692 95.1868 133.501 94.3612 134.32 93.5078C134.697 93.0532 135.083 92.5986 135.469 92.1348C135.663 91.9029 135.865 91.6803 136.049 91.4391L136.564 90.6877L137.603 89.1756L138.477 87.5615C139.599 85.3907 140.482 83.0994 140.906 80.8452C141.356 78.6003 141.485 76.4388 141.421 74.5835C141.255 70.8543 140.446 68.3775 139.793 68.2198C140.013 67.4962 140.841 69.5371 140.234 66.7634C140.004 66.55 139.618 65.9007 139.415 66.6242C139.342 64.8246 138.992 62.8858 138.358 60.9284C138.036 59.9544 137.714 58.9525 137.318 57.9506C136.886 56.9673 136.444 55.9747 136.003 54.9636C134.081 50.9839 131.643 47.1249 129.445 43.3215C129.224 43.7204 127.918 42.301 127.669 42.4587C127.412 41.7259 126.943 40.9745 126.4 40.2045C126.124 39.8242 125.83 39.4346 125.517 39.0542C125.186 38.6924 124.846 38.3214 124.505 37.9596C123.162 36.4846 121.691 35.1766 120.909 33.9799L121.194 34.9725C119.17 32.8668 116.99 30.928 114.774 29.0355C114.47 29.0077 115.362 29.7869 115.85 30.2879C114.268 29.2118 114.277 28.5346 114.387 28.0893C113.136 27.5606 111.932 26.9947 110.681 26.5309C106.624 22.4306 100.967 19.2116 94.8506 16.6606C88.7155 14.1002 82.2033 12.0872 76.0221 9.74025C73.8974 9.97217 72.1865 9.86085 68.9396 9.1651C69.4455 9.37846 69.9606 9.57327 70.4665 9.79591C67.0264 9.67532 70.3745 9.34136 67.5139 8.99813C65.5087 9.06306 66.6585 10.0835 69.3167 10.2412C70.8436 10.8998 69.795 10.9369 68.6085 10.8627C58.509 8.33021 48.8786 6.44707 40.4439 4.03516L40.3795 4.04443Z" fill="#9F5225"/>
<path d="M53.5788 11.6972C53.0729 11.5117 54.0847 11.3911 54.9217 11.3169C55.7587 11.2519 56.4302 11.1128 55.2069 10.584C54.2227 10.2779 53.1281 10.1759 51.9691 10.0089C50.8102 9.86045 49.5776 9.91611 48.2991 9.89756C47.0297 9.98104 45.696 10.0831 44.3531 10.2779C43.0194 10.5284 41.6397 10.7139 40.2967 11.1128C39.6161 11.289 38.9354 11.4653 38.2548 11.6508L36.2496 12.3187L35.247 12.6434L34.272 13.033C33.6189 13.2835 32.975 13.5433 32.3312 13.7937C31.6965 14.0627 31.0802 14.3689 30.464 14.6379C29.8477 14.9255 29.213 15.1574 28.6335 15.4728C27.4654 16.085 26.2604 16.5767 25.1843 17.1889C22.6364 18.1444 22.1213 18.6546 20.0333 19.9163C20.0885 20.0554 20.1989 20.1853 20.3828 20.2224C19.3987 21.15 18.0741 22.3374 16.9428 23.7011C15.7102 24.972 14.68 26.4099 13.6774 27.3468C13.3831 28.0889 13.6038 28.9145 14.3029 27.6251C13.4015 29.4711 12.1873 30.7513 11.2215 32.0036C10.173 33.191 9.38192 34.3228 9.12437 35.4916C10.3385 33.8404 8.86683 37.551 10.1638 35.5102C9.9614 36.0018 9.73145 36.41 9.52909 36.7625C9.34513 37.1243 9.14277 37.4212 8.94041 37.6809C8.5357 38.1911 8.11258 38.5343 7.68027 38.8498C6.78806 39.4713 6.03381 40.065 5.38995 41.744C5.50032 41.9945 5.6199 42.245 5.86825 41.5771C4.86565 43.3118 4.43334 46.3081 4.21259 48.8406C4.03783 51.3824 3.94584 53.4882 3.1824 53.7015L3.86306 55.2786C3.33877 57.0133 3.03523 56.5958 3.02603 59.518C3.49514 61.364 3.58712 59.3788 3.91825 60.0374C3.6607 60.4642 3.78948 61.9206 3.94584 63.5718C4.22179 65.1952 4.42415 67.0505 4.40575 68.275C3.96424 68.4884 3.89066 67.403 3.95504 65.993C3.97344 65.2973 3.97344 64.5366 3.88146 63.8223C3.79867 63.108 3.70669 62.4215 3.37556 61.8928C3.16401 61.8557 3.16401 62.1896 3.21 62.6627C2.30858 56.6329 3.21 51.2247 4.60811 46.4844C6.02462 41.7069 7.88263 37.551 9.61187 33.1354C11.2307 31.6326 11.3503 29.9257 11.3227 28.7754C10.6697 29.3876 9.69466 30.7606 8.94961 32.05C8.24136 33.358 7.93782 34.6289 8.54489 34.9536C7.82744 35.7235 7.21117 36.5584 6.5857 37.4119C6.25457 38.5158 4.92084 38.0334 4.51613 38.4416C5.41754 36.4471 5.01282 33.4972 3.48594 36.2059C3.95504 34.7681 4.34136 34.2393 4.67249 34.1836C4.99443 34.1187 5.22438 34.5083 5.44513 34.8979C5.67509 35.2968 5.91424 35.705 6.17178 35.705C6.42013 35.705 6.71447 35.3061 7.15598 34.1187L6.53051 33.0148C6.5857 33.5807 7.15598 32.8756 7.79065 31.8738C8.48971 30.8904 9.22555 29.5824 9.4923 28.7754C9.30834 28.9331 9.15197 29.1093 8.9864 29.267C10.8352 26.4006 12.9876 23.4043 15.6826 20.6677C18.3685 17.9311 21.4682 15.3707 24.8715 13.1815C31.6689 8.76581 39.7081 6.06633 47.1953 5.13867C48.1795 5.65816 49.3293 5.89935 50.571 5.89007C51.8128 5.87152 53.1649 5.84369 54.517 5.69527C55.8691 5.62105 57.2304 5.61178 58.4538 5.7231C59.6679 5.92718 60.7349 6.27041 61.48 6.9105C63.1632 6.85484 59.3276 5.61178 62.5101 5.8808C64.1014 6.09416 64.083 6.78063 63.9726 6.9476C64.4509 6.99399 64.9384 7.04037 65.4259 7.08675C65.6743 8.44113 64.9108 9.42445 63.0252 10.0831C62.5561 10.2408 62.0134 10.3799 61.388 10.4913C60.7717 10.6119 60.0634 10.7788 59.2816 10.8809C58.4998 10.9922 57.6443 11.0757 56.6969 11.2427C55.7495 11.4096 54.7194 11.456 53.588 11.6879L53.5788 11.6972Z" fill="#9F5225"/>
</g>
<defs>
<clipPath id="clip0_889_31519">
<rect width="149" height="124" fill="white"/>
</clipPath>
</defs>
</svg>
