<svg width="147" height="177" viewBox="0 0 147 177" fill="none" xmlns="http://www.w3.org/2000/svg">
<path d="M54.4132 171.107C54.4132 172.158 54.4846 173.028 54.3775 173.892C54.3418 174.201 53.9758 174.633 53.6098 174.743C53.351 174.82 52.7352 174.511 52.4674 174.266C52.2443 174.072 52.2175 173.711 52.2264 173.434C52.3067 171.997 52.4317 170.56 52.5388 169.174C51.5273 169.466 51.0125 170.014 50.9947 170.817C50.95 172.397 50.9054 173.969 50.8608 175.548C50.8608 175.716 50.9144 175.922 50.8073 176.051C50.5931 176.315 50.2806 176.541 50.0129 176.779C49.754 176.528 49.3077 176.29 49.2631 176.019C48.9953 174.356 48.8258 172.693 48.6205 171.024C48.5937 170.811 48.5759 170.598 48.558 170.392C47.1031 170.276 46.8175 170.547 46.407 171.565C45.8625 172.925 45.1038 174.24 44.3719 175.561C44.0863 176.083 43.4437 176.128 42.7564 175.961C41.9977 175.774 41.2034 175.645 40.4715 175.413C39.2933 175.039 38.1508 174.601 36.9994 174.182C36.687 174.066 36.3836 173.931 35.973 173.763C35.973 174.453 36.0176 175.052 35.0269 175.355C33.9826 175.677 33.5631 175.574 33.5095 174.743C33.4114 173.222 33.4381 171.694 33.4024 170.166C33.3667 168.858 33.7059 167.62 34.5895 166.467C35.2946 165.545 37.3029 165.023 38.9274 165.364C40.4715 165.693 41.8817 166.969 41.5068 167.968C41.0427 169.206 39.9627 170.211 38.4186 170.882C36.9816 171.501 36.8209 171.894 38.1419 172.641C39.2754 173.286 40.5964 173.763 41.9709 174.369C42.4886 173.118 42.9081 172.087 43.2562 171.256C42.7832 170.85 42.1852 170.547 42.212 170.295C42.2477 169.992 42.7742 169.573 43.2027 169.483C44.2113 169.264 44.1577 168.658 44.3362 168.162C44.5594 167.53 44.6129 166.873 44.72 166.222C44.8896 165.197 45.3894 164.978 46.8264 165.397C47.0585 164.92 47.2817 164.449 47.5227 163.979C47.7458 163.54 47.9779 163.102 48.799 163.102C49.6023 163.102 49.9593 163.463 50.0843 163.953C50.3788 165.094 50.6287 166.235 50.8786 167.382C50.9679 167.807 51.0036 168.233 51.0661 168.652C51.7266 168.607 52.28 168.574 53.1279 168.516C52.8869 167.846 52.6191 167.124 52.3603 166.402C52.2264 166.028 52.1104 165.655 52.0122 165.274C51.9765 165.139 51.9586 164.9 52.0568 164.855C52.5031 164.662 53.0922 164.314 53.4581 164.404C54.2614 164.597 55.7252 163.94 55.7699 165.21C55.7788 165.616 55.7074 166.035 55.5913 166.434C55.2611 167.601 55.5467 168.697 56.2072 169.76C57.3765 171.642 58.5903 173.512 60.8038 174.917C61.6607 175.458 62.1159 175.368 62.3747 174.556C62.83 173.118 62.348 171.713 62.0356 170.302C61.6161 168.445 61.0538 166.596 60.8217 164.72C60.6253 163.16 61.7857 162.393 63.9813 162.412C64.9721 162.412 65.9807 162.554 66.9625 162.696C67.2838 162.741 67.5516 162.973 67.8461 163.121C67.8104 163.186 67.7747 163.25 67.7479 163.315C67.2927 163.366 66.8375 163.412 66.3912 163.47C65.704 163.56 65.0078 163.637 64.3205 163.753C63.3566 163.914 62.8746 164.391 62.9995 165.087C63.3209 166.886 63.7136 168.671 64.0617 170.463C64.3652 172.016 64.8561 173.57 64.1063 175.136C63.3744 176.67 61.5447 177.134 59.7596 176.148C58.9741 175.709 58.2868 175.149 57.6888 174.575C56.5999 173.505 55.6181 172.384 54.431 171.114L54.4132 171.107ZM35.973 170.379C37.5707 170.037 38.5436 169.27 39.204 168.31C39.5789 167.769 39.0255 167.343 38.4186 167.15C37.8206 166.957 37.1868 166.924 36.7138 167.498C35.9997 168.375 35.7945 169.283 35.973 170.379ZM47.3977 168.961C47.9332 168.897 48.2456 168.858 48.6205 168.813C48.5402 168.13 48.4688 167.511 48.3884 166.886C48.2992 166.886 48.2099 166.879 48.1117 166.873C47.8886 167.511 47.6744 168.155 47.3977 168.955V168.961Z" fill="black"/>
<path d="M112.354 75.2681C111.443 75.3261 110.828 75.3326 110.238 75.4163C108.177 75.6935 107.382 76.7763 107.204 78.1943C107.097 79.0323 107.284 79.8895 107.275 80.7403C107.275 81.662 107.257 82.5837 107.123 83.499C106.998 84.3176 106.588 85.0588 105.392 85.4068C104.83 85.568 104.339 85.5615 103.964 85.1812C103.053 84.2531 102.143 83.3314 101.241 82.3968C100.974 82.1197 100.777 81.8167 100.295 81.546C100.34 82.2421 100.411 82.9447 100.438 83.6408C100.474 84.4916 100.51 85.336 100.465 86.1868C100.447 86.4833 100.304 86.8442 100.028 87.044C99.7331 87.2567 99.2064 87.4243 98.8137 87.3921C98.5906 87.3727 98.2782 86.928 98.2603 86.6702C98.1086 84.3691 98.0104 82.0681 97.8855 79.767C97.8587 79.3223 97.8051 78.8776 97.5909 78.4264C97.1982 79.0838 96.8233 79.7413 96.3949 80.3858C96.0914 80.8435 95.8415 81.3784 95.3506 81.7007C94.4849 82.2679 94.2706 82.8931 94.3152 83.6923C94.3599 84.5109 94.2439 85.3359 94.0654 86.1481C94.0118 86.3994 93.5477 86.6122 93.271 86.8377C93.0032 86.5735 92.5302 86.3221 92.5034 86.0385C92.3516 84.685 92.3338 83.325 92.2356 81.9714C92.1642 80.9337 92.0482 79.9024 91.825 78.8325C90.5487 79.9991 89.4954 81.2817 87.2908 81.8683C87.6032 82.9576 87.9335 84.0597 88.2369 85.1619C88.344 85.5615 88.5315 85.9869 88.4511 86.3737C88.3976 86.6379 87.9513 86.8635 87.6746 87.1085C87.3979 86.9473 86.9338 86.812 86.8714 86.6121C86.3448 85.0652 85.8181 83.5119 85.4343 81.9392C85.2201 81.0368 85.2558 80.1022 85.229 79.187C85.229 78.9098 85.3183 78.5875 85.5325 78.3684C85.7467 78.1492 86.1573 78.0268 86.4875 77.8592C86.7017 78.1299 87.0677 78.3942 87.1123 78.6778C87.2105 79.2643 87.1391 79.8702 87.1391 80.4889C88.4869 80.3471 89.9774 79.1161 90.0667 78.1686C90.1024 77.7947 90.1827 77.3822 90.0221 77.0406C89.549 76.0093 87.5497 75.5195 86.2733 76.1254C86.0234 76.2478 85.9431 76.6023 85.8716 76.8602C85.8092 77.118 85.8538 77.3887 85.8538 77.7367C85.0416 77.3693 83.8545 75.6935 84.1669 75.2939C84.4436 74.9394 85.0416 74.5784 85.5771 74.5011C87.7371 74.1982 89.8882 74.0886 91.4234 75.6291C91.3609 75.2294 91.0931 74.688 91.2895 74.5849C91.8161 74.2948 92.5302 74.0499 93.1728 74.0435C94.8597 74.0241 96.1985 74.5784 97.1179 75.6291C97.2785 75.8095 97.4124 76.0029 97.5642 76.1834C98.8941 75.7064 99.4742 75.9513 99.9026 76.9439C100.269 77.7947 100.751 78.6391 101.34 79.419C102.339 80.7597 103.464 82.0616 104.535 83.3765C104.597 83.4539 104.714 83.5054 105.017 83.7117C105.115 82.8738 105.267 82.1906 105.267 81.5073C105.267 80.1989 105.267 78.884 105.097 77.5885C104.847 75.7386 107.9 73.9145 110.774 74.3271C111.693 74.4624 112.622 74.8105 113.577 74.3464C113.728 74.2755 114.112 74.3722 114.326 74.4689C116.701 75.4808 118.262 76.9117 118.691 78.9356C119.057 80.6759 119.459 82.4162 119.896 84.15C120.119 85.033 119.949 85.2006 118.12 85.3811C117.575 83.8277 117.022 82.2486 116.424 80.5663C115.317 80.6952 114.157 80.7854 113.023 80.9853C112.702 81.0433 112.372 81.372 112.247 81.6298C111.97 82.197 111.854 82.8029 111.622 83.383C111.542 83.5828 111.39 83.8406 111.167 83.9115C110.649 84.092 110.069 84.1758 109.507 84.2982C109.426 83.9179 109.248 83.5312 109.283 83.1574C109.355 82.4226 109.917 81.7136 109.408 80.953C109.328 80.8306 109.39 80.5598 109.524 80.4761C110.917 79.6059 110.845 78.2975 111.426 77.1889C111.738 76.5959 112.006 75.99 112.345 75.281L112.354 75.2681ZM94.2349 80.7661C94.583 80.3472 94.9222 80.0571 95.0828 79.7219C95.6362 78.5682 96.136 77.3629 95.0203 76.2607C94.6901 75.932 93.9404 75.7838 93.3424 75.6677C93.1192 75.6226 92.7711 75.9127 92.6908 75.9513C94.0296 77.4854 93.753 79.1096 94.2349 80.7661ZM116.138 79.1547C115.96 77.8785 115.228 76.9504 114.139 76.699C113.818 77.4789 113.487 78.2588 113.112 79.1547H116.138Z" fill="black"/>
<path d="M60.6043 57.9871C60.4972 57.5166 60.4169 57.1428 60.3276 56.7754C60.3098 56.7045 60.2919 56.6336 60.2473 56.5691C58.7746 54.745 59.6047 52.8436 59.9438 50.968C60.0242 50.5039 60.4705 50.0978 61.3005 50.2396C62.0771 50.3685 62.1127 50.8004 62.0592 51.2709C61.9521 52.1862 61.845 53.1079 61.7646 54.0231C61.7468 54.2552 61.8003 54.4872 61.8271 54.7773C62.5858 54.6419 62.8536 54.3776 62.8982 53.9007C63.0142 52.8501 63.3355 51.8317 64.3798 51.0324C64.6387 50.8391 65.0314 50.6715 65.3973 50.6328C65.7454 50.6006 66.2274 50.6844 66.4505 50.8584C66.5934 50.9744 66.4774 51.3611 66.3256 51.5674C64.5584 54.0231 65.4598 56.3564 66.8522 58.6832C66.9861 58.9024 66.9504 59.1795 66.9861 59.4244C66.5845 59.3858 66.0132 59.4567 65.8257 59.2955C65.1206 58.6961 64.4869 58.0451 63.9335 57.3748C63.6033 56.9752 63.4516 56.4918 63.1749 55.9697C62.5233 56.2339 61.9521 56.466 61.2916 56.7367C61.6843 56.9236 61.9521 57.0525 62.2198 57.1814C64.4602 58.2772 65.2188 59.6049 64.5673 61.5063C63.9603 63.2724 62.7018 64.7162 60.283 65.4896C58.8906 65.9408 57.9088 65.6895 57.5072 64.6131C57.2394 63.9105 57.2751 63.1371 57.2126 62.3958C57.1858 62.1444 57.2662 61.8802 57.3019 61.5579C55.7756 61.906 54.3743 62.2089 52.9909 62.557C52.8034 62.6021 52.5802 62.8986 52.6159 63.0468C52.6963 63.4206 52.848 63.8074 53.089 64.1425C53.4371 64.6131 53.2675 65.0062 52.6874 65.1674C52.2857 65.2769 51.5627 65.2254 51.3039 65.0256C50.8755 64.6968 50.5809 64.207 50.4381 63.7558C50.1971 62.9566 49.8134 62.4087 48.4745 62.5827C48.2157 62.615 47.8051 62.5441 47.6444 62.4087C47.3677 62.1702 47.0107 61.8157 47.0821 61.5708C47.1535 61.3388 47.698 61.1003 48.0907 61.0165C48.5191 60.9327 49.0189 61.0294 49.6616 61.0487C49.4831 59.6049 49.3135 58.1998 49.135 56.7044C48.0729 57.0718 47.1357 57.3941 45.8861 57.8324C45.2702 59.0313 43.6011 60.011 42.0927 61.0616C41.4679 61.4999 41.5572 61.7835 42.0659 62.2024C43.6011 63.4658 45.5112 64.091 47.8408 64.0523C48.0729 64.0523 48.3227 64.0201 48.5459 64.0652C48.7869 64.1168 49.1707 64.2457 49.1707 64.3423C49.1707 64.5164 48.9832 64.7871 48.778 64.8386C47.9747 65.0385 47.1178 65.3414 46.3145 65.2963C45.0024 65.2189 43.7172 64.8967 42.423 64.6969C42.057 64.6389 41.584 64.5228 41.3162 64.6324C40.4861 64.974 40.1827 64.6002 39.9952 64.1683C39.5222 63.0597 39.1205 61.9317 38.6921 60.8102C38.5671 60.4815 38.46 60.1528 38.3261 59.8305C37.6299 58.1096 39.8703 55.2736 42.2713 54.8417C43.9939 54.5323 44.8061 54.8159 46.1449 56.1888C46.8768 55.873 47.6444 55.5829 48.3317 55.222C48.537 55.1124 48.4923 54.7837 48.653 54.5968C48.9208 54.2938 49.2242 53.8556 49.608 53.7975C49.9829 53.746 50.456 54.1069 50.9112 54.2681C51.2236 54.3776 51.5806 54.5388 51.9019 54.5194C52.973 54.4485 54.0262 54.2874 55.0973 54.1972C55.49 54.1649 55.972 54.1327 56.2754 54.2616C56.5878 54.397 56.8467 54.7193 56.8913 54.9835C56.9181 55.1189 56.4718 55.4025 56.1862 55.454C54.642 55.7441 53.0801 55.9826 51.5002 56.2404C51.6877 57.7164 51.8751 59.0828 52.0179 60.4557C52.0715 60.9198 52.4107 61.068 52.9551 60.9585C54.6599 60.6104 56.3468 60.243 58.0427 59.8692C58.1944 59.837 58.3283 59.7403 58.4354 59.6565C59.2119 59.07 59.9885 58.477 60.6133 58L60.6043 57.9871ZM62.4698 59.0957C61.9878 59.2182 61.8182 59.2375 61.6843 59.302C60.1224 60.0174 58.9531 62.4087 59.444 63.7236C59.6404 64.2457 60.1134 64.091 60.4972 63.8138C61.604 63.0017 62.4162 62.0542 62.6036 60.9133C62.6929 60.3655 62.5323 59.7918 62.4698 59.1022V59.0957ZM40.8253 59.7145C40.9413 59.7661 41.0663 59.8176 41.1823 59.8756C42.0302 59.1151 42.9317 58.3867 43.6726 57.581C43.8689 57.3683 43.5922 56.9301 43.5297 56.5949C43.0388 56.6464 42.4497 56.5884 42.0838 56.7689C40.6022 57.5037 40.6022 58.5994 40.8164 59.7209L40.8253 59.7145Z" fill="black"/>
<path d="M57.4096 32.1534C60.3907 31.9214 63.3361 31.193 66.469 31.6765C67.8703 30.9739 69.6019 30.6709 71.3959 30.845C73.2613 31.0255 74.5198 32.7271 73.8593 34.2998C73.4755 35.2279 72.6365 36.0529 71.9849 36.9166C71.8421 37.0971 71.6012 37.2389 71.3423 37.4516C72.7526 38.3282 74.1985 39.0436 76.0193 39.237C76.9476 39.3401 77.4831 38.9405 77.849 38.0639C78.0811 37.5161 78.3668 36.9875 78.6613 36.4526C79.4467 35.0345 80.2411 33.623 81.0355 32.2114C81.1337 32.0309 81.214 31.8376 81.3746 31.6893C81.8209 31.2768 82.4814 30.9546 83.0883 31.2704C83.3918 31.4315 83.4186 32.0825 83.2401 32.4241C83.0348 32.8173 83.0705 33.0687 83.3204 33.4167C83.7845 34.0613 84.2398 34.7123 84.5789 35.3955C84.9449 36.1496 85.8732 35.9563 86.5872 36.1109C87.0335 36.2076 87.5244 36.1754 87.9706 36.2656C88.1759 36.3107 88.3812 36.4912 88.4705 36.6524C88.5062 36.7104 88.2294 36.9231 88.042 36.9682C87.2923 37.1615 86.5247 37.3227 85.5072 37.5483C85.9445 38.1477 86.3283 38.7471 86.8014 39.3014C87.3905 40.004 88.0599 40.6743 88.6847 41.3576C88.9971 41.7056 89.2559 42.1568 88.6043 42.3437C88.1937 42.4597 87.3458 42.3502 87.1048 42.1246C85.8196 40.8935 84.6057 39.6173 83.4811 38.3024C83.124 37.8899 82.8563 37.8126 82.2315 37.8641C80.5981 38.0059 79.6698 38.6182 79.286 39.7655C79.0451 40.4874 78.2507 40.7452 77.2332 40.5583C77.1082 40.5325 76.9565 40.5068 76.8494 40.5325C74.5555 41.0804 72.7704 40.1394 70.905 39.4562C70.3516 39.2499 69.8339 38.9856 69.102 38.8309C69.3073 39.3015 69.4412 39.7913 69.7268 40.2296C70.1195 40.829 69.816 41.2673 69.1466 41.5187C68.3523 41.8152 67.8881 41.4285 67.6471 40.9064C66.7724 39.0243 66.46 37.0842 66.4243 35.1119C66.4243 34.8412 66.1298 34.5769 66.0227 34.3062C65.7906 33.6874 65.5943 33.0687 65.3533 32.3726C62.8184 32.8044 59.9979 33.2814 57.1061 33.7712V37.4C58.7662 37.052 60.355 36.7039 61.9526 36.3881C62.4792 36.285 63.1576 35.8467 63.5414 36.4139C63.9877 37.0649 63.0505 37.2454 62.5239 37.4452C61.069 37.9866 59.5784 38.4829 58.0522 38.9276C57.2757 39.1532 57.0614 39.3788 57.1507 40.0362C57.356 41.5509 57.7755 41.8023 59.989 41.1384C61.7563 40.6099 63.2558 39.772 64.3536 38.5989C64.4964 38.4506 64.8535 38.412 65.1123 38.3217C65.2016 38.6053 65.4515 38.9341 65.3355 39.1661C64.7374 40.4101 63.5057 41.3447 61.9616 41.9441C60.6852 42.4404 59.2303 42.7176 57.8201 42.9883C56.8561 43.1752 55.9011 42.7562 55.6155 42.0472C55.312 41.3124 55.2228 40.5325 54.9728 39.7849C54.8836 39.5206 54.6694 39.2306 54.3927 39.0694C53.6251 38.6247 53.6251 38.2508 54.4195 37.8319C54.6426 37.7159 54.839 37.4774 54.8568 37.2776C54.9728 36.2399 55.2496 35.1763 55.0532 34.1644C54.8925 33.3652 54.8033 32.6948 55.3299 31.9407C55.5977 31.554 55.4995 30.8901 56.276 30.961C56.7312 30.9997 57.1061 31.554 57.5167 31.8763C57.481 31.9665 57.4363 32.0632 57.4006 32.1534H57.4096ZM68.5933 36.8522C70.5569 36.5879 72.3152 34.7638 71.9582 33.5263C71.7975 32.9655 70.896 32.5015 70.0927 32.5595C68.7539 32.6626 68.3879 32.8818 68.4058 33.7003C68.4236 34.7316 68.5218 35.7629 68.5933 36.8522Z" fill="black"/>
<path d="M29.9711 128.731C30.105 128.319 30.2567 128.003 30.3014 127.674C30.4888 126.405 30.6495 125.128 30.8101 123.859C30.9351 122.898 30.9529 121.919 31.2207 120.977C31.6223 119.547 34.2643 117.98 36.3082 117.961C36.9598 117.961 37.6293 118.283 38.5218 118.515C40.5211 117.793 42.7525 117.839 44.9304 118.902C45.0821 118.773 45.2159 118.676 45.332 118.573C45.9568 118.019 46.7869 118.058 47.2599 118.702C47.6348 119.211 47.9115 119.759 48.2328 120.288C48.5898 120.14 49.0986 119.837 49.2325 119.908C49.5806 120.088 49.893 120.41 49.9911 120.713C50.1518 121.229 50.1696 121.77 50.1875 122.299C50.2589 124.181 51.5085 125.721 52.9187 127.21C53.2668 127.578 53.6863 127.913 54.0701 128.261L54.3111 128.196C54.329 127.997 54.3557 127.803 54.3736 127.603C54.5521 125.283 54.7217 122.956 54.9002 120.636C54.9448 120.004 54.9448 119.373 55.0252 118.747C55.0698 118.399 55.3197 118.064 55.3732 117.716C55.4357 117.336 55.3911 116.943 55.3911 116.414C55.6142 116.595 55.7749 116.704 55.8998 116.833C56.0784 117.007 56.1944 117.31 56.4086 117.349C57.4708 117.529 57.4261 118.096 57.3637 118.664C57.1316 120.881 56.8549 123.098 56.6585 125.322C56.5603 126.456 56.6228 127.597 56.5782 128.731C56.5693 128.97 56.4622 129.376 56.3104 129.402C55.9356 129.46 55.5071 129.337 55.1055 129.286C54.7306 129.234 54.3289 129.215 53.9898 129.105C53.1865 128.847 52.3385 128.609 51.6423 128.235C50.9819 127.887 50.482 127.371 49.768 126.824C49.6698 127.333 49.5984 127.739 49.5092 128.145C49.411 128.551 49.4377 129.028 49.1343 129.331C48.8397 129.634 48.1971 129.756 47.7062 129.962C47.5366 129.653 47.1885 129.324 47.2331 129.028C47.4206 127.752 47.7686 126.488 47.9561 125.212C48.0275 124.729 47.9739 124.187 47.7419 123.736C47.0814 122.492 46.296 121.287 45.5373 120.075C45.4391 119.914 45.216 119.675 45.0464 119.675C43.0828 119.701 41.1102 119.759 39.1466 119.843C38.9681 119.85 38.6824 120.062 38.6467 120.204C38.4861 120.913 38.3968 121.635 38.2808 122.35C38.3522 122.415 38.4236 122.486 38.504 122.55C40.2266 121.912 41.9403 121.274 43.7076 120.623C44.1717 121.177 43.6093 121.519 43.2256 121.757C41.8689 122.582 40.4408 123.343 39.0395 124.123C38.5843 124.374 37.7542 124.6 37.7274 124.871C37.656 125.644 37.5936 126.579 38.1202 127.184C38.9681 128.158 39.3519 128.532 40.9585 127.565C41.7707 127.075 42.69 126.695 43.5647 126.263C43.6718 126.295 43.7789 126.327 43.886 126.353C43.7522 126.708 43.77 127.165 43.4666 127.391C42.5115 128.1 41.4851 128.77 40.3962 129.369C39.5572 129.827 38.6378 129.846 37.7006 129.357C35.7459 128.345 35.1033 127.01 35.38 125.302C35.6924 123.388 36.4868 121.558 37.0134 119.682C37.058 119.514 37.058 119.25 36.9152 119.16C36.7724 119.07 36.3886 119.076 36.1833 119.147C34.7641 119.663 33.6752 120.442 33.4432 121.59C33.0683 123.407 32.9255 125.251 32.6042 127.075C32.4524 127.932 32.256 128.822 31.7919 129.608C31.4974 130.111 30.7119 130.497 30.0604 130.846C29.8997 130.929 29.3195 130.736 29.0518 130.568C27.4809 129.582 26.7133 128.254 26.3652 126.83C26.0706 125.625 25.9993 124.387 25.9636 123.156C25.9546 122.744 26.2759 122.286 26.5972 121.919C26.7758 121.712 27.2667 121.654 27.6237 121.525C27.7219 121.77 27.9361 122.035 27.8915 122.267C27.5077 124.297 27.8469 126.231 29.2035 128.042C29.3106 128.19 29.4356 128.338 29.5695 128.474C29.623 128.532 29.7212 128.564 29.9801 128.712L29.9711 128.731Z" fill="black"/>
<path d="M89.4562 151.514C87.1801 152.636 84.672 153.113 81.8783 152.636C80.7894 152.449 79.888 151.779 79.8612 150.979C79.8255 149.858 79.8523 148.73 79.8523 147.821C78.9776 148.459 77.8172 149.284 76.7104 150.142C76.5141 150.29 76.4605 150.58 76.4516 150.805C76.4338 151.534 76.4516 152.262 76.4784 152.984C76.5051 153.545 76.1214 153.841 75.3984 153.951C74.6487 154.06 74.4612 153.674 74.3809 153.28C74.2559 152.687 74.1309 152.088 74.1309 151.495C74.1309 149.317 74.2202 147.138 74.2202 144.959C74.2202 144.36 74.0149 143.761 73.9435 143.155C73.8007 141.885 74.5148 141.331 76.2374 141.376C78.7187 141.434 80.1736 142.42 80.959 144.096C81.0304 143.638 81.0929 143.18 81.1911 142.723C81.2536 142.439 81.3339 142.156 81.4588 141.878C81.6909 141.343 82.3514 141.221 82.9137 141.395C83.2797 141.511 83.6992 141.982 83.6546 142.252C83.3779 143.96 82.9494 145.649 82.637 147.351C82.4585 148.311 82.3514 149.278 82.3068 150.245C82.2622 151.063 82.8423 151.514 83.9491 151.424C85.2968 151.315 86.6446 151.102 87.9477 150.831C88.6261 150.689 88.9563 150.335 88.8403 149.665C88.6082 148.408 88.3494 147.061 88.7243 145.855C89.1348 144.521 90.0006 143.174 91.1163 142.065C92.6069 140.576 94.6062 140.286 97.2838 140.738C97.9979 140.86 98.712 141.021 99.3814 141.234C99.6134 141.305 99.7205 141.582 99.8812 141.769C99.6313 141.853 99.3813 142.001 99.1225 142.014C97.4177 142.072 95.704 142.091 93.9992 142.136C93.3834 142.149 93.0264 142.285 92.8925 142.839C92.7407 143.483 92.232 144.083 91.7947 144.856C92.8836 144.798 93.8029 144.779 94.7044 144.695C95.5969 144.611 96.4716 144.418 97.3731 144.347C97.748 144.315 98.1496 144.482 98.5424 144.56C98.3103 144.83 98.1675 145.224 97.8372 145.34C96.0253 145.978 94.1242 146.487 92.0803 146.493C91.2413 146.493 90.8485 146.732 90.9913 147.306C91.2502 148.395 91.4376 149.51 91.9018 150.554C92.2945 151.456 93.1424 151.721 94.383 151.437C95.5523 151.173 96.6323 150.735 97.7747 150.406C98.0782 150.316 98.4441 150.348 98.7833 150.322C98.7387 150.586 98.8369 150.934 98.6316 151.095C96.784 152.584 93.5887 153.197 90.8842 152.565C90.3398 152.436 89.9738 151.901 89.4562 151.495V151.514ZM76.7372 148.195C78.5402 147.099 78.9418 145.836 78.3349 144.392C78.0582 143.735 77.4959 143.213 76.2998 143.168C76.4427 144.843 76.5855 146.461 76.7372 148.189V148.195Z" fill="black"/>
<path d="M126.158 174.08C125.229 174.396 124.453 174.68 123.658 174.918C123.167 175.067 122.65 175.208 122.132 175.247C118.589 175.498 116.223 173.765 116.464 171.128C116.482 170.909 116.571 170.69 116.536 170.477C116.509 170.329 116.33 170.194 116.214 170.052C116.081 170.187 115.831 170.323 115.831 170.452C115.857 171.199 115.92 171.953 116.018 172.701C116.152 173.739 116.295 174.777 116.491 175.808C116.571 176.253 116.393 176.51 115.831 176.652C115.215 176.8 114.706 176.671 114.581 176.207C114.251 174.983 113.974 173.745 113.706 172.508C113.581 171.934 113.501 171.36 113.394 170.787C112.635 170.864 111.877 170.929 111.136 171.025C110.511 171.109 109.895 171.219 109.288 171.354C108.164 171.605 107.458 172.115 106.977 172.933C106.548 173.649 106.271 174.57 104.977 174.822C104.54 174.905 104.049 174.822 103.576 174.815C103.594 174.506 103.487 174.151 103.665 173.893C105.075 171.773 106.468 169.646 108.021 167.583C108.904 166.417 108.833 165.16 109.172 163.935C109.279 163.555 109.583 163.084 110.002 162.891C110.609 162.62 111.234 162.872 111.787 163.239C113.742 164.548 114.706 166.217 115.322 168.041C115.429 168.37 115.706 168.84 116.063 168.93C116.839 169.13 117.402 168.776 117.884 168.292C118.999 167.152 120.142 166.024 121.391 164.954C121.784 164.618 122.507 164.425 123.123 164.29C123.917 164.109 124.604 164.451 124.712 164.966C124.89 165.792 124.453 166.268 123.542 166.404C123.034 166.481 122.409 166.629 122.123 166.907C121.097 167.912 119.981 168.918 119.321 170.052C118.901 170.761 118.99 171.734 119.267 172.514C119.651 173.616 121.079 174.08 122.596 173.739C123.649 173.5 124.649 173.152 125.658 172.817C126.461 172.546 126.149 172.018 126.006 171.605C125.97 171.496 125.319 171.444 124.953 171.451C124.355 171.457 123.748 171.592 123.159 171.56C122.819 171.541 122.266 171.328 122.239 171.167C122.195 170.877 122.391 170.342 122.632 170.297C124.105 170.026 125.604 169.801 127.113 169.717C127.443 169.697 128.005 170.297 128.175 170.677C128.46 171.309 128.585 171.999 128.648 172.662C128.746 173.752 128.773 174.847 128.746 175.937C128.746 176.195 128.523 176.588 128.246 176.678C127.702 176.852 127.202 176.652 126.979 176.22C126.845 175.975 126.72 175.724 126.631 175.466C126.479 175.047 126.363 174.622 126.184 174.08H126.158ZM111.627 165.611C110.806 167.048 110.127 168.26 109.369 169.594C110.797 169.465 111.939 169.356 113.367 169.227C112.778 168.002 112.234 166.868 111.636 165.611H111.627Z" fill="black"/>
<path d="M26.7634 147.17C24.8355 147.795 22.9433 148.401 21.06 149.026C20.9082 149.078 20.7476 149.297 20.7744 149.413C20.9529 150.09 21.2296 150.754 21.3902 151.431C21.4705 151.792 21.5687 152.256 21.3278 152.513C21.0511 152.816 20.3906 153.145 19.9443 153.106C19.5783 153.074 19.1231 152.571 18.9892 152.223C18.6768 151.366 18.5341 150.477 18.3109 149.568C17.4987 149.748 16.7132 149.993 15.901 150.071C15.4726 150.109 14.9906 149.858 14.5354 149.735C14.7942 149.426 14.9906 149.078 15.3298 148.827C15.5976 148.633 16.017 148.53 16.4008 148.433C18.0699 148.015 18.1502 148.008 17.936 146.758C17.6861 145.295 17.2845 143.851 16.9364 142.336C16.3919 142.355 15.9189 142.426 15.4815 142.375C15.1245 142.336 14.5175 142.136 14.5265 142.027C14.5443 141.743 14.7496 141.324 15.0531 141.221C15.8296 140.957 16.6865 140.718 17.5344 140.667C19.8015 140.538 22.0686 140.48 24.3446 140.467C25.5227 140.46 26.4956 141.047 26.5313 141.685C26.5403 141.917 26.3171 142.162 26.1922 142.394C25.8798 142.31 25.5674 142.233 25.2639 142.143C24.8533 142.027 24.4249 141.775 24.0322 141.801C22.4435 141.911 20.8636 142.098 19.2213 142.265C19.5962 143.928 19.9532 145.514 20.3459 147.241C21.8097 146.957 23.22 146.7 24.6124 146.403C25.9958 146.107 27.3436 145.726 28.736 145.475C29.5482 145.327 30.0123 145.037 30.3247 144.502C30.6371 143.967 30.9495 143.412 31.4226 142.955C31.7528 142.645 32.3508 142.323 32.8417 142.317C33.2166 142.317 33.7878 142.742 33.9485 143.064C34.4751 144.121 34.8589 145.217 35.2873 146.287C37.0189 145.759 38.1078 144.463 39.8304 143.877C39.9643 143.973 40.1071 144.07 40.241 144.167C39.7412 144.702 39.3127 145.288 38.7237 145.765C37.7865 146.526 36.7422 147.209 35.7514 147.931C35.5461 148.085 35.2338 148.279 35.2427 148.453C35.3141 149.793 35.3855 151.141 35.6086 152.468C35.689 152.932 35.93 153.351 35.207 153.577C34.5554 153.783 33.8771 153.699 33.6361 153.145C33.3148 152.391 33.0381 151.618 32.8953 150.838C32.7703 150.2 32.8685 149.542 32.8685 148.904C31.5207 148.704 30.9049 148.93 30.414 149.748C29.8517 150.683 29.3607 151.643 28.6735 152.526C28.3789 152.913 27.7452 153.229 27.1651 153.409C26.4778 153.622 25.9423 153.048 26.2547 152.404C26.7099 151.469 27.174 150.535 27.7452 149.632C28.1647 148.968 28.3611 148.421 27.3793 147.918C27.0847 147.77 26.9687 147.434 26.7455 147.157L26.7634 147.17ZM27.9684 146.738C27.9684 146.796 27.9594 146.854 27.9505 146.912C28.2629 146.983 28.6467 147.177 28.8698 147.106C29.1108 147.028 29.2001 146.706 29.3608 146.493L29.2001 146.384C28.7895 146.506 28.3879 146.622 27.9773 146.745L27.9684 146.738Z" fill="black"/>
<path d="M115.137 125.328C113.423 125.264 113.102 125.438 112.522 126.489C111.933 127.546 111.415 128.648 110.567 129.589C109.898 130.324 108.8 130.878 107.827 131.452C105.854 132.625 104.167 131.819 102.507 130.987C102.106 130.788 101.722 130.556 101.284 130.317C101.133 130.478 101.026 130.569 100.963 130.672C100.677 131.187 100.222 131.587 99.4101 131.529C98.4997 131.464 98.3033 130.878 98.1516 130.356C97.9909 129.789 97.9463 129.202 97.8392 128.628C97.7321 128.048 97.3929 127.61 96.6075 127.32C95.6524 126.972 95.5185 126.572 96.2861 126.076C97.4197 125.348 97.3572 124.445 97.259 123.53C97.1341 122.37 96.8931 121.223 96.7502 120.062C96.6878 119.592 96.5717 119.063 97.5982 118.973C98.1962 118.922 98.6068 118.999 98.7049 119.463C98.9459 120.61 99.1691 121.758 99.4011 122.898C99.4368 123.06 99.4636 123.221 99.7582 123.524C100.383 123.053 101.043 122.602 101.633 122.106C103.016 120.926 104.489 119.798 105.301 118.322C105.408 118.129 105.622 117.897 105.872 117.832C106.247 117.736 106.783 117.652 107.059 117.781C107.282 117.877 107.398 118.399 107.238 118.574C106.051 119.83 104.855 121.081 103.525 122.254C102.507 123.15 101.293 123.93 100.16 124.761C99.4904 125.257 99.4547 126.514 100.133 126.998C101.543 128.003 102.927 129.035 104.399 129.982C105.176 130.485 106.042 131.078 107.256 130.691C107.559 130.594 107.827 130.324 107.961 130.085C108.407 129.254 108.8 128.409 109.175 127.559C109.88 125.954 110.576 124.342 111.254 122.724C111.602 121.893 111.87 121.042 112.236 120.211C112.495 119.618 113.182 119.508 114.021 119.656C115.735 119.959 116.11 120.971 116.547 121.957C117.306 123.685 117.279 123.685 119.841 123.491C120.126 123.472 120.43 123.607 120.733 123.672C120.573 123.865 120.483 124.142 120.242 124.246C119.618 124.516 118.903 124.684 118.27 124.955C117.993 125.071 117.654 125.354 117.681 125.541C117.868 127.036 118.127 128.525 118.395 130.014C118.439 130.272 118.6 130.523 118.761 130.762C119.046 131.194 119.037 131.555 118.404 131.819C117.743 132.09 117.279 131.871 116.984 131.471C116.592 130.936 116.145 130.395 115.994 129.814C115.655 128.487 115.476 127.14 115.226 125.805C115.199 125.644 115.173 125.477 115.137 125.322V125.328Z" fill="black"/>
<path d="M45.2695 80.1019C44.5733 80.2566 43.8949 80.4693 43.1898 80.5531C42.806 80.5983 42.3776 80.4178 41.967 80.3404C42.083 80.0246 42.0652 79.5347 42.3419 79.4187C43.0113 79.1416 43.8235 79.0384 44.5644 78.858C45.0642 78.7355 45.6086 78.6453 46.046 78.4455C46.7511 78.1167 47.4295 78.2005 47.7151 78.8257C47.9739 79.3929 48.1435 80.0053 48.1881 80.6047C48.3309 82.3901 48.3934 84.1819 48.5094 85.9738C48.5451 86.5216 47.9917 86.6183 47.4741 86.6763C46.9742 86.7344 46.3405 86.8761 46.1442 86.3218C46.0281 85.9996 45.9389 85.658 45.93 85.3228C45.9032 84.1884 45.921 83.054 45.921 81.8487C45.6354 82.0871 45.3677 82.3321 45.0731 82.5577C43.9753 83.4149 42.6989 83.9434 40.9941 83.821C39.4857 83.7114 38.1112 82.7962 38.0398 81.7069C37.9862 80.8174 38.0308 79.9279 38.0308 78.9804C37.5578 79.09 36.9419 79.2318 36.1476 79.4123C36.5403 80.4113 36.9152 81.3524 37.29 82.2934C37.4328 82.6415 37.7184 82.996 37.6827 83.3376C37.647 83.6727 37.2989 83.995 37.0847 84.3173C36.6831 84.1497 36.0762 84.053 35.9244 83.8016C35.2996 82.7833 34.8266 81.7262 34.2732 80.6885C34.1215 80.4049 33.9251 79.9473 33.6573 79.9086C32.9879 79.8119 32.2203 79.8441 31.8187 80.392C31.5866 80.7143 31.3902 81.0494 31.1939 81.3846C30.7922 82.0743 30.2656 82.693 29.2481 82.9702C28.8732 83.0733 28.3734 83.1571 28.0431 83.0604C27.8557 83.0024 27.82 82.5383 27.8736 82.2741C27.9985 81.6746 28.2663 81.0945 28.3913 80.4951C28.4359 80.2889 28.2395 80.0504 28.1056 79.8441C27.9539 79.6121 27.5433 79.3414 27.6147 79.1802C27.7218 78.9289 28.1235 78.613 28.4626 78.5744C29.3284 78.4584 29.5516 78.0394 29.7747 77.5302C30.2745 76.4022 30.7922 75.2807 31.3724 74.1721C31.5152 73.9014 31.8544 73.6371 32.1935 73.4631C32.8183 73.1473 33.3449 73.3729 33.5056 73.9014C33.6216 74.2752 33.8894 74.6233 34.0857 74.9842C34.4963 75.7448 34.9783 76.4989 35.2996 77.2788C35.5317 77.8525 35.8619 78.1748 36.7456 78.0523C36.8437 78.0394 36.9508 78.0329 37.049 78.0458C38.37 78.207 39.1108 77.7558 39.6731 76.9179C40.3693 75.8673 41.6992 75.2292 43.1541 74.8295C43.5647 74.72 44.4037 74.9391 44.6804 75.2098C44.9749 75.4934 44.8768 76.0155 44.8768 76.4345C44.8768 76.4989 44.4394 76.6536 44.2966 76.6085C43.0648 76.2411 42.324 76.8083 41.7617 77.3948C40.7353 78.4583 40.0212 79.6379 40.1016 80.985C40.1373 81.6295 40.4497 82.158 41.3511 82.4288C41.9759 82.6157 42.5293 82.6092 43.0113 82.2547C43.8681 81.636 44.7071 81.0043 45.5551 80.3791C45.4569 80.2889 45.3587 80.1986 45.2605 80.1084L45.2695 80.1019Z" fill="black"/>
<path d="M23.0593 11.4434C22.9075 11.5659 22.7647 11.6884 22.613 11.8108C21.9971 12.3007 21.292 12.3329 20.694 11.8495C19.9889 11.2823 19.3908 10.6377 18.7571 10.0254C18.6232 9.8965 18.5251 9.74182 18.418 9.59357C18.3198 9.59357 18.2305 9.60001 18.1324 9.60645C18.1324 10.6442 18.0788 11.6883 18.1413 12.7261C18.2484 14.5179 18.4358 16.3033 18.5608 18.0952C18.5875 18.4754 18.6233 18.8944 18.4269 19.2296C18.2573 19.5196 17.7664 19.7065 17.4183 19.9386C17.0791 19.6356 16.6418 19.3649 16.4365 19.0233C16.2223 18.6559 16.2134 18.2176 16.142 17.8116C15.8474 16.0326 15.7314 14.2279 15.2405 12.4747C14.3925 9.43888 14.9906 6.37727 14.6692 3.34145C14.6157 2.85803 14.5175 2.38108 14.4104 1.90412C14.2854 1.37559 14.4996 0.982403 15.2405 0.827711C15.9367 0.679465 16.4633 0.911507 16.6775 1.37558C17.4094 2.90961 18.0342 4.46941 18.8196 5.9841C19.4801 7.27319 20.2923 8.51718 21.0599 9.7805C21.1492 9.9223 21.3455 10.0254 21.6758 10.309C21.9435 9.64513 22.2559 9.14237 22.3452 8.61384C22.5951 7.07337 22.7558 5.53291 22.9522 3.98599C22.9789 3.79263 22.9075 3.53481 23.0503 3.42524C23.3716 3.18031 23.8001 2.85803 24.1839 2.85803C24.5141 2.85803 25.0764 3.25121 25.1121 3.50258C25.3174 4.89481 25.4513 6.29993 25.5048 7.6986C25.612 10.2897 25.6209 12.8872 25.7369 15.4783C25.7548 15.8973 26.1832 16.3033 26.3349 16.7352C26.4777 17.1283 26.7098 17.6053 26.5134 17.9211C26.326 18.2176 25.6298 18.4819 25.1568 18.4883C24.7997 18.4883 24.2017 18.0887 24.1214 17.8116C23.7912 16.632 23.5501 15.4332 23.4073 14.2343C23.3002 13.3319 23.3895 12.4167 23.3895 11.5014C23.2735 11.4821 23.1574 11.4692 23.0414 11.4499L23.0593 11.4434Z" fill="black"/>
<path d="M16.3903 174.291C18.8448 174.413 21.2011 175.045 23.5396 174.697V170.739C23.1469 170.759 22.7988 170.765 22.4418 170.784C21.9598 170.81 21.5939 170.759 21.5046 170.327C21.4332 169.953 21.5314 169.695 22.0937 169.644C23.736 169.502 24.2805 168.812 24.2448 167.671C24.2269 166.988 24.5572 166.305 24.7357 165.583C24.5661 165.544 24.2537 165.538 24.1109 165.422C23.9056 165.261 23.7181 165.016 23.7181 164.809C23.7181 164.655 23.9948 164.423 24.209 164.371C26.9938 163.727 29.7429 163.643 32.3759 164.745C32.5901 164.835 32.733 165.029 32.9026 165.177C32.8669 165.241 32.8312 165.306 32.7955 165.364H26.2262V169.083C27.7525 168.709 29.1627 168.354 30.573 168.032C30.9032 167.955 31.2781 167.981 31.6351 167.961C31.4655 168.238 31.3852 168.586 31.1085 168.793C29.9303 169.682 28.4398 170.146 26.7885 170.398C26.012 170.514 25.6014 170.823 25.6104 171.461C25.6282 172.518 25.4051 173.582 26.4137 174.516C27.4401 175.464 29.8679 175.96 31.4388 174.697C31.6708 174.51 32.1171 174.452 32.4563 174.336C32.3938 174.671 32.5009 175.096 32.251 175.316C30.7158 176.643 27.0117 177.559 24.9677 175.831C24.8071 175.696 24.2983 175.638 24.0484 175.715C22.2722 176.244 20.4335 176.186 18.5949 176.063C17.4167 175.986 16.2831 175.805 15.2924 176.489C15.0871 176.63 14.4445 176.701 14.3285 176.605C14.1054 176.418 14.0161 176.083 14.0518 175.818C14.3374 173.672 14.8283 171.532 14.9265 169.386C15.0336 167.201 15.2567 164.964 13.9446 162.869C13.6412 162.379 14.0071 162.064 14.5248 161.96C14.9176 161.877 15.6048 161.948 15.8101 162.141C16.1939 162.508 16.4795 163.005 16.5331 163.462C16.7562 165.364 17.0061 167.272 16.9883 169.179C16.9704 170.862 16.5956 172.544 16.3724 174.297L16.3903 174.291Z" fill="black"/>
<path d="M29.9878 98.3527C29.5058 98.1916 29.0328 98.0369 28.5508 97.8757C28.8007 97.5406 28.9346 97.0829 29.3273 96.9025C29.9789 96.5995 30.7733 96.3353 31.523 96.2966C33.2724 96.2128 35.0218 96.3031 36.5481 97.1216C38.2529 95.8325 40.1272 96.5415 41.8231 97.0249C45.7592 98.1529 45.6432 100.802 43.9652 102.542C42.912 103.638 41.7874 104.702 39.8148 105.249C40.1094 106.339 40.4129 107.422 40.6806 108.511C40.7431 108.762 40.8145 109.11 40.636 109.284C40.3593 109.561 39.9041 109.839 39.4668 109.897C39.2169 109.929 38.6545 109.549 38.5831 109.304C38.2171 108.002 37.9583 106.687 37.6638 105.372C37.3335 103.922 37.0033 102.478 36.6373 100.854C35.5038 101.936 34.397 102.807 32.3441 102.794C32.8261 104.102 33.2724 105.301 33.7098 106.5C33.7901 106.732 33.924 106.99 33.8526 107.202C33.7812 107.422 33.5402 107.712 33.2813 107.776C33.0225 107.84 32.5227 107.737 32.3441 107.583C31.9603 107.254 31.6301 106.867 31.4338 106.461C30.3449 104.212 29.6933 101.891 29.6129 99.5C29.604 99.1068 29.845 98.7137 29.97 98.3205C31.2642 97.9982 31.5408 98.1207 31.7283 99.1133C31.8443 99.7578 31.9603 100.402 32.0585 101.053C32.1299 101.55 32.5226 101.64 33.1117 101.53C34.3702 101.298 35.5574 100.351 35.6466 99.4098C35.6734 99.1004 35.5842 98.7008 35.3342 98.4687C34.2632 97.5084 31.282 97.4568 29.9967 98.3334L29.9878 98.3527ZM37.3157 97.9853C39.5471 99.7514 38.7616 102.027 39.7435 103.96C41.6178 103.464 43.269 101.459 42.8585 100.228C42.3854 98.8103 40.0558 97.8177 37.3157 97.9918V97.9853Z" fill="black"/>
<path d="M100.104 174.796C100.791 174.957 101.13 175.034 101.47 175.111C101.193 175.885 100.622 176.181 99.5863 176.13C98.7919 176.091 98.06 175.556 98.06 174.808C98.06 173.7 98.2118 172.591 98.3099 171.483C98.3456 171.057 98.4081 170.638 98.4795 170.007C98.0332 170.277 97.8101 170.393 97.6138 170.542C95.909 171.786 93.99 171.734 92.5797 170.31C91.9639 169.691 91.5979 168.943 91.1338 168.241C90.509 167.299 89.911 166.352 89.2951 165.404C89.188 165.437 89.0809 165.469 88.9738 165.501C89.3487 167.435 89.7771 169.362 90.0717 171.302C90.2413 172.449 90.2234 173.616 90.2323 174.776C90.2323 175.015 90.0538 175.331 89.8128 175.466C89.3933 175.704 88.8489 175.833 88.358 176.014C88.1527 175.653 87.8046 175.298 87.7689 174.924C87.626 173.448 87.5814 171.966 87.4922 170.49C87.4565 170.007 87.3761 169.53 87.0905 169.027C86.9745 169.433 86.912 169.852 86.7335 170.245C86.6532 170.432 86.3586 170.58 86.1712 170.741C86.0819 170.554 85.8766 170.361 85.9123 170.181C86.1176 168.956 86.4658 167.731 86.5729 166.5C86.6532 165.63 86.4122 164.747 86.3408 163.87C86.314 163.51 86.1801 162.929 86.4033 162.833C86.8763 162.633 87.6171 162.556 88.1437 162.665C89.911 163.039 90.9553 164.032 91.7229 165.166C92.3834 166.146 92.91 167.171 93.5615 168.157C93.9007 168.672 94.347 169.169 94.8201 169.633C95.302 170.11 95.8911 170.058 96.4445 169.665C98.2296 168.408 98.9615 166.842 99.015 165.076C99.015 164.812 98.9615 164.476 99.1489 164.309C99.4346 164.057 99.9344 163.774 100.309 163.793C100.639 163.812 101.175 164.238 101.175 164.483C101.175 166.101 101.121 167.718 100.943 169.33C100.738 171.154 100.39 172.971 100.104 174.789V174.796Z" fill="black"/>
<path d="M21.5771 40.1623C18.5245 40.6006 17.5428 42.3022 16.6413 44.0618C16.4092 44.513 16.0343 44.8869 15.3025 44.6871C14.5706 44.4872 14.3563 44.0361 14.6598 43.4946C14.758 43.3142 14.874 43.1401 14.9811 42.9597C15.8647 41.5739 16.9179 40.2268 17.5963 38.7959C18.6941 36.4755 19.9883 34.168 19.9616 31.6478C19.9616 31.4287 20.1311 31.1902 20.2829 30.9839C20.4078 30.8099 20.631 30.6681 20.747 30.565C20.1133 30.5972 19.3814 30.7906 18.944 30.6101C18.4799 30.4168 18.1497 29.8882 18.0337 29.4693C17.6588 28.148 17.3821 26.8073 17.1232 25.4731C17.0875 25.2668 17.3375 25.0283 17.4535 24.8027C17.7837 24.9445 18.2925 25.0283 18.4085 25.2346C18.8816 26.0596 19.2475 26.9104 19.6313 27.7612C19.7831 28.1028 19.8634 28.4573 19.9884 28.8634C20.872 28.4316 20.7827 27.787 20.9255 27.2198C21.0594 26.6977 21.1576 26.1692 21.345 25.6535C21.5057 25.2088 21.9788 24.8736 22.5946 25.0541C22.8981 25.1444 23.1748 25.602 23.1659 25.892C23.1123 27.7096 22.9873 29.5208 22.8624 31.332C22.7553 32.8338 23.4871 34.1229 24.6385 35.3411C24.9242 35.644 24.9688 36.0566 25.1206 36.4175C24.6386 36.2499 24.1298 36.1017 23.6657 35.9083C23.389 35.7923 23.1748 35.6118 22.8088 35.3733C22.9338 36.0565 23.0409 36.598 23.1391 37.1458C23.2194 37.1458 23.2997 37.1458 23.389 37.1523C23.4604 37.0556 23.4961 36.9202 23.6032 36.8751C23.8442 36.772 24.1566 36.6238 24.3887 36.656C24.5582 36.6818 24.8171 37.004 24.7635 37.1329C24.5761 37.5648 24.219 37.9644 24.0227 38.3963C23.8263 38.8345 23.5318 39.3437 23.6746 39.7498C23.9959 40.6522 24.5404 41.5223 25.0491 42.386C25.1741 42.5987 25.5846 42.7212 25.7989 42.921C25.9952 43.1015 26.2809 43.3593 26.2273 43.5269C26.147 43.7589 25.8346 44.0554 25.5311 44.1198C24.6832 44.3068 24.0584 43.9458 23.5497 43.4882C22.6303 42.6567 22.0948 41.7028 21.7735 40.678C21.7199 40.491 21.6217 40.317 21.5592 40.1494L21.5771 40.1623ZM19.783 38.8797C21.1933 38.5767 21.4968 37.7453 20.6488 36.7849C20.3632 37.481 20.0865 38.132 19.783 38.8797Z" fill="black"/>
<path d="M17.7253 116.199C17.8414 115.845 18.0199 115.497 18.0645 115.142C18.127 114.588 18.0288 114.021 18.1538 113.473C18.243 113.099 18.5376 112.725 18.8589 112.409C19.0017 112.267 19.4391 112.19 19.7068 112.229C19.9032 112.261 20.1174 112.512 20.162 112.693C20.2602 113.073 20.3049 113.466 20.2781 113.853C20.0996 116.019 20.9385 117.965 22.5719 119.77C22.8129 120.034 22.8219 120.402 23.0004 120.878C22.4827 120.762 22.2506 120.711 22.0007 120.653C22.0007 120.724 21.9739 120.801 22.0007 120.859C22.4827 121.865 23.0271 122.857 23.4466 123.876C23.6609 124.398 23.8751 124.726 24.723 124.514C24.8212 124.488 24.964 124.546 25.1782 124.585C25.08 124.765 25.0443 124.946 24.9015 125.055C23.7501 125.97 24.1964 126.982 24.5534 127.988C24.6248 128.201 24.7855 128.407 24.7765 128.613C24.7765 128.826 24.6159 129.032 24.5177 129.245C24.1696 129.161 23.643 129.148 23.5002 128.98C23.0807 128.465 22.7951 127.891 22.5005 127.33C22.3399 127.021 22.2685 126.686 22.1614 126.389C20.4298 126.834 18.734 127.195 17.1452 127.73C16.69 127.885 16.5115 128.523 16.2705 128.955C16.0205 129.399 15.8956 129.889 15.6278 130.328C15.4583 130.605 15.1548 130.856 14.8335 131.056C14.6639 131.165 14.289 131.224 14.1105 131.159C13.9409 131.101 13.7981 130.824 13.8427 130.676C14.3961 128.813 14.9763 126.957 15.5743 125.107C15.9045 124.082 16.3419 123.07 16.6543 122.039C16.9131 121.194 17.0559 120.324 17.2791 119.473C17.4576 118.803 18.4751 118.32 19.6175 118.371C19.4301 118.146 19.2605 117.952 19.1177 117.752C18.9749 117.566 18.8589 117.366 18.6179 117.024C18.1984 117.366 17.9038 117.694 17.5022 117.914C17.1898 118.081 16.6722 118.262 16.3687 118.184C16.0563 118.1 15.6814 117.72 15.6903 117.469C15.7171 116.186 15.8332 114.91 15.9849 113.634C16.0027 113.453 16.3687 113.292 16.574 113.118C16.7882 113.286 17.1541 113.44 17.1898 113.621C17.3505 114.452 17.4129 115.297 17.5111 116.135C17.5825 116.16 17.6629 116.18 17.7343 116.206L17.7253 116.199ZM17.288 126.048C18.8321 125.706 20.0728 125.461 21.2777 125.139C21.4652 125.087 21.6348 124.675 21.5544 124.488C21.0367 123.341 20.4476 122.213 19.8586 121.085C19.7871 120.943 19.5997 120.84 19.3141 120.576C18.6358 122.419 18.002 124.114 17.288 126.041V126.048Z" fill="black"/>
<path d="M110.545 39.5751C109.384 42.1147 106.501 43.4102 102.735 43.0944C100.968 42.9461 99.236 41.6184 98.9861 40.2261C98.7004 38.6212 99.3431 37.1645 100.245 35.7336C100.932 34.6444 101.78 33.6904 103.44 33.2457C103.44 33.1232 103.422 33.033 103.44 32.9427C103.52 32.6591 103.493 32.266 103.743 32.1177C104.002 31.963 104.672 31.9115 104.913 32.0468C106.002 32.6656 107.117 33.3037 108.01 34.0642C108.947 34.8635 109.652 35.8045 110.393 36.6102C111.134 35.7659 111.866 34.8248 112.74 33.9611C113.16 33.5486 113.811 33.2328 114.445 32.9814C114.784 32.8461 115.543 32.8074 115.695 32.9556C116.052 33.2908 116.248 33.7613 116.284 34.1867C116.293 34.3156 115.614 34.4961 115.231 34.6314C115.052 34.6959 114.802 34.6766 114.668 34.7668C113.088 35.8045 111.794 37.706 112.972 39.2593C113.695 40.2068 115.498 40.7676 116.935 40.4968C117.444 40.4002 117.962 40.3357 118.524 40.2519C118.801 40.9738 118.14 41.2445 117.56 41.4895C115.846 42.2113 113.285 41.9277 111.91 40.8707C111.402 40.4775 110.982 40.0134 110.527 39.5751H110.545ZM108.733 38.3763C108.867 36.7391 107.305 35.5596 105.716 34.393C105.618 34.3156 105.395 34.2318 105.296 34.2641C104.573 34.4961 103.743 34.6572 103.172 35.0246C101.155 36.346 100.584 38.1056 100.852 39.9748C100.932 40.5162 101.574 41.2123 102.244 41.4765C105.136 42.6174 108.876 40.8965 108.742 38.3763H108.733Z" fill="black"/>
<path d="M77.3041 73.7779C77.6522 73.2945 78.0271 72.8175 78.3395 72.3212C78.5716 71.9538 78.6786 71.5413 78.9286 71.1868C79.0357 71.0321 79.4016 70.8452 79.5801 70.8774C79.8122 70.9225 80.0889 71.1545 80.1335 71.3286C80.2317 71.7282 80.196 72.1471 80.2228 72.5597C80.3924 74.7253 81.151 76.6912 82.9718 78.5088C84.6052 80.1331 85.1854 82.0925 84.6052 84.11C84.3374 85.0317 83.6234 85.7922 82.2846 86.1596C81.0528 86.4948 79.1071 85.8696 78.7054 84.9608C78.6608 84.8576 78.7233 84.7352 78.759 84.4967C79.3659 84.69 79.8657 84.8512 80.3656 85.0059C81.8383 85.4764 82.6595 85.2315 82.9629 84.11C83.5342 81.9958 82.4809 78.6571 78.4644 77.7805C77.795 77.6323 77.1345 77.4324 76.5097 77.2004C76.0367 77.0264 75.6261 76.7621 75.1619 76.5236C72.2879 78.309 72.6807 82.2537 74.1355 84.0326C74.6086 84.6063 75.3048 84.9479 76.2776 84.9479C76.7953 84.9479 77.322 84.9865 77.9914 85.0059C77.6165 85.7342 76.84 85.8825 76.0813 85.9534C74.68 86.0823 72.7699 85.3024 72.154 84.2002C70.9134 81.9958 70.9937 79.8302 72.1094 77.6194C72.6628 76.5301 73.5732 75.6664 74.7871 74.9509C75.1798 74.7189 75.2334 74.5191 75.0727 74.1517C74.4925 72.8046 74.3765 71.4317 75.1263 70.091C75.278 69.8268 75.7243 69.6527 76.0367 69.4336C76.1616 69.7043 76.3669 69.975 76.3937 70.2522C76.4829 71.1159 76.474 71.9924 76.5633 72.8561C76.59 73.1333 76.7953 73.3976 76.9114 73.6683C77.0453 73.7005 77.1702 73.7327 77.3041 73.765V73.7779ZM78.6072 74.6093C78.5269 74.5835 78.4555 74.5578 78.3752 74.5384C78.2413 75.0863 78.1074 75.6277 77.9735 76.1885C78.6608 76.3883 79.2856 76.5688 79.8657 76.7363C79.4462 76.0273 79.0267 75.3183 78.6072 74.6093Z" fill="black"/>
<path d="M127.936 128.131C125.58 127.905 124.276 126.745 122.875 125.488C122.67 125.797 122.5 125.984 122.42 126.197C122 127.241 121.635 128.292 121.17 129.323C121.01 129.671 120.688 130.032 120.305 130.27C120.037 130.438 119.376 130.548 119.18 130.432C118.903 130.264 118.698 129.832 118.787 129.568C119.26 128.234 119.823 126.919 120.376 125.598C120.519 125.249 120.84 124.927 120.885 124.579C120.947 124.076 120.956 123.541 120.769 123.064C120.403 122.098 119.849 121.163 119.448 120.196C119.216 119.642 119.573 119.236 120.358 119.107C121.081 118.984 121.626 119.358 121.768 119.971C121.84 120.28 121.992 120.576 122.134 120.963C122.572 120.757 122.804 120.609 123.072 120.531C123.786 120.312 124.464 120.673 124.366 121.234C124.312 121.543 124.214 121.859 124.035 122.143C123.491 123.013 123.83 123.748 124.651 124.399C125.722 125.243 126.838 126.062 127.945 126.893C128.079 126.861 128.213 126.829 128.347 126.796C128.471 126.074 128.686 125.359 128.712 124.637C128.775 123.11 128.775 121.582 128.739 120.054C128.721 119.384 129.096 119.062 129.998 119.004C130.98 118.939 131.131 119.429 131.131 119.932C131.158 121.601 131.247 123.277 131.096 124.94C130.944 126.622 130.515 128.285 130.248 129.961C130.194 130.264 130.283 130.586 130.355 130.896C130.471 131.45 130.185 131.701 129.444 131.605C128.668 131.502 128.016 131.212 127.954 130.593C127.882 129.8 127.936 129.007 127.936 128.143V128.131Z" fill="black"/>
<path d="M120.294 146.601C118.715 146.298 116.947 146.788 116.323 147.716C115.796 148.496 115.457 149.353 114.859 150.101C114.528 150.526 113.913 150.881 113.315 151.132C112.743 151.364 112.145 150.939 112.279 150.307C112.458 149.501 112.868 148.721 113.118 147.916C113.225 147.581 113.145 147.226 113.181 146.878C113.208 146.633 113.163 146.279 113.359 146.156C114.475 145.499 114.493 144.487 115.037 143.649C115.43 143.043 115.921 142.476 116.358 141.883C116.742 141.374 117.099 140.858 117.492 140.355C118.322 139.279 119.696 139.201 120.464 140.304C121.267 141.457 121.794 142.721 122.32 143.958C122.508 144.396 122.642 144.596 123.32 144.654C124.106 144.725 124.873 144.951 125.623 145.157C125.828 145.215 126.042 145.441 126.069 145.608C126.087 145.705 125.739 145.911 125.543 145.924C124.909 145.976 124.275 145.969 123.642 145.956C123.07 145.95 122.758 146.092 122.776 146.543C122.811 147.51 122.794 148.483 122.856 149.45C122.883 149.824 122.981 150.159 123.74 150.249C124.445 150.333 124.329 150.745 123.909 151.068C122.892 151.841 121.107 151.577 120.66 150.533C120.402 149.92 120.357 149.25 120.303 148.599C120.25 147.948 120.294 147.291 120.294 146.601ZM117.51 144.835C118.384 144.79 118.92 144.796 119.429 144.725C119.616 144.699 119.92 144.48 119.902 144.384C119.696 143.604 119.429 142.837 119.188 142.063C119.036 142.063 118.893 142.07 118.741 142.076C118.358 142.94 117.974 143.804 117.51 144.835Z" fill="black"/>
<path d="M84.747 127.789C83.1493 128.485 81.7569 129.201 80.2307 129.729C78.6865 130.264 77.4637 129.852 76.6961 128.724C75.4019 126.823 75.1698 124.779 75.2323 122.704C75.2502 121.976 75.2502 121.241 75.4466 120.532C75.5358 120.203 75.991 119.771 76.4016 119.675C77.4638 119.423 77.9636 119.765 77.7851 120.564C77.2852 122.781 77.5887 124.947 78.3831 127.1C78.9632 128.666 79.4899 128.821 81.3017 127.88C81.7659 127.641 82.1943 127.37 82.6316 127.106C83.908 126.346 84.5417 125.45 84.1757 124.186C83.9437 123.394 84.0329 122.543 83.9972 121.724C83.9615 121.015 84.2828 120.287 83.4885 119.649C83.3367 119.526 83.6402 118.875 83.7295 118.875C84.3543 118.875 85.1308 118.837 85.5681 119.082C86.8713 119.81 86.8266 121.002 87.0051 122.04C87.1747 123.052 86.7999 124.109 86.9338 125.127C87.1301 126.649 87.5139 128.163 87.9245 129.665C88.0227 130.032 88.3529 130.348 87.8084 130.612C87.2551 130.877 86.5767 130.948 86.2108 130.484C85.7199 129.865 85.3986 129.175 85.0237 128.511C84.8898 128.273 84.8273 128.021 84.747 127.796V127.789Z" fill="black"/>
<path d="M122.161 15.8623C121.384 14.4033 121.512 12.9679 122.31 11.5266C123.321 9.70723 125.204 8.31317 128.428 7.59252C129.141 7.43303 130.088 7.4921 130.886 7.5748C131.343 7.62205 131.705 7.91739 132.12 8.10051C131.684 8.29544 131.301 8.60851 130.811 8.66758C129.471 8.83297 128.396 9.15786 127.428 9.70722C124.449 11.4143 123.757 13.4168 124.576 15.6792C124.768 16.2049 124.736 16.7838 124.523 17.3095C124.385 17.6403 123.81 18.1011 123.3 18.1601C122.714 18.231 121.81 18.0184 121.342 17.7644C119.916 16.9906 118.639 16.1281 117.299 15.3071C117.128 15.2007 116.916 15.1121 116.714 15.0176C116.586 15.0294 116.469 15.0412 116.341 15.053C116.341 15.821 116.394 16.583 116.32 17.345C116.288 17.7112 116.16 18.1247 115.809 18.42C115.501 18.68 114.82 18.7981 114.309 18.9812C114.086 18.7036 113.671 18.426 113.66 18.1483C113.596 16.837 113.734 15.5256 113.607 14.2202C113.522 13.3932 113 12.5839 112.83 11.7569C112.713 11.2076 112.702 10.6169 112.968 10.0971C113.213 9.6068 114.128 9.58316 114.575 10.0321C115.181 10.6464 115.596 11.3139 116.086 11.9578C116.288 12.2177 116.341 12.5426 116.66 12.7434C118.373 13.8185 120.14 14.8699 121.884 15.9273C121.98 15.9037 122.065 15.886 122.161 15.8623Z" fill="black"/>
<path d="M71.1551 64.3033C71.2979 65.0832 71.2354 65.6955 70.1197 65.8889C69.5574 65.9856 69.0754 65.9147 68.9504 65.4506C68.4417 63.5299 67.8883 61.6091 67.5134 59.6755C67.3795 58.9793 67.6027 58.2252 67.7901 57.5162C68.156 56.1176 69.718 55.6084 71.3514 55.2345C72.1368 55.054 73.0026 55.0734 73.8327 55.0025C74.877 54.9122 75.5732 55.3312 76.0641 55.9049C76.5372 56.4592 76.3765 57.0521 75.832 57.5291C75.3322 57.9738 74.7074 58.3477 74.1362 58.7473C73.1098 59.4692 72.0566 60.1782 71.0658 60.9259C70.5303 61.332 70.6284 61.7316 71.2711 62.0861C72.8331 62.9498 74.6896 63.2785 76.5461 63.5685C78.2776 63.8392 80.0271 64.0068 81.8122 64.226C81.5444 65.0639 80.7054 65.3861 79.7147 65.3024C77.2602 65.1025 74.8145 64.8125 72.3689 64.5482C72.0119 64.5096 71.6727 64.4 71.1461 64.2904L71.1551 64.3033ZM73.9309 57.0135C71.1997 56.4656 69.1557 57.6516 70.0126 59.3596C71.3157 58.5797 72.6278 57.7934 73.9309 57.0135Z" fill="black"/>
<path d="M56.7884 7.13332C56.5761 7.20973 56.3214 7.30378 56.056 7.38019C55.3448 7.58003 54.7398 7.49774 54.2622 7.15683C53.7633 6.80417 53.88 6.46325 54.5488 6.26341C55.8331 5.87548 57.1069 5.38177 58.4974 5.22895C60.4611 5.0056 62.5203 4.97621 64.5371 5.00559C66.3522 5.03498 67.6578 5.97542 67.7745 6.97462C67.9444 8.4558 66.6069 9.61371 65.2589 10.7599C64.2611 11.6062 63.0192 12.3586 61.9577 13.1815C61.6818 13.3931 61.5119 13.6987 61.5225 13.9573C61.6075 15.1035 61.7879 16.2496 61.9153 17.3958C61.9365 17.5897 61.9896 17.8248 61.8303 17.9835C61.6287 18.1892 61.2253 18.489 60.9281 18.4831C60.5248 18.4773 59.8454 18.248 59.7817 18.0599C59.4421 17.0431 59.2722 16.0145 59.0175 14.9859C58.9538 14.7155 58.7628 14.451 58.6354 14.1865C58.5611 14.0396 58.3912 13.8868 58.4337 13.7575C58.9963 11.8355 57.6376 10.0663 57.0219 8.23832C56.9158 7.90917 56.8733 7.57414 56.7884 7.14506V7.13332ZM58.5717 6.61608C60.6522 8.34999 60.3549 10.225 61.3102 12.1058C62.3505 11.0831 63.2633 10.2426 64.0594 9.36683C64.5371 8.84372 64.898 8.27358 65.1209 7.69757C65.4075 6.9511 64.8767 6.52204 63.4968 6.49265C61.8622 6.45151 60.217 6.56905 58.5717 6.61608Z" fill="black"/>
<path d="M16.5659 55.0723C15.9858 55.227 15.5662 55.3624 15.1289 55.4591C14.5487 55.588 13.9507 55.5171 13.8436 55.053C13.7811 54.7823 14.0489 54.3182 14.3702 54.1764C16.5927 53.1967 19.0204 52.8035 21.6267 52.9905C24.0455 53.1709 26.0538 54.6341 26.5447 56.6966C27.1427 59.2039 24.947 63.0003 21.6356 64.038C20.868 64.2765 19.9666 64.3667 19.1276 64.3925C18.8152 64.399 18.2707 64.0573 18.1903 63.8124C17.8333 62.7876 17.5477 61.7434 17.3603 60.6928C17.0836 59.1137 16.905 57.5216 16.6819 55.936C16.6462 55.6975 16.6195 55.4591 16.5659 55.0723ZM20.2075 63.0776C20.5199 63.0132 20.6538 63.0003 20.7609 62.9552C23.4832 61.7434 24.5453 59.9 24.5096 57.6828C24.4829 55.6589 22.6353 54.5116 19.8773 54.7114C19.1989 54.7565 18.8508 54.9112 18.9312 55.4784C19.1811 57.2122 19.3596 58.9461 19.6184 60.6735C19.7345 61.4534 19.9933 62.2268 20.2075 63.0776Z" fill="black"/>
<path d="M124.763 60.7236C126.878 60.1371 128.824 60.0984 130.734 60.4078C131.555 60.5431 132.323 60.9621 133.028 61.3424C133.296 61.4906 133.314 61.8774 133.439 62.1545C133.055 62.1803 132.671 62.2383 132.296 62.219C130.538 62.1158 128.789 61.9869 127.03 61.8774C126.834 61.8645 126.593 61.8774 126.45 61.9483C123.915 63.2631 121.068 62.7475 118.319 62.6508C116.721 62.5992 115.132 62.393 113.544 62.2125C112.348 62.0772 112.205 61.7098 112.437 60.8912C112.821 59.5763 113.044 58.2292 113.24 56.8885C113.392 55.8573 113.392 54.8195 113.472 53.7883C113.499 53.3822 113.794 53.1953 114.383 53.1953C115.115 53.1953 115.088 53.5949 115.07 53.9043C114.963 55.8637 114.811 57.8231 114.668 59.7761C114.642 60.1306 114.579 60.4851 114.534 60.8783C117.105 61.0846 119.568 61.2844 122.032 61.4777C122.219 61.4906 122.425 61.452 122.657 61.4391C122.657 60.6978 122.701 59.9759 122.648 59.2669C122.514 57.5524 122.326 55.8315 122.166 54.117C122.148 53.8978 122.014 53.64 122.13 53.4724C122.326 53.2017 122.63 52.9052 122.996 52.7828C123.156 52.7248 123.755 53.0213 123.844 53.2275C124.112 53.8656 124.326 54.536 124.388 55.2063C124.558 56.9917 124.647 58.7771 124.772 60.7236H124.763Z" fill="black"/>
<path d="M65.3972 118.623C68.4765 118.655 70.7168 119.918 72.4662 121.665C73.689 122.889 74.5369 124.282 74.8582 125.79C75.2599 127.672 74.0817 129.212 72.4751 130.553C71.2434 131.578 69.4136 131.327 67.7624 130.508C65.772 129.535 65.6917 128.13 65.5043 126.699C65.2722 124.842 65.1115 122.973 64.8616 121.117C64.8348 120.898 64.4957 120.692 64.2547 120.511C64.1208 120.408 63.8441 120.395 63.7548 120.285C63.4692 119.957 62.9605 119.544 63.0765 119.28C63.1925 118.996 63.8887 118.809 64.3796 118.648C64.6296 118.565 64.9777 118.635 65.3972 118.635V118.623ZM66.9591 120.556C67.334 123.244 67.691 125.764 68.048 128.284C68.0927 128.568 68.1373 128.864 68.2712 129.135C68.655 129.947 70.5918 130.353 71.2345 129.728C72.5554 128.445 73.448 127.008 72.5644 125.41C71.9663 124.32 71.1452 123.276 70.2437 122.303C69.5118 121.51 68.4854 120.878 66.9591 120.556Z" fill="black"/>
<path d="M75.6378 103.039C74.0045 103.568 72.4603 104.038 70.9608 104.573C70.6306 104.689 70.4432 105.031 70.2289 105.282C70.0415 105.508 69.9076 105.759 69.854 105.837C68.9883 105.985 68.3189 106.094 67.4709 106.236C67.3727 105.933 67.1764 105.624 67.2032 105.321C67.3728 102.872 68.2564 100.538 69.5327 98.2889C70.0504 97.3736 70.2736 97.3736 71.5767 97.8441C71.7195 97.8957 71.8891 97.9473 72.0497 97.9473C74.0937 97.9601 75.2629 98.8239 76.2894 99.9969C78.2351 102.214 78.9581 104.618 78.851 107.197C78.8332 107.622 78.851 108.105 78.0745 108.125C77.2712 108.144 77.0837 107.667 76.9499 107.19C76.6107 105.933 76.2626 104.676 75.8966 103.426C75.8609 103.291 75.7271 103.168 75.6378 103.039ZM71.4964 102.665C72.621 102.466 73.5314 102.317 74.415 102.124C74.6203 102.079 74.9327 101.789 74.8881 101.711C74.3882 100.932 73.7813 100.203 72.496 99.7842C72.1568 100.757 71.8534 101.634 71.4964 102.665Z" fill="black"/>
<path d="M31.4314 42.1982C30.8691 42.6558 30.5121 43.0361 30.039 43.3068C29.4946 43.6226 29.0305 43.4808 28.8341 42.9845C28.4682 42.0628 27.7452 41.1282 27.8255 40.2259C27.9594 38.6145 26.9508 37.2094 26.7723 35.6818C26.7188 35.2242 27.0133 34.9083 27.6292 34.8374C28.3611 34.7536 28.6467 34.4249 28.9412 33.9802C29.2358 33.529 29.6731 33.1101 30.1462 32.7491C31.2797 31.8983 32.1098 31.7565 33.1719 32.1239C34.0823 32.4397 34.7607 33.4774 34.6625 34.3605C34.5197 35.7334 33.3504 36.7131 32.2437 37.7186C31.7438 38.1698 31.1726 38.5887 30.6728 39.0463C30.0391 39.62 30.1908 39.8714 31.0566 40.2065C32.7078 40.8511 34.2698 41.6116 35.9389 42.2175C37.2063 42.6816 38.5986 42.9587 39.9196 43.3584C40.2766 43.4679 40.5445 43.7129 40.8569 43.8933C40.4463 44.0738 40.0624 44.3832 39.634 44.4219C37.7507 44.583 35.9656 44.3058 34.3501 43.5517C33.3415 43.0812 32.3329 42.6107 31.4404 42.1917L31.4314 42.1982ZM29.8694 37.5639C29.9676 37.6026 30.0569 37.6412 30.1551 37.6864C30.9673 36.7711 31.7974 35.8623 32.5828 34.9406C32.7078 34.7988 32.6721 34.5538 32.6185 34.3734C32.5561 34.18 32.4132 33.9222 32.2169 33.8642C32.0116 33.8062 31.601 33.9028 31.4404 34.0318C30.164 35.0372 29.6195 36.2232 29.8784 37.5703L29.8694 37.5639Z" fill="black"/>
<path d="M51.9781 144.932C52.0227 144.423 52.0673 143.914 52.1209 143.404C52.1744 142.889 52.4958 142.528 53.2545 142.444C54.1113 142.354 54.388 142.792 54.5219 143.256C54.62 143.598 54.5933 143.965 54.5665 144.32C54.504 145.125 54.1916 145.957 54.3612 146.737C54.7361 148.425 55.7357 149.972 57.0567 151.397C57.9225 152.331 58.5562 152.364 59.538 151.481C60.9661 150.191 61.5105 148.664 61.8586 147.053C62.3763 144.635 61.4481 142.508 59.7433 140.485C59.5469 140.253 59.5915 139.698 59.8415 139.524C60.2699 139.228 61.0375 139.112 61.4124 139.614C62.2246 140.717 63.2421 141.806 63.5991 142.992C64.0276 144.41 63.9919 145.925 63.8937 147.388C63.742 149.573 62.2782 151.352 60.1003 152.834C59.7165 153.092 59.2345 153.305 58.7436 153.446C57.4316 153.827 56.6729 153.672 55.7268 152.899C53.9506 151.461 53.1651 149.669 52.4779 147.878C52.1209 146.93 52.0673 145.925 51.8799 144.945L52.0049 144.932H51.9781Z" fill="black"/>
<path d="M101.992 102.47C101.162 102.566 100.359 102.618 99.5825 102.773C99.279 102.831 98.9131 103.088 98.8238 103.307C98.5739 103.933 98.4043 104.577 98.2793 105.222C98.1544 105.866 97.6456 106.272 96.8959 106.543C96.6281 106.64 96.1908 106.717 95.9855 106.62C95.7802 106.524 95.6731 106.208 95.682 105.989C95.6999 105.505 95.8159 105.028 95.8784 104.545C95.9587 103.939 96.5032 103.301 95.5124 102.773C95.3696 102.695 95.5303 102.044 95.7624 101.954C96.5835 101.638 96.5567 101.116 96.6281 100.594C96.7263 99.9429 96.7798 99.2919 96.9405 98.6474C97.0744 98.0931 97.3779 97.5903 98.4311 97.7257C98.4311 97.4936 98.3507 97.2874 98.4489 97.1327C98.6453 96.8233 98.8417 96.4108 99.1987 96.2948C99.5557 96.1788 100.198 96.2754 100.546 96.4495C102.269 97.3325 103.135 98.6667 103.715 100.059C103.992 100.729 104.429 100.774 105.17 100.671C105.679 100.6 106.196 100.555 106.705 100.504C106.768 100.587 106.821 100.671 106.884 100.755C106.437 100.987 106.036 101.271 105.554 101.445C104.804 101.715 104.447 102.005 104.67 102.695C105.018 103.797 105.17 104.932 105.375 106.053C105.411 106.26 105.375 106.504 105.223 106.678C105.098 106.833 104.786 106.994 104.563 106.988C104.358 106.988 104.045 106.788 103.965 106.633C103.287 105.273 102.653 103.9 101.975 102.47H101.992ZM100.297 98.873C100.189 98.8988 100.073 98.9246 99.9663 98.9439C99.8056 99.64 99.6539 100.336 99.4754 101.129C100.252 101.103 100.832 101.084 101.689 101.058C101.171 100.239 100.734 99.5562 100.297 98.8665V98.873Z" fill="black"/>
<path d="M121.085 36.4802C122.906 36.4802 124.575 36.4931 126.235 36.4609C126.396 36.4609 126.655 36.1709 126.682 36.0033C126.798 35.2814 126.816 34.553 126.914 33.8312C126.95 33.5476 127.039 33.2575 127.191 32.9997C127.396 32.6452 127.592 32.2971 128.36 32.4518C129.092 32.6001 129.217 32.9417 129.181 33.38C129.101 34.3983 129.011 35.4167 128.913 36.4287C128.681 38.8715 128.342 41.3144 128.94 43.7572C128.985 43.9441 128.94 44.1375 128.94 44.3179C127.771 44.55 127.155 44.4018 126.95 43.5896C126.637 42.3328 126.539 41.0501 126.405 39.7739C126.334 39.1293 126.396 38.4783 126.396 37.7822C124.754 37.9369 123.183 38.0787 121.389 38.2463C121.683 39.0907 121.907 39.935 122.29 40.7472C122.54 41.2886 122.701 41.7398 121.862 42.0427C121.032 42.3456 120.47 41.9138 120.264 41.4948C119.773 40.5216 119.506 39.4967 119.095 38.5041C118.961 38.1883 118.747 37.8402 118.417 37.6211C117.997 37.3439 117.756 37.041 118.167 36.7638C118.97 36.216 118.836 35.5392 118.863 34.8689C118.872 34.5079 118.836 34.1405 118.89 33.7796C118.97 33.2253 119.443 32.8837 120.22 32.8837C121.014 32.8837 121.085 33.3477 121.094 33.7667C121.121 34.6111 121.094 35.4554 121.094 36.4931L121.085 36.4802Z" fill="black"/>
<path d="M36.3761 14.4335C36.3761 15.1747 36.3761 15.7935 36.3761 16.4187C36.3761 16.9343 36.1708 17.3726 35.3675 17.4048C34.5107 17.437 34.3322 16.9343 34.3143 16.4573C34.2607 15.0007 34.3054 13.544 34.2251 12.0873C34.1983 11.5974 33.877 11.1205 33.7877 10.6306C33.6984 10.173 33.5824 9.6638 33.7788 9.25129C33.9037 8.97414 34.5375 8.70342 34.9748 8.66475C35.2426 8.63897 35.7781 9.02569 35.8674 9.28351C36.4118 10.9336 37.4829 12.4031 38.6878 13.834C38.9199 14.1112 39.2591 14.3497 39.6696 14.717C39.741 14.4592 39.8125 14.3497 39.8035 14.2465C39.5804 11.6297 40.9817 9.37375 42.7579 7.19518C43.2399 6.6022 44.0432 6.61508 44.8108 6.74399C45.3909 6.84067 45.498 7.45299 45.025 7.91062C43.6147 9.27062 42.5883 10.766 42.1599 12.4289C41.9367 13.2668 42.0706 14.1563 42.0349 15.02C41.9992 15.8772 42.3027 16.7538 41.5797 17.566C41.0085 18.2105 40.5711 18.3136 39.8928 17.7271C38.7235 16.7087 37.6435 15.6323 36.385 14.4399L36.3761 14.4335Z" fill="black"/>
<path d="M67.2685 142.231C68.8573 143.566 68.5003 145.28 69.1161 146.795C71.1065 145.751 71.8116 144.178 70.8923 142.973C70.1247 141.961 68.2057 141.219 66.6527 141.4C66.3849 141.432 66.0904 141.716 65.9476 141.928C65.7512 142.218 65.6977 142.554 65.5727 142.889C64.2874 142.425 63.9125 141.954 63.9839 141.071C64.0464 140.272 64.7516 139.904 65.6977 139.756C68.0183 139.402 70.0176 139.905 71.6867 141.071C74.3465 142.927 73.9002 145.415 71.4011 146.924C71.1422 147.078 70.937 147.297 70.6513 147.407C69.2233 147.968 69.1697 148.864 69.3571 149.869C69.5356 150.778 69.5624 151.706 69.7499 152.615C69.8659 153.182 69.4464 153.446 68.8573 153.434C68.4914 153.427 67.9022 153.105 67.8308 152.853C67.447 151.584 67.1258 150.301 66.9115 149.006C66.6438 147.394 66.492 145.776 66.3046 144.159C66.2243 143.45 66.135 142.741 67.2596 142.225L67.2685 142.231Z" fill="black"/>
<path d="M104.542 150.178C105.238 148.941 105.88 147.897 106.416 146.814C107.487 144.635 108.799 142.547 110.834 140.742C111.718 139.956 113.003 139.705 114.351 139.73C114.77 139.737 115.252 139.937 115.582 140.143C115.779 140.265 115.823 140.581 115.797 140.807C115.797 140.884 115.359 141.019 115.154 140.994C113.378 140.762 112.521 141.612 111.718 142.502C109.87 144.545 108.754 146.833 107.487 149.07C106.871 150.153 106.211 151.21 104.604 151.764C103.863 152.015 103.212 152.035 102.756 151.506C102.123 150.771 101.427 150.037 100.998 149.237C100.195 147.755 99.329 146.26 99.5075 144.616C99.5432 144.3 99.8021 143.894 100.15 143.714C100.846 143.353 101.56 143.707 101.596 144.403C101.703 146.324 102.774 148.013 103.944 149.682C104.015 149.785 104.149 149.869 104.533 150.198L104.542 150.178Z" fill="black"/>
<path d="M73.7468 14.6183C71.3036 14.8182 69.421 15.4357 68.8922 16.6707C68.6278 17.2823 68.4057 17.9174 67.3057 18.3114C66.4807 18.6113 65.8461 18.5231 65.7298 17.9821C65.6663 17.6822 65.8144 17.3705 65.8885 17.0705C66.0154 16.5766 66.1634 16.0826 66.3115 15.5886C66.3538 15.4592 66.3644 15.324 66.4596 15.2063C66.9884 14.5536 67.4855 13.8832 68.1095 13.2598C68.7652 12.5894 69.5585 11.966 70.2777 11.3191C70.9017 10.7605 71.7584 10.2371 71.0075 9.49023C71.9276 9.57257 72.7843 9.55493 73.4824 9.73135C74.8467 10.0783 75.3755 10.8252 75.7986 11.572C75.9678 11.8661 75.9361 12.1954 76.1265 12.4777C76.2428 12.66 76.5813 12.807 76.8562 12.9422C77.036 13.0305 77.4485 13.0657 77.4697 13.1481C77.5014 13.2657 77.3428 13.4833 77.1524 13.5303C76.1159 13.8067 76.1899 14.3125 76.1476 14.8241C76.0736 15.618 75.9572 16.4119 75.7563 17.1999C75.6717 17.5116 75.3544 17.8233 75.0265 18.0879C74.8361 18.2349 74.4131 18.2937 74.0852 18.3937C73.9054 18.2114 73.5775 18.0291 73.5775 17.8468C73.5775 16.9176 73.6516 15.9944 73.7044 15.0652C73.7044 14.9358 73.7256 14.8065 73.7468 14.6183ZM72.8372 11.6367C72.2978 12.2601 71.8536 12.7835 71.3671 13.3362C73.7785 13.2598 74.0852 12.9305 72.8372 11.6367Z" fill="black"/>
<path d="M28.6316 101.953C28.2478 103.79 27.8461 105.923 25.6505 107.657C24.1331 108.849 22.1249 109.126 20.5629 107.354C18.7599 105.304 18.2512 103.042 18.1352 100.689C18.1173 100.328 17.9477 99.9673 17.9923 99.6128C18.028 99.3163 18.278 99.0327 18.4297 98.7427C18.8581 98.9103 19.4651 99.007 19.6882 99.2712C19.9827 99.6193 20.0185 100.096 20.0988 100.528C20.2594 101.392 20.3398 102.268 20.5183 103.126C20.8128 104.537 21.5983 105.807 22.8746 106.909C23.4012 107.367 23.9278 107.373 24.3027 106.858C26.2485 104.26 27.6766 101.617 25.4631 98.6976C24.7312 97.7308 24.7311 97.2409 25.4898 97.0604C26.6144 96.7897 26.9001 97.4858 27.2928 98.0143C28.2121 99.2583 28.6227 100.361 28.6227 101.953H28.6316Z" fill="black"/>
<path d="M108.141 96.9978C107.543 97.3136 107.061 97.5456 106.606 97.8163C106.187 98.0677 105.66 98.3126 105.321 97.913C105.089 97.6359 105.017 97.0364 105.267 96.8366C105.972 96.2694 106.811 95.7667 107.713 95.367C109.837 94.4325 112.194 93.8975 114.684 93.9104C115.871 93.9168 117.049 94.2069 118.218 94.4131C118.406 94.4454 118.611 94.7161 118.629 94.8901C118.638 94.9868 118.308 95.1673 118.093 95.1995C117.638 95.2704 117.156 95.3219 116.692 95.2897C114.898 95.1544 113.247 95.5991 111.578 95.9407C110.828 96.0954 110.453 96.3919 110.382 97.0558C110.185 98.8863 109.757 100.704 109.471 102.534C109.337 103.398 109.257 104.275 109.275 105.145C109.275 105.467 109.596 105.822 109.873 106.105C110.284 106.531 110.185 106.846 109.489 107.014C108.641 107.22 107.713 106.975 107.543 106.234C107.258 105.035 107.133 103.791 107.249 102.58C107.409 100.897 107.865 99.2279 108.186 97.5521C108.213 97.4167 108.159 97.2749 108.132 96.9978H108.141Z" fill="black"/>
<path d="M28.74 60.4179C28.4365 60.3663 28.2669 60.3728 28.1866 60.3148C27.8385 60.0698 27.5172 59.8056 27.1869 59.5477C27.5618 59.3028 27.9545 58.8387 28.2937 58.8581C29.579 58.9419 29.9628 58.3747 30.3466 57.685C30.6143 57.2209 30.9535 56.7633 31.373 56.3572C31.9353 55.7965 32.7387 55.8609 33.4081 56.3443C34.9968 57.511 35.5145 59.0257 36.1035 60.5081C36.4784 61.4492 36.7373 62.4289 36.9247 63.3957C36.9783 63.6471 36.6748 64.0983 36.3713 64.1885C35.7019 64.3883 35.4341 63.9371 35.2556 63.5762C34.6665 62.3902 34.1221 61.1978 33.5598 60.0054C33.4973 59.87 33.417 59.7411 33.3366 59.5929C32.2745 59.9345 31.5605 60.4308 31.1588 61.2107C30.7215 62.0744 30.2305 62.9316 29.6236 63.7373C29.3112 64.1563 28.7578 64.4979 28.2312 64.7944C28.0081 64.9233 27.3655 64.9426 27.2583 64.8395C27.0263 64.5945 26.821 64.2014 26.9281 63.9371C27.303 63.009 27.8206 62.113 28.2848 61.2042C28.4097 60.9593 28.5526 60.7208 28.7222 60.4114L28.74 60.4179Z" fill="black"/>
<path d="M101.684 15.128C102.243 14.1081 102.844 13.0333 103.403 11.9524C103.589 11.5982 103.765 11.2256 103.745 10.8653C103.714 10.279 104.055 9.91262 105.029 10.0042C106.064 10.1019 107.151 10.3157 108.042 10.6394C113.665 12.7219 112.961 16.7525 108.56 18.5602C106.251 19.5068 103.962 18.7312 102.844 17.4975C102.243 16.8319 102.098 16.0257 101.684 15.128ZM109.999 14.6578C109.512 14.0288 109.171 13.3387 108.498 12.789C107.027 11.5859 106.437 11.6531 105.37 12.9722C105.288 13.076 105.174 13.1738 105.122 13.2837C104.501 14.6272 103.962 15.9586 105.754 17.1861C106.416 17.638 107.058 17.6563 107.752 17.2838C109.015 16.6059 109.74 15.7693 109.999 14.6578Z" fill="black"/>
<path d="M16.7244 83.4794C18.1346 84.0079 19.4199 84.82 21.2318 84.7749C22.8205 84.7362 23.5524 84.2722 23.7399 83.1249C23.9987 81.5006 23.4186 80.0117 22.4457 78.5679C21.1425 76.6278 19.893 74.6748 18.6255 72.7219C18.3042 72.2256 18.5898 71.8002 19.1968 71.6455C19.527 71.5617 20.1786 71.7486 20.4196 71.9613C20.8748 72.3674 21.1693 72.8766 21.4817 73.36C22.6777 75.2292 23.9273 77.079 25.0162 78.9804C25.7928 80.334 26.0873 81.7907 25.757 83.2538C25.3822 84.9361 22.999 86.1285 20.4285 85.9222C18.447 85.7611 16.7155 85.0972 15.216 84.169C14.1806 83.5309 14.3323 83.0153 15.5284 82.5448C15.6176 82.5126 15.7069 82.461 15.8051 82.4545C16.412 82.4288 17.0278 82.4159 17.6348 82.3965C17.367 82.7188 17.0993 83.0346 16.7244 83.4729V83.4794Z" fill="black"/>
<path d="M97.2894 61.9811C97.8339 61.2141 98.4408 60.4729 98.896 59.6865C99.9403 57.8753 100.877 56.0319 101.931 54.2272C102.163 53.834 102.68 53.2539 103.064 53.2539C103.609 53.2539 104.207 53.6729 104.689 53.9887C104.796 54.0531 104.599 54.4592 104.421 54.6397C104.01 55.0522 103.377 55.3745 103.091 55.8256C102.19 57.2565 101.52 58.7712 100.547 60.1763C99.5744 61.5815 99.1727 63.2444 97.2091 64.2499C96.4504 64.6366 96.1827 64.656 95.7632 64.0565C94.5314 62.3163 93.9602 60.4277 93.3622 58.5392C92.9962 57.3855 92.5946 56.2382 92.2019 55.0909C92.1483 54.9297 91.943 54.7299 92.0144 54.6139C92.2197 54.2916 92.541 54.008 92.8088 53.7115C93.1837 53.9242 93.7995 54.0918 93.9066 54.369C94.6921 56.3413 95.3704 58.333 96.1113 60.3117C96.3344 60.8918 96.6736 61.4461 96.9592 62.0133C97.0574 62.0069 97.1645 61.994 97.2627 61.9875L97.2894 61.9811Z" fill="black"/>
<path d="M70.2666 164.133C71.1413 164.391 71.9445 164.597 72.6943 164.868C72.8906 164.939 73.0156 165.235 72.9978 165.422C72.9888 165.519 72.5961 165.648 72.364 165.673C71.8999 165.712 71.4268 165.718 70.9627 165.686C69.6774 165.596 68.5975 165.925 67.5889 166.453C67.0266 166.75 66.8748 167.091 67.4818 167.452C68.6778 168.155 69.9185 168.819 71.0609 169.56C71.8999 170.108 72.7657 170.681 73.3548 171.365C74.5419 172.75 74.1134 174.014 72.132 174.807C70.9538 175.277 69.5793 175.496 68.2672 175.767C67.9191 175.838 67.455 175.748 67.1069 175.638C66.8927 175.574 66.6428 175.309 66.6695 175.161C66.6963 175.019 67.0266 174.845 67.2676 174.787C68.178 174.549 69.1419 174.407 70.0255 174.13C72.0873 173.485 72.3284 172.499 70.6503 171.423C69.5525 170.714 68.3297 170.108 67.1783 169.444C66.6517 169.141 66.1251 168.838 65.6699 168.49C63.7509 167.033 64.3757 165.938 66.616 165.003C67.6781 164.558 68.9902 164.423 70.2666 164.133Z" fill="black"/>
<path d="M61.4009 107.209C60.7137 107.1 59.9817 107.068 59.3748 106.848C58.991 106.713 58.8036 106.301 58.518 106.017C59 105.888 59.482 105.656 59.9729 105.65C60.7226 105.637 61.4813 105.798 62.2399 105.83C62.588 105.843 62.9718 105.759 63.2931 105.65C65.1854 104.992 65.346 104.109 63.6591 103.265C62.9629 102.917 62.1328 102.691 61.3384 102.44C60.2049 102.079 59.0356 101.782 57.911 101.402C56.7685 101.015 56.1795 99.7971 57.3934 98.9011C58.6251 97.9859 59.8479 97.1673 61.7312 97.5089C62.4274 97.6378 63.0432 98.0761 63.6055 98.45C63.784 98.566 63.6413 98.9334 63.6502 99.1847C63.311 99.1654 62.9004 99.2234 62.6416 99.1074C61.7401 98.7078 60.8475 98.6433 60.0085 99.0945C59.6069 99.3072 59.1874 99.6553 59.1249 99.9775C59.0892 100.158 59.7318 100.48 60.1513 100.616C61.7758 101.131 63.552 101.447 65.0426 102.105C67.5239 103.2 67.3989 104 65.9708 105.418C64.8908 106.487 63.3913 107.184 61.4009 107.209Z" fill="black"/>
<path d="M87.3967 16.5694C87.6834 16.6053 87.97 16.665 88.2672 16.677C88.7343 16.7009 89.3288 16.7964 89.6579 16.677C92.8321 15.5541 93.0444 15.1181 90.263 13.7922C89.4562 13.4099 88.4052 13.189 87.5241 12.8426C85.5602 12.0721 85.2098 11.2479 86.6748 10.2385C87.9488 9.36054 89.3819 8.53631 91.6749 8.49451C92.4818 8.47659 93.055 8.55424 93.1718 9.0201C93.278 9.4561 92.8427 9.69499 92.0996 9.85028C91.2291 10.0354 90.3692 10.2684 89.6048 10.567C88.3628 11.0627 88.4265 11.3016 89.7004 11.8033C90.8045 12.2393 92.004 12.6216 92.9701 13.1412C95.3799 14.4432 95.3587 15.5601 92.9489 16.8741C92.1845 17.2862 91.2609 17.6505 90.2949 17.8894C89.7004 18.0327 88.8193 18.0029 88.2035 17.8595C87.3224 17.6505 87.0252 17.1787 87.3861 16.5635L87.3967 16.5694Z" fill="black"/>
<path d="M32.1316 52.6171C32.8545 51.9145 33.5686 51.2055 34.3005 50.503C34.479 50.3289 34.6218 50.0905 34.8628 50.0067C35.2109 49.8778 35.7286 49.7295 36.0053 49.8262C36.2641 49.9229 36.4426 50.3354 36.4159 50.5932C36.2998 51.6245 36.0142 52.6493 35.9428 53.6806C35.8535 54.9697 36.4872 56.1492 37.2727 57.2901C37.478 57.593 37.5494 57.9411 37.5048 58.3213C34.7735 57.2385 34.1488 55.3242 33.7114 53.2939C33.0866 53.5517 32.5422 53.8095 31.962 54.0029C31.4086 54.1898 30.9088 54.1318 30.4179 53.7902C28.9541 52.7782 28.4454 49.8004 29.7306 48.7691C29.9895 48.5629 30.3911 48.4404 30.7303 48.2793C30.891 48.55 31.1765 48.8143 31.2033 49.0914C31.2837 49.8842 31.2212 50.6899 31.3194 51.4827C31.364 51.8565 31.6407 52.2175 31.8103 52.5784L32.1494 52.6107L32.1316 52.6171Z" fill="black"/>
<path d="M73.2443 97.218C71.5217 97.3276 70.3524 96.1739 69.7723 94.7946C69.3528 93.7891 69.1028 92.7384 69.8615 91.7587C70.1293 91.4107 70.5934 91.0239 71.0843 90.9208C71.4235 90.8499 71.9412 91.2302 72.3874 91.3978C72.7623 91.5331 73.1372 91.7072 73.5388 91.7652C74.6545 91.9199 75.797 91.9521 76.8948 92.1519C77.9748 92.3453 78.4568 93.0156 78.3765 93.8986C78.2337 95.5164 75.5024 97.2889 73.2532 97.218H73.2443ZM71.3432 93.2799C71.6109 93.918 71.7716 94.5367 72.1197 95.091C72.7266 96.0579 74.119 96.2706 75.1722 95.5293C75.7256 95.1426 76.1362 94.6012 76.4307 94.0727C76.5289 93.8986 76.1362 93.3766 75.8595 93.325C74.476 93.0672 73.0569 92.8802 71.3432 93.2799Z" fill="black"/>
<path d="M80.1451 11.8475C80.701 11.9736 81.257 12.1118 81.8234 12.2259C83.4701 12.5682 85.0016 12.9766 85.8931 13.9434C86.6483 14.7662 86.6693 15.5889 85.8826 16.3276C84.603 17.5287 82.7464 18.3514 80.1871 18.4775C78.9808 18.5376 78.1102 18.0031 78.1731 17.3005C78.1836 17.1263 78.32 16.8561 78.5298 16.814C78.7815 16.76 79.3165 16.826 79.4633 16.9461C79.9878 17.3905 80.6381 17.3005 81.215 17.0903C82.0017 16.802 82.8093 16.4957 83.4282 16.0994C84.4351 15.4568 84.3303 14.8743 83.103 14.3698C82.1905 13.9975 81.0996 13.7693 80.0927 13.463C79.4738 13.2768 78.6662 13.1447 78.3305 12.8444C77.848 12.4241 77.2711 11.7575 77.5438 11.4031C78.0788 10.7065 79.1486 10.124 80.6696 10.0219C81.0157 9.99788 81.4143 9.96183 81.729 10.0279C82.18 10.13 82.5576 10.3222 82.9667 10.4783C82.631 10.6945 82.3478 10.9647 81.9388 11.1149C81.3933 11.3191 80.7325 11.4272 80.1241 11.5773C80.1346 11.6674 80.1451 11.7575 80.1556 11.8415L80.1451 11.8475Z" fill="black"/>
<path d="M130.236 164.61C130.236 164.565 130.219 164.513 130.21 164.468C130.129 163.946 130.335 163.54 131.111 163.424C131.897 163.308 132.236 163.721 132.361 164.159C132.611 165.055 132.825 165.97 132.932 166.879C133.191 169.148 133.334 171.423 133.61 173.692C133.664 174.117 134.021 174.543 134.351 174.916C134.762 175.4 134.583 175.787 133.789 175.825C132.816 175.87 131.977 175.561 131.736 174.897C131.299 173.692 130.897 172.454 130.763 171.21C130.522 169.012 130.486 166.808 130.361 164.604C130.326 164.604 130.29 164.604 130.254 164.604L130.236 164.61Z" fill="black"/>
<path d="M50.1805 37.6513C50.1805 38.6697 50.1805 39.6816 50.1805 40.7C50.1805 41.4606 50.5018 41.7119 51.5639 41.6797C52.4386 41.6539 53.3045 41.5701 54.1702 41.5572C54.4112 41.5572 54.7414 41.6733 54.8664 41.8151C54.9378 41.8989 54.7593 42.1696 54.5986 42.2856C53.6793 42.9688 50.9749 43.3555 49.7699 42.9688C48.7346 42.6401 48.1098 42.0922 48.1455 41.2285C48.208 39.3658 48.315 37.503 48.2704 35.6467C48.2436 34.5897 47.9491 33.5391 47.7795 32.482C47.7081 32.0179 47.5831 31.4959 48.4579 31.3798C49.3593 31.2574 49.6003 31.7021 49.6896 32.2435C49.9752 34.0418 50.2697 35.8337 50.5643 37.6319C50.4393 37.6384 50.3144 37.6448 50.1805 37.6513Z" fill="black"/>
<path d="M37.1267 137.926C36.0735 137.198 34.7614 137.101 33.4761 137.024C31.7803 136.927 30.3343 137.391 29.0312 138.152C28.7545 138.313 28.3618 138.358 28.0137 138.455C28.0672 138.197 28.0137 137.888 28.2011 137.681C29.1472 136.573 30.6646 136.057 32.3426 135.812C34.3776 135.516 36.3144 135.825 38.2513 136.367C39.4741 136.708 39.6526 137.856 39.0367 138.507C37.5818 140.041 35.4576 140.653 33.012 140.215C31.8427 140.008 30.9591 139.506 30.6199 138.635C30.5396 138.442 30.6824 138.204 30.727 137.984C31.0037 138.01 31.3072 138.004 31.5571 138.081C32.4318 138.352 33.2619 138.758 34.1723 138.919C35.3951 139.138 36.368 138.706 37.1356 137.933L37.1267 137.926Z" fill="black"/>
<path d="M138.985 162.723C139.842 162.375 140.672 161.988 141.564 161.698C142.894 161.266 144.26 160.88 145.634 160.519C145.831 160.467 146.357 160.628 146.366 160.706C146.384 160.912 146.286 161.221 146.081 161.324C145.474 161.621 144.786 161.834 144.135 162.079C143.09 162.472 142.109 162.871 141.591 163.735C141.118 164.508 140.422 164.412 139.627 163.497C138.904 163.625 138.172 163.806 137.414 163.864C137.003 163.896 136.423 163.799 136.173 163.593C135.977 163.432 136.004 162.942 136.2 162.736C136.807 162.117 137.432 161.453 138.262 161.009C139.476 160.358 140.868 159.874 142.198 159.333C142.394 159.249 142.644 159.152 142.841 159.178C143.224 159.23 143.59 159.365 143.965 159.468C143.733 159.726 143.572 160.061 143.251 160.229C141.761 160.983 140.225 161.692 138.708 162.42C138.797 162.523 138.895 162.633 138.985 162.736V162.723Z" fill="black"/>
<path d="M5.69059 3.87601C5.79769 4.09515 5.95833 4.30785 6.00296 4.53344C6.02974 4.71391 6.00297 5.0104 5.84231 5.07486C5.65487 5.1522 5.29785 5.07485 5.03901 5.0104C4.8962 4.97817 4.79803 4.84283 4.68199 4.75903C3.33424 3.82444 2.00433 2.87694 0.63872 1.96813C0.15674 1.64585 -0.307401 1.35582 0.263835 0.891745C0.799368 0.459897 1.43308 0.472791 2.04895 0.833738C2.92365 1.35582 3.79835 1.8779 4.83371 2.49666C4.50347 1.91012 4.22679 1.47183 4.01258 1.02064C3.78944 0.556568 3.97688 0.208524 4.68199 0.0667236C5.32463 -0.0621861 5.87801 -0.0493069 6.119 0.517896C6.33321 1.00131 6.50281 1.50406 6.83306 1.94879C7.32396 2.61912 7.95765 3.24433 8.48426 3.90177C8.60922 4.06291 8.57354 4.28852 8.61817 4.48188C8.3147 4.49477 7.95766 4.59144 7.70774 4.50765C7.07403 4.3014 6.49389 4.0178 5.88695 3.76642C5.82447 3.79865 5.76197 3.83733 5.69949 3.86955L5.69059 3.87601Z" fill="black"/>
<path d="M32.1014 12.8236C31.8069 14.8926 31.5302 16.9551 31.2178 19.0241C31.1464 19.514 30.95 20.0619 30.0753 20.0167C29.1649 19.9652 29.04 19.4109 29.0935 18.8694C29.2988 16.8649 29.5398 14.8668 29.7451 12.8623C29.7986 12.308 29.8254 11.7536 29.8254 11.1929C29.8254 10.703 30.0843 10.3936 30.7805 10.3485C31.557 10.2969 31.8872 10.6708 31.9497 11.1413C32.0211 11.6956 31.9676 12.2564 31.9676 12.8107L32.0925 12.8236H32.1014Z" fill="black"/>
<path d="M112.204 97.1923C112.471 97.1021 112.793 97.0054 113.105 96.883C113.828 96.6058 114.837 96.9474 114.828 97.534C114.801 99.9832 114.712 102.426 114.64 104.869C114.64 104.985 114.613 105.133 114.515 105.211C114.248 105.43 113.926 105.617 113.632 105.816C113.373 105.571 112.9 105.333 112.882 105.075C112.739 103.58 112.694 102.078 112.623 100.576C112.605 100.067 112.677 99.5578 112.605 99.0486C112.525 98.417 112.346 97.7918 112.204 97.1794V97.1923Z" fill="black"/>
<path d="M98.9073 14.495C98.9073 15.1659 98.9073 15.8309 98.9073 16.5017C98.9073 17.0123 98.258 17.511 97.5792 17.4813C96.6544 17.4398 96.6445 16.9826 96.615 16.5849C96.5265 15.16 96.5167 13.7351 96.3592 12.3102C96.3002 11.7937 95.9854 11.2772 95.7001 10.7785C95.4443 10.3273 95.2082 9.8642 96.0149 9.5911C96.9102 9.28238 97.4808 9.74546 97.7267 10.1314C98.199 10.8913 98.5827 11.6928 98.7893 12.4943C98.9565 13.1473 98.8286 13.8301 98.8286 14.495C98.8581 14.495 98.8876 14.495 98.9171 14.495H98.9073Z" fill="black"/>
<path d="M107.68 57.6506C107.68 56.7805 107.645 55.9039 107.698 55.0338C107.716 54.7631 107.877 54.4537 108.118 54.2474C108.296 54.0927 108.743 53.9831 108.992 54.0412C109.207 54.0863 109.448 54.3892 109.448 54.5826C109.483 55.4076 109.394 56.2326 109.412 57.0512C109.457 58.9333 109.528 60.8218 109.591 62.7039C109.591 62.8263 109.635 62.981 109.546 63.0584C109.278 63.2969 108.957 63.4967 108.653 63.7158C108.448 63.5031 108.082 63.3033 108.055 63.0777C107.814 61.273 107.636 59.4618 107.439 57.6506C107.52 57.6506 107.591 57.6506 107.672 57.6442L107.68 57.6506Z" fill="black"/>
</svg>
