<svg width="438" height="216" viewBox="0 0 438 216" fill="none" xmlns="http://www.w3.org/2000/svg">
<path d="M278.789 188.254C272.422 189.081 270.756 191.339 272.548 196.664C273.75 200.202 274.635 203.833 275.373 207.465C275.542 208.255 274.467 209.986 273.898 210.005C272.38 210.08 269.808 209.836 269.428 209.045C267.678 205.414 266.624 201.519 265.127 197.774C264.432 196.025 263.314 194.406 262.366 192.713C260.637 193.898 258.339 194.764 257.285 196.307C255.409 199.054 254.692 202.441 252.71 205.113C251.487 206.769 248.957 207.822 246.786 208.707C245.184 209.365 243.033 208.989 241.431 209.647C224.165 216.892 219.021 210.137 217.081 197.229C216.428 192.901 216.723 188.46 216.681 184.076C216.66 181.705 215.837 180.558 212.886 179.993C211.052 179.636 209.133 177.622 208.332 175.929C207.995 175.252 210.229 173.05 211.768 172.279C217.144 169.569 222.963 167.292 229.14 169.419C236.055 171.789 237.847 177.961 233.968 185.017C237.847 186.522 241.642 188.253 245.647 189.364C246.828 189.684 249.632 188.517 249.969 187.538C251.255 183.851 251.677 179.937 252.71 176.174C253.216 174.292 253.975 172.279 255.282 170.811C257.179 168.685 259.309 169.701 260.827 171.545C263.968 175.364 266.877 179.335 270.124 183.079C271.979 185.224 278.81 182.872 280.032 179.786C282.288 174.066 290.321 168.609 296.54 168.572C302.401 168.534 305.226 172.128 302.127 176.493C298.817 181.16 294.6 185.318 290.742 189.683C290.025 190.493 289.245 191.245 288.276 192.224C291.48 193.842 294.2 195.479 297.172 196.514C298.121 196.852 300.503 195.874 300.988 194.971C305.479 186.635 309.653 178.168 314.059 169.795C315.387 167.255 316.441 162.852 320.173 164.056C323.588 165.166 326.139 168.798 328.564 171.639C329.449 172.674 328.943 174.687 328.964 176.249C329.006 179.579 328.732 182.929 333.455 184.283C333.897 184.415 333.918 187.388 333.729 187.444C329.491 188.329 330.461 191.302 330.988 193.522C331.747 196.777 333.434 199.844 334.403 203.062C334.867 204.642 334.614 206.392 334.698 208.067C332.485 207.822 328.964 208.236 328.311 207.183C325.739 203.118 324.073 198.584 322.028 194.237C321.29 192.675 320.025 189.778 319.625 189.853C317.116 190.38 313.933 191.019 312.604 192.675C309.8 196.156 307.924 200.239 305.816 204.134C304.403 206.731 302.253 207.164 299.829 205.696C295.085 202.836 290.489 200.559 284.713 203.927C284.228 204.21 280.665 201.914 280.285 200.465C279.295 196.608 279.274 192.562 278.81 188.197L278.789 188.254ZM225.683 192.92C225.683 196.156 224.987 198.32 225.83 199.788C227.201 202.196 226.041 206.674 231.459 206.373C235.444 206.148 238.754 205.037 240.82 201.613C242.654 198.584 242.654 195.93 238.69 194.877C234.685 193.804 230.426 193.578 225.641 192.901L225.683 192.92ZM223.743 187.219C229.098 184.885 227.875 181.404 227.39 178.394C227.264 177.604 225.324 177.058 223.743 176.136V187.219Z" fill="black"/>
<path d="M140.05 103.167C143.381 98.9147 144.794 92.5736 151.224 94.2483C155.735 95.4149 159.425 99.0652 163.662 101.718C164.379 100.382 165.201 97.9362 166.888 96.1299C167.963 94.9633 170.324 94.7564 172.116 94.1166C172.601 95.8665 173.908 97.8422 173.423 99.3475C170.577 108.229 167.162 116.941 164.252 125.803C162.966 129.754 165.117 131.41 169.776 131.448C182.657 131.561 185.862 129.472 189.298 117.9C189.467 117.336 189.72 116.658 190.183 116.301C198.637 110.223 202.495 101.605 206.817 93.157C207.618 91.614 210.359 90.8614 212.193 89.7324C213.142 91.313 214.807 92.8371 214.934 94.4741C215.292 99.5921 215.06 104.748 215.06 109.809C217.464 110.769 219.951 111.747 222.439 112.726C222.397 113.196 222.376 113.667 222.334 114.137C220.078 115.097 217.801 116.075 214.491 117.486C214.997 120.723 215.608 124.505 216.157 128.268C216.599 131.316 219.192 135.644 214.238 136.641C209.727 137.544 209.094 133.047 208.272 129.924C207.302 126.198 206.396 122.454 205.468 118.785C196.339 119.255 193.662 125.445 192.144 131.278C191.174 134.966 188.813 135.945 186.093 136.509C180.528 137.657 174.793 138.523 169.101 138.786C158.75 139.256 153.353 132.558 156.621 123.903C157 122.924 157.211 121.889 157.675 120.215C153.922 121.757 150.865 122.999 148.167 124.091C147.956 127.252 148.061 130.262 147.387 133.122C147.134 134.233 145.046 135.7 143.803 135.681C142.685 135.681 140.872 133.95 140.661 132.803C140.071 129.679 139.966 126.443 140.05 123.263C140.198 117.561 140.619 111.841 140.893 106.742C136.487 111.785 131.575 116.602 127.822 122.059C126.136 124.505 127 128.249 126.304 131.335C125.988 132.727 124.702 133.969 123.859 135.267C122.425 134.308 119.853 133.461 119.727 132.389C118.841 124.975 118.483 117.505 117.914 110.054C117.787 108.36 118.104 106.291 117.134 105.068C113.887 101.003 116.354 98.8394 119.874 96.732C127 92.4608 137.246 95.1138 140.029 103.129L140.05 103.167ZM147.766 118.107C153.838 115.36 155.946 106.065 152.193 102.941C151.371 102.245 149.284 102.772 147.766 102.734V118.126V118.107ZM126.515 116.056C130.479 111.935 133.789 108.53 132.039 103.788C131.596 102.584 129.066 101.982 126.515 100.571V116.037V116.056Z" fill="black"/>
<path d="M128.812 186.579C132.48 182.421 135.621 178.187 139.585 174.668C141.039 173.389 144.391 173.822 146.879 173.483C146.183 175.534 146.162 178.206 144.644 179.504C139.015 184.34 135.221 189.834 134.736 196.834C134.441 201.124 137.666 204.511 142.452 204.398C146.879 204.304 151.391 203.551 155.67 202.46C158.158 201.82 159.908 200.051 158.79 196.984C157.673 193.936 155.607 189.815 156.956 187.633C160.477 181.894 159.107 175.891 160.372 170.115C160.582 169.136 162.585 168.045 163.914 167.819C164.715 167.688 166.464 169.061 166.696 169.964C167.287 172.486 167.518 175.101 167.497 177.679C167.476 179.467 166.781 181.235 166.401 182.985C173.696 184.754 177.68 183.154 180.484 177.754C181.285 176.23 181.918 174.311 183.309 173.464C184.616 172.655 186.83 173.013 188.622 172.862C188.706 174.142 189.086 175.478 188.79 176.663C187.104 183.286 184.637 189.815 183.71 196.514C183.183 200.277 185.08 204.323 185.881 208.236C186.071 209.196 186.282 210.174 186.471 211.134C185.227 211.096 183.963 211.209 182.782 210.965C178.291 210.062 176.626 207.107 176.478 203.382C176.31 199.035 176.436 194.67 176.436 190.361C168.509 189.157 166.401 190.53 166.612 197.06C166.717 200.409 167.16 203.815 168.067 207.051C168.91 210.099 168.467 212.79 165.115 213.43C163.724 213.693 161.531 211.134 159.929 209.648C159.297 209.083 159.275 207.992 158.875 206.806C147.195 212.319 136.296 213.543 127.062 203.043C124.743 205.696 122.824 208.274 120.463 210.457C111.883 218.472 102.67 217.889 97.315 208.105C91.9601 198.32 92.2131 187.971 98.2004 178.112C102.712 170.679 113.886 168.892 120.105 176.193C123.12 179.711 126.05 183.286 128.812 186.579ZM108.952 178.131C107.582 178.959 105.157 179.674 104.124 181.179C99.4442 187.971 99.3178 199.938 105.01 206.392C107.413 209.121 110.238 209.704 113.675 208.33C121.306 205.226 125.966 192.92 121.306 186.899C118.481 183.249 115.656 179.015 108.952 178.149V178.131Z" fill="black"/>
<path d="M94.2364 51.0265C89.1064 56.8344 83.2878 59.914 76.7804 60.2652C75.5155 64.2354 77.7291 70.0496 69.8233 70.9716C66.661 62.7866 66.8929 54.5639 67.694 46.3037C68.1789 41.3362 68.8114 36.3876 69.1276 31.4201C69.2963 28.8235 68.98 25.9822 72.9224 25.8882C76.8647 25.7941 77.3074 28.56 77.7923 31.4013C78.9097 37.667 80.2589 43.914 81.7347 50.1421C82.5569 53.6419 85.0656 53.3221 86.7311 50.9512C89.008 47.7337 90.7157 44.1774 92.318 40.64C94.131 36.6322 95.2273 32.3233 97.2933 28.4283C98.1788 26.7725 100.73 25.8505 102.522 24.5898C103.365 26.4715 105.009 28.353 104.946 30.2158C104.588 40.1884 103.723 50.1421 103.217 60.0959C103.133 61.9022 104.103 63.7462 104.103 65.5713C104.103 67.0014 103.344 68.4314 102.922 69.8614C101.404 69.2593 98.8956 68.9394 98.5161 67.9798C96.8717 63.6333 95.8176 59.1174 94.616 54.6392C94.3841 53.7548 94.4051 52.814 94.1943 51.0265H94.2364Z" fill="black"/>
<path d="M174.643 33.1295C170.258 34.9359 166.631 36.2342 163.258 37.9465C162.436 38.3604 162.078 40.1667 162.204 41.2769C162.668 45.4541 163.743 49.5936 163.891 53.7708C163.954 55.7653 162.921 59.2087 161.614 59.5285C158.03 60.4129 157.903 57.3459 157.482 54.9939C156.87 51.6258 155.795 48.3141 155.437 44.9461C155.078 41.7285 153.687 40.5807 150.019 40.957C148.501 41.1076 146.814 40.0539 145.191 39.5458C146.287 38.1346 147.088 35.8767 148.543 35.4627C152.801 34.2961 153.877 31.9818 153.371 28.4255C152.823 24.587 151.937 20.6921 152.211 16.8724C152.359 14.8402 154.593 12.921 155.901 10.9453C157.271 12.6388 159.653 14.2382 159.843 16.0257C160.391 20.8802 160.033 25.8288 160.033 31.7935C165.05 29.8743 168.719 28.8771 171.818 27.1084C173.378 26.224 174.2 23.9661 174.811 22.1974C175.612 19.8642 175.591 17.2675 176.519 14.9908C176.962 13.8994 179.196 12.3753 179.955 12.6388C181.368 13.1092 183.16 14.6709 183.286 15.894C183.687 19.9394 183.434 24.0225 183.413 28.0868C183.371 34.823 183.223 41.5591 183.35 48.2765C183.392 50.3839 184.109 52.4913 184.741 54.5423C185.774 57.9104 183.518 59.7543 180.609 60.3941C179.597 60.6199 176.877 58.362 176.645 57.0072C175.633 51.193 175.233 45.2847 174.706 39.3953C174.537 37.5701 174.685 35.7449 174.685 33.0919L174.643 33.1295Z" fill="black"/>
<path d="M11.9735 62.0572C11.9735 64.6538 12.0788 67.2504 11.9313 69.8282C11.8469 71.3524 11.8469 73.121 11.0036 74.3253C10.1393 75.5295 8.30517 76.7149 6.82942 76.7902C6.00722 76.8466 4.32056 74.664 4.23623 73.4221C3.92 69.0568 4.32067 64.6538 4.08877 60.2696C4.00444 58.5385 3.54051 56.2806 2.2545 55.2834C-0.465095 53.176 -0.696922 51.4072 1.41129 48.98C6.19694 43.5045 5.75417 37.0317 5.712 30.6342C5.712 28.7526 5.22711 26.777 5.712 25.0271C6.09148 23.6911 7.67274 22.6186 8.70576 21.4143C9.92852 22.5621 12.0788 23.6158 12.2053 24.8389C12.6691 28.7903 12.374 32.8169 12.374 36.8059C12.88 37.0129 13.3859 37.2387 13.8919 37.4457C21.2074 29.3359 28.5229 21.2074 35.8594 13.0977C36.5762 13.474 37.3142 13.8315 38.031 14.2078C37.5672 15.7884 37.5882 17.7076 36.5552 18.8742C29.5138 26.9275 22.4091 34.9243 15.0093 42.6954C10.814 47.1172 10.9193 50.1089 15.9158 53.9286C22.5778 59.0466 29.1343 64.2963 35.5644 69.6589C36.5974 70.5056 36.7239 72.2179 37.272 73.5162C35.712 73.9866 33.9621 75.0968 32.655 74.7769C30.4203 74.2124 28.291 72.9705 26.4569 71.6346C22.0296 68.4358 17.7921 65.0301 13.4702 61.6997C12.9642 61.8126 12.4583 61.9067 11.9524 62.0196L11.9735 62.0572Z" fill="black"/>
<path d="M428.535 180.788C429.695 186.433 431.023 191.419 431.592 196.481C431.761 197.929 430.137 200.338 428.641 200.959C426.237 201.956 423.855 201.015 423.286 198.136C422.632 194.938 421.958 191.758 421.114 188.615C420.714 187.072 420.124 184.532 419.217 184.363C417.235 184.024 414.031 184.269 412.998 185.435C409.856 189.011 407.58 193.169 404.839 197.045C403.785 198.55 402.625 200.131 401.086 201.185C400.327 201.711 398.24 201.561 397.46 200.978C396.659 200.375 396.237 198.795 396.469 197.779C396.891 195.991 398.198 194.354 398.578 192.567C398.873 191.174 398.936 189.011 398.008 188.314C395.057 186.038 396.301 184.043 398.62 183.177C406.947 180.054 407.706 172.829 410.573 166.695C410.763 166.281 410.573 165.622 410.868 165.34C413.272 163.063 415.464 159.62 418.289 159.093C420.124 158.754 423.096 162.668 425.225 164.926C426.026 165.773 425.816 167.315 426.195 168.52C427.397 172.17 428.599 175.726 434.417 174.616C435.282 174.447 436.483 175.783 437.537 176.441C436.568 177.156 435.703 178.041 434.628 178.53C432.815 179.358 430.875 179.96 428.514 180.825L428.535 180.788Z" fill="black"/>
<path d="M288.236 119.728C289.902 122.833 291.778 125.919 293.148 129.155C293.739 130.547 293.844 133.332 293.106 133.671C291.462 134.442 288.341 134.875 287.308 134.01C285.116 132.184 283.661 129.55 282.312 127.066C281.195 124.997 280.668 122.682 279.93 120.575C271.75 119.653 269.895 120.801 266.711 126.897C265.446 129.343 262.79 131.225 260.956 133.163C256.107 131.206 257.393 129.117 258.489 126.333C262.41 116.435 265.72 106.331 269.578 96.3962C270.274 94.5899 272.403 91.918 273.858 91.918C276.156 91.918 279.613 93.3292 280.583 95.0415C283.514 100.197 285.474 105.804 288.236 112.164C290.028 112.258 293.211 112.446 296.395 112.616C296.648 113.086 296.922 113.538 297.175 114.008C294.476 115.739 291.778 117.451 288.236 119.728ZM275.734 103.772C275.334 103.866 274.954 103.96 274.554 104.054C273.753 106.068 272.741 108.043 272.193 110.113C271.897 111.205 271.94 112.917 272.677 113.5C273.457 114.121 275.524 114.177 276.514 113.688C277.421 113.237 278.201 111.6 278.011 110.659C277.569 108.326 276.514 106.068 275.713 103.791L275.734 103.772Z" fill="black"/>
<path d="M63.1203 133.758C63.1203 136.054 63.5208 138.443 62.9727 140.645C62.5932 142.131 60.8855 143.354 59.7892 144.709C58.693 143.43 56.6902 142.188 56.648 140.871C56.3107 131.801 56.5848 122.694 56.2475 113.625C56.0999 109.636 54.6874 105.685 54.4133 101.677C54.329 100.284 55.9523 98.7978 56.7956 97.349C58.2081 98.4592 60.5904 99.3999 60.8644 100.717C61.9186 105.572 62.298 110.539 62.9516 115.469C63.0359 116.033 63.2889 116.579 64.7014 117.482C67.5686 111.837 70.2881 106.117 73.4082 100.585C74.2937 99.0048 76.7392 96.5963 77.7722 96.8598C81.293 97.7253 80.3443 100.585 79.1637 102.655C75.7906 108.582 72.3752 114.528 68.454 120.192C66.4301 123.089 66.9993 124.952 69.3605 127.116C71.7639 129.336 73.9142 131.764 76.3176 133.984C78.6155 136.11 80.8714 138.613 84.7295 135.847C85.3198 135.414 87.6176 135.753 87.7863 136.167C88.2079 137.201 88.3134 138.707 87.7442 139.629C84.624 144.634 78.0463 145.424 73.3239 141.247C70.3092 138.575 67.7582 135.47 65.0176 132.573C64.3851 132.987 63.7737 133.382 63.1412 133.796L63.1203 133.758Z" fill="black"/>
<path d="M99.549 140.778C96.0915 140.778 92.6762 138.689 90.2307 135.208C84.4753 126.985 86.6045 118.669 90.315 110.521C91.7907 107.285 92.7394 103.07 98.2419 103.108C103.681 103.145 108.193 105.366 110.891 109.279C116.562 117.54 115.719 126.458 112.451 135.246C110.638 140.1 105.663 140.476 99.5279 140.778H99.549ZM106.675 133.27C108.298 126.251 108.931 119.703 104.756 113.626C102.269 109.994 99.4435 110.051 96.745 113.551C93.2875 118.029 93.6882 129.017 97.504 132.988C98.1365 133.646 99.064 134.079 99.9073 134.662C100.54 133.684 101.046 132.894 101.552 132.122C103.259 132.498 104.862 132.856 106.675 133.27Z" fill="black"/>
<path d="M376.864 193.223C377.602 191.756 378.382 190.307 379.036 188.82C381.987 182.065 384.581 175.16 387.911 168.555C389.999 164.416 394.194 162.365 399.507 163.155C400.476 163.306 401.615 164.115 402.079 164.905C402.332 165.319 401.531 166.711 400.835 167.031C393.962 170.155 391.959 176.157 389.682 181.953C387.511 187.503 385.719 193.186 383.295 198.642C382.388 200.693 380.427 202.575 378.467 204.005C375.916 205.849 372.817 205.642 371.488 202.763C367.567 194.202 363.815 185.584 360.589 176.816C360.062 175.404 362.55 173.109 363.625 171.209C365.206 172.544 367.525 173.636 368.242 175.273C370.793 181.125 372.817 187.165 375.03 193.129C375.621 193.167 376.232 193.205 376.822 193.242L376.864 193.223Z" fill="black"/>
<path d="M312.332 114.701C317.476 106.347 322.072 98.5757 327.026 91.0305C328.481 88.8102 330.23 86.0442 334.426 87.6436C337.335 88.7537 337.946 89.9392 335.712 92.0654C327.764 99.6483 324.201 109.282 320.132 118.671C319.563 119.97 319.078 121.324 318.256 122.491C313.765 128.851 310.835 128.964 306.724 122.491C302.571 115.943 298.691 109.207 295.297 102.32C294.433 100.57 295.044 96.8446 296.499 95.9038C299.303 94.0599 301.643 96.5248 302.992 98.7827C305.353 102.734 307.441 106.836 309.696 110.844C310.371 112.048 311.277 113.158 312.311 114.664L312.332 114.701Z" fill="black"/>
<path d="M37.02 58.9893C36.6826 51.6322 40.0347 45.4041 44.5041 39.5711C47.4345 35.7326 52.7683 35.3939 57.048 38.1411C71.0044 47.1164 66.1555 68.9431 51.904 74.3621C45.9588 76.62 39.1281 72.9885 37.7156 66.4405C37.1885 64.0132 37.2308 61.473 37.02 58.9893ZM43.0072 56.9008C43.2391 56.976 43.4711 57.0324 43.703 57.1077C43.8505 59.1398 43.5132 61.3225 44.2511 63.1665C45.0733 65.2175 46.5069 68.0211 48.3411 68.5291C49.9855 68.9807 53.0634 67.1367 54.6235 65.5938C59.7465 60.4758 60.1049 51.1994 55.8463 45.5734C52.8948 41.6785 48.8259 41.6597 46.7177 45.9309C44.989 49.3931 44.23 53.2504 43.0283 56.9195L43.0072 56.9008Z" fill="black"/>
<path d="M257.245 3.08549C255.368 3.81932 253.534 5.13646 251.637 5.21172C234.603 5.94555 218.622 10.2545 202.958 15.8617C200.913 16.5955 198.489 16.7836 196.275 16.6707C194.821 16.5955 193.429 15.5041 192.017 14.8832C192.944 13.6601 193.577 11.7221 194.842 11.3081C203.253 8.46689 211.686 5.56921 220.351 3.48062C227.519 1.74953 234.982 0.695853 242.403 0.0937367C247.104 -0.301402 251.932 0.658202 256.697 1.01571C256.886 1.7119 257.055 2.40807 257.245 3.10427V3.08549Z" fill="black"/>
<path d="M211.83 40.342C212.737 34.0198 213.327 27.6411 214.697 21.3942C215.077 19.6255 217.712 18.2519 219.314 16.709C220.474 18.4024 222.687 20.0959 222.645 21.7705C222.413 31.7243 221.886 41.6968 220.895 51.6317C220.727 53.2311 217.733 54.6046 216.047 56.0911C214.845 54.6234 212.821 53.2499 212.61 51.6881C212.104 47.9814 212.442 44.1805 212.442 40.4173C212.231 40.3985 212.02 40.3797 211.809 40.3609L211.83 40.342Z" fill="black"/>
<path d="M191.657 36.5182C191.51 33.7146 190.982 30.8545 191.341 28.1074C191.531 26.6209 193.196 25.3038 194.187 23.8926C196 25.0404 198.699 25.8494 199.415 27.3923C200.427 29.575 199.985 32.3034 200.174 34.8059C200.554 40.0744 201.334 45.3429 201.081 50.5738C200.997 52.3049 198.193 53.9231 196.654 55.5789C195.515 54.3371 193.618 53.2269 193.344 51.8533C192.353 46.8106 191.91 41.6738 191.257 36.5746L191.678 36.537L191.657 36.5182Z" fill="black"/>
</svg>
