<svg width="257" height="107" viewBox="0 0 257 107" fill="none" xmlns="http://www.w3.org/2000/svg">
<path d="M4.34403 101.862C4.73098 101.927 5.61869 101.884 5.45935 101.733L3.95709 101.625L4.3668 101.862H4.34403Z" fill="#9F5225"/>
<path d="M7.11801 100.877C6.38964 100.712 5.11499 100.505 3.72653 100.629C5.18328 100.794 4.56871 100.836 6.29859 101.022C6.48069 101.167 5.8206 101.271 5.25156 101.25C5.63851 101.291 4.91014 101.478 5.86612 101.561C7.02697 101.374 7.07249 101.126 6.1165 100.898C6.45793 100.836 6.84487 100.898 7.11801 100.898V100.877Z" fill="#9F5225"/>
<path d="M9.48167 86.8382L9.30153 86.9266C9.30153 86.9266 9.45915 86.8603 9.48167 86.8382Z" fill="#9F5225"/>
<path d="M10.3071 78.134C10.3071 78.134 10.4872 78.2444 10.6223 78.2444C10.5323 78.1782 10.4422 78.134 10.3071 78.134Z" fill="#9F5225"/>
<path d="M11.9676 76.6287C11.9676 76.6287 11.8993 76.6957 11.8765 76.718C12.0131 76.6733 12.0814 76.651 11.9676 76.6287Z" fill="#9F5225"/>
<path d="M9.48764 86.8367L9.9605 86.6027C9.46513 86.6027 9.60023 86.7303 9.48764 86.8367Z" fill="#9F5225"/>
<path d="M3.49875 98.9525C3.49875 98.9525 3.70141 99.0408 3.88154 99.085C3.81399 99.0408 3.76896 98.9966 3.72392 98.9525C3.63385 98.9525 3.5663 98.9525 3.49875 98.9525Z" fill="#9F5225"/>
<path d="M10.6904 90.6784V90.7453C10.8725 90.7676 11.0774 90.79 11.305 90.8123L10.6904 90.6784Z" fill="#9F5225"/>
<path d="M10.9186 93.6298C10.9186 93.6298 9.68948 93.5395 9.1432 93.4944C9.66672 93.5395 9.91709 93.5847 10.0309 93.6524C10.2813 93.6524 10.5544 93.6524 10.9414 93.6298H10.9186Z" fill="#9F5225"/>
<path d="M8.69042 98.2868L8.87056 98.3752C8.87056 98.3752 8.75797 98.3089 8.69042 98.2868Z" fill="#9F5225"/>
<path d="M10.9654 88.5704C11.1456 88.5704 11.3257 88.5705 11.4158 88.5484C11.2581 88.5484 11.1005 88.5484 10.9654 88.5704Z" fill="#9F5225"/>
<path d="M1.35986 6.17533C1.35986 6.17533 1.51748 6.17533 1.58503 6.17533C1.44993 6.17533 1.35986 6.15325 1.35986 6.17533Z" fill="#9F5225"/>
<path d="M7.68764 2.75937L7.75593 2.80401C8.0063 2.80401 8.23392 2.80401 8.4843 2.80401L7.68764 2.73705V2.75937Z" fill="#9F5225"/>
<path d="M13.6051 73.9253C13.6051 73.9253 13.6051 73.9253 13.5821 73.9253C13.7203 73.9931 13.6973 73.9705 13.6051 73.9253Z" fill="#9F5225"/>
<path d="M12.6496 48.9383C11.5115 49.234 11.1928 48.4735 9.9182 48.896C10.419 48.8538 11.9212 49.2974 12.6496 48.9383Z" fill="#9F5225"/>
<path d="M3.6594 98.8664C3.6594 98.8664 3.63749 98.7804 3.6594 98.7374C3.61557 98.8019 3.61557 98.8234 3.6594 98.8664Z" fill="#9F5225"/>
<path d="M9.9111 48.8981L9.80153 48.9411C9.80153 48.9411 9.88919 48.9196 9.93301 48.8981H9.9111Z" fill="#9F5225"/>
<path d="M12.8345 67.6582C12.6068 67.6582 12.4475 67.7029 12.2654 67.7252C12.402 67.7252 12.5613 67.7252 12.8345 67.6582Z" fill="#9F5225"/>
<path d="M11.0071 72.3169L11.1872 72.1844C11.0746 72.2286 11.0296 72.2728 11.0071 72.3169Z" fill="#9F5225"/>
<path d="M11.0327 65.2169C11.0327 65.2169 11.3029 65.132 11.1453 65.047C11.0777 65.047 11.0327 65.047 10.9876 65.0682C11.1678 65.1107 11.2353 65.132 11.0327 65.2169Z" fill="#9F5225"/>
<path d="M11.0048 62.6917C11.0048 62.6917 10.8246 62.7359 10.7571 62.7359C10.7796 62.758 10.8021 62.8021 10.8246 62.8242L11.0048 62.6917Z" fill="#9F5225"/>
<path d="M1.97432 13.858C2.33851 13.7935 2.72546 13.772 3.13516 13.7289C2.2247 13.772 1.90604 13.3849 1.97432 13.858Z" fill="#9F5225"/>
<path d="M4.20337 98.9598C3.8847 98.9598 3.72537 98.9152 3.65709 98.8705C3.65709 98.8929 3.70261 98.9375 3.72537 98.9598C3.90746 98.9598 4.08956 98.9598 4.20337 98.9598Z" fill="#9F5225"/>
<path d="M0.923754 65.1153L1.10389 64.7193C0.991304 64.8235 0.923754 64.9694 0.923754 65.1153Z" fill="#9F5225"/>
<path d="M2.15809 31.9476L1.99875 31.8583C1.99875 31.8583 1.99875 31.9253 2.15809 31.9476Z" fill="#9F5225"/>
<path d="M0.923754 63.5348C1.37899 63.4702 1.62936 63.3841 1.81146 63.298C1.72041 63.298 1.62936 63.2549 1.47003 63.2549L0.923754 63.5348Z" fill="#9F5225"/>
<path d="M0.109303 11.0908C0.0637793 11.4631 1.74814 11.2769 2.72689 11.3597C3.20488 11.8147 1.49776 11.5665 0.63282 11.7319C1.08805 12.0215 2.61308 12.2283 2.5448 12.4558C2.27166 12.4558 2.15785 12.5179 1.81642 12.4558C3.15936 12.7661 1.88471 13.3452 3.56907 13.6968C3.40974 13.7175 3.27317 13.7382 3.15936 13.7382C4.00154 13.6761 4.86648 13.6761 5.45828 13.6761C5.48105 13.8416 6.52808 13.9864 5.41276 14.0484C5.43552 13.945 5.00305 13.945 4.66163 13.883L5.13962 14.0691C3.56907 14.2346 4.59334 13.8209 3.4325 13.8209C3.95602 14.1725 5.25343 14.5862 4.7982 14.8551C3.25041 14.9171 4.27468 14.2346 2.90898 14.5862L3.50078 14.1725C1.06529 14.4828 3.66012 13.9243 1.06529 14.2139C0.610058 14.7517 1.86195 14.8344 1.40671 15.3721C2.27166 15.4962 2.68137 15.3308 3.54631 15.4549C5.0941 16.2201 -0.34593 16.0547 1.72538 16.6338C2.74965 16.7786 4.70715 16.8406 3.68288 17.2336L1.93023 17.0888C1.74814 17.6266 4.43401 17.3991 3.27317 17.9368C2.59032 17.8334 2.70413 17.5232 2.47651 17.6059C1.08805 17.9575 3.47802 17.8541 3.47802 18.1437L1.93023 18.2057C2.18061 18.7641 3.29593 19.3846 3.56907 20.0051C3.11384 19.9637 2.61308 19.8603 2.15785 20.0051C2.93174 20.7911 1.97576 21.6804 1.04253 22.4457L2.38546 22.7353C2.38546 22.7353 1.7709 22.8594 1.52052 22.7973C1.01977 23.0869 2.3627 22.7973 2.88622 22.9628C2.97727 23.1282 2.11233 23.1903 1.72538 23.0869C2.86346 23.6039 4.16087 24.576 2.72689 25.1138L2.33994 25.0104C1.79366 25.4447 5.07134 25.4861 3.84221 25.8997L3.61459 25.817C3.04555 26.7477 4.25192 27.7819 2.24889 28.4851C4.18363 28.6299 1.38395 29.3952 4.06982 29.4572C2.74965 29.995 2.27166 29.8295 1.36119 30.5741C1.24738 30.7809 3.04555 30.8636 3.31869 31.1118H1.90747L3.38698 31.4428L1.70262 31.6289L2.0668 31.8564C2.0668 31.8564 2.70413 31.6703 3.09108 31.6703C3.7284 32.0219 2.11233 32.5597 1.38395 32.5597L2.56756 33.4076C1.99852 33.4076 1.81642 33.2422 1.45224 33.1388C2.88622 33.5938 -0.0272672 33.2215 1.29291 33.6352C1.61157 33.5731 2.13509 33.6558 2.40823 33.6765C1.56605 33.8834 1.54328 34.3591 1.90747 34.7107L0.951482 34.6486C0.701105 35.2898 1.40671 35.993 1.40671 36.6962C1.86195 36.448 3.52355 36.4894 3.70564 36.6962L2.22613 36.779C3.1366 36.9237 2.79517 36.5515 3.91049 36.841C3.7284 37.1099 2.22613 37.0272 1.74814 36.8617L2.27166 37.1926C1.83919 37.1926 1.58881 37.1306 1.01977 37.1099C1.93023 37.234 -0.459738 37.6683 1.13358 37.8545H0.701105C0.701105 38.5784 1.20186 38.9093 1.27015 39.4884C2.5448 39.4884 2.27166 39.7366 3.29593 39.9021C2.88622 40.3364 1.88471 40.7915 1.99852 41.3085C2.63584 41.6601 3.09108 41.4119 3.84221 41.5774C2.68137 41.5981 2.79517 42.1152 1.95299 41.8463C2.13509 42.4668 2.18061 42.6322 3.1366 43.4182C3.61459 43.3355 3.81945 43.232 4.22916 43.2941C4.41125 43.4389 3.75116 43.625 3.18212 43.6043L3.06831 43.563C4.82096 44.4316 -0.323168 45.5899 2.08956 46.2724L1.97576 46.2311L3.25041 46.955C3.04555 47.2859 2.3627 46.7481 1.65709 46.9963C3.59183 47.7823 1.38395 48.2166 2.68137 48.8578C-0.755639 49.3542 2.93174 50.6158 0.723866 51.2984L1.54328 51.257C2.33994 51.4225 1.08805 51.4638 0.883198 51.5879C1.52052 51.5879 1.61157 51.4018 2.04404 51.5052C3.02279 52.9737 0.860436 54.5249 0.132064 56.0348C-0.0955521 56.5932 4.3202 56.345 2.38546 57.0482L0.883198 56.8414C2.68137 57.9583 0.814913 59.1165 2.33994 60.192C1.99852 60.13 1.54328 60.13 1.54328 60.0266C0.450727 60.2541 1.49776 60.8746 2.38546 60.8746C2.29442 61.04 1.58881 60.9159 1.13358 61.0194C0.49625 61.2469 2.52203 61.5985 1.45224 61.7226C1.27015 61.7433 1.08805 61.6605 1.01977 61.6192C1.54328 61.7639 0.883198 62.3224 2.13509 62.1776C1.54328 62.5913 2.70413 62.9636 1.95299 63.2738C3.36421 63.4806 1.27015 63.977 3.27317 64.0391C1.22462 64.0184 1.61157 64.763 2.59032 65.0112C1.97576 64.9284 1.95299 65.2387 1.08805 65.1353C1.11081 65.4248 1.49776 65.6937 2.56756 65.6523C0.109303 66.1901 4.54782 66.7485 1.38395 67.0381C2.49927 67.9068 3.25041 68.7134 3.7284 69.4994C1.67985 69.4787 3.52355 68.6307 1.36119 68.672C2.20337 69.4166 3.97878 69.851 3.47802 70.5956C3.20488 70.7817 2.59032 70.4921 2.22613 70.4301C3.06831 71.1747 2.04404 71.8779 3.15936 72.5397C2.97727 72.5397 2.74965 72.457 2.61308 72.395C2.68137 72.5191 2.31718 72.7052 3.25041 72.6845L3.00003 72.5604C4.36573 72.3536 5.82247 73.0775 6.55084 73.0982C3.86497 72.8707 5.86799 73.76 2.49927 73.4084C2.68137 73.4912 3.11384 73.5946 3.75116 73.5739C3.56907 73.698 3.20488 73.7394 2.49927 73.6153C3.00003 74.091 4.00154 73.9255 3.97878 74.3392C3.52355 74.3392 3.34145 74.2564 2.81794 74.2151C3.70564 74.4219 4.57058 74.6494 4.20639 75.001C3.93326 74.9803 3.56907 75.001 3.59183 74.9183C3.7284 75.5388 5.93628 75.9731 5.0941 76.635C3.1366 76.4281 4.45677 76.8625 2.74965 76.9038L3.25041 77.2761L4.06982 77.1314C4.04706 77.4416 5.27619 77.7312 4.72991 78L4.0243 77.7725L4.34296 78.3723L4.98029 78.0414C5.84523 78.3723 7.11988 78 6.66465 78.4344C6.48256 78.3516 6.66465 78.7446 5.64038 78.9101C6.18666 79.0756 6.7557 79.2203 6.32323 79.4685C5.77695 79.5306 4.43401 79.4272 4.09259 79.4685C5.50381 79.634 4.47953 80.2131 6.00456 80.4199C5.64038 80.3579 4.75267 80.3579 4.57058 80.3786L5.73142 80.5027C5.36724 80.6475 5.18514 80.6681 4.47953 80.6475C4.27468 81.0818 6.64189 80.5027 5.70866 81.0404C5.61762 80.9991 5.43552 81.0198 5.27619 80.937C4.7982 81.4748 6.00456 81.9505 5.43552 82.4469C3.7284 82.5916 5.02581 82.0125 3.56907 82.178C3.88773 82.8812 5.61761 83.6258 5.20791 84.3083L5.39 84.1842C7.80273 84.2876 4.20639 84.6806 5.34448 85.0322C5.16238 84.9495 4.00154 84.9288 4.27468 84.9495C3.88773 85.4045 4.86648 85.9009 5.61762 86.6041L5.00305 86.5214C4.45677 86.7903 4.68439 87.2453 4.41125 87.5349C5.02581 87.6176 4.93477 87.7831 5.82247 87.6796C2.29442 88.5897 7.71168 89.417 4.77543 90.2236C4.77543 90.1202 4.22916 89.9961 4.22916 90.0789L4.7982 90.7614C5.84523 90.6994 5.43552 90.6787 6.25494 90.5339C6.8695 90.6166 7.37026 90.8235 7.37026 90.9889C6.66465 90.6787 5.6859 90.9889 5.0941 91.1337C5.41276 91.113 5.77695 91.1544 6.09561 91.1337C4.22916 91.4853 8.21244 91.1957 6.96055 91.6921H6.41427C6.68741 91.8576 7.41578 92.0231 7.27921 92.2092C6.07285 92.2919 6.71017 92.0231 5.70866 92.0024C5.77695 92.2713 8.00759 92.5608 6.80122 92.809C6.4598 92.6849 6.4598 92.5194 6.11837 92.3953C4.68439 92.6642 5.04857 92.7056 4.82096 92.9124H4.84372L4.20639 93.3675L4.59334 93.2434C7.75721 93.595 5.16238 93.9466 7.25645 94.4223C5.29895 93.9673 6.11837 94.3395 4.72991 94.3189C4.34296 94.443 3.91049 94.6291 3.52355 94.5671C4.63887 94.7946 2.6586 94.9394 4.27468 95.2496C3.84221 95.2496 4.22916 95.4771 3.11384 95.4357C3.45526 95.7253 3.88773 95.3737 4.43401 95.3944C5.95904 95.8287 2.59032 96.4285 4.68439 97.0697C5.54933 97.6281 7.02884 97.7316 7.77997 98.2279C7.07436 98.3934 6.16389 98.0832 6.16389 98.0832C5.50381 98.352 5.64038 98.5795 6.14113 98.8277C5.75418 98.7657 5.43552 98.8277 4.93477 98.9105C5.04857 99.1173 6.55084 99.0553 5.89075 99.3241C5.39 99.2828 4.59334 99.2207 4.11535 99.1173C4.52506 99.3655 5.34448 99.6137 5.75418 99.8619C4.98029 99.9239 4.57058 99.7171 4.06982 99.6137C4.41125 99.9033 4.77544 100.358 6.00456 100.441L6.43703 100.255C6.50532 100.358 5.39 100.317 5.16238 100.234C4.20639 99.986 5.59485 99.8826 6.02732 99.8619L6.30046 100.048C8.89529 99.8619 5.89075 99.3035 6.02732 98.9518L7.91654 99.0966L6.34599 98.7243C6.84674 98.6416 7.89378 98.5795 8.18968 98.7657C9.1229 98.4968 7.50683 98.5382 8.55386 98.3107C8.7132 98.29 8.80424 98.3107 8.87253 98.3107L8.30349 98.0625C8.69043 98.1038 9.64642 98.0211 9.37328 98.1866C10.4658 97.7316 7.96206 97.442 9.37328 97.2558L9.48709 97.2972C8.84976 96.656 8.09863 97.2352 6.45979 96.7595L9.8968 96.4285L8.50834 96.3665C8.50834 96.3665 8.66767 96.1596 9.21395 96.201C8.25796 95.9528 8.59939 96.2424 7.71168 96.0976C8.98634 95.7874 7.11988 95.2082 9.32776 95.1462C8.28072 95.0221 8.50834 95.4564 7.77997 95.1048C10.1699 95.0014 7.37026 94.7118 8.46282 94.4223C9.69195 94.505 9.03186 94.7946 10.1472 94.505C8.07587 94.3395 10.6024 93.9466 10.1927 93.6984C8.5311 93.6984 9.50985 93.1606 8.96357 92.747C9.50985 92.7676 9.87404 91.961 10.4658 91.5887H10.739C9.07738 91.5267 9.37328 91.1337 9.03186 90.8441C10.0334 90.8441 10.4203 90.9062 10.8755 91.0716V90.8028C10.3293 90.7407 10.0561 90.658 9.85128 90.4718L11.1032 90.5339C11.0349 90.1823 9.62366 89.81 10.4658 89.3343C9.305 89.3136 7.21093 89.7066 6.43703 89.2102C7.07436 89.2102 8.14416 89.1688 8.39453 89.2929C8.30349 89.2515 7.87102 89.1481 8.14415 89.0654L9.21395 89.2516C9.66918 89.0447 8.32625 89.1481 8.41729 88.962C9.305 88.962 9.05462 88.8379 9.78299 88.8586C9.87404 88.8999 9.41881 89.0034 9.78299 89.0654C9.94232 88.8793 10.4886 88.6517 11.1487 88.569C10.6479 88.569 9.94232 88.569 9.82852 88.4242C9.76023 88.0726 10.9211 88.3001 11.3763 88.0933C10.7617 88.0106 11.3763 87.7831 10.0561 87.7624C10.0561 87.659 10.6935 87.6383 11.0576 87.5969C10.4658 87.4108 10.8983 86.7282 9.46433 86.9351L9.37328 86.9764C9.37328 86.9764 9.35052 86.9764 9.305 86.9557C7.96206 86.3353 10.0561 85.6941 9.48709 85.0736H9.94232C9.41881 84.722 9.64642 84.267 8.66767 84.0188C8.66767 83.9154 9.48709 83.7706 10.0334 83.8119C9.69194 83.5431 9.19119 83.5017 9.94232 83.1087C10.7162 83.3776 10.6479 83.0053 10.5114 83.3983C10.8983 83.0467 11.6267 82.9639 10.3976 82.571C11.5584 82.6951 11.8543 82.3021 11.5129 82.1366L10.6935 82.3848C10.5341 82.1987 10.6252 82.0332 10.7162 81.8471L12.2412 81.9298C14.0849 81.1852 9.10014 80.6061 12.1957 80.0476C11.1259 79.8615 11.4446 80.4406 10.2155 80.2752C10.4203 79.9442 12.5827 79.5926 12.6054 79.4685C13.4476 79.0135 10.3976 79.0342 10.9666 78.5585C10.4203 78.6205 8.98634 78.6826 8.48558 78.3103C8.69043 77.9794 10.7617 77.8966 11.1942 78.1034C11.2397 78.1862 11.0576 78.2275 10.8755 78.2275C11.0804 78.331 11.308 78.4757 11.8998 78.3516L11.3535 78.3103C11.8998 78.1448 11.8543 77.6691 12.742 77.7932C12.2185 77.545 11.8543 77.6898 11.5812 77.8759C12.3551 77.4416 11.6039 77.1934 12.1274 76.7591C11.8315 76.8211 11.1942 76.9038 11.1942 76.8211C11.8543 76.1593 10.1699 76.5316 9.94232 76.0972C10.7617 75.849 11.8998 76.1799 11.217 75.7456C11.786 75.4767 12.651 75.6835 13.0834 75.787C12.0364 75.3733 13.7663 75.0217 13.9484 74.7942L14.3808 75.001C14.1305 74.8769 14.1305 74.7735 14.1305 74.6701L13.0607 74.7942C13.2428 74.6701 13.2655 74.5667 13.698 74.5667C12.9924 74.4426 11.8998 74.6701 10.9438 74.4012C11.4901 74.2358 10.352 73.8841 11.786 73.8221C11.308 74.3598 13.22 73.76 13.4476 74.2151C13.2655 74.1323 13.2883 74.0289 13.4704 73.9048C13.6297 73.9048 13.7663 73.9048 13.8573 73.9669C15.132 73.4705 12.2412 73.7394 12.264 73.2016C13.0834 73.2636 13.789 73.0775 13.6297 72.9948C13.6297 73.2016 12.2868 73.0982 11.6722 72.912C12.3095 72.5811 11.1942 72.5397 11.2853 72.3743L10.9894 72.5811C10.1927 72.5191 10.2837 72.3536 10.0334 72.1054C10.6707 72.1054 10.4658 72.3122 10.739 72.2295C9.32776 71.9606 12.2185 71.6504 11.2625 71.2781C11.8088 71.1126 12.7875 71.2781 13.1517 71.1126C12.1047 70.699 14.267 70.6783 13.4021 70.2439C12.3095 70.368 12.5827 70.3887 11.5129 70.0785L12.2868 70.7817L10.7162 70.3267C10.7162 70.5335 11.3991 70.7817 11.217 70.9058C10.3293 70.699 10.6024 70.7197 9.69195 70.8231C11.3308 70.5335 8.73596 70.2439 9.85128 69.913H12.5371C13.7435 69.4166 11.1487 69.0236 11.8315 68.3618L11.3535 68.5686C10.2837 68.4859 11.1942 68.155 10.7617 67.9481C11.6494 67.9481 11.9909 67.8447 12.5371 67.7413C11.8771 67.7413 12.6054 67.2656 10.8073 67.2036L11.9909 66.914C12.4689 66.3762 9.44157 66.3142 9.73747 65.7971C10.7162 65.9419 11.3535 65.7144 12.0592 66.066C12.0592 65.9005 12.2412 65.7351 11.6039 65.7351C12.173 65.6316 10.3976 65.2594 11.2397 65.1146C10.8528 65.0525 9.8968 65.0112 9.98785 64.825C10.1699 64.8043 10.4431 64.825 10.4431 64.825C9.98785 64.825 9.82852 64.5355 8.84977 64.7009C11.6494 64.1838 8.64491 63.2324 11.0576 62.7774C10.7617 62.4051 10.4658 61.9708 10.3976 61.6192C10.6707 61.6398 10.8528 61.6192 10.7617 61.6812C11.6039 61.2262 8.18968 61.3916 9.12291 60.8746C10.5796 60.6057 9.91956 61.1641 10.4658 60.978C13.4248 60.8953 10.0561 60.3368 11.786 59.9852L11.9681 60.0679C12.9696 59.7991 10.8528 59.4061 11.0576 58.9717C11.0576 58.9717 11.308 58.9924 11.5129 58.9717C10.0106 58.6615 9.50985 58.1031 9.07738 57.6687C10.2382 57.7928 9.69195 57.8549 10.8755 57.7721C10.7162 57.586 8.98633 57.8342 8.66767 57.4412C9.305 57.3171 9.85128 57.0482 11.1032 57.0069L11.1714 57.3585C12.7875 57.1723 11.1259 56.8828 11.3991 56.6966H12.1047C11.8771 56.1589 10.0789 56.1589 10.2155 55.5591L9.66918 55.6211C7.89378 55.2902 10.6707 55.3522 9.35052 55.0213L11.1487 54.9179C10.7162 54.7111 9.41881 54.1733 9.07738 53.7803C10.4203 54.0078 11.0804 54.4422 11.8771 54.7317C11.8771 54.5249 11.7405 54.0078 10.8528 53.9044C11.0349 53.9872 11.4674 54.0906 11.1942 54.1733C9.78299 53.9044 9.07738 53.5735 9.12291 53.1392C12.6054 53.2219 10.0106 52.043 12.6965 51.7327C11.3991 50.9881 13.2428 50.2436 13.0379 49.3749C10.3293 49.6851 12.9696 49.1267 10.1699 49.168C9.98785 48.9612 10.0334 48.8785 10.2155 48.8785L11.8771 48.258C12.6965 48.1132 12.4916 48.4441 13.1062 48.4235C13.311 47.9891 14.2898 48.2373 15.0182 47.9477C14.0167 48.0098 13.5842 47.803 13.9711 47.5341L12.6965 47.8857C11.217 47.2652 15.0409 47.3479 13.5614 46.7275L14.4264 46.9343C13.9028 46.6034 14.4264 45.7554 12.2185 45.4451C12.5371 45.3831 13.311 45.321 13.4931 45.4451C13.8346 44.6798 11.1032 43.7284 12.4916 43.1493L13.1745 43.2114C12.9696 43.0666 11.8998 42.9632 12.5827 42.777C12.8558 42.777 13.2655 42.8391 13.311 42.777C13.0834 42.6943 12.1274 42.4047 12.5144 42.1979L13.2883 42.3634C14.176 41.6188 11.4218 41.2051 10.9666 40.5846C12.9696 40.5846 13.6297 40.0055 13.9484 39.6953H14.2215C14.4719 38.8266 12.5599 38.2268 11.7633 37.4201C13.9484 36.9237 12.6737 35.7241 13.9028 34.9175C13.5387 35.0416 12.3323 34.9175 12.1502 34.752C12.5599 34.5659 10.7617 34.235 12.6054 34.2556L12.5599 34.3177C14.3581 34.1729 13.8801 33.7799 13.9256 33.4904L11.5129 33.449C15.0182 32.6631 10.2382 31.3807 13.3566 30.9464C12.7648 30.7602 12.7648 30.512 12.173 30.3259H13.4704C13.789 29.8088 13.9711 29.5399 13.6525 28.8781L14.5629 29.0022C14.654 28.6299 10.8528 28.5265 10.7617 28.1956L12.6965 28.0921C12.6737 27.451 14.3581 26.7891 12.6054 26.1479C12.8786 26.1479 13.4476 26.1686 13.5159 26.272C13.5614 25.9618 14.8133 25.0931 12.173 25.2172C13.9028 25.2172 12.3323 24.5554 11.5812 24.2037L12.8558 24.2658C11.2397 23.9762 10.7845 23.9556 10.352 23.5419C10.5114 23.4385 11.3763 23.4592 11.0349 23.5833C11.695 23.2523 9.82851 23.3351 10.5114 22.9421L11.3308 23.0869C11.4218 22.7559 10.9894 22.7766 10.0561 22.5905C9.55537 22.3836 10.3748 21.9493 11.5129 21.9079C10.8073 21.8666 9.87404 21.6804 10.2155 21.4736C10.6479 21.4529 10.9211 21.515 11.0576 21.5563C11.9226 20.9979 9.57814 20.729 10.83 20.336C11.2397 20.336 11.4674 20.2947 11.5812 20.274C11.5584 20.7083 11.4901 21.0806 11.3991 21.0393C12.5599 21.0393 12.7648 20.6876 14.3808 20.9565C13.4931 20.667 11.5812 20.1706 12.1274 19.819C12.2412 19.819 12.3551 19.7776 12.5371 19.7776L12.6737 19.819C12.7875 19.7362 12.6737 19.6742 12.4916 19.5915C12.6737 19.488 12.833 19.4053 12.833 19.3019C13.789 19.2605 13.3566 18.8882 13.4021 18.7228C12.1274 18.7228 12.3323 18.4953 11.2625 18.7228C11.3535 18.7021 11.4218 18.7641 11.4674 18.8676C11.5129 18.8882 11.5356 18.9296 11.6039 18.9503C11.5584 18.9503 11.5356 18.9503 11.4901 18.9503C11.5356 19.0744 11.5584 19.2192 11.5812 19.3846C10.9211 19.2398 10.3748 19.0951 11.1032 18.9089C10.2837 18.8262 9.44157 18.7228 9.03186 18.6607C10.8073 18.4125 11.786 17.9368 12.8786 17.8748C12.1502 17.337 12.4006 16.5924 10.0106 16.2408C9.69195 16.096 10.6935 16.0547 11.0804 16.0133C11.3308 16.096 11.2853 16.1995 11.6267 16.2615C11.0121 15.9513 11.3763 15.3515 9.71471 15.2687C10.4658 14.8757 11.2625 15.4962 10.9894 14.9585L11.5129 15.0412C14.1987 13.9864 7.23369 13.3245 10.6707 12.1456C10.4658 12.2283 10.352 12.2697 10.0789 12.2904C11.6039 10.946 8.64491 9.53955 11.0576 8.21585C11.5356 7.84355 10.4658 7.80219 9.64642 7.57468L11.0121 7.49194L9.41881 7.09897C8.25796 6.54053 12.7875 6.14755 10.6024 5.44433L9.66918 5.52707C9.85128 5.27887 9.1229 4.72043 10.1927 4.7618C10.0334 4.74111 9.23671 4.67907 9.71471 4.57565H10.4431L9.21395 3.95516C9.73747 3.47946 12.0592 4.03789 12.2185 3.33468C11.9453 3.0658 10.1244 2.59009 9.64642 2.6935C9.6009 2.79692 9.19119 2.96238 8.48558 2.96238L8.12139 2.71419C6.00456 2.67282 3.84221 2.48668 2.33994 3.0658L3.63735 3.47946L2.61308 3.60355L2.5448 3.25194C1.58881 3.43809 2.43099 3.56219 3.02279 3.70697C2.47651 3.74833 2.08956 3.7897 1.88471 3.87243L3.91049 4.26541C3.09108 4.30677 2.27166 4.07926 1.81642 4.34814C2.74965 4.53428 3.68288 4.16199 4.29744 4.47224C3.34145 4.65838 2.5448 4.61702 3.36421 4.84453C2.81794 4.88589 2.47651 4.84453 2.22613 4.74111C2.88622 4.94794 2.49927 5.27887 3.63735 5.38228C2.45375 5.58911 3.95602 6.06482 1.93023 6.04414C2.40823 6.10619 3.50078 6.39575 3.59183 6.58189C1.1791 6.25097 3.45526 7.28511 0.883198 7.1817C3.04555 7.42989 1.83919 8.09175 3.04555 8.54677C2.86346 8.52609 2.52203 8.46404 2.63584 8.44336C2.45375 8.69155 1.81642 8.77429 1.40671 8.93975C3.18212 8.98111 3.59183 9.37409 4.70715 9.58092C2.97727 9.89116 2.61308 9.39477 0.951482 9.49819C2.40823 9.49819 2.38546 10.0359 3.59183 9.93253C2.52203 10.16 3.06831 10.1394 1.58881 10.2635C3.81945 10.3048 1.97576 10.491 3.34145 10.6771C2.2489 11.0287 1.24738 10.7598 1.93023 11.1321C1.24738 11.3183 0.450727 10.9667 0.450727 10.9667L0.109303 11.0908ZM3.95602 20.0051H3.93326C3.93326 20.0051 3.88773 19.8603 3.86497 19.819C3.86497 19.8603 3.91049 19.9017 3.95602 20.0051ZM3.95602 20.7497C3.95602 20.7497 4.0243 20.5429 4.00154 20.4188C4.43401 20.3981 4.88924 20.4188 4.86648 20.5015C4.57058 20.4601 4.3202 20.6463 3.93326 20.7497H3.95602ZM12.833 19.1571C13.0151 19.2812 12.7648 19.3226 12.4916 19.3226C12.4916 19.2605 12.4233 19.1985 12.3323 19.1157C12.2868 19.1157 12.2185 19.1157 12.173 19.1157C12.4233 19.1157 12.651 19.1364 12.8103 19.1571H12.833Z" fill="#9F5225"/>
<path d="M11.1649 18.9588C11.1649 18.9588 11.0748 18.9367 11.0748 18.9146C10.9622 18.9367 10.8722 18.9588 10.7821 18.9809C10.9172 18.9809 11.0523 19.003 11.1874 19.025C11.1874 19.003 11.1874 18.9809 11.1874 18.9588H11.1649Z" fill="#9F5225"/>
<path d="M9.28137 86.9304H9.30389C9.30389 86.9304 9.21382 86.9304 9.12375 86.9304C9.1913 86.9304 9.21382 86.9304 9.28137 86.9304Z" fill="#9F5225"/>
<path d="M1.52098 31.1156H1.85873L1.56601 31.0493L1.52098 31.1156Z" fill="#9F5225"/>
<path d="M4.88621 91.0675C4.88621 91.0675 4.66104 91.0896 4.57098 91.1337C4.66104 91.1337 4.77363 91.1117 4.88621 91.0675Z" fill="#9F5225"/>
<path d="M4.5852 92.8493L4.13486 93.1048C4.38255 92.9984 4.51765 92.9132 4.5852 92.8493Z" fill="#9F5225"/>
<path d="M3.95763 94.2112C4.18524 94.2112 4.34457 94.2335 4.50391 94.2335H3.93486L3.95763 94.2112Z" fill="#9F5225"/>
<path d="M2.45077 72.4298C2.45077 72.4298 2.42826 72.3857 2.38322 72.3636C2.13554 72.2311 2.22561 72.3194 2.45077 72.4298Z" fill="#9F5225"/>
<path d="M5.43375 78.9156C5.20613 78.8501 4.97852 78.7627 4.81918 78.6972C4.72814 78.8283 4.70538 78.9156 5.43375 78.9156Z" fill="#9F5225"/>
<path d="M0.904309 65.156C0.904309 65.156 0.904309 65.1322 0.904309 65.1084V65.156Z" fill="#9F5225"/>
<path d="M4.86249 78.39C4.61481 78.5154 4.65984 78.599 4.86249 78.7035C4.95256 78.599 5.08766 78.4945 4.86249 78.39Z" fill="#9F5225"/>
<path d="M3.38268 100.183L3.33764 100.249C3.33764 100.249 3.49526 100.249 3.54029 100.249L3.38268 100.161V100.183Z" fill="#9F5225"/>
<path d="M3.52375 100.222L3.68309 100.312C3.68309 100.312 3.68309 100.245 3.52375 100.222Z" fill="#9F5225"/>
<path d="M3.99912 100.481L3.68389 100.325C3.68389 100.325 3.63885 100.459 3.99912 100.481Z" fill="#9F5225"/>
<path d="M3.97409 98.3585H3.52375C3.52375 98.3585 3.77144 98.3585 3.97409 98.3585Z" fill="#9F5225"/>
<path d="M3.84074 97.7953C3.72693 97.9227 2.86199 98.135 3.13513 98.326H3.49932C2.81647 98.2623 4.61464 97.9227 3.84074 97.7953Z" fill="#9F5225"/>
<path d="M9.57683 95.5015L9.21264 95.9685C9.7134 95.8836 10.3735 95.7775 10.4873 95.9898C11.9668 95.3954 9.37197 96.1171 9.57683 95.5015Z" fill="#9F5225"/>
<path d="M10.2793 94.0823C10.5069 94.3407 11.0077 94.0823 11.2808 94.0823C10.8256 93.9101 10.7118 93.8886 10.2793 94.0823Z" fill="#9F5225"/>
<path d="M10.2793 83.7077H11.4402C11.2808 83.5291 10.9849 83.73 10.2793 83.7077Z" fill="#9F5225"/>
<path d="M4.27435 81.7284L3.54598 81.9221L4.61577 82.0082L4.27435 81.7284Z" fill="#9F5225"/>
<path d="M12.5576 80.5451L12.7377 80.6286L12.3099 80.3152L12.5576 80.5451Z" fill="#9F5225"/>
<path d="M12.1494 63.1525L10.7154 63.217C10.9658 63.3458 12.5819 63.3888 12.1494 63.1525Z" fill="#9F5225"/>
<path d="M10.6928 55.6378C11.3984 55.5535 11.8764 55.3428 11.1708 55.2163C11.0797 55.3849 10.5107 55.5535 10.6928 55.6378Z" fill="#9F5225"/>
<path d="M13.0404 33.0999L13.5133 33.2671L13.108 32.9745L13.0404 33.0999Z" fill="#9F5225"/>
<path d="M245.623 105.995C246.01 106.06 246.897 106.017 246.738 105.866L245.236 105.759L245.645 105.995H245.623Z" fill="#9F5225"/>
<path d="M248.397 105.011C247.668 104.845 246.394 104.638 245.005 104.762C246.462 104.928 245.847 104.969 247.577 105.156C247.759 105.301 247.099 105.404 246.53 105.384C246.917 105.425 246.189 105.611 247.145 105.694C248.306 105.508 248.351 105.259 247.395 105.032C247.737 104.969 248.123 105.032 248.397 105.032V105.011Z" fill="#9F5225"/>
<path d="M250.766 90.9717L250.586 91.0601C250.586 91.0601 250.743 90.9938 250.766 90.9717Z" fill="#9F5225"/>
<path d="M251.586 82.2675C251.586 82.2675 251.766 82.3779 251.901 82.3779C251.811 82.3117 251.721 82.2675 251.586 82.2675Z" fill="#9F5225"/>
<path d="M253.246 80.7622C253.246 80.7622 253.178 80.8292 253.155 80.8515C253.292 80.8069 253.36 80.7845 253.246 80.7622Z" fill="#9F5225"/>
<path d="M250.763 90.9702L251.236 90.7362C250.741 90.7362 250.876 90.8638 250.763 90.9702Z" fill="#9F5225"/>
<path d="M244.78 103.086C244.78 103.086 244.983 103.174 245.163 103.218C245.095 103.174 245.05 103.13 245.005 103.086C244.915 103.086 244.848 103.086 244.78 103.086Z" fill="#9F5225"/>
<path d="M251.972 94.8118V94.8788C252.154 94.9011 252.359 94.9234 252.586 94.9458L251.972 94.8118Z" fill="#9F5225"/>
<path d="M252.2 97.7633C252.2 97.7633 250.971 97.673 250.425 97.6279C250.948 97.673 251.199 97.7182 251.312 97.7859C251.563 97.7859 251.836 97.7859 252.223 97.7633H252.2Z" fill="#9F5225"/>
<path d="M249.966 102.42L250.146 102.509C250.146 102.509 250.034 102.442 249.966 102.42Z" fill="#9F5225"/>
<path d="M252.244 92.7039C252.424 92.7039 252.604 92.704 252.694 92.6819C252.537 92.6819 252.379 92.6819 252.244 92.7039Z" fill="#9F5225"/>
<path d="M242.638 10.3088C242.638 10.3088 242.796 10.3088 242.864 10.3088C242.729 10.3088 242.638 10.2867 242.638 10.3088Z" fill="#9F5225"/>
<path d="M248.966 6.89286L249.035 6.93751C249.285 6.93751 249.513 6.93751 249.763 6.93751L248.966 6.87054V6.89286Z" fill="#9F5225"/>
<path d="M254.887 78.0588C254.887 78.0588 254.887 78.0588 254.863 78.0588C255.002 78.1266 254.979 78.104 254.887 78.0588Z" fill="#9F5225"/>
<path d="M253.928 53.0718C252.79 53.3675 252.471 52.607 251.197 53.0295C251.698 52.9873 253.2 53.4309 253.928 53.0718Z" fill="#9F5225"/>
<path d="M244.938 103C244.938 103 244.916 102.914 244.938 102.871C244.894 102.935 244.894 102.957 244.938 103Z" fill="#9F5225"/>
<path d="M251.195 53.0316L251.086 53.0746C251.086 53.0746 251.173 53.0531 251.217 53.0316H251.195Z" fill="#9F5225"/>
<path d="M254.113 71.7917C253.885 71.7917 253.726 71.8364 253.544 71.8587C253.681 71.8587 253.84 71.8587 254.113 71.7917Z" fill="#9F5225"/>
<path d="M252.288 76.4504L252.469 76.3179C252.356 76.3621 252.311 76.4063 252.288 76.4504Z" fill="#9F5225"/>
<path d="M252.311 69.3504C252.311 69.3504 252.581 69.2655 252.424 69.1805C252.356 69.1805 252.311 69.1805 252.266 69.2017C252.446 69.2442 252.514 69.2655 252.311 69.3504Z" fill="#9F5225"/>
<path d="M252.286 66.8252C252.286 66.8252 252.106 66.8694 252.038 66.8694C252.061 66.8915 252.084 66.9356 252.106 66.9577L252.286 66.8252Z" fill="#9F5225"/>
<path d="M243.253 17.9915C243.617 17.927 244.004 17.9055 244.414 17.8625C243.503 17.9055 243.185 17.5184 243.253 17.9915Z" fill="#9F5225"/>
<path d="M245.482 103.093C245.163 103.093 245.004 103.049 244.936 103.004C244.936 103.026 244.981 103.071 245.004 103.093C245.186 103.093 245.368 103.093 245.482 103.093Z" fill="#9F5225"/>
<path d="M242.205 69.2489L242.385 68.8528C242.273 68.957 242.205 69.1029 242.205 69.2489Z" fill="#9F5225"/>
<path d="M243.437 36.0811L243.277 35.9918C243.277 35.9918 243.277 36.0588 243.437 36.0811Z" fill="#9F5225"/>
<path d="M242.205 67.6683C242.66 67.6037 242.911 67.5176 243.093 67.4315C243.002 67.4315 242.911 67.3884 242.751 67.3884L242.205 67.6683Z" fill="#9F5225"/>
<path d="M241.387 15.2245C241.341 15.5968 243.025 15.4107 244.004 15.4934C244.482 15.9484 242.775 15.7002 241.91 15.8657C242.365 16.1553 243.89 16.3621 243.822 16.5896C243.549 16.5896 243.435 16.6517 243.094 16.5896C244.437 16.8998 243.162 17.479 244.846 17.8306C244.687 17.8513 244.55 17.8719 244.437 17.8719C245.279 17.8099 246.144 17.8099 246.736 17.8099C246.758 17.9754 247.805 18.1201 246.69 18.1822C246.713 18.0788 246.28 18.0788 245.939 18.0167L246.417 18.2029C244.846 18.3683 245.871 17.9547 244.71 17.9547C245.233 18.3063 246.531 18.7199 246.076 18.9888C244.528 19.0509 245.552 18.3683 244.186 18.7199L244.778 18.3063C242.343 18.6165 244.937 18.0581 242.343 18.3477C241.887 18.8854 243.139 18.9681 242.684 19.5059C243.549 19.63 243.959 19.4645 244.824 19.5886C246.371 20.3539 240.931 20.1884 243.003 20.7676C244.027 20.9123 245.984 20.9744 244.96 21.3674L243.208 21.2226C243.025 21.7603 245.711 21.5328 244.55 22.0706C243.868 21.9672 243.981 21.6569 243.754 21.7397C242.365 22.0913 244.755 21.9878 244.755 22.2774L243.208 22.3395C243.458 22.8979 244.573 23.5184 244.846 24.1389C244.391 24.0975 243.89 23.9941 243.435 24.1389C244.209 24.9248 243.253 25.8142 242.32 26.5795L243.663 26.869C243.663 26.869 243.048 26.9931 242.798 26.9311C242.297 27.2206 243.64 26.9311 244.164 27.0965C244.255 27.262 243.39 27.324 243.003 27.2206C244.141 27.7377 245.438 28.7098 244.004 29.2476L243.617 29.1441C243.071 29.5785 246.349 29.6198 245.12 30.0335L244.892 29.9508C244.323 30.8815 245.529 31.9157 243.526 32.6189C245.461 32.7637 242.661 33.5289 245.347 33.591C244.027 34.1287 243.549 33.9633 242.638 34.7078C242.525 34.9147 244.323 34.9974 244.596 35.2456H243.185L244.664 35.5765L242.98 35.7627L243.344 35.9902C243.344 35.9902 243.981 35.804 244.368 35.804C245.006 36.1556 243.39 36.6934 242.661 36.6934L243.845 37.5414C243.276 37.5414 243.094 37.3759 242.73 37.2725C244.164 37.7276 241.25 37.3553 242.57 37.7689C242.889 37.7069 243.412 37.7896 243.686 37.8103C242.843 38.0171 242.821 38.4928 243.185 38.8444L242.229 38.7824C241.978 39.4235 242.684 40.1268 242.684 40.83C243.139 40.5818 244.801 40.6232 244.983 40.83L243.503 40.9127C244.414 41.0575 244.072 40.6852 245.188 40.9748C245.006 41.2436 243.503 41.1609 243.025 40.9955L243.549 41.3264C243.116 41.3264 242.866 41.2643 242.297 41.2436C243.208 41.3677 240.818 41.8021 242.411 41.9882H241.978C241.978 42.7121 242.479 43.0431 242.547 43.6222C243.822 43.6222 243.549 43.8704 244.573 44.0358C244.164 44.4702 243.162 44.9252 243.276 45.4423C243.913 45.7939 244.368 45.5457 245.12 45.7112C243.959 45.7318 244.072 46.2489 243.23 45.98C243.412 46.6005 243.458 46.766 244.414 47.5519C244.892 47.4692 245.097 47.3658 245.506 47.4278C245.689 47.5726 245.028 47.7588 244.459 47.7381L244.346 47.6967C246.098 48.5654 240.954 49.7237 243.367 50.4062L243.253 50.3648L244.528 51.0887C244.323 51.4196 243.64 50.8819 242.934 51.1301C244.869 51.916 242.661 52.3504 243.959 52.9916C240.522 53.4879 244.209 54.7496 242.001 55.4321L242.821 55.3908C243.617 55.5562 242.365 55.5976 242.16 55.7217C242.798 55.7217 242.889 55.5356 243.321 55.639C244.3 57.1075 242.138 58.6587 241.409 60.1685C241.182 60.727 245.598 60.4788 243.663 61.182L242.16 60.9752C243.959 62.092 242.092 63.2503 243.617 64.3258C243.276 64.2637 242.821 64.2637 242.821 64.1603C241.728 64.3878 242.775 65.0083 243.663 65.0083C243.572 65.1738 242.866 65.0497 242.411 65.1531C241.774 65.3806 243.799 65.7322 242.73 65.8563C242.547 65.877 242.365 65.7943 242.297 65.7529C242.821 65.8977 242.16 66.4561 243.412 66.3114C242.821 66.725 243.981 67.0973 243.23 67.4076C244.642 67.6144 242.547 68.1108 244.55 68.1728C242.502 68.1521 242.889 68.8967 243.868 69.1449C243.253 69.0622 243.23 69.3724 242.365 69.269C242.388 69.5586 242.775 69.8275 243.845 69.7861C241.387 70.3238 245.825 70.8823 242.661 71.1718C243.777 72.0405 244.528 72.8472 245.006 73.6331C242.957 73.6124 244.801 72.7644 242.638 72.8058C243.481 73.5504 245.256 73.9847 244.755 74.7293C244.482 74.9155 243.868 74.6259 243.503 74.5638C244.346 75.3084 243.321 76.0116 244.437 76.6735C244.255 76.6735 244.027 76.5908 243.89 76.5287C243.959 76.6528 243.594 76.839 244.528 76.8183L244.277 76.6942C245.643 76.4874 247.1 77.2113 247.828 77.2319C245.142 77.0044 247.145 77.8938 243.777 77.5422C243.959 77.6249 244.391 77.7283 245.028 77.7076C244.846 77.8317 244.482 77.8731 243.777 77.749C244.277 78.2247 245.279 78.0593 245.256 78.4729C244.801 78.4729 244.619 78.3902 244.095 78.3488C244.983 78.5557 245.848 78.7832 245.484 79.1348C245.211 79.1141 244.846 79.1348 244.869 79.052C245.006 79.6725 247.214 80.1069 246.371 80.7687C244.414 80.5619 245.734 80.9962 244.027 81.0376L244.528 81.4099L245.347 81.2651C245.324 81.5754 246.553 81.8649 246.007 82.1338L245.302 81.9063L245.62 82.5061L246.258 82.1752C247.123 82.5061 248.397 82.1338 247.942 82.5681C247.76 82.4854 247.942 82.8784 246.918 83.0438C247.464 83.2093 248.033 83.3541 247.601 83.6023C247.054 83.6643 245.711 83.5609 245.37 83.6023C246.781 83.7677 245.757 84.3469 247.282 84.5537C246.918 84.4916 246.03 84.4916 245.848 84.5123L247.009 84.6364C246.645 84.7812 246.462 84.8019 245.757 84.7812C245.552 85.2156 247.919 84.6364 246.986 85.1742C246.895 85.1328 246.713 85.1535 246.553 85.0708C246.075 85.6085 247.282 86.0842 246.713 86.5806C245.006 86.7254 246.303 86.1463 244.846 86.3117C245.165 87.015 246.895 87.7595 246.485 88.4421L246.667 88.318C249.08 88.4214 245.484 88.8144 246.622 89.166C246.44 89.0833 245.279 89.0626 245.552 89.0833C245.165 89.5383 246.144 90.0347 246.895 90.7379L246.28 90.6552C245.734 90.924 245.962 91.3791 245.689 91.6686C246.303 91.7514 246.212 91.9168 247.1 91.8134C243.572 92.7234 248.989 93.5508 246.053 94.3574C246.053 94.254 245.506 94.1299 245.506 94.2126L246.076 94.8952C247.123 94.8331 246.713 94.8124 247.532 94.6676C248.147 94.7504 248.648 94.9572 248.648 95.1227C247.942 94.8124 246.963 95.1227 246.371 95.2675C246.69 95.2468 247.054 95.2881 247.373 95.2675C245.506 95.6191 249.49 95.3295 248.238 95.8259H247.692C247.965 95.9914 248.693 96.1568 248.557 96.343C247.35 96.4257 247.987 96.1568 246.986 96.1361C247.054 96.405 249.285 96.6946 248.079 96.9428C247.737 96.8187 247.737 96.6532 247.396 96.5291C245.962 96.798 246.326 96.8394 246.098 97.0462H246.121L245.484 97.5012L245.871 97.3771C249.035 97.7287 246.44 98.0803 248.534 98.556C246.576 98.101 247.396 98.4733 246.007 98.4526C245.62 98.5767 245.188 98.7629 244.801 98.7008C245.916 98.9283 243.936 99.0731 245.552 99.3834C245.12 99.3834 245.506 99.6109 244.391 99.5695C244.733 99.8591 245.165 99.5074 245.711 99.5281C247.236 99.9625 243.868 100.562 245.962 101.203C246.827 101.762 248.306 101.865 249.057 102.362C248.352 102.527 247.441 102.217 247.441 102.217C246.781 102.486 246.918 102.713 247.418 102.962C247.031 102.899 246.713 102.962 246.212 103.044C246.326 103.251 247.828 103.189 247.168 103.458C246.667 103.417 245.871 103.354 245.393 103.251C245.802 103.499 246.622 103.747 247.031 103.996C246.258 104.058 245.848 103.851 245.347 103.747C245.689 104.037 246.053 104.492 247.282 104.575L247.714 104.389C247.783 104.492 246.667 104.451 246.44 104.368C245.484 104.12 246.872 104.016 247.305 103.996L247.578 104.182C250.173 103.996 247.168 103.437 247.305 103.086L249.194 103.23L247.623 102.858C248.124 102.775 249.171 102.713 249.467 102.899C250.4 102.631 248.784 102.672 249.831 102.444C249.99 102.424 250.082 102.444 250.15 102.444L249.581 102.196C249.968 102.238 250.924 102.155 250.651 102.32C251.743 101.865 249.239 101.576 250.651 101.39L250.764 101.431C250.127 100.79 249.376 101.369 247.737 100.893L251.174 100.562L249.786 100.5C249.786 100.5 249.945 100.293 250.491 100.335C249.535 100.087 249.877 100.376 248.989 100.231C250.264 99.9211 248.397 99.342 250.605 99.2799C249.558 99.1558 249.786 99.5902 249.057 99.2386C251.447 99.1352 248.648 98.8456 249.74 98.556C250.969 98.6388 250.309 98.9283 251.424 98.6388C249.353 98.4733 251.88 98.0803 251.47 97.8321C249.808 97.8321 250.787 97.2944 250.241 96.8807C250.787 96.9014 251.151 96.0948 251.743 95.7225H252.016C250.355 95.6604 250.651 95.2675 250.309 94.9779C251.311 94.9779 251.698 95.0399 252.153 95.2054V94.9365C251.607 94.8745 251.333 94.7917 251.129 94.6056L252.38 94.6676C252.312 94.316 250.901 93.9437 251.743 93.468C250.582 93.4473 248.488 93.8403 247.714 93.3439C248.352 93.3439 249.421 93.3026 249.672 93.4267C249.581 93.3853 249.148 93.2819 249.421 93.1992L250.491 93.3853C250.946 93.1785 249.604 93.2819 249.695 93.0957C250.582 93.0957 250.332 92.9716 251.06 92.9923C251.151 93.0337 250.696 93.1371 251.06 93.1992C251.22 93.013 251.766 92.7855 252.426 92.7028C251.925 92.7028 251.22 92.7028 251.106 92.558C251.038 92.2064 252.198 92.4339 252.654 92.2271C252.039 92.1443 252.654 91.9168 251.333 91.8961C251.333 91.7927 251.971 91.772 252.335 91.7307C251.743 91.5445 252.176 90.862 250.742 91.0688L250.651 91.1102C250.651 91.1102 250.628 91.1102 250.582 91.0895C249.239 90.469 251.333 89.8278 250.764 89.2074H251.22C250.696 88.8557 250.924 88.4007 249.945 88.1525C249.945 88.0491 250.764 87.9043 251.311 87.9457C250.969 87.6768 250.468 87.6355 251.22 87.2425C251.994 87.5114 251.925 87.1391 251.789 87.532C252.176 87.1804 252.904 87.0977 251.675 86.7047C252.836 86.8288 253.132 86.4358 252.79 86.2704L251.971 86.5186C251.811 86.3324 251.902 86.167 251.994 85.9808L253.519 86.0636C255.362 85.319 250.377 84.7398 253.473 84.1814C252.403 83.9953 252.722 84.5744 251.493 84.4089C251.698 84.078 253.86 83.7264 253.883 83.6023C254.725 83.1473 251.675 83.1679 252.244 82.6922C251.698 82.7543 250.264 82.8163 249.763 82.444C249.968 82.1131 252.039 82.0304 252.472 82.2372C252.517 82.3199 252.335 82.3613 252.153 82.3613C252.358 82.4647 252.585 82.6095 253.177 82.4854L252.631 82.444C253.177 82.2786 253.132 81.8029 254.019 81.927C253.496 81.6788 253.132 81.8236 252.858 82.0097C253.632 81.5754 252.881 81.3272 253.405 80.8928C253.109 80.9549 252.472 81.0376 252.472 80.9549C253.132 80.293 251.447 80.6653 251.22 80.231C252.039 79.9828 253.177 80.3137 252.494 79.8794C253.063 79.6105 253.928 79.8173 254.361 79.9207C253.314 79.5071 255.044 79.1555 255.226 78.9279L255.658 79.1348C255.408 79.0107 255.408 78.9073 255.408 78.8038L254.338 78.9279C254.52 78.8038 254.543 78.7004 254.975 78.7004C254.27 78.5763 253.177 78.8038 252.221 78.535C252.767 78.3695 251.629 78.0179 253.063 77.9558C252.585 78.4936 254.497 77.8938 254.725 78.3488C254.543 78.2661 254.566 78.1627 254.748 78.0386C254.907 78.0386 255.044 78.0386 255.135 78.1006C256.409 77.6042 253.519 77.8731 253.541 77.3354C254.361 77.3974 255.066 77.2113 254.907 77.1285C254.907 77.3354 253.564 77.2319 252.949 77.0458C253.587 76.7149 252.471 76.6735 252.563 76.508L252.267 76.7149C251.47 76.6528 251.561 76.4874 251.311 76.2392C251.948 76.2392 251.743 76.446 252.016 76.3633C250.605 76.0944 253.496 75.7841 252.54 75.4118C253.086 75.2464 254.065 75.4118 254.429 75.2464C253.382 74.8327 255.544 74.812 254.679 74.3777C253.587 74.5018 253.86 74.5225 252.79 74.2122L253.564 74.9155L251.994 74.4604C251.994 74.6673 252.676 74.9155 252.494 75.0396C251.607 74.8327 251.88 74.8534 250.969 74.9568C252.608 74.6673 250.013 74.3777 251.129 74.0468H253.814C255.021 73.5504 252.426 73.1574 253.109 72.4956L252.631 72.7024C251.561 72.6197 252.472 72.2887 252.039 72.0819C252.927 72.0819 253.268 71.9785 253.814 71.8751C253.154 71.8751 253.883 71.3994 252.085 71.3373L253.268 71.0477C253.746 70.51 250.719 70.4479 251.015 69.9309C251.994 70.0757 252.631 69.8481 253.336 70.1997C253.336 70.0343 253.519 69.8688 252.881 69.8688C253.45 69.7654 251.675 69.3931 252.517 69.2483C252.13 69.1863 251.174 69.1449 251.265 68.9588C251.447 68.9381 251.72 68.9588 251.72 68.9588C251.265 68.9588 251.106 68.6692 250.127 68.8347C252.927 68.3176 249.922 67.3662 252.335 66.9112C252.039 66.5389 251.743 66.1045 251.675 65.7529C251.948 65.7736 252.13 65.7529 252.039 65.815C252.881 65.3599 249.467 65.5254 250.4 65.0083C251.857 64.7395 251.197 65.2979 251.743 65.1117C254.702 65.029 251.333 64.4706 253.063 64.119L253.245 64.2017C254.247 63.9328 252.13 63.5398 252.335 63.1055C252.335 63.1055 252.585 63.1262 252.79 63.1055C251.288 62.7953 250.787 62.2368 250.355 61.8025C251.516 61.9266 250.969 61.9886 252.153 61.9059C251.994 61.7197 250.264 61.9679 249.945 61.575C250.582 61.4509 251.129 61.182 252.38 61.1406L252.449 61.4922C254.065 61.3061 252.403 61.0165 252.676 60.8304H253.382C253.154 60.2926 251.356 60.2926 251.493 59.6928L250.946 59.7549C249.171 59.4239 251.948 59.486 250.628 59.1551L252.426 59.0516C251.994 58.8448 250.696 58.3071 250.355 57.9141C251.698 58.1416 252.358 58.5759 253.154 58.8655C253.154 58.6587 253.018 58.1416 252.13 58.0382C252.312 58.1209 252.745 58.2243 252.472 58.3071C251.06 58.0382 250.355 57.7073 250.4 57.2729C253.883 57.3557 251.288 56.1767 253.974 55.8665C252.676 55.1219 254.52 54.3773 254.315 53.5086C251.607 53.8189 254.247 53.2604 251.447 53.3018C251.265 53.095 251.311 53.0122 251.493 53.0122L253.154 52.3917C253.974 52.247 253.769 52.5779 254.383 52.5572C254.588 52.1229 255.567 52.3711 256.295 52.0815C255.294 52.1436 254.861 51.9367 255.248 51.6678L253.974 52.0195C252.494 51.399 256.318 51.4817 254.839 50.8612L255.704 51.068C255.18 50.7371 255.704 49.8891 253.496 49.5789C253.814 49.5168 254.588 49.4548 254.77 49.5789C255.112 48.8136 252.38 47.8622 253.769 47.2831L254.452 47.3451C254.247 47.2003 253.177 47.0969 253.86 46.9108C254.133 46.9108 254.543 46.9728 254.588 46.9108C254.361 46.828 253.405 46.5385 253.792 46.3316L254.566 46.4971C255.453 45.7525 252.699 45.3389 252.244 44.7184C254.247 44.7184 254.907 44.1393 255.226 43.829H255.499C255.749 42.9603 253.837 42.3605 253.041 41.5539C255.226 41.0575 253.951 39.8579 255.18 39.0513C254.816 39.1754 253.61 39.0513 253.427 38.8858C253.837 38.6996 252.039 38.3687 253.883 38.3894L253.837 38.4515C255.635 38.3067 255.157 37.9137 255.203 37.6241L252.79 37.5828C256.295 36.7968 251.516 35.5145 254.634 35.0801C254.042 34.894 254.042 34.6458 253.45 34.4596H254.748C255.066 33.9426 255.248 33.6737 254.93 33.0118L255.84 33.1359C255.931 32.7637 252.13 32.6602 252.039 32.3293L253.974 32.2259C253.951 31.5847 255.635 30.9229 253.883 30.2817C254.156 30.2817 254.725 30.3024 254.793 30.4058C254.839 30.0956 256.091 29.2269 253.45 29.351C255.18 29.351 253.61 28.6891 252.858 28.3375L254.133 28.3996C252.517 28.11 252.062 28.0893 251.629 27.6756C251.789 27.5722 252.654 27.5929 252.312 27.717C252.972 27.3861 251.106 27.4688 251.789 27.0758L252.608 27.2206C252.699 26.8897 252.267 26.9104 251.333 26.7242C250.833 26.5174 251.652 26.0831 252.79 26.0417C252.085 26.0003 251.151 25.8142 251.493 25.6074C251.925 25.5867 252.198 25.6487 252.335 25.6901C253.2 25.1316 250.855 24.8628 252.107 24.4698C252.517 24.4698 252.745 24.4284 252.858 24.4077C252.836 24.8421 252.767 25.2144 252.676 25.173C253.837 25.173 254.042 24.8214 255.658 25.0903C254.77 24.8007 252.858 24.3043 253.405 23.9527C253.519 23.9527 253.632 23.9114 253.814 23.9114L253.951 23.9527C254.065 23.87 253.951 23.8079 253.769 23.7252C253.951 23.6218 254.11 23.5391 254.11 23.4356C255.066 23.3943 254.634 23.022 254.679 22.8565C253.405 22.8565 253.61 22.629 252.54 22.8565C252.631 22.8358 252.699 22.8979 252.745 23.0013C252.79 23.022 252.813 23.0634 252.881 23.084C252.836 23.084 252.813 23.084 252.767 23.084C252.813 23.2081 252.836 23.3529 252.858 23.5184C252.198 23.3736 251.652 23.2288 252.38 23.0427C251.561 22.9599 250.719 22.8565 250.309 22.7945C252.085 22.5463 253.063 22.0706 254.156 22.0085C253.428 21.4708 253.678 20.7262 251.288 20.3746C250.969 20.2298 251.971 20.1884 252.358 20.1471C252.608 20.2298 252.563 20.3332 252.904 20.3953C252.289 20.085 252.654 19.4852 250.992 19.4025C251.743 19.0095 252.54 19.63 252.267 19.0922L252.79 19.175C255.476 18.1201 248.511 17.4583 251.948 16.2794C251.743 16.3621 251.629 16.4035 251.356 16.4241C252.881 15.0797 249.922 13.6733 252.335 12.3496C252.813 11.9773 251.743 11.9359 250.924 11.7084L252.289 11.6257L250.696 11.2327C249.535 10.6743 254.065 10.2813 251.88 9.57809L250.946 9.66082C251.129 9.41263 250.4 8.85419 251.47 8.89555C251.311 8.87487 250.514 8.81282 250.992 8.70941H251.72L250.491 8.08892C251.015 7.61321 253.336 8.17165 253.496 7.46843C253.223 7.19955 251.402 6.72385 250.924 6.82726C250.878 6.93068 250.468 7.09614 249.763 7.09614L249.399 6.84794C247.282 6.80658 245.12 6.62043 243.617 7.19955L244.915 7.61321L243.89 7.73731L243.822 7.3857C242.866 7.57185 243.708 7.69594 244.3 7.84072C243.754 7.88209 243.367 7.92346 243.162 8.00619L245.188 8.39916C244.368 8.44053 243.549 8.21302 243.094 8.48189C244.027 8.66804 244.96 8.29575 245.575 8.60599C244.619 8.79214 243.822 8.75077 244.642 8.97828C244.095 9.01965 243.754 8.97828 243.503 8.87487C244.164 9.0817 243.777 9.41263 244.915 9.51604C243.731 9.72287 245.233 10.1986 243.208 10.1779C243.686 10.2399 244.778 10.5295 244.869 10.7157C242.456 10.3847 244.733 11.4189 242.16 11.3155C244.323 11.5637 243.116 12.2255 244.323 12.6805C244.141 12.6598 243.799 12.5978 243.913 12.5771C243.731 12.8253 243.094 12.908 242.684 13.0735C244.459 13.1149 244.869 13.5078 245.984 13.7147C244.255 14.0249 243.89 13.5285 242.229 13.6319C243.686 13.6319 243.663 14.1697 244.869 14.0663C243.799 14.2938 244.346 14.2731 242.866 14.3972C245.097 14.4386 243.253 14.6247 244.619 14.8109C243.526 15.1625 242.525 14.8936 243.208 15.2659C242.525 15.452 241.728 15.1004 241.728 15.1004L241.387 15.2245ZM245.233 24.1389H245.211C245.211 24.1389 245.165 23.9941 245.142 23.9527C245.142 23.9941 245.188 24.0355 245.233 24.1389ZM245.233 24.8835C245.233 24.8835 245.302 24.6766 245.279 24.5525C245.711 24.5318 246.167 24.5525 246.144 24.6353C245.848 24.5939 245.598 24.78 245.211 24.8835H245.233ZM254.11 23.2909C254.292 23.415 254.042 23.4563 253.769 23.4563C253.769 23.3943 253.701 23.3322 253.61 23.2495C253.564 23.2495 253.496 23.2495 253.45 23.2495C253.701 23.2495 253.928 23.2702 254.088 23.2909H254.11Z" fill="#9F5225"/>
<path d="M252.444 23.0923C252.444 23.0923 252.353 23.0702 252.353 23.0481C252.241 23.0702 252.151 23.0923 252.061 23.1144C252.196 23.1144 252.331 23.1365 252.466 23.1585C252.466 23.1365 252.466 23.1144 252.466 23.0923H252.444Z" fill="#9F5225"/>
<path d="M250.56 91.0639H250.582C250.582 91.0639 250.492 91.0639 250.402 91.0639C250.47 91.0639 250.492 91.0639 250.56 91.0639Z" fill="#9F5225"/>
<path d="M242.797 35.2491H243.135L242.842 35.1828L242.797 35.2491Z" fill="#9F5225"/>
<path d="M246.162 95.201C246.162 95.201 245.937 95.2231 245.847 95.2672C245.937 95.2672 246.049 95.2451 246.162 95.201Z" fill="#9F5225"/>
<path d="M245.864 96.9828L245.413 97.2383C245.661 97.1319 245.796 97.0467 245.864 96.9828Z" fill="#9F5225"/>
<path d="M245.233 98.3447C245.461 98.3447 245.62 98.3671 245.78 98.3671H245.211L245.233 98.3447Z" fill="#9F5225"/>
<path d="M243.729 76.5633C243.729 76.5633 243.707 76.5192 243.662 76.4971C243.414 76.3646 243.504 76.4529 243.729 76.5633Z" fill="#9F5225"/>
<path d="M246.712 83.0491C246.485 82.9836 246.257 82.8962 246.098 82.8307C246.007 82.9617 245.984 83.0491 246.712 83.0491Z" fill="#9F5225"/>
<path d="M242.183 69.2895C242.183 69.2895 242.183 69.2657 242.183 69.2419V69.2895Z" fill="#9F5225"/>
<path d="M246.141 82.5235C245.893 82.6489 245.938 82.7325 246.141 82.837C246.231 82.7325 246.366 82.628 246.141 82.5235Z" fill="#9F5225"/>
<path d="M244.664 104.316L244.619 104.383C244.619 104.383 244.777 104.383 244.822 104.383L244.664 104.294V104.316Z" fill="#9F5225"/>
<path d="M244.8 104.356L244.959 104.445C244.959 104.445 244.959 104.378 244.8 104.356Z" fill="#9F5225"/>
<path d="M245.278 104.614L244.963 104.458C244.963 104.458 244.917 104.592 245.278 104.614Z" fill="#9F5225"/>
<path d="M245.25 102.492H244.8C244.8 102.492 245.047 102.492 245.25 102.492Z" fill="#9F5225"/>
<path d="M245.119 101.929C245.006 102.056 244.141 102.268 244.414 102.46H244.778C244.095 102.396 245.893 102.056 245.119 101.929Z" fill="#9F5225"/>
<path d="M250.855 99.635L250.491 100.102C250.992 100.017 251.652 99.911 251.766 100.123C253.245 99.5289 250.651 100.251 250.855 99.635Z" fill="#9F5225"/>
<path d="M251.561 98.2159C251.788 98.4742 252.289 98.2159 252.562 98.2159C252.107 98.0436 251.993 98.0221 251.561 98.2159Z" fill="#9F5225"/>
<path d="M251.561 87.8412H252.722C252.562 87.6626 252.266 87.8635 251.561 87.8412Z" fill="#9F5225"/>
<path d="M245.553 85.8619L244.825 86.0556L245.894 86.1417L245.553 85.8619Z" fill="#9F5225"/>
<path d="M253.836 84.6786L254.016 84.7621L253.588 84.4487L253.836 84.6786Z" fill="#9F5225"/>
<path d="M253.428 67.286L251.994 67.3505C252.244 67.4793 253.86 67.5223 253.428 67.286Z" fill="#9F5225"/>
<path d="M251.969 59.7713C252.674 59.687 253.152 59.4763 252.447 59.3498C252.356 59.5184 251.787 59.687 251.969 59.7713Z" fill="#9F5225"/>
<path d="M254.316 37.2334L254.789 37.4006L254.384 37.108L254.316 37.2334Z" fill="#9F5225"/>
<path d="M248.647 101.222C248.761 100.87 248.692 100.063 248.351 100.208L248.101 101.574L248.624 101.202L248.647 101.222Z" fill="#9F5225"/>
<path d="M246.326 98.6953C245.916 99.358 245.461 100.518 245.711 101.781C246.121 100.455 246.212 101.015 246.644 99.4408C246.986 99.2751 247.236 99.8757 247.191 100.393C247.304 100.041 247.714 100.704 247.919 99.8343C247.464 98.7781 246.917 98.7367 246.326 99.6065C246.189 99.2958 246.326 98.9438 246.348 98.6953H246.326Z" fill="#9F5225"/>
<path d="M212.773 96.5551L212.976 96.7251C212.976 96.7251 212.84 96.5763 212.773 96.5551Z" fill="#9F5225"/>
<path d="M191.99 95.8134C192.148 95.7716 192.215 95.6462 192.215 95.5208C192.08 95.6044 191.945 95.688 191.99 95.8134Z" fill="#9F5225"/>
<path d="M188.44 94.3019C188.44 94.3019 188.575 94.3689 188.642 94.4136C188.552 94.2796 188.485 94.2126 188.44 94.3019Z" fill="#9F5225"/>
<path d="M212.776 96.5675L212.23 96.125C212.184 96.5886 212.526 96.4622 212.776 96.5675Z" fill="#9F5225"/>
<path d="M241.703 101.999C241.816 101.936 241.906 101.811 241.996 101.645C241.906 101.707 241.816 101.749 241.726 101.79C241.726 101.874 241.726 101.936 241.726 101.999H241.703Z" fill="#9F5225"/>
<path d="M222.105 95.4476C222.151 95.2782 222.196 95.0875 222.242 94.8757L221.923 95.4476H222.105Z" fill="#9F5225"/>
<path d="M228.979 95.2241C228.82 95.1827 228.774 96.3423 228.706 96.8393C228.797 96.363 228.911 96.1352 229.048 96.0317C229.048 95.8039 229.048 95.5554 228.979 95.2034V95.2241Z" fill="#9F5225"/>
<path d="M240.131 97.278L240.334 97.1081C240.334 97.1081 240.199 97.2143 240.131 97.278Z" fill="#9F5225"/>
<path d="M216.918 95.1799C216.918 95.0132 216.873 94.8464 216.851 94.7631C216.851 94.909 216.873 95.0549 216.918 95.1799Z" fill="#9F5225"/>
<path d="M20.2067 103.939C20.2067 103.939 20.2067 103.788 20.2067 103.723C20.1616 103.853 20.1616 103.939 20.2067 103.939Z" fill="#9F5225"/>
<path d="M12.0618 98.1605L12.1756 98.0984C12.1756 97.8706 12.1983 97.6635 12.1983 97.4358L12.0618 98.1605Z" fill="#9F5225"/>
<path d="M181.953 92.8184C181.953 92.8184 181.953 92.8183 181.976 92.8407C182.159 92.7066 182.045 92.729 181.953 92.8184Z" fill="#9F5225"/>
<path d="M122.32 93.6571C123.002 94.6925 121.227 94.9824 122.229 96.1421C122.138 95.6865 123.162 94.3198 122.32 93.6571Z" fill="#9F5225"/>
<path d="M241.518 101.849C241.518 101.849 241.338 101.871 241.226 101.849C241.361 101.893 241.451 101.893 241.518 101.849Z" fill="#9F5225"/>
<path d="M122.251 96.1352L122.36 96.2642C122.316 96.2212 122.294 96.1782 122.251 96.1352Z" fill="#9F5225"/>
<path d="M166.978 93.5137C167.001 93.726 167.069 93.8746 167.138 94.0445C167.138 93.9171 167.092 93.7685 166.978 93.5137Z" fill="#9F5225"/>
<path d="M178.126 95.1788L177.856 95.0088C177.969 95.115 178.059 95.1575 178.126 95.1788Z" fill="#9F5225"/>
<path d="M161.192 95.1471C161.034 95.0601 160.989 94.8861 160.787 95.0383C160.787 95.1036 160.832 95.1471 160.854 95.1906C160.922 95.0166 161.034 94.9513 161.192 95.1471Z" fill="#9F5225"/>
<path d="M155.165 95.1419C155.165 95.1419 155.232 95.3121 155.277 95.3759C155.345 95.3547 155.412 95.3334 155.457 95.3121L155.165 95.1419Z" fill="#9F5225"/>
<path d="M38.5334 103.387C38.3968 103.055 38.3285 102.703 38.2603 102.331C38.3513 103.159 37.4636 103.449 38.5334 103.387Z" fill="#9F5225"/>
<path d="M241.702 101.327C241.657 101.624 241.611 101.773 241.52 101.837C241.588 101.837 241.657 101.794 241.725 101.773C241.725 101.603 241.725 101.433 241.725 101.327H241.702Z" fill="#9F5225"/>
<path d="M160.948 104.305L159.992 104.133C160.265 104.24 160.607 104.305 160.948 104.305Z" fill="#9F5225"/>
<path d="M81.7536 103.211L81.5284 103.368C81.5284 103.368 81.6861 103.368 81.7536 103.211Z" fill="#9F5225"/>
<path d="M157.144 104.306C156.962 103.891 156.803 103.664 156.598 103.498C156.552 103.581 156.507 103.664 156.484 103.809L157.144 104.306Z" fill="#9F5225"/>
<path d="M31.9317 105.076C32.8422 105.117 32.3642 103.586 32.5463 102.697C33.6389 102.263 33.0471 103.814 33.4113 104.6C34.0941 104.186 34.6176 102.8 35.1184 102.862C35.1639 103.111 35.2549 103.214 35.1184 103.524C35.8467 102.304 37.258 103.462 38.1001 101.932C38.1684 102.077 38.1912 102.201 38.214 102.304C38.0774 101.539 38.0546 100.753 38.0774 100.215C38.4871 100.194 38.8285 99.243 38.9879 100.256C38.7375 100.236 38.7147 100.629 38.6009 100.939L39.0334 100.505C39.4203 101.932 38.4416 101.001 38.4416 102.056C39.2838 101.58 40.2397 100.401 40.8998 100.815C41.0364 102.221 39.3976 101.291 40.2625 102.532L39.261 101.994C40.0121 104.207 38.6692 101.849 39.352 104.207C40.6495 104.621 40.8088 103.483 42.1062 103.897C42.4021 103.111 42.0151 102.738 42.3111 101.952C44.1547 100.546 43.7678 105.489 45.1335 103.607C45.4749 102.676 45.6115 100.898 46.5902 101.828L46.2716 103.421C47.5235 103.586 46.9999 101.146 48.3201 102.201C48.0925 102.821 47.3186 102.718 47.5235 102.925C48.3884 104.186 48.138 102.014 48.7981 102.014L48.9347 103.421C50.2776 103.193 51.7571 102.18 53.2366 101.932C53.1456 102.345 52.8952 102.78 53.2366 103.214C55.1031 102.511 57.2427 103.38 59.0636 104.228L59.7465 103.007C59.9058 103.007 60.0424 103.566 59.8603 103.793C60.5659 104.248 59.9058 103.028 60.2472 102.552C60.6569 102.469 60.7707 103.255 60.5203 103.607C61.7722 102.573 64.0712 101.394 65.3686 102.697L65.1182 103.049C66.1425 103.545 66.279 100.567 67.2123 101.684L67.0302 101.89C69.2381 102.407 71.6963 101.311 73.3807 103.131C73.6993 101.373 75.5658 103.917 75.7251 101.477C76.9998 102.676 76.6356 103.111 78.411 103.938C78.889 104.041 79.1166 102.407 79.7084 102.159V103.442L80.5278 102.097L80.9603 103.628L81.5066 103.297C81.279 103.214 81.0286 102.718 81.0741 102.366C81.939 101.787 83.1682 103.255 83.1909 103.917L85.2395 102.842C85.194 103.359 84.8525 103.524 84.5794 103.855C85.6719 102.552 84.7842 105.2 85.7858 104C85.6492 103.71 85.854 103.235 85.8768 102.987C86.3776 103.752 87.5156 103.773 88.3351 103.442L88.1757 104.31C89.678 104.538 91.3624 103.897 93.0695 103.897C92.4549 103.483 92.5915 101.973 93.0922 101.808L93.2971 103.152C93.6158 102.325 92.7736 102.635 93.4337 101.621C94.071 101.787 93.8661 103.152 93.5019 103.586L94.2758 103.111C94.3214 103.504 94.1393 103.731 94.0938 104.248C94.4124 103.421 95.4367 105.593 95.8919 104.145L95.9374 104.538C97.6446 104.538 98.3957 104.083 99.7842 104.021C99.8069 102.862 100.353 103.111 100.763 102.18C101.787 102.552 102.902 103.462 104.132 103.359C104.997 102.78 104.382 102.366 104.769 101.684C104.837 102.738 106.066 102.635 105.429 103.4C106.909 103.235 107.295 103.193 109.162 102.325C108.957 101.89 108.729 101.704 108.843 101.332C109.185 101.166 109.617 101.766 109.572 102.283L109.481 102.387C111.575 100.794 114.306 105.469 115.968 103.276L115.877 103.38L117.607 102.221C118.403 102.407 117.129 103.028 117.72 103.669C119.587 101.911 120.657 103.917 122.182 102.738C123.365 105.861 126.392 102.511 127.986 104.517L127.895 103.773C128.304 103.049 128.396 104.186 128.691 104.372C128.646 103.793 128.236 103.71 128.509 103.317C132.015 102.428 135.748 104.393 139.321 105.055C140.641 105.262 140.072 101.249 141.711 103.007L141.233 104.372C143.873 102.738 146.65 104.434 149.245 103.028C149.086 103.338 149.086 103.752 148.835 103.752C149.382 104.745 150.861 103.793 150.861 102.987C151.271 103.069 150.952 103.71 151.203 104.124C151.749 104.703 152.591 102.862 152.864 103.835C152.91 104 152.705 104.165 152.614 104.228C152.978 103.752 154.275 104.352 153.934 103.214C154.913 103.752 155.801 102.697 156.574 103.38C157.075 102.097 158.236 104 158.395 102.18C158.327 104.041 160.102 103.69 160.717 102.8C160.512 103.359 161.263 103.38 161.013 104.165C161.719 104.145 162.356 103.793 162.242 102.821C163.539 105.055 164.837 101.022 165.565 103.897C167.659 102.883 169.594 102.201 171.461 101.766C171.392 103.628 169.389 101.952 169.457 103.917C171.233 103.152 172.257 101.539 174.033 101.994C174.488 102.242 173.782 102.8 173.623 103.131C175.398 102.366 177.06 103.297 178.653 102.283C178.653 102.449 178.471 102.656 178.312 102.78C178.63 102.718 179.04 103.049 178.995 102.201L178.699 102.428C178.198 101.187 179.928 99.8634 179.996 99.2016C179.473 101.642 181.567 99.8221 180.725 102.883C180.929 102.718 181.18 102.325 181.134 101.746C181.43 101.911 181.544 102.242 181.225 102.883C182.341 102.428 181.954 101.518 182.955 101.539C182.955 101.952 182.75 102.118 182.636 102.594C183.16 101.787 183.661 101.001 184.526 101.332C184.48 101.58 184.571 101.911 184.321 101.89C185.8 101.766 186.825 99.76 188.441 100.525C187.963 102.304 188.987 101.104 189.078 102.656L189.943 102.201L189.602 101.456C190.353 101.477 191.036 100.36 191.696 100.856L191.127 101.497L192.561 101.208L191.764 100.629C192.538 99.8428 191.673 98.6845 192.697 99.0982C192.492 99.2636 193.448 99.0982 193.858 100.029C194.245 99.5325 194.609 99.0154 195.178 99.4084C195.315 99.9048 195.064 101.125 195.178 101.435C195.542 100.153 196.954 101.084 197.432 99.698C197.272 100.029 197.272 100.836 197.318 101.001L197.636 99.9462C197.978 100.277 198.046 100.443 197.978 101.084C199.025 101.27 197.636 99.1189 198.888 99.9669C198.797 100.05 198.843 100.215 198.638 100.36C199.89 100.794 201.073 99.698 202.234 100.215C202.576 101.766 201.233 100.587 201.62 101.911C203.281 101.621 205.079 100.05 206.696 100.422L206.4 100.256C206.627 98.064 207.606 101.332 208.425 100.298C208.221 100.463 208.152 101.518 208.221 101.27C209.336 101.621 210.474 100.732 212.158 100.05L211.953 100.608C212.614 101.104 213.683 100.898 214.366 101.146C214.571 100.587 214.981 100.67 214.73 99.8634C216.893 103.069 218.873 98.1468 220.808 100.815C220.58 100.815 220.261 101.311 220.444 101.311L222.082 100.794C221.946 99.8428 221.878 100.215 221.513 99.4705C221.718 98.912 222.196 98.457 222.583 98.457C221.855 99.0982 222.583 99.9875 222.902 100.525C222.856 100.236 222.947 99.9048 222.925 99.6152C223.79 101.311 223.061 97.6917 224.245 98.8293L224.176 99.3257C224.609 99.0775 225.019 98.4156 225.497 98.5397C225.701 99.6359 225.019 99.0568 224.996 99.9669C225.656 99.9048 226.316 97.8779 226.908 98.9741C226.635 99.2843 226.225 99.2843 225.929 99.5946C226.589 100.898 226.657 100.567 227.135 100.773H227.09L228.205 101.332L227.909 100.98C228.752 98.1054 229.594 100.463 230.732 98.5604C229.639 100.339 230.55 99.5946 230.459 100.856C230.755 101.208 231.187 101.601 231.05 101.952C231.574 100.939 231.938 102.738 232.689 101.27C232.712 101.663 233.258 101.311 233.145 102.325C233.827 102.014 232.985 101.621 233.031 101.125C234.101 99.7394 235.535 102.8 237.06 100.898C238.38 100.112 238.607 98.7672 239.836 98.0847C240.246 98.7259 239.495 99.5532 239.495 99.5532C240.155 100.153 240.656 100.029 241.293 99.5739C241.157 99.9255 241.293 100.215 241.498 100.67C241.999 100.567 241.839 99.2016 242.5 99.8014C242.386 100.256 242.249 100.98 241.999 101.415C242.591 101.042 243.182 100.298 243.797 99.9255C243.956 100.629 243.433 101.001 243.205 101.456C243.888 101.146 244.981 100.815 245.208 99.698L244.776 99.305C245.026 99.243 244.912 100.256 244.73 100.463C244.138 101.332 243.888 100.07 243.842 99.6773L244.275 99.4291C243.82 97.0713 242.522 99.8014 241.635 99.6773L241.999 97.9606L241.088 99.3877C240.906 98.9327 240.77 97.9813 241.202 97.7124C240.565 96.8644 240.633 98.3329 240.11 97.3815C240.041 97.2367 240.087 97.154 240.11 97.0919L239.495 97.609C239.609 97.2574 239.404 96.3887 239.768 96.6369C238.653 95.6441 237.993 97.9192 237.56 96.6369L237.651 96.5335C236.126 97.1126 237.492 97.7951 236.354 99.2843L235.58 96.1612L235.421 97.4229C235.261 97.3815 234.943 97.2781 235.011 96.7817C234.419 97.6504 235.102 97.3401 234.761 98.1468C234.009 96.9885 232.667 98.6845 232.484 96.6783C232.211 97.6297 233.213 97.4229 232.393 98.0847C232.166 95.913 231.46 98.457 230.755 97.4642C230.959 96.3473 231.619 96.9471 230.937 95.9337C230.527 97.8158 229.571 95.52 229.002 95.8923C228.979 97.4022 227.727 96.5128 226.749 97.0092C226.817 96.5128 224.905 96.1819 223.972 95.6441V95.3959C223.812 96.9058 222.879 96.6369 222.196 96.9472C222.219 96.0371 222.356 95.6855 222.72 95.2718H222.082C221.923 95.7682 221.718 96.0164 221.308 96.2026L221.468 95.065C220.603 95.1271 219.738 96.4094 218.623 95.6441C218.554 96.699 219.51 98.6018 218.327 99.305C218.281 98.7259 218.236 97.7538 218.554 97.5263C218.463 97.609 218.19 98.002 217.985 97.7538L218.463 96.7817C217.963 96.368 218.19 97.5883 217.803 97.5056C217.803 96.699 217.507 96.9265 217.553 96.2646C217.667 96.1819 217.894 96.5955 218.054 96.2646C217.598 96.1198 217.052 95.6234 216.87 95.0236C216.915 95.4787 216.87 96.1198 216.529 96.2232C215.664 96.2853 216.233 95.2511 215.732 94.8168C215.527 95.3752 214.981 94.8168 214.958 96.0164C214.708 96.0164 214.662 95.4373 214.571 95.1064C214.116 95.6441 212.5 95.2511 213 96.5542L213.114 96.6369C213.114 96.6369 213.069 96.6576 213.046 96.699C211.589 97.9192 210.019 96.0164 208.562 96.5335V96.1198C207.697 96.5955 206.65 96.3887 206.013 97.2781C205.762 97.2781 205.398 96.5335 205.512 96.0371C204.852 96.3473 204.784 96.8024 203.828 96.1198C204.488 95.4166 203.6 95.4787 204.51 95.6028C203.645 95.2512 203.463 94.5893 202.53 95.7062C202.849 94.6513 201.893 94.3825 201.483 94.6927L202.075 95.4373C201.62 95.5821 201.21 95.4993 200.8 95.4166L201.028 94.0309C199.275 92.3555 197.864 96.8851 196.521 94.0722C196.066 95.0443 197.477 94.7548 197.067 95.8716C196.248 95.6855 195.406 93.7206 195.155 93.6999C194.04 92.9347 194.131 95.7062 192.97 95.1891C193.13 95.6855 193.266 96.9885 192.401 97.4435C191.582 97.2574 191.4 95.3752 191.923 94.9823C192.128 94.9409 192.219 95.1064 192.196 95.2718C192.447 95.0857 192.811 94.8789 192.469 94.3411L192.356 94.8375C191.946 94.3411 190.831 94.3825 191.104 93.5758C190.489 94.0515 190.853 94.3825 191.286 94.6307C190.239 93.9274 189.67 94.61 188.6 94.1343C188.759 94.4031 188.919 94.9823 188.759 94.9823C187.189 94.3825 188.077 95.913 187.007 96.1198C186.415 95.3752 187.212 94.3411 186.165 94.9616C185.504 94.4652 186.028 93.6586 186.278 93.2656C185.3 94.217 184.457 92.6451 183.911 92.4796L184.435 92.0867C184.139 92.3142 183.866 92.3142 183.615 92.3142L183.911 93.2863C183.615 93.1208 183.365 93.1208 183.365 92.7072C183.046 93.3483 183.592 94.3411 182.978 95.2098C182.568 94.7134 181.749 95.7475 181.612 94.4445C182.864 94.8789 181.476 93.1415 182.545 92.9347C182.341 93.1001 182.09 93.0794 181.794 92.914C181.749 92.7692 181.84 92.6451 181.908 92.5624C180.702 91.4041 181.362 94.0309 180.11 94.0102C180.269 93.2863 179.814 92.6244 179.609 92.7692C180.11 92.7692 179.86 93.9895 179.382 94.5479C178.585 93.9688 178.517 94.9823 178.084 94.8995L178.562 95.1684C178.403 95.913 177.993 95.8096 177.447 96.0371C177.401 95.458 177.948 95.6441 177.765 95.3959C177.151 96.6783 176.354 94.0515 175.489 94.9202C175.08 94.4238 175.444 93.5345 175.102 93.2035C174.124 94.155 174.055 92.1901 173.031 92.976C173.327 93.9688 173.372 93.7206 172.667 94.6927L174.351 93.9895L173.281 95.4166C173.782 95.4166 174.351 94.7961 174.647 94.9616C174.124 95.7682 174.192 95.52 174.42 96.3473C173.737 94.8582 173.054 97.216 172.234 96.2026V93.762C171.051 92.6658 170.118 95.0236 168.547 94.4032L169.048 94.8375C168.843 95.8096 168.092 94.9823 167.568 95.3752C167.614 94.5479 167.295 94.2584 167.09 93.762C167.113 94.3618 165.952 93.6999 165.793 95.3339L165.087 94.2584C163.835 93.824 163.653 96.5749 162.424 96.306C162.788 95.4166 162.242 94.8375 163.061 94.1963C162.652 94.1963 162.288 94.0309 162.288 94.61C162.06 94.0929 161.172 95.7062 160.785 94.9409C160.603 95.2925 160.558 96.1612 160.102 96.0785C160.057 95.913 160.102 95.6648 160.102 95.6648C160.102 96.0785 159.397 96.2232 159.784 97.1126C158.532 94.5686 156.301 97.2988 155.209 95.1064C154.321 95.3752 153.251 95.6441 152.455 95.7062C152.5 95.458 152.455 95.2925 152.614 95.3752C151.499 94.61 151.931 97.7124 150.679 96.8644C150.042 95.5407 151.339 96.1405 150.952 95.6441C150.77 92.9553 149.427 96.0164 148.585 94.4445L148.79 94.2791C148.153 93.369 147.219 95.2925 146.15 95.1064C146.15 95.1064 146.195 94.8789 146.15 94.6927C145.421 96.0578 144.056 96.5128 143.031 96.9058C143.35 95.851 143.486 96.3473 143.304 95.2718C142.849 95.4166 143.441 96.9885 142.53 97.2781C142.235 96.699 141.575 96.2026 141.483 95.065L142.348 95.003C141.916 93.5345 141.233 95.0443 140.778 94.7961L140.846 94.155C139.526 94.3618 139.503 95.9957 138.092 95.8716L138.229 96.368C137.455 97.9813 137.568 95.458 136.817 96.6576L136.59 95.0236C136.089 95.4166 134.792 96.5955 133.881 96.9058C134.405 95.6855 135.474 95.0857 136.134 94.3618C135.634 94.3618 134.405 94.4859 134.154 95.2925C134.359 95.1271 134.609 94.7341 134.814 94.9823C134.2 96.2646 133.38 96.9058 132.356 96.8644C132.538 93.6999 129.716 96.0578 128.987 93.6172C127.212 94.7961 125.437 93.1208 123.365 93.307C124.094 95.7682 122.751 93.369 122.887 95.913C122.409 96.0785 122.227 96.0371 122.182 95.8716L120.725 94.3618C120.383 93.6172 121.18 93.8033 121.135 93.2449C120.065 93.0588 120.679 92.1694 119.996 91.5075C120.133 92.4176 119.632 92.8106 119.018 92.459L119.86 93.6172C118.38 94.9616 118.585 91.4869 117.083 92.8312L117.561 92.0453C116.787 92.521 114.739 92.0453 113.987 94.0515C113.851 93.762 113.669 93.0588 113.987 92.8933C112.166 92.5831 109.913 95.065 108.479 93.8033L108.616 93.1829C108.274 93.369 108.024 94.3411 107.591 93.7206C107.591 93.4724 107.728 93.1001 107.591 93.0588C107.409 93.2656 106.681 94.1343 106.226 93.7827L106.613 93.0794C104.814 92.2728 103.881 94.7754 102.379 95.1891C102.379 93.369 100.968 92.7692 100.285 92.4796V92.2314C98.2364 92.0039 96.7796 93.7413 94.8449 94.4652C93.6385 92.4796 90.7933 93.6379 88.8813 92.521C89.1772 92.8519 88.8358 93.9481 88.4944 94.1136C88.0392 93.7413 87.2425 95.3753 87.3108 93.6999L87.4701 93.7413C87.1287 92.1074 86.1955 92.5417 85.4899 92.5003L85.376 94.6927C83.4868 91.5075 80.414 95.851 79.3897 93.0174C78.9345 93.5552 78.3655 93.5551 77.9102 94.1136V92.9347C76.6583 92.6451 76.0438 92.4796 74.4732 92.7692L74.7919 91.9419C73.9042 91.8591 73.6766 95.3132 72.8571 95.3959L72.6068 93.6379C71.059 93.6586 69.5112 92.128 67.9862 93.7206C68.0089 93.4724 68.0544 92.9553 68.3048 92.8933C67.5765 92.8519 65.5051 91.7144 65.7555 94.1136C65.7555 92.5417 64.1622 93.9688 63.3428 94.6513L63.4794 93.4931C62.7737 94.9616 62.751 95.3753 61.7722 95.7682C61.5446 95.6234 61.5674 94.8375 61.886 95.1477C61.1122 94.5479 61.2715 96.2439 60.3383 95.6234L60.6797 94.8789C59.883 94.7961 59.9513 95.1891 59.5188 96.0371C59.0181 96.4921 58.0166 95.7475 57.88 94.7134C57.7662 95.3546 57.3337 96.2026 56.8785 95.8923C56.8102 95.4993 56.9923 95.2511 57.0833 95.1271C55.7404 94.3411 55.1031 96.4714 54.1926 95.3339C54.1926 94.9616 54.1243 94.7548 54.0333 94.6513C55.0803 94.672 55.9453 94.7341 55.8542 94.8168C55.8542 93.762 54.9893 93.5758 55.6721 92.1073C54.9893 92.914 53.8057 94.6513 52.9863 94.155C52.9407 94.0515 52.8952 93.9481 52.8724 93.7827L52.9635 93.6586C52.7814 93.5552 52.5993 93.6586 52.44 93.824C52.1668 93.6586 52.0075 93.5138 51.7571 93.5138C51.6661 92.6451 50.7784 93.0381 50.3459 92.9967C50.3914 94.155 49.8224 93.9688 50.3459 94.9409C50.2776 94.8582 50.437 94.7961 50.7101 94.7548C50.7784 94.7134 50.8467 94.6927 50.8922 94.6307C50.8922 94.672 50.8922 94.6927 50.8694 94.7341C51.1426 94.6927 51.5067 94.672 51.9392 94.6513C51.5978 95.2511 51.2564 95.7475 50.7784 95.0857C50.5508 95.8303 50.3231 96.5955 50.1866 96.9678C49.5948 95.3546 48.4794 94.4652 48.3201 93.4724C47.0227 94.1343 45.2473 93.9068 44.4279 96.0785C44.0637 96.368 43.9954 95.458 43.8588 95.1064C44.0637 94.8789 44.3368 94.9202 44.4506 94.61C43.7223 95.1684 42.2655 94.8375 42.0834 96.3473C41.1502 95.6648 42.6069 94.9409 41.3323 95.1891L41.5144 94.7134C38.9879 92.2728 37.4173 98.6018 34.6176 95.4787C34.8225 95.6648 34.9135 95.7682 34.9363 96.0164C31.7497 94.6307 28.3809 97.3194 25.2398 95.1271C24.3521 94.6927 24.2611 95.6648 23.7148 96.4094L23.5099 95.1684L22.5767 96.6162C21.2565 97.6711 20.2778 93.5551 18.6162 95.5407L18.8211 96.3887C18.2293 96.2232 16.9091 96.8851 17.0229 95.913C16.9546 96.0578 16.818 96.7817 16.5904 96.3473V95.6855L15.0881 96.8024C13.9501 96.3267 15.2702 94.217 13.5859 94.0722C12.9713 94.3204 11.8105 95.9751 12.0608 96.4094C12.3112 96.4508 12.6982 96.8231 12.7209 97.4642L12.1519 97.7952C12.0381 99.7187 11.6056 101.684 13.0168 103.049L13.9956 101.87L14.3142 102.8L13.4948 102.862C13.9501 103.731 14.246 102.966 14.5874 102.428C14.6557 102.925 14.7922 103.276 14.9971 103.462L15.9531 101.621C16.0669 102.366 15.5206 103.111 16.1579 103.524C16.6132 102.676 15.7255 101.828 16.4766 101.27C16.9318 102.139 16.7953 102.862 17.3415 102.118C17.4098 102.614 17.296 102.925 17.0912 103.152C17.5692 102.552 18.3658 102.904 18.6162 101.87C19.0942 102.945 20.255 101.58 20.2095 103.421C20.3688 102.987 21.0745 101.994 21.5069 101.911C20.6875 104.103 23.1685 102.035 22.9637 104.372C23.5555 102.407 25.1488 103.504 26.2186 102.407C26.1503 102.573 26.0365 102.883 25.9454 102.78C26.5372 102.945 26.7193 103.524 27.1063 103.897C27.1746 102.283 28.1306 101.911 28.6313 100.898C29.3597 102.469 28.1761 102.8 28.4265 104.31C28.3809 102.987 29.7011 103.007 29.4507 101.911C30.0198 102.883 29.9287 102.387 30.2246 103.731C30.3157 101.704 30.7481 103.38 31.2261 102.139C32.0456 103.131 31.431 104.041 32.3415 103.421C32.7739 104.041 31.9773 104.765 31.9773 104.765L31.9317 105.076ZM53.2366 101.58C53.0545 101.621 52.8952 101.663 52.8042 101.663C52.8952 101.663 53.0318 101.621 53.2366 101.58ZM55.0348 101.58C54.8072 101.539 54.534 101.518 54.2609 101.539C54.1926 101.146 54.2609 100.732 54.443 100.753C54.3519 101.022 54.7617 101.249 55.0348 101.601V101.58ZM51.2564 93.5138C51.5295 93.3483 51.6433 93.5758 51.6661 93.824C51.5295 93.824 51.3702 93.8861 51.1653 93.9688C51.1653 94.0102 51.1426 94.0515 51.1426 94.1136C51.1653 93.8861 51.2108 93.6792 51.2564 93.5345V93.5138Z" fill="#9F5225"/>
<path d="M50.7327 95.0297C50.7327 95.0297 50.6651 95.1131 50.6201 95.1131C50.6877 95.2173 50.7327 95.3007 50.7777 95.384C50.8228 95.259 50.8453 95.1339 50.8678 95.0088C50.8228 95.0088 50.7552 95.0088 50.7102 95.0088L50.7327 95.0297Z" fill="#9F5225"/>
<path d="M213.046 96.7394H213.001C213.001 96.7394 213.069 96.8071 213.069 96.8974C213.046 96.8297 213.046 96.8071 213.023 96.7394H213.046Z" fill="#9F5225"/>
<path d="M79.7499 103.77V103.478L79.5923 103.749L79.7499 103.77Z" fill="#9F5225"/>
<path d="M222.901 100.733C222.901 100.733 222.946 100.942 223.036 101.026C223.036 100.942 222.968 100.838 222.901 100.733Z" fill="#9F5225"/>
<path d="M227.159 101.01L227.751 101.431C227.5 101.199 227.296 101.073 227.159 101.01Z" fill="#9F5225"/>
<path d="M230.437 101.601C230.482 101.389 230.482 101.24 230.505 101.092L230.437 101.622V101.601Z" fill="#9F5225"/>
<path d="M178.356 102.945C178.356 102.945 178.266 102.967 178.221 103.01C177.929 103.25 178.131 103.163 178.356 102.945Z" fill="#9F5225"/>
<path d="M193.857 100.211C193.698 100.423 193.538 100.635 193.356 100.783C193.629 100.868 193.857 100.889 193.857 100.211Z" fill="#9F5225"/>
<path d="M161.056 104.327C161.011 104.327 160.988 104.327 160.942 104.327H161.056Z" fill="#9F5225"/>
<path d="M192.628 100.759C192.902 100.996 193.129 100.953 193.357 100.759C193.129 100.673 192.856 100.543 192.628 100.759Z" fill="#9F5225"/>
<path d="M244.615 102.103L244.772 102.146C244.772 102.146 244.772 101.995 244.772 101.952L244.592 102.103H244.615Z" fill="#9F5225"/>
<path d="M244.798 101.965L244.978 101.808C244.978 101.808 244.82 101.808 244.798 101.965Z" fill="#9F5225"/>
<path d="M245.341 101.542L244.981 101.835C245.116 101.835 245.274 101.876 245.341 101.542Z" fill="#9F5225"/>
<path d="M240.293 101.563L240.248 101.979C240.248 101.979 240.293 101.75 240.293 101.563Z" fill="#9F5225"/>
<path d="M238.973 101.681C239.292 101.784 239.77 102.571 240.202 102.323L240.248 101.991C240.043 102.613 239.269 100.977 238.973 101.681Z" fill="#9F5225"/>
<path d="M233.487 96.469L234.58 96.8004C234.398 96.3448 234.125 95.7442 234.625 95.6407C233.237 94.2947 234.921 96.6554 233.465 96.469H233.487Z" fill="#9F5225"/>
<path d="M230.051 95.8278C230.643 95.6207 230.051 95.1652 230.074 94.9167C229.687 95.3308 229.596 95.4344 230.051 95.8278Z" fill="#9F5225"/>
<path d="M205.307 95.8089L205.375 94.7528C204.92 94.8978 205.375 95.167 205.307 95.8089Z" fill="#9F5225"/>
<path d="M200.598 101.279L201.03 101.942L201.235 100.969L200.598 101.279Z" fill="#9F5225"/>
<path d="M197.797 93.7432L198.002 93.5957L197.228 93.996L197.797 93.7432Z" fill="#9F5225"/>
<path d="M156.234 94.123L156.371 95.4276C156.689 95.1998 156.735 93.7296 156.234 94.123Z" fill="#9F5225"/>
<path d="M138.297 95.4673C138.092 94.8046 137.591 94.3905 137.295 95.0324C137.705 95.1152 138.092 95.6329 138.297 95.4673Z" fill="#9F5225"/>
<path d="M84.511 93.3316L84.8752 92.8891L84.1923 93.2684L84.511 93.3316Z" fill="#9F5225"/>
<path d="M250.921 4.71391C251.035 4.52754 250.967 4.13409 250.625 4.21692L250.375 4.90029L250.898 4.71391H250.921Z" fill="#9F5225"/>
<path d="M248.6 3.44784C248.19 3.77917 247.735 4.359 247.985 5.00095C248.395 4.33829 248.486 4.60749 248.919 3.84129C249.26 3.75846 249.51 4.06908 249.465 4.31758C249.579 4.15191 249.988 4.46254 250.193 4.02767C249.738 3.48926 249.192 3.46855 248.6 3.92413C248.463 3.77917 248.6 3.5928 248.623 3.46855L248.6 3.44784Z" fill="#9F5225"/>
<path d="M215.047 2.37261L215.25 2.46094C215.25 2.46094 215.115 2.3947 215.047 2.37261Z" fill="#9F5225"/>
<path d="M194.264 2.01687C194.422 2.01687 194.489 1.92757 194.489 1.8606C194.354 1.90525 194.219 1.9499 194.264 2.01687Z" fill="#9F5225"/>
<path d="M190.714 1.25847C190.714 1.25847 190.849 1.30264 190.916 1.30264C190.826 1.23639 190.759 1.19223 190.714 1.25847Z" fill="#9F5225"/>
<path d="M215.05 2.38616L214.504 2.16781C214.458 2.408 214.8 2.34249 215.05 2.38616Z" fill="#9F5225"/>
<path d="M243.978 5.10659C244.09 5.06339 244.18 4.99859 244.27 4.9122C244.18 4.9338 244.09 4.97699 244 4.99859C244 5.04179 244 5.06339 244 5.10659H243.978Z" fill="#9F5225"/>
<path d="M224.377 1.84049C224.377 1.84049 224.467 1.67012 224.512 1.56363L224.197 1.84049H224.377Z" fill="#9F5225"/>
<path d="M231.254 1.70754C231.094 1.68683 231.049 2.26666 230.98 2.51515C231.071 2.26666 231.185 2.16312 231.322 2.1217C231.322 2.01816 231.322 1.8732 231.254 1.70754Z" fill="#9F5225"/>
<path d="M242.405 2.75791L242.608 2.66958C242.608 2.66958 242.473 2.71374 242.405 2.75791Z" fill="#9F5225"/>
<path d="M219.192 1.69746C219.192 1.69746 219.147 1.52486 219.125 1.48171C219.125 1.56801 219.147 1.63273 219.192 1.69746Z" fill="#9F5225"/>
<path d="M22.4813 6.08893C22.4813 6.08893 22.4813 6.02188 22.4813 5.97718C22.4357 6.04423 22.4357 6.08893 22.4813 6.08893Z" fill="#9F5225"/>
<path d="M14.336 3.20864L14.4486 3.16695C14.4486 3.06272 14.4711 2.93765 14.4711 2.83343L14.336 3.18779V3.20864Z" fill="#9F5225"/>
<path d="M184.228 0.518779C184.228 0.518779 184.228 0.518779 184.25 0.518779C184.433 0.451733 184.319 0.451733 184.228 0.518779Z" fill="#9F5225"/>
<path d="M124.594 0.929866C125.277 1.44757 123.501 1.59252 124.503 2.17235C124.412 1.94456 125.436 1.2612 124.594 0.929866Z" fill="#9F5225"/>
<path d="M243.793 5.0146C243.793 5.0146 243.612 5.0146 243.5 5.0146C243.635 5.0146 243.725 5.0146 243.793 5.0146Z" fill="#9F5225"/>
<path d="M124.525 2.18829L124.639 2.25534C124.593 2.23299 124.57 2.21064 124.525 2.18829Z" fill="#9F5225"/>
<path d="M169.253 0.858097C169.253 0.858097 169.343 1.04977 169.41 1.11366C169.41 1.04977 169.365 0.985878 169.253 0.858097Z" fill="#9F5225"/>
<path d="M180.401 1.70316L180.13 1.61484C180.13 1.61484 180.333 1.68108 180.401 1.70316Z" fill="#9F5225"/>
<path d="M163.466 1.68655C163.309 1.64239 163.264 1.55406 163.061 1.64239C163.061 1.66447 163.106 1.68655 163.129 1.70863C163.196 1.62031 163.309 1.57614 163.466 1.68655Z" fill="#9F5225"/>
<path d="M157.439 1.67628C157.439 1.67628 157.506 1.7646 157.551 1.80876C157.619 1.80876 157.686 1.78668 157.731 1.7646L157.439 1.67628Z" fill="#9F5225"/>
<path d="M40.8076 5.79109C40.671 5.62126 40.6027 5.4302 40.5345 5.26037C40.6255 5.68495 39.7378 5.83355 40.8076 5.79109Z" fill="#9F5225"/>
<path d="M243.974 4.77989C243.929 4.92897 243.884 5.01415 243.794 5.03545C243.862 5.03545 243.929 5.03545 243.997 4.99286C243.997 4.90767 243.997 4.82248 243.997 4.75859L243.974 4.77989Z" fill="#9F5225"/>
<path d="M163.223 6.26103L162.267 6.17175C162.54 6.23871 162.881 6.26103 163.223 6.26103Z" fill="#9F5225"/>
<path d="M84.0278 5.7007L83.8026 5.76694C83.8026 5.76694 83.9603 5.76694 84.0278 5.7007Z" fill="#9F5225"/>
<path d="M159.418 6.2649C159.236 6.05419 159.077 5.92776 158.872 5.86454C158.826 5.90668 158.781 5.94883 158.758 6.01204L159.418 6.2649Z" fill="#9F5225"/>
<path d="M34.2066 6.63587C35.117 6.63587 34.639 5.89128 34.8211 5.45694C35.9137 5.25011 35.3219 6.01538 35.6861 6.40835C36.3689 6.20152 36.8924 5.4983 37.3932 5.53967C37.4387 5.66377 37.5298 5.70513 37.3932 5.8706C38.1216 5.27079 39.5328 5.84991 40.375 5.08465C40.4432 5.1467 40.466 5.20874 40.4888 5.27079C40.3522 4.8985 40.3294 4.50552 40.3522 4.21596C40.7619 4.21596 41.1033 3.74026 41.2627 4.21596C41.0123 4.21596 40.9895 4.40211 40.8757 4.56757L41.3082 4.36074C41.6951 5.08465 40.7164 4.60894 40.7164 5.14669C41.5586 4.91918 42.5145 4.31938 43.1746 4.52621C43.3112 5.22943 41.6724 4.75372 42.5373 5.39489L41.5358 5.12601C42.2869 6.24289 40.944 5.04328 41.6269 6.24289C42.9243 6.44972 43.0836 5.89128 44.381 6.09811C44.6769 5.70513 44.29 5.51899 44.5859 5.12601C46.4296 4.42279 46.0426 6.88406 47.4083 5.95333C47.7497 5.47762 47.8863 4.58826 48.865 5.06396L48.5464 5.84991C49.7983 5.93265 49.2748 4.71235 50.5949 5.25011C50.3673 5.56035 49.5934 5.51899 49.7983 5.60172C50.6632 6.22221 50.4128 5.14669 51.0729 5.14669L51.2095 5.84991C52.5524 5.7465 54.0319 5.22943 55.5114 5.10533C55.4204 5.31216 55.17 5.53967 55.5114 5.7465C57.3779 5.39489 59.5175 5.82923 61.3384 6.24289L62.0213 5.64309C62.1806 5.64309 62.3172 5.91196 62.1351 6.03606C62.8407 6.26357 62.1806 5.64308 62.522 5.41557C62.9317 5.37421 63.0455 5.76718 62.7952 5.95333C64.047 5.43626 66.346 4.83645 67.6434 5.4983L67.393 5.68445C68.4173 5.93265 68.5538 4.44348 69.4871 5.00191L69.305 5.10533C71.5129 5.37421 73.9711 4.81577 75.6555 5.72582C75.9741 4.85713 77.8406 6.11879 77.9999 4.8985C79.2746 5.4983 78.9104 5.72582 80.6858 6.11879C81.1638 6.18084 81.3914 5.35352 81.9832 5.22943V5.8706L82.8026 5.20874L83.2351 5.97401L83.7814 5.80855C83.5538 5.76718 83.3034 5.51899 83.3489 5.33284C84.2138 5.04328 85.443 5.76718 85.4657 6.09811L87.5143 5.56035C87.4688 5.80855 87.1273 5.91196 86.8542 6.07743C87.9468 5.43626 87.0591 6.73928 88.0606 6.16016C87.924 6.01538 88.1288 5.78787 88.1516 5.64309C88.6524 6.03606 89.7905 6.03606 90.6099 5.8706L90.4505 6.30494C91.9528 6.40835 93.6372 6.09811 95.3443 6.09811C94.7297 5.89128 94.8663 5.12601 95.3671 5.06396L95.5719 5.7465C95.8906 5.33284 95.0484 5.4983 95.7085 4.98123C96.3458 5.06396 96.1409 5.7465 95.7768 5.97401L96.5506 5.7465C96.5962 5.95333 96.4141 6.05674 96.3686 6.30494C96.6872 5.89128 97.7115 6.98748 98.1667 6.26357L98.2122 6.4704C99.9194 6.4704 100.671 6.24289 102.059 6.20152C102.082 5.6224 102.628 5.7465 103.038 5.27079C104.062 5.45694 105.177 5.91196 106.406 5.8706C107.271 5.58104 106.657 5.37421 107.044 5.0226C107.112 5.56035 108.341 5.4983 107.704 5.89128C109.183 5.80855 109.57 5.78787 111.437 5.35352C111.232 5.12601 111.004 5.04328 111.118 4.85713C111.46 4.7744 111.892 5.08465 111.846 5.33284L111.755 5.39489C113.849 4.60894 116.581 6.94611 118.242 5.82923L118.151 5.89128L119.881 5.31216C120.678 5.39489 119.403 5.70513 119.995 6.03606C121.862 5.14669 122.931 6.16016 124.456 5.58104C125.64 7.15294 128.667 5.47762 130.261 6.4704L130.17 6.09811C130.579 5.7465 130.67 6.30494 130.966 6.38767C130.921 6.09811 130.511 6.05674 130.784 5.84991C134.289 5.41557 138.022 6.38767 141.596 6.7186C142.916 6.82201 142.347 4.81577 143.986 5.68445L143.508 6.36699C146.148 5.53967 148.925 6.38767 151.52 5.70513C151.361 5.8706 151.361 6.07743 151.11 6.05674C151.657 6.55313 153.136 6.07743 153.136 5.68445C153.546 5.72582 153.227 6.05674 153.477 6.26357C154.024 6.55313 154.866 5.6224 155.139 6.11879C155.185 6.20152 154.98 6.28426 154.889 6.32562C155.253 6.07743 156.55 6.38767 156.209 5.80855C157.188 6.07743 158.075 5.56035 158.849 5.89128C159.35 5.25011 160.511 6.20152 160.67 5.29148C160.602 6.22221 162.377 6.03606 162.992 5.60172C162.787 5.89128 163.538 5.89128 163.288 6.28426C163.993 6.28426 164.631 6.09811 164.517 5.6224C165.814 6.73928 167.112 4.71235 167.84 6.16016C169.934 5.66377 171.869 5.31216 173.735 5.10533C173.667 6.03606 171.664 5.18806 171.732 6.18084C173.508 5.78787 174.532 5.00191 176.307 5.22943C176.763 5.35352 176.057 5.64308 175.898 5.78787C177.673 5.39489 179.335 5.8706 180.928 5.37421C180.928 5.45694 180.746 5.56035 180.587 5.6224C180.905 5.60172 181.315 5.76718 181.269 5.33284L180.974 5.45694C180.473 4.83645 182.203 4.1746 182.271 3.84367C181.747 5.06396 183.841 4.15391 182.999 5.68445C183.204 5.60172 183.455 5.39489 183.409 5.12601C183.705 5.20874 183.819 5.37421 183.5 5.70513C184.615 5.47762 184.228 5.0226 185.23 5.04328C185.23 5.25011 185.025 5.33284 184.911 5.56035C185.435 5.16738 185.936 4.75372 186.801 4.93987C186.755 5.06396 186.846 5.22943 186.596 5.22943C188.075 5.16738 189.099 4.15391 190.716 4.54689C190.238 5.43626 191.262 4.83645 191.353 5.6224L192.218 5.39489L191.876 5.0226C192.627 5.0226 193.31 4.46416 193.97 4.73304L193.401 5.04328L194.835 4.8985L194.039 4.60894C194.813 4.21596 193.948 3.63684 194.972 3.84367C194.767 3.9264 195.723 3.84367 196.133 4.29869C196.52 4.0505 196.884 3.8023 197.453 3.98845C197.59 4.23665 197.339 4.83645 197.453 5.00191C197.817 4.36074 199.228 4.81577 199.706 4.13323C199.547 4.29869 199.547 4.69167 199.593 4.7744L199.911 4.25733C200.253 4.42279 200.321 4.50552 200.253 4.83645C201.3 4.93987 199.911 3.86435 201.163 4.27801C201.072 4.31938 201.118 4.40211 200.913 4.48484C202.165 4.71235 203.348 4.15391 204.509 4.40211C204.85 5.18806 203.508 4.58826 203.894 5.25011C205.556 5.10533 207.354 4.31938 208.97 4.50552L208.674 4.42279C208.902 3.3266 209.881 4.96055 210.7 4.44348C210.495 4.52621 210.427 5.04328 210.495 4.93987C211.611 5.12601 212.749 4.67099 214.433 4.31938L214.228 4.60894C214.888 4.85713 215.958 4.75372 216.641 4.87782C216.846 4.58826 217.256 4.6503 217.005 4.23665C219.168 5.84991 221.148 3.36796 223.083 4.71235C222.855 4.71235 222.536 4.96055 222.718 4.96055L224.357 4.69167C224.221 4.21596 224.152 4.40211 223.788 4.02982C223.993 3.74026 224.471 3.53343 224.858 3.53343C224.13 3.84367 224.858 4.2987 225.177 4.56757C225.131 4.42279 225.222 4.25733 225.199 4.11255C226.064 4.96055 225.336 3.16113 226.52 3.71957L226.451 3.96777C226.884 3.84367 227.293 3.51274 227.771 3.57479C227.976 4.13323 227.293 3.82299 227.271 4.27801C227.931 4.23665 228.591 3.22318 229.183 3.78162C228.91 3.9264 228.5 3.94708 228.204 4.09187C228.864 4.73304 228.932 4.56757 229.41 4.67099H229.365L230.48 4.96055L230.184 4.7744C231.026 3.3266 231.869 4.50552 233.007 3.57479C231.914 4.46416 232.825 4.09187 232.733 4.71235C233.029 4.87782 233.462 5.08465 233.325 5.25011C233.849 4.75372 234.213 5.64309 234.964 4.91918C234.987 5.12601 235.533 4.91918 235.419 5.43626C236.102 5.27079 235.26 5.08465 235.306 4.83645C236.375 4.15391 237.809 5.66377 239.334 4.73304C240.655 4.34006 240.882 3.65752 242.111 3.3266C242.521 3.65752 241.77 4.07118 241.77 4.07118C242.43 4.36074 242.931 4.31938 243.568 4.07118C243.431 4.25733 243.568 4.40211 243.773 4.62962C244.274 4.56757 244.114 3.90572 244.774 4.19528C244.661 4.42279 244.524 4.7744 244.274 5.00191C244.865 4.81577 245.457 4.44347 246.072 4.25733C246.231 4.60894 245.708 4.79509 245.48 5.0226C246.163 4.85713 247.255 4.71235 247.483 4.15391L247.051 3.94708C247.301 3.9264 247.187 4.42279 247.005 4.52621C246.413 4.96055 246.163 4.34006 246.117 4.13323L246.55 4.00913C246.095 2.83021 244.797 4.19528 243.909 4.13323L244.274 3.26455L243.363 3.98845C243.181 3.76094 243.044 3.28523 243.477 3.16113C242.84 2.72679 242.908 3.47138 242.384 2.99567C242.316 2.91294 242.362 2.87157 242.384 2.85089L241.77 3.09908C241.884 2.91294 241.679 2.49928 242.043 2.62338C240.928 2.12699 240.268 3.26455 239.835 2.62338L239.926 2.56133C238.401 2.85089 239.767 3.2025 238.629 3.9264L237.855 2.37518L237.696 3.01635C237.536 2.99567 237.218 2.9543 237.286 2.68543C236.694 3.11977 237.377 2.9543 237.035 3.36796C236.284 2.78884 234.941 3.63684 234.759 2.62338C234.486 3.09908 235.488 2.99567 234.668 3.3266C234.441 2.25108 233.735 3.51274 233.029 3.01635C233.234 2.45791 233.894 2.74748 233.211 2.25108C232.802 3.2025 231.846 2.04426 231.277 2.2304C231.254 2.97499 230.002 2.54065 229.023 2.78884C229.092 2.54065 227.18 2.37518 226.246 2.1063V1.98221C226.087 2.74748 225.154 2.60269 224.471 2.74748C224.494 2.29245 224.63 2.1063 224.995 1.92016H224.357C224.198 2.16835 223.993 2.29245 223.583 2.37518L223.743 1.81674C222.878 1.85811 222.013 2.4786 220.897 2.1063C220.829 2.64406 221.785 3.57479 220.602 3.9264C220.556 3.63684 220.51 3.14045 220.829 3.03704C220.738 3.0784 220.465 3.28523 220.26 3.16113L220.738 2.68543C220.237 2.4786 220.465 3.0784 220.078 3.03704C220.078 2.62338 219.782 2.74748 219.828 2.41655C219.941 2.37518 220.169 2.58201 220.328 2.41655C219.873 2.33382 219.327 2.1063 219.145 1.79606C219.19 2.02357 219.145 2.3545 218.803 2.39587C217.938 2.41655 218.507 1.89948 218.007 1.69265C217.802 1.98221 217.256 1.69265 217.233 2.29245C216.982 2.29245 216.937 2.00289 216.846 1.83743C216.391 2.1063 214.775 1.92016 215.275 2.56133L215.389 2.60269C215.389 2.60269 215.344 2.60269 215.321 2.62338C213.864 3.22318 212.294 2.27177 210.837 2.54065V2.33382C209.972 2.56133 208.925 2.4786 208.287 2.91294C208.037 2.91294 207.673 2.54065 207.787 2.29245C207.127 2.43723 207.058 2.68543 206.102 2.33382C206.762 1.98221 205.875 2.02357 206.785 2.06494C205.92 1.87879 205.738 1.56855 204.805 2.12699C205.124 1.60991 204.168 1.46513 203.758 1.6306L204.35 2.00289C203.894 2.08562 203.485 2.02357 203.075 2.00289L203.303 1.32035C201.55 0.493036 200.139 2.74748 198.796 1.34104C198.341 1.81674 199.752 1.67196 199.342 2.25108C198.523 2.16835 197.681 1.17557 197.43 1.17557C196.315 0.80328 196.406 2.18904 195.245 1.92016C195.404 2.16835 195.541 2.83021 194.676 3.05772C193.857 2.97499 193.675 2.02357 194.198 1.83743C194.403 1.83743 194.494 1.89948 194.471 1.98221C194.722 1.89948 195.086 1.79606 194.744 1.52718L194.631 1.77538C194.221 1.52718 193.105 1.54787 193.379 1.15489C192.764 1.3824 193.128 1.54787 193.561 1.69265C192.514 1.34104 191.945 1.69265 190.875 1.44445C191.034 1.58923 191.193 1.85811 191.034 1.85811C189.464 1.54787 190.351 2.33382 189.282 2.43723C188.69 2.06494 189.486 1.54787 188.439 1.85811C187.779 1.60991 188.303 1.21694 188.553 1.01011C187.574 1.48582 186.732 0.699865 186.186 0.617134L186.709 0.410305C186.414 0.534402 186.14 0.534402 185.89 0.513719L186.186 1.01011C185.89 0.927378 185.64 0.927378 185.64 0.720548C185.321 1.05148 185.867 1.52718 185.253 1.98221C184.843 1.73401 184.024 2.25108 183.887 1.58923C185.139 1.81674 183.75 0.927378 184.82 0.823963C184.615 0.906695 184.365 0.906695 184.069 0.823963C184.024 0.741231 184.115 0.679183 184.183 0.6585C182.977 0.0793777 183.637 1.40308 182.385 1.3824C182.544 1.01011 182.089 0.679183 181.884 0.761914C182.385 0.761914 182.134 1.3824 181.656 1.65128C180.86 1.36172 180.791 1.85811 180.359 1.83743L180.837 1.96152C180.678 2.33382 180.268 2.27177 179.722 2.39587C179.676 2.1063 180.222 2.18904 180.04 2.06494C179.426 2.70611 178.629 1.40308 177.764 1.83743C177.354 1.58923 177.719 1.15489 177.377 0.989426C176.398 1.46513 176.33 0.493036 175.306 0.886012C175.602 1.3824 175.647 1.2583 174.942 1.73401L176.626 1.3824L175.556 2.1063C176.057 2.1063 176.626 1.79606 176.922 1.87879C176.398 2.27177 176.467 2.16835 176.694 2.56133C176.011 1.81674 175.329 2.99567 174.509 2.49928V1.27899C173.326 0.741231 172.392 1.89948 170.822 1.58923L171.323 1.79606C171.118 2.27177 170.367 1.85811 169.843 2.06494C169.889 1.65128 169.57 1.5065 169.365 1.2583C169.388 1.56855 168.227 1.23762 168.068 2.04426L167.362 1.5065C166.11 1.27899 165.928 2.66474 164.699 2.54065C165.063 2.1063 164.517 1.81674 165.336 1.48582C164.927 1.48582 164.562 1.40308 164.562 1.69265C164.335 1.44445 163.447 2.25108 163.06 1.85811C162.878 2.04426 162.833 2.45791 162.377 2.43723C162.332 2.3545 162.377 2.2304 162.377 2.2304C162.377 2.43723 161.672 2.49928 162.059 2.9543C160.807 1.67196 158.576 3.03704 157.484 1.96152C156.596 2.1063 155.526 2.2304 154.729 2.25108C154.775 2.12699 154.729 2.04426 154.889 2.08562C153.773 1.71333 154.206 3.26455 152.954 2.83021C152.317 2.16835 153.614 2.4786 153.227 2.2304C153.045 0.886012 151.702 2.41655 150.86 1.6306L151.065 1.54787C150.427 1.09284 149.494 2.06494 148.424 1.96152C148.424 1.96152 148.47 1.83743 148.424 1.75469C147.696 2.43723 146.33 2.66474 145.306 2.85089C145.625 2.33382 145.761 2.58201 145.579 2.04426C145.124 2.12699 145.716 2.89226 144.805 3.05772C144.509 2.76816 143.849 2.51996 143.758 1.94084H144.623C144.191 1.17557 143.508 1.94084 143.053 1.81674L143.121 1.48582C141.801 1.58923 141.778 2.39587 140.367 2.3545L140.503 2.60269C139.729 3.40933 139.843 2.14767 139.092 2.74748L138.865 1.94084C138.364 2.14767 137.066 2.72679 136.156 2.89226C136.679 2.29245 137.749 1.98221 138.409 1.60991C137.909 1.60991 136.679 1.67196 136.429 2.06494C136.634 1.98221 136.884 1.79606 137.089 1.92016C136.475 2.56133 135.655 2.87157 134.631 2.87157C134.813 1.27899 131.991 2.4786 131.262 1.23762C129.487 1.81674 127.711 0.989426 125.64 1.07216C126.368 2.31313 125.025 1.11352 125.162 2.37518C124.684 2.45791 124.502 2.43723 124.456 2.3545L123 1.58923C122.658 1.21694 123.455 1.32035 123.409 1.03079C122.34 0.927378 122.954 0.493036 122.271 0.162109C122.408 0.617134 121.907 0.80328 121.293 0.637817L122.135 1.21694C120.655 1.89948 120.86 0.162109 119.358 0.823963L119.836 0.430987C119.062 0.6585 117.013 0.430987 116.262 1.44445C116.126 1.29967 115.944 0.94806 116.262 0.865329C114.441 0.720548 112.188 1.94084 110.754 1.32035L110.89 1.01011C110.549 1.09284 110.299 1.58923 109.866 1.27899C109.866 1.15489 110.003 0.968743 109.866 0.948061C109.684 1.05148 108.956 1.48582 108.5 1.29967L108.887 0.948061C107.089 0.534402 106.156 1.79606 104.654 2.00289C104.654 1.09284 103.243 0.80328 102.56 0.6585V0.534402C100.511 0.430987 99.0544 1.27899 97.1197 1.65128C95.9133 0.6585 93.0681 1.23762 91.1561 0.679183C91.452 0.844646 91.1106 1.3824 90.7692 1.48582C90.314 1.29967 89.5173 2.12699 89.5856 1.27899H89.7449C89.4035 0.472353 88.4703 0.699865 87.7647 0.679183L87.6508 1.77538C85.7616 0.182792 82.6888 2.3545 81.6646 0.927378C81.2093 1.19626 80.6403 1.19626 80.185 1.46513V0.886012C78.9331 0.741231 78.3186 0.6585 76.748 0.80328L77.0667 0.389622C76.179 0.348256 75.9514 2.08562 75.132 2.1063L74.8816 1.23762C73.3338 1.23762 71.786 0.493036 70.261 1.27899C70.2837 1.15489 70.3293 0.906695 70.5796 0.865329C69.8513 0.844646 67.78 0.265524 68.0303 1.46513C68.0303 0.679182 66.437 1.3824 65.6176 1.73401L65.7542 1.15489C65.0486 1.89948 65.0258 2.08562 64.047 2.29245C63.8194 2.20972 63.8422 1.83743 64.1609 1.98221C63.387 1.67196 63.5463 2.51996 62.6131 2.2304L62.9545 1.85811C62.1578 1.81674 62.2261 2.00289 61.7936 2.43723C61.2929 2.66474 60.2914 2.29245 60.1548 1.77538C60.041 2.08562 59.6085 2.51996 59.1533 2.37518C59.085 2.16835 59.2671 2.06494 59.3582 2.00289C58.0152 1.60991 57.3779 2.66474 56.4674 2.1063C56.4674 1.92016 56.3991 1.81674 56.3081 1.75469C57.3551 1.75469 58.2201 1.79606 58.129 1.83743C58.129 1.29967 57.2641 1.21694 57.9469 0.472353C57.2641 0.865329 56.0805 1.73401 55.2611 1.48582C55.2155 1.44445 55.17 1.3824 55.1473 1.29967L55.2383 1.23762C55.0562 1.17557 54.8741 1.23762 54.7148 1.32035C54.4416 1.23762 54.2823 1.17557 54.0319 1.15489C53.9409 0.720548 53.0532 0.927378 52.6207 0.906695C52.6662 1.48582 52.0972 1.40308 52.6207 1.87879C52.5524 1.83743 52.7118 1.81674 52.9849 1.77538C53.0532 1.77538 53.1215 1.75469 53.167 1.71333C53.167 1.71333 53.167 1.75469 53.1442 1.75469C53.4174 1.75469 53.7816 1.73401 54.214 1.71333C53.8726 2.00289 53.5312 2.25108 53.0532 1.94084C52.8256 2.31313 52.5979 2.70611 52.4614 2.87157C51.8696 2.06494 50.7543 1.6306 50.5949 1.11352C49.2975 1.44445 47.5221 1.32035 46.7027 2.41655C46.3385 2.56133 46.2702 2.1063 46.1337 1.94084C46.3385 1.83743 46.6116 1.85811 46.7255 1.69265C45.9971 1.98221 44.5403 1.79606 44.3582 2.56133C43.425 2.20972 44.8818 1.85811 43.6071 1.98221L43.7892 1.75469C41.2627 0.534402 39.6921 3.69889 36.8924 2.12699C37.0973 2.2304 37.1883 2.27177 37.2111 2.39587C34.0245 1.71333 30.6557 3.03704 27.5146 1.94084C26.6269 1.71333 26.5359 2.20972 25.9896 2.58201L25.7848 1.96152L24.8515 2.68543C23.5314 3.22318 22.5526 1.15489 20.891 2.14767L21.0959 2.56133C20.5041 2.4786 19.1839 2.80952 19.2977 2.33382C19.2294 2.41655 19.0928 2.76816 18.8652 2.56133V2.2304L17.363 2.78884C16.2249 2.56133 17.545 1.48582 15.8607 1.42377C15.2461 1.54787 14.0853 2.37518 14.3357 2.60269C14.586 2.60269 14.973 2.80952 14.9957 3.14045L14.4267 3.30591C14.3129 4.27801 13.8804 5.25011 15.2916 5.93265L16.2704 5.35352L16.5891 5.82923H15.7696C16.2249 6.30494 16.5208 5.91196 16.8622 5.64309C16.9305 5.89128 17.0671 6.05674 17.2719 6.16016L18.2279 5.25011C18.3417 5.6224 17.7954 5.99469 18.4328 6.20152C18.888 5.76718 18.0003 5.35352 18.7514 5.08465C19.2066 5.51899 19.0701 5.8706 19.6164 5.4983C19.6846 5.7465 19.5708 5.91196 19.366 6.01538C19.844 5.72582 20.6406 5.89128 20.891 5.37421C21.369 5.91196 22.5298 5.22943 22.4843 6.13948C22.6437 5.91196 23.3493 5.41557 23.7817 5.39489C22.9623 6.49108 25.4433 5.45694 25.2385 6.63587C25.8303 5.66377 27.4236 6.20152 28.4934 5.66377C28.4251 5.7465 28.3113 5.89128 28.2202 5.84991C28.8121 5.93265 28.9941 6.22221 29.3811 6.40835C29.4494 5.60172 30.4054 5.41557 30.9061 4.91918C31.6345 5.70513 30.4509 5.8706 30.7013 6.61518C30.6557 5.95333 31.9759 5.95333 31.7255 5.41557C32.2946 5.89128 32.2035 5.64309 32.4994 6.32562C32.5905 5.31216 33.023 6.16016 33.5009 5.53967C34.3204 6.03606 33.7058 6.49108 34.6163 6.18084C35.0487 6.49108 34.2521 6.84269 34.2521 6.84269L34.2066 6.63587ZM55.5114 4.87782C55.3293 4.8985 55.17 4.91918 55.079 4.91918C55.17 4.91918 55.3066 4.91918 55.5114 4.87782ZM57.3096 4.87782C57.082 4.85713 56.8088 4.85713 56.5357 4.85713C56.4674 4.6503 56.5357 4.44348 56.7178 4.46416C56.6268 4.58826 57.0365 4.71235 57.3096 4.87782ZM53.5312 0.844646C53.8043 0.761914 53.9181 0.886012 53.9409 0.989426C53.8043 0.989426 53.645 1.01011 53.4401 1.05148C53.4401 1.07216 53.4174 1.09284 53.4174 1.11352C53.4401 1.01011 53.4857 0.906695 53.5312 0.823963V0.844646Z" fill="#9F5225"/>
<path d="M53.0069 1.61595C53.0069 1.61595 52.9394 1.65915 52.8943 1.65915C52.9619 1.70235 53.0069 1.76715 53.0519 1.78874C53.097 1.72395 53.1195 1.65915 53.142 1.59435C53.097 1.59435 53.0294 1.59435 52.9844 1.59435L53.0069 1.61595Z" fill="#9F5225"/>
<path d="M215.318 2.47502H215.275C215.275 2.47502 215.339 2.51714 215.339 2.5382C215.318 2.51714 215.318 2.49608 215.296 2.47502H215.318Z" fill="#9F5225"/>
<path d="M82.0259 6.01227V5.8543L81.8665 5.9897L82.0259 6.01227Z" fill="#9F5225"/>
<path d="M225.175 4.46163C225.175 4.46163 225.22 4.57446 225.311 4.61959C225.311 4.57446 225.243 4.52933 225.175 4.46163Z" fill="#9F5225"/>
<path d="M229.433 4.60499L230.025 4.82334C229.775 4.69233 229.57 4.64866 229.433 4.60499Z" fill="#9F5225"/>
<path d="M232.711 4.90151C232.711 4.90151 232.756 4.70984 232.779 4.64595L232.711 4.90151Z" fill="#9F5225"/>
<path d="M180.631 5.56757C180.631 5.56757 180.541 5.56757 180.495 5.58965C180.203 5.70006 180.405 5.6559 180.631 5.56757Z" fill="#9F5225"/>
<path d="M196.126 4.21586C195.968 4.32034 195.811 4.42483 195.63 4.48752C195.901 4.52932 196.126 4.55021 196.126 4.21586Z" fill="#9F5225"/>
<path d="M163.33 6.28439C163.285 6.28439 163.262 6.28439 163.217 6.28439H163.33Z" fill="#9F5225"/>
<path d="M194.903 4.49198C195.176 4.62591 195.403 4.58127 195.631 4.49198C195.403 4.44734 195.13 4.38038 194.903 4.49198Z" fill="#9F5225"/>
<path d="M247.047 5.15252C247.047 5.15252 247.047 5.10836 247.047 5.08628L246.867 5.15252H247.047Z" fill="#9F5225"/>
<path d="M247.072 5.08084L247.252 5.0146C247.252 5.0146 247.095 5.0146 247.072 5.08084Z" fill="#9F5225"/>
<path d="M247.616 4.87124L247.255 5.02751C247.391 5.02751 247.548 5.02751 247.616 4.87124Z" fill="#9F5225"/>
<path d="M242.567 4.87124L242.522 5.08698C242.522 5.08698 242.567 4.97911 242.567 4.87124Z" fill="#9F5225"/>
<path d="M241.247 4.94309C241.566 4.98523 242.044 5.40667 242.476 5.25916L242.522 5.09059C242.317 5.40667 241.543 4.58487 241.247 4.94309Z" fill="#9F5225"/>
<path d="M235.762 2.33684L236.854 2.50251C236.672 2.27472 236.399 1.98481 236.9 1.92268C235.511 1.26002 237.195 2.41968 235.739 2.33684H235.762Z" fill="#9F5225"/>
<path d="M232.325 2.03067C232.917 1.92453 232.325 1.69101 232.348 1.56363C231.961 1.77592 231.87 1.81838 232.325 2.03067Z" fill="#9F5225"/>
<path d="M207.581 2.03758L207.649 1.48171C207.194 1.56723 207.649 1.69551 207.581 2.03758Z" fill="#9F5225"/>
<path d="M202.872 4.76458L203.305 5.10425L203.509 4.59475L202.872 4.76458Z" fill="#9F5225"/>
<path d="M200.072 0.996695L200.277 0.909361L199.503 1.10586L200.072 0.996695Z" fill="#9F5225"/>
<path d="M158.508 1.18103L158.645 1.82777C158.963 1.70259 159.009 0.972404 158.508 1.18103Z" fill="#9F5225"/>
<path d="M140.571 1.84274C140.366 1.50559 139.865 1.29487 139.569 1.63202C139.979 1.67416 140.366 1.92702 140.571 1.84274Z" fill="#9F5225"/>
<path d="M86.7852 0.768868L87.1494 0.550516L86.4665 0.747033L86.7852 0.768868Z" fill="#9F5225"/>
</svg>
