<svg width="366" height="181" viewBox="0 0 366 181" fill="none" xmlns="http://www.w3.org/2000/svg">
<path d="M365.942 0.197495C365.9 3.29934 363 3.9246 360.097 5.0361C356.337 6.46409 352.508 8.18878 349.571 10.3974C345.47 13.4909 345.23 17.7098 347.939 21.1912C351.439 25.715 355.391 30.1841 354.702 35.854C354.43 38.0881 353.208 40.5439 351.506 42.4809C349.148 45.1809 345.764 45.7587 342.439 43.5513C340.515 42.2668 338.607 40.9349 336.627 39.7028C335.953 39.2837 335.033 39.0766 334.226 38.7647C333.817 39.5127 333.158 40.2606 333.041 41.0186C332.584 44.1253 332.586 47.2521 331.792 50.3239C331.553 51.2788 329.339 52.0638 328.029 52.9362C327.12 51.9536 325.448 51.0332 325.404 49.976C325.149 44.2385 325.797 38.4065 325.134 32.7337C324.652 28.7391 322.752 24.8864 321.125 21.0611C320.781 20.2831 318.73 19.3177 317.712 19.502C313.393 20.2691 308.729 20.9265 305.072 22.6911C303.164 23.6058 302.979 26.7251 302.24 28.8793C301.823 30.0835 301.893 31.3502 301.621 33.5843C304.467 31.9941 306.574 30.6605 308.881 29.6062C310.044 29.0704 311.621 29.0308 313.004 28.7717C312.98 29.7766 313.496 31.1256 312.799 31.7264C309.726 34.3614 306.245 36.727 303.015 39.2746C301.782 40.2593 299.837 41.558 299.951 42.5005C300.187 44.4604 301.592 46.2784 302.526 48.1537C304.66 47.0445 307.157 46.1798 308.841 44.7913C310.903 43.0837 312.11 40.8423 314.034 39.03C314.799 38.2996 316.523 38.1054 317.822 37.6593C318.111 38.5047 318.91 39.4399 318.604 40.1754C316.426 45.2367 313.393 49.9312 306.88 53.0292C302.867 54.9434 299.019 55.8203 295.514 53.1492C289.321 57.1798 288.941 57.1349 285.381 52.2844C283.815 50.1671 282.616 47.823 280.508 46.0448C279.236 44.9848 276.576 44.8372 274.532 44.2807C273.981 45.7442 272.638 47.3797 273.038 48.6215C273.669 50.579 275.072 52.5491 276.891 53.9982C279.608 56.173 277.247 57.6437 275.668 59.2167C273.944 60.9593 271.688 61.5822 269.745 59.784C267.847 58.0258 266.318 56.0407 264.948 54.5219C260.437 55.0695 256.055 55.4801 251.707 56.1749C249.237 56.5658 246.787 57.3034 244.474 58.1308C240.426 59.5936 238.71 59.1644 238.274 55.8929C237.254 48.3051 236.296 40.7099 235.687 33.0724C235.589 31.9154 237.404 30.5718 238.355 29.3177C239.686 30.1733 241.977 30.8819 242.206 31.9167C243.19 36.6245 243.913 41.4096 244.097 46.2145C244.241 50.5083 244.452 50.8773 250.453 50.0881C253.361 49.7047 256.265 49.4584 259.18 49.1349C262.959 48.7217 263.865 47.0937 263.555 44.5204C262.901 39.1045 262.412 33.6687 262.211 28.213C262.174 27.3827 264.097 26.4205 265.11 25.5081C266.344 26.2539 268.41 26.8229 268.627 27.753C269.421 30.8899 269.567 34.1663 270.054 38.2058C275.083 34.529 276.706 30.5672 278.597 26.7551C279.486 24.9774 279.248 22.8356 280.56 21.2949C281.711 19.9711 284.31 19.2609 286.274 18.2939C286.932 19.6105 288.592 21.1244 288.079 22.2189C286.198 26.2879 283.423 30.192 281.374 34.2509C280.77 35.4477 280.82 37.415 281.791 38.2231C284.493 40.4453 287.833 42.2562 291.145 44.3589C290.553 44.628 291.093 44.4411 291.065 44.3838C288.749 38.1223 293.294 32.1663 294.987 26.1924C297.989 15.5509 311.001 11.2998 323.371 16.0523C324.899 16.641 327.278 16.5343 329.151 16.1856C332.835 15.5106 334.322 16.4534 334.261 19.0565C334.253 19.6799 334.499 20.3332 334.342 20.9291C332.279 28.6634 337.799 33.2001 345.873 37.0017C347.918 32.2297 344.135 28.985 342.053 25.3516C339.662 21.2245 337.211 17.2868 338.555 12.2204C340.378 5.42607 356.109 -1.11358 366 0.160068L365.942 0.197495Z" fill="black"/>
<path d="M253.105 125.169C253.867 126.14 255.358 127.112 255.222 128.055C254.988 129.738 253.776 131.418 252.979 133.094C251.224 132.517 248.408 132.282 247.914 131.295C245.583 126.629 243.61 121.829 242.043 116.949C240.74 112.872 240.186 108.628 239.329 104.451C239.23 103.977 239.21 103.464 239.36 102.99C240.099 100.487 249.738 95.5367 253.873 95.4901C258.55 95.4537 262.416 98.0052 263.21 101.825C263.658 103.987 263.779 106.204 264.043 108.388C264.632 108.438 265.222 108.503 265.811 108.553C266.783 106.097 268.237 103.659 268.605 101.186C269.396 96.0194 273.107 93.3222 279.782 91.7377C285.425 90.3999 290.658 89.2789 296.737 89.4821C302.481 89.6652 308.583 87.8163 314.507 86.7328C317.582 86.1774 320.223 87.891 319.397 90.3593C316.406 99.5421 320.841 107.505 323.82 115.811C325.637 120.873 326.477 126.281 326.643 131.62C326.764 135.385 317.417 141.894 312.011 142.793C306.301 143.744 300.406 141.621 297.695 136.91C296.773 135.307 297.736 132.943 298.267 130.966C298.413 130.447 300.276 129.675 301.158 129.75C301.958 129.82 302.885 130.785 303.117 131.5C304.588 135.755 308.143 138.146 312.31 137.504C315.863 136.951 320.56 132.419 319.928 129.08C318.957 123.961 317.186 118.939 315.48 113.939C313.57 108.281 309.552 103.091 311.504 96.6761C312.247 94.2177 309.394 94.3668 307.5 95.2191C303.595 96.9987 300.243 97.4967 296.857 95.1297C296.13 94.6259 294.207 94.7228 292.989 94.9769C288.185 96.0306 283.19 96.8799 278.781 98.6144C276.834 99.382 276.097 102.067 274.817 103.877C275.446 104.256 276.072 104.621 276.7 105C279.566 103.741 282.401 102.41 285.342 101.264C286.574 100.78 288.04 100.693 289.402 100.422C289.14 101.531 289.403 103.017 288.506 103.688C285.245 106.148 281.761 108.484 278.084 110.6C274.25 112.796 273.988 114.422 277.98 118.537C279.788 120.412 282.064 121.35 285.116 119.052C286.699 117.858 288.457 116.734 290.32 115.794C291.731 115.076 293.456 114.715 295.337 114.092C295.296 119.957 286.315 125.024 277.636 126.032C269.284 127 261.27 128.171 254.198 123.883C253.832 124.292 253.485 124.698 253.12 125.122L253.105 125.169ZM251.038 116.828C255.139 113.401 257.892 110 256.922 105.761C256.397 103.472 254.175 102.133 251.121 103.202C249.443 103.785 247.326 105.894 247.502 107.011C248.006 110.153 249.612 113.115 251.038 116.828ZM268.62 122.011C269.04 121.869 269.46 121.727 269.878 121.57C269.106 120.176 268.549 118.665 267.522 117.393C266.107 115.667 264.337 114.106 262.726 112.48C260.992 114.315 259.235 116.137 257.501 117.972C257.426 118.042 257.571 118.206 257.58 118.281C261.288 119.531 264.954 120.771 268.6 122.013L268.62 122.011Z" fill="black"/>
<path d="M99.2476 128.651C99.2929 128.509 99.5101 128.24 99.4438 128.035C98.506 125.781 97.1367 122.881 101.401 122.014C105.483 121.184 106.754 124.476 107.48 126.695C109.342 132.298 110.801 138.011 111.952 143.761C112.466 146.295 113.385 147.185 117.11 146.505C120.429 145.905 123.906 145.923 127.317 145.737C131.305 145.511 133.45 144.491 132.505 141.145C130.833 135.215 129.507 129.228 128.079 123.253C127.837 122.281 127.371 121.184 127.764 120.301C128.193 119.369 129.422 118.172 130.557 117.928C131.591 117.696 133.58 118.32 134.082 119.033C135.304 120.707 136.157 122.607 136.74 124.509C138.298 129.664 139.655 134.873 141.073 140.074L142.554 140.274C143.104 138.629 144.167 136.921 144.099 135.32C143.81 128.782 145.944 122.846 152.786 117.992C154.128 117.04 157.201 115.953 157.957 116.363C159.542 117.248 160.902 119.041 160.852 120.52C160.796 121.953 159.325 124.075 157.667 124.823C152.495 127.136 149.732 134.758 153.689 137.723C154.648 138.426 156.996 138.916 158.134 138.519C159.968 137.856 161.656 136.498 162.66 135.162C163.018 134.678 161.503 133.162 160.388 132.538C157.666 131.016 157.67 129.331 160.726 127.928C165.516 125.722 171.649 126.89 172.461 130.693C173.813 137.071 174.412 143.587 175.009 150.087C175.095 150.973 173.31 152.039 172.389 153.032C171.153 152.271 169.275 151.709 168.802 150.719C167.309 147.652 166.337 144.431 164.987 140.83C158.889 143.574 152.694 148.44 146.699 141.866C142.876 147.775 138.675 149.802 134.096 147.95C131.799 151.675 127.329 152.566 122.959 151.867C118.883 151.193 116.011 152.574 112.954 153.962C108.435 155.998 106.953 155.617 106.355 151.864C105.971 149.542 105.792 147.196 104.432 144.72C103.68 145.904 102.845 147.083 102.178 148.287C100.364 151.529 98.3445 154.795 93.1612 155.636C88.9569 156.314 82.9546 153.126 81.7079 149.346C80.0912 144.396 76.8492 139.598 79.3826 134.038C80.8484 130.839 81.8656 127.543 83.741 124.461C84.1386 123.791 87.7609 123.29 89.1099 123.779C92.7009 125.089 95.863 126.982 99.2941 128.691L99.2476 128.651ZM90.3905 130.774C83.9397 135.595 86.6187 145.729 91.0282 148.821C93.3473 150.452 94.8451 149.588 95.7346 147.476C98.4673 140.981 96.9683 135.455 90.3905 130.774Z" fill="black"/>
<path d="M85.026 85.6344C83.3429 80.9962 82.9147 76.5852 80.2 73.226C77.2627 69.575 77.1333 66.9494 80.578 63.2523C81.8672 61.8662 80.7088 59.3351 80.6533 57.3229C80.6306 56.4452 80.0351 55.3031 80.5925 54.7496C83.7295 51.606 86.4024 47.5472 90.6035 45.8076C96.5085 43.3603 103.62 42.6336 110.242 41.2985C110.81 41.1839 112.292 42.0818 112.21 42.4408C112.023 43.2986 111.42 44.5102 110.528 44.8766C107.176 46.2398 103.641 47.2914 100.187 48.5C98.4705 49.1031 96.7575 49.736 95.0723 50.4264C88.2342 53.2451 87.2047 55.4042 90.1454 61.4988C93.2259 59.956 96.1573 58.3857 99.2166 57.0124C100.243 56.5539 101.639 56.5666 102.864 56.3724C102.778 57.3847 103.216 58.7736 102.494 59.3469C98.919 62.1339 95.2857 64.9583 91.1738 67.2639C88.7387 68.6373 87.9682 69.839 88.6263 71.6718C89.6308 74.4796 90.4545 77.3398 91.8993 80.0031C93.2646 82.5242 95.9375 82.2604 98.2093 80.2237C100.107 78.5361 101.512 76.559 103.341 74.819C103.938 74.2456 105.468 73.6499 106.176 73.8221C106.904 73.9918 107.619 75.0891 107.534 75.7673C106.711 82.3947 98.6066 87.3102 89.9542 86.6452C88.967 86.5677 87.2757 86.8641 86.8395 87.3876C83.35 91.5759 79.3491 89.7998 75.945 88.3155C72.6266 86.8512 69.9501 84.6714 66.9424 82.8506C64.0462 81.0921 61.0753 79.4034 58.123 77.6973C57.5723 77.9615 57.0235 78.2406 56.4728 78.5048C56.8645 81.7514 57.5059 84.998 57.5471 88.2719C57.578 89.9076 56.5148 91.6154 55.9661 93.2759C54.4268 91.8992 51.8471 90.6944 51.4882 89.0985C49.3167 79.7227 47.5126 70.2871 45.9117 60.8117C45.2381 56.7797 48.741 53.9104 53.0616 51.6098C57.5409 49.2445 62.4599 48.7991 67.1166 50.1465C71.7733 51.4939 73.6247 55.975 71.1341 59.6473C68.8214 63.0704 65.7308 66.2539 63.2692 69.6495C62.6809 70.4647 62.5272 72.1228 63.2074 72.5867C68.6727 76.3255 74.3269 79.9047 80.039 83.4466C81.4331 84.3096 83.2013 84.8236 85.0206 85.5895L85.026 85.6344ZM64.0987 56.175C59.3776 56.5357 54.8364 56.1458 54.1851 60.2324C53.6618 63.4838 54.0794 66.7727 54.0592 70.0541C58.2344 65.8584 64.2832 62.3613 64.0987 56.175Z" fill="black"/>
<path d="M11.7378 56.0578C9.03087 56.9025 7.18271 57.7948 5.31125 57.9765C3.56103 58.1282 1.75975 57.512 0 57.2398C0.490636 56.1328 0.539975 54.4722 1.56296 53.9837C10.3386 49.8065 19.639 47.7362 29.3897 50.0895C38.4554 52.2831 43.7479 57.3483 43.7338 64.3026C43.7294 75.4757 39.1796 85.8799 26.8741 94.0834C25.4487 95.0306 24.3815 96.3594 22.8283 97.1096C21.0791 97.9596 18.2978 99.2232 17.1834 98.7816C15.6096 98.1529 14.4805 96.2103 14.3616 94.7067C13.583 84.1144 13.153 73.4798 12.559 62.8651C12.4456 60.8902 12.0843 58.9303 11.7378 56.0578ZM22.2589 91.1826C22.8042 90.8735 23.6606 90.557 24.2662 90.0585C34.2606 82.0141 37.5556 72.7641 35.8156 62.6528C34.9902 57.8802 25.4943 54.1905 18.0443 56.2486L22.2589 91.1826Z" fill="black"/>
<path d="M59.4369 155.814C59.9257 157.106 60.4349 158.395 60.9254 159.702C61.322 160.746 62.1207 161.849 61.8894 162.864C61.675 163.846 60.6114 165.205 59.4883 165.553C58.6059 165.828 56.3729 165.082 55.9956 164.368C53.9739 160.545 51.904 156.668 50.6694 152.643C48.7853 146.511 47.7124 140.205 45.9701 134.041C45.7056 133.056 44.0589 131.996 42.6887 131.677C40.0751 131.053 38.725 130.382 40.781 128.28C45.7815 123.165 60.1833 117.333 68.9451 123.389C72.736 126.01 74.9714 132.813 72.5023 137.181C70.718 140.327 68.5351 143.446 65.9024 146.285C64.0274 148.335 64.0048 149.354 66.8481 150.33C71.8443 152.076 76.7523 153.955 81.7484 155.701C83.6389 156.367 87.6653 155.939 86.152 158.4C85.2989 159.779 81.1395 161.346 79.1674 161.039C74.4153 160.28 70.0603 158.502 65.5791 157.057C63.8689 156.506 62.2823 155.772 60.6433 155.121L59.4333 155.784L59.4369 155.814ZM56.8156 146.159C64.9013 144.024 70.2256 133.313 65.4612 129.003C62.7986 126.594 59.0258 126.02 54.9509 127.425C51.3555 128.666 52.1533 130.968 52.7564 133.035C54.0458 137.341 55.4154 141.623 56.8156 146.159Z" fill="black"/>
<path d="M215.647 110.624L215.14 106.42C207.699 109.418 204.892 121.508 208.602 126.735C211.058 130.187 212.994 133.99 220.098 133.036C224.356 132.458 228.174 129.262 227.585 126.283C227.468 125.659 225.528 125.272 224.337 124.886C222.953 124.447 221.478 124.125 220.062 123.765C220.97 122.501 221.582 121.015 222.897 120.021C224.574 118.739 226.686 117.618 228.868 116.913C230.109 116.504 232.074 116.751 233.298 117.24C235.222 118.008 236.877 119.143 238.468 120.256C239.059 120.67 239.6 121.53 239.398 122.101C237.127 128.631 241.008 133.898 243.879 139.409C244.504 140.623 243.849 142.266 243.774 143.718C241.594 143.406 238.442 143.667 237.449 142.679C235.487 140.731 234.774 138.101 233.474 135.769C232.944 134.831 232.238 133.976 231.61 133.081C230.579 133.676 229.239 134.127 228.582 134.89C224.178 139.949 215.291 140.101 209.259 137.008C199.301 131.902 198.643 118.001 202.701 110.935C205.556 105.974 209.241 101.504 215.976 98.8649C217.407 98.3117 220.019 98.0553 220.963 98.639C222.197 99.3848 223.175 101.285 222.685 102.392C221.416 105.324 220.901 108.817 215.647 110.624Z" fill="black"/>
<path d="M140.17 80.49C140.22 84.3548 141.044 87.5641 140.16 90.586C136.892 101.609 126.928 103.35 115.535 100.665C113.543 100.193 111.743 99.2425 110.051 98.3246C106.379 96.3415 106.282 92.6038 109.916 90.3106C112.121 88.9197 113.553 89.4137 114.173 91.4484C115.148 94.7001 121.921 97.7185 126.87 96.6623C131.312 95.7132 132.294 92.816 132.69 89.7168C133.983 79.7382 129.848 70.6463 127.466 61.2505C126.841 58.8217 126.336 56.3631 125.995 53.8845C125.662 51.2988 124.948 49.6854 120.647 51.6344C119.107 52.3223 116.926 52.5263 115.147 52.4387C112.405 52.301 109.91 51.2831 111.12 48.8897C111.993 47.1594 112.721 44.3993 117.149 45.5771C118.631 45.9589 120.712 45.4482 122.483 45.1269C124.132 44.8205 125.691 44.1152 127.339 43.8088C132.472 42.8972 134.177 43.9199 133.42 47.6549C131.75 55.8879 136.459 63.1797 137.345 71.0417C137.738 74.4703 139.34 77.752 140.187 80.4576L140.17 80.49Z" fill="black"/>
<path d="M175.679 42.1772C176.499 41.0454 177.644 39.4947 178.768 37.9465C180.189 39.0339 182.125 39.907 182.949 41.2187C186.642 46.9942 189.919 52.9418 193.612 58.7174C194.277 59.7448 196.155 60.3062 197.495 61.0695C198.122 59.8852 198.939 58.7234 199.354 57.5042C202.086 49.795 204.752 42.0634 207.439 34.3292C208.289 31.8883 208.903 29.385 210.116 27.0215C210.737 25.7923 212.405 24.7853 213.622 23.666C214.6 24.8681 216.581 26.1152 216.366 27.2646C215.637 31.224 214.114 35.1584 212.945 39.0953C210.633 46.8295 208.363 54.5737 206.009 62.3129C205.488 64.0308 205.017 65.8185 204.027 67.4416C202.148 70.4932 198.749 71.1183 195.457 69.0132C188.041 64.2816 183.598 57.9748 179.884 51.3365C178.396 48.6632 177.347 45.8305 175.699 42.1747L175.679 42.1772Z" fill="black"/>
<path d="M229.246 47.6208C230.195 51.8624 231.371 56.0915 231.889 60.3853C232.003 61.3278 229.928 62.9307 228.415 63.4939C227.639 63.7855 224.85 62.5756 224.738 61.8151C223.519 53.781 222.503 45.707 221.838 37.6056C221.763 36.6431 224.116 35.4467 225.337 34.3573C226.364 35.2801 228.062 36.0759 228.294 37.1406C229.039 40.5568 229.255 44.0676 229.675 47.5536L229.224 47.6083L229.246 47.6208Z" fill="black"/>
<path d="M339.619 99.6699C338.089 97.8518 335.893 96.2057 335.152 94.2008C333.277 89.0091 331.867 83.7003 330.703 78.3615C330.477 77.3566 332.331 75.9931 333.247 74.789C334.64 75.47 336.565 75.9042 337.349 76.8868C339.85 80.029 342.1 95.2246 339.623 99.6998L339.619 99.6699Z" fill="black"/>
<path d="M344.154 118.291C342.778 116.895 341.178 115.875 341.461 115.461C342.434 114.037 343.918 112.718 345.56 111.669C345.868 111.465 347.776 112.615 348.921 113.143C347.559 114.614 346.199 116.1 344.155 118.306L344.154 118.291Z" fill="black"/>
<path d="M123.986 167.34C123.234 166.983 121.772 167.039 121.969 167.84C121.837 167.306 121.408 166.907 120.681 166.642C120.811 167.17 119.914 167.178 119.351 167.236C119.726 166.772 120.341 166.595 121.564 166.251C122.95 167.193 124.955 165.085 126.284 166.077C125.579 166.534 125.004 167.493 123.98 167.342L123.986 167.34Z" fill="white"/>
<path d="M119.55 171.759L119.318 171.47L121.43 171.623C120.967 171.432 119.543 171.373 119.55 171.759Z" fill="white"/>
<path d="M112.869 171.855C113.161 172.418 112.19 172.895 112.309 173.435C112.133 172.251 110.649 173.405 109.737 173.382L109.223 172.519C109.967 171.743 112.19 171.742 114.01 171.411L112.869 171.855Z" fill="#9F5225"/>
<path d="M111.33 172.747L110.642 172.24C111.154 172.328 112.293 172.263 111.33 172.747Z" fill="white"/>
<path d="M111.996 169.388C113.407 169.116 111.207 169.895 112.678 169.897C112.166 169.808 111.603 169.839 111.996 169.388Z" fill="white"/>
<path d="M106.301 171.918C107.35 171.957 108.406 172.046 109.448 172.034C109.046 172.223 108.653 172.419 108.245 172.583L106.301 171.918Z" fill="#9F5225"/>
<path d="M106.449 173.881C106.856 173.84 107.431 173.445 106.803 173.185C105.815 174.011 104.969 173.054 104.032 173.759L105.061 173.979C105.047 174.749 102.887 173.395 103.147 174.732C101.673 173.903 103.98 173.492 102.154 172.979C103.816 173.07 104.97 172.675 106.294 172.312C105.947 172.627 105.776 172.586 105.251 172.862C106.226 172.806 107.602 173.099 108.748 173.084C108.283 174.013 107.307 173.294 106.436 173.885L106.449 173.881Z" fill="#9F5225"/>
<path d="M101.544 174.529C100.51 174.724 98.8794 174.827 98.4578 173.815C99.4659 173.037 99.7846 173.901 100.346 174.275C100.642 174.08 101.676 173.911 101.172 173.415C101.048 173.652 101.957 174.099 101.544 174.529Z" fill="#9F5225"/>
<path d="M97.4304 174.97L96.5397 174.104L97.0564 174.235L97.0254 173.583C97.1306 173.74 97.6639 174.906 98.7095 174.778C98.2238 175.298 97.955 174.72 97.4326 174.978L97.4304 174.97Z" fill="#9F5225"/>
<path d="M96.5751 170.511C95.9266 170.996 95.4761 170.75 94.6294 170.532C95.7672 170.564 97.3741 170.45 97.7647 170.81L97.653 170.656C97.653 170.656 98.7829 171.068 99.6282 171.665C98.3866 171.098 96.4511 172.156 96.5751 170.511Z" fill="#9F5225"/>
<path d="M94.1331 174.925L95.7098 174.547L95.3502 174.839L94.1331 174.925Z" fill="#9F5225"/>
<path d="M95.7041 172.092C94.4337 172.29 96.3094 171.345 95.1031 171.42C94.7666 171.336 96.8772 171.357 97.0343 171.781C96.7432 171.966 95.7329 171.327 95.7041 172.092Z" fill="#9F5225"/>
<path d="M89.7957 175.596L89.4778 175.119C88.2243 175.533 86.4078 174.877 85.573 175.933C85.7374 175.333 84.9114 174.705 86.0302 174.514C86.2363 174.836 86.6436 174.821 86.6205 175.197C87.094 175.068 86.9521 174.649 87.2541 174.478C88.1464 174.991 89.3935 174.579 90.1208 175.049C89.7799 174.949 89.7136 175.064 89.4778 175.119C90.9965 175.936 91.0069 173.9 91.793 175.252C91.2418 174.865 90.4818 175.787 89.7957 175.596Z" fill="#9F5225"/>
<path d="M89.5483 172.282L90.6606 172.092C90.2353 171.451 89.2759 172.075 89.0243 171.483C89.0539 171.105 90.151 170.911 89.7113 170.652C90.0176 172.162 91.2633 170.721 90.871 172.404C92.3562 172.535 91.2126 171.457 92.7554 171.466L93.2879 172.244C91.5282 171.925 91.3151 172.679 89.5483 172.282Z" fill="#9F5225"/>
<path d="M85.2009 172.575L84.6955 173.075L84.9262 172.36C83.6583 172.311 82.7256 173.033 81.9028 173.672C81.0777 174.303 80.3717 174.91 79.5833 174.677C77.5865 173.665 75.9025 175.033 73.9314 174.833C72.9341 174.19 74.8302 174.499 74.9032 174.127C74.5473 172.921 74.0151 174.731 73.5069 173.734C73.327 172.867 75.4503 172.858 76.2482 172.358C76.9838 172.5 76.9946 172.77 77.2563 173.271C77.4043 172.79 78.1379 172.669 78.2794 172.19C79.8558 172.912 80.5374 171.651 82.0948 172.431C82.4994 171.792 80.9647 172.273 81.4493 172.185L82.2665 172.216L82.1915 172.325C83.3601 172.983 85.3399 172.344 86.0038 171.889C85.4747 172.122 85.1366 172.672 85.8163 172.865L86.2763 172.096L87.8144 173.19C86.6539 172.459 85.556 173.958 85.2029 172.557L85.2009 172.575Z" fill="#9F5225"/>
<path d="M86.6316 171.175C88.273 170.752 86.5515 172.315 88.3666 171.941L86.4074 171.888L86.6316 171.175Z" fill="#9F5225"/>
<path d="M78.7086 173.028L77.9108 173.528C78.284 172.466 79.7232 173.939 78.7086 173.028Z" fill="white"/>
<path d="M75.6104 172.942L76.1251 173.937L75.2908 173.355L75.6104 172.942Z" fill="white"/>
<path d="M72.8495 174.009C72.1844 173.461 72.9184 173.11 73.6585 173.268C72.9999 173.281 72.68 173.668 72.8495 174.009Z" fill="#9F5225"/>
<path d="M68.2437 175.573C69.6876 175.68 66.9751 175.727 68.0507 176.683C67.8437 176.255 67.085 175.644 68.2437 175.573Z" fill="white"/>
<path d="M63.6515 177.528C64.1842 177.769 64.3954 177.624 64.4587 177.395C64.0772 177.376 63.7762 177.397 63.6515 177.528Z" fill="#9F5225"/>
<path d="M81.4905 175.465C81.6528 175.473 81.8344 175.476 81.9877 175.452C81.8148 175.455 81.657 175.464 81.4905 175.465Z" fill="#9F5225"/>
<path d="M81.1657 175.471L81.4907 175.461C81.3693 175.451 81.261 175.463 81.1657 175.471Z" fill="#9F5225"/>
<path d="M70.6132 177.134C70.6457 177.108 70.6804 177.09 70.7169 177.056L70.6132 177.134Z" fill="#9F5225"/>
<path d="M115.568 172.82C115.849 172.831 116.064 172.825 116.228 172.789C116.007 172.797 115.786 172.804 115.572 172.81C115.572 172.81 115.572 172.81 115.565 172.812L115.568 172.82Z" fill="#9F5225"/>
<path d="M116.065 171.375C114.8 170.902 115.115 173.008 113.164 172.803C113.939 172.837 114.748 172.836 115.58 172.819C116.462 171.706 114.653 172.412 116.071 171.373L116.065 171.375Z" fill="#9F5225"/>
<path d="M100.313 171.943C100.313 171.943 100.27 171.929 100.247 171.919C100.137 171.899 100.196 171.925 100.313 171.943Z" fill="#9F5225"/>
<path d="M165.335 159.032L165.439 159.285L166.285 158.578L165.335 159.032Z" fill="white"/>
<path d="M165.361 159.542L163.896 160.691L168.788 158.815L173.612 156.746L173.164 156.534C173.143 156.276 171.17 157.195 169.222 158.106C167.266 159.012 165.289 159.791 165.361 159.542Z" fill="white"/>
<path d="M164.751 159.323C163.435 158.635 163.32 160.34 161.901 160.041C162.847 160.24 163.589 160.583 164.234 160.01L164.745 159.324L164.751 159.323Z" fill="white"/>
<path d="M158.373 155.961C158.29 155.984 158.213 156.005 158.135 156.044C158.244 156.066 158.344 156.082 158.425 156.103L158.373 155.961Z" fill="#9F5225"/>
<path d="M158.433 156.107L158.568 156.474C158.685 156.266 158.602 156.166 158.433 156.107Z" fill="#9F5225"/>
<path d="M158.139 156.044C157.883 155.999 157.588 155.965 157.405 155.857L157.606 155.723C157.266 155.728 156.636 155.618 156.56 155.877C157.135 155.605 157.232 155.86 157.42 156.372L156.472 156.782C157.062 157.95 157.293 156.416 158.13 156.037L158.139 156.044Z" fill="#9F5225"/>
<path d="M153.746 158.142C154.044 158.263 154.998 157.852 154.508 158.382C154.713 158.467 154.896 158.373 155.09 158.293C154.376 158.357 154.73 157.3 153.744 158.134L153.746 158.142Z" fill="#9F5225"/>
<path d="M155.101 158.306C155.19 158.299 155.277 158.284 155.398 158.242C155.294 158.244 155.196 158.271 155.101 158.306Z" fill="#9F5225"/>
<path d="M151.987 159.619L151.614 159.756C151.724 159.726 151.828 159.698 151.929 159.688L151.987 159.619Z" fill="#9F5225"/>
<path d="M185.185 152.952C183.993 153.798 182.866 154.626 180.833 155.095C180.523 154.211 179.989 155.22 179.521 154.371C180.502 153.953 178.646 154.716 176.723 155.436C174.774 156.084 172.752 156.673 173.45 156.138L174.067 156.331L173.236 155.633C172.4 156.276 171.401 157.571 170.575 157.331C170.542 157.516 172.52 156.64 174.488 155.775C176.464 154.944 178.361 153.949 178.265 154.16C178.338 153.814 177.68 153.906 176.656 154.24C175.629 154.565 174.192 155.046 172.753 155.599C171.312 156.143 169.832 156.698 168.7 157.122C167.57 157.555 166.732 157.731 166.621 157.656L166.689 158.262C165.027 158.251 163.812 157.808 162.465 157.904L162.421 158.691C163.234 158.116 163.64 158.481 164.651 158.406C163.025 158.913 162.884 159.445 161.632 159.788C161.374 158.89 162.519 158.946 160.834 159.055C160.522 159.599 161.861 160.165 160.438 160.52C158.863 161.391 158.752 159.933 157.284 160.379L158.154 159.71C157.609 159.859 156.549 160.008 156.192 160.669C156.773 160.396 158.475 160.352 158.725 161.244C158.047 161.262 156.79 162.073 156.245 162.222L156.773 162.729C156.374 163.517 155.751 162.763 155.178 163.553C154.369 163.449 155.32 162.511 154.849 162.393C154.773 162.652 153.518 163.471 152.914 163.222C152.838 161.79 154.65 163.046 155.115 161.475L153.906 162.158C152.692 161.152 155.966 161.453 155.216 160.567C153.835 159.562 153.617 162.554 152.187 161.167C152.677 160.637 154.557 159.937 154.168 159.559C153.654 160.281 152.883 159.524 151.916 159.683L150.994 160.675C150.398 160.433 150.776 160.285 151.059 159.891C149.654 161.209 146.592 161.123 144.527 162.78C143.092 163.014 144.189 162.256 143.433 161.987C143.181 162.497 142.697 162.691 142.176 162.772C141.65 162.837 141.099 162.811 140.717 162.916C140.505 163.035 139.874 162.354 140.007 161.974L142.087 161.96C141.876 161.568 141.966 160.795 142.678 160.671C142.641 162.354 145.11 158.904 145.745 160.597L145.49 159.813L148.102 159.6L148.059 159.726C147.964 159.453 150.308 159.665 151.536 158.827C151.304 158.767 150.652 159.007 150.189 159.099C149.721 159.174 149.443 159.1 149.982 158.469C148.841 158.323 147.261 159.583 145.327 159.805L145.528 159.16C144.459 159.074 143.364 159.479 142.254 159.959C141.155 160.454 140.014 160.924 138.92 161.127L139.756 161.691C139.071 162.169 138.249 163.019 137.371 162.582C138.305 162.379 137.718 162.09 137.469 161.815C136.12 161.726 134.418 162.694 132.634 162.795C132.634 162.795 132.756 162.938 132.705 163.058L130.793 163C129.97 163.304 129.785 163.804 129.376 164.4C129.04 164.369 128.259 164.548 128.459 164.053C128.619 163.974 128.772 163.896 128.896 163.915C127.797 163.309 128.314 164.286 127.064 164.047C128.101 164.529 127.015 165.073 127.274 165.742C125.872 165.738 126.87 164.54 126.628 164.263C125.106 165.023 125.028 165.661 123.411 166.069C123.223 165.662 124.51 165.574 124.547 165.071C124.104 165.262 123.548 165.318 123.426 165.175L124.36 164.664C122.767 165.47 121.154 165.894 119.193 165.885L119.295 165.646L118.122 165.87L118.702 166.592C118.027 166.495 117.488 167.329 117.024 166.752L117.249 166.655L116.4 166.535L117.372 167.185C116.431 167.724 114.699 166.226 113.077 166.591C112.923 167.716 116.004 166.59 116.487 167.955C115.982 168.252 115.084 168.612 114.68 168.283C114.673 167.897 115.069 167.841 115.463 167.778C113.875 167.244 111.914 168.696 110.773 167.6L111.782 167.007C110.493 167.034 109.933 168.614 109.369 167.87L110.613 169.114C109.903 168.86 109.148 168.828 108.396 168.805C107.651 168.78 106.907 168.737 106.26 168.536C106.098 167.735 108.014 168.399 107.902 168.245L107.229 167.716C105.416 168.353 106.771 168.264 104.551 168.942L104.448 168.407C103.811 169.295 101.516 167.906 102.511 169.281L103.08 168.887L103.126 169.544L100.409 169.345C100.736 169.802 99.4334 169.78 99.8714 170.391C99.5148 170.233 99.1581 170.049 98.8058 169.881C98.6491 170.355 99.1364 170.61 99.6971 170.826C100.253 171.026 100.876 171.19 100.977 171.532C101.001 171.957 100.533 171.953 100.299 171.911C101.584 172.484 101.935 170.829 103.104 170.694L103.778 171.223L103.622 170.42C104.132 170.527 104.637 171.023 104.858 171.324C105.845 170.111 107.313 171.356 109.028 170.895C107.498 170.627 109.823 170 109.537 169.823C110.327 169.703 112.551 170.856 113.054 169.784C113.449 169.342 111.971 169.341 113.046 169.012C113.785 169.012 114.355 169.367 113.96 169.809C114.785 169.821 115.664 169.721 116.554 169.584C117.446 169.454 118.345 169.225 119.215 169.093L118.694 168.637C119.692 168.002 120.892 168.546 121.594 169.023C121.702 168.782 121.818 168.926 121.58 168.639C122.78 167.518 123.59 169.418 125.839 168.82C125.875 169.594 124.863 169.845 124.053 169.609L124.43 170.43C122.45 170.813 120.173 171.023 118.466 170.795L119.334 171.297C118.17 172.681 118.122 170.378 117.068 171.882C116.031 171.708 117.688 171.342 116.877 171.08C116.236 171.414 117.343 172.537 116.195 172.746C117.304 172.724 118.436 172.608 119.588 172.46C120.741 172.32 121.908 172.151 123.079 171.971C124.248 171.783 125.425 171.602 126.594 171.414C127.751 171.185 128.904 170.966 130.029 170.746C130.152 170.889 129.929 170.994 129.709 171.107C130.161 171.309 131.241 171.101 132.61 170.7C133.295 170.504 134.058 170.26 134.851 169.999C135.635 169.705 136.452 169.402 137.26 169.093C140.497 167.872 143.622 166.858 144.122 167.875C144.253 167.486 143.442 167.347 144.384 167.098C144.511 167.231 144.811 167.36 144.68 167.748C146.691 165.815 150.223 166.169 152.806 164.44C152.857 164.832 153.541 164.812 153.632 165.068C154.325 163.875 156.256 164.209 157.008 163.413L156.852 163.94L159.689 162.944C159.82 163.066 159.442 163.214 159.233 163.341C159.917 163.321 159.903 162.806 159.839 162.418C160.365 162.583 160.881 162.714 161.394 162.856C162.962 161.37 165.079 160.772 167.3 160.2C168.411 159.931 169.54 159.622 170.618 159.203C171.698 158.793 172.745 158.286 173.691 157.587C174.581 158.013 175.231 158.072 176.316 157.679L175.879 158.124C177.178 158.235 175.803 157.74 176.822 157.619C177.614 157.79 177.43 158.598 176.435 158.579C176.008 159.057 176.425 159.155 176.864 159.157C180.165 157.532 183.024 155.463 185.141 152.894L185.185 152.952Z" fill="#9F5225"/>
<path d="M50.6934 177.725C51.1028 177.437 49.0944 177.177 50.08 176.572C51.6449 176.073 53.6771 176.318 55.7918 176.585C57.9015 176.782 60.0876 177.029 61.9091 176.654C62.8698 176.188 63.1321 176.204 64.0015 175.993C64.022 176.119 64.0297 176.276 63.9895 176.41C64.9846 176.481 66.612 176.775 67.587 176.49C67.8787 176.666 68.1108 177.263 67.5612 177.088C69.1022 177.705 70.1219 176.175 70.997 176.702C70.2802 177.039 71.7622 177.311 70.8952 177.557C72.4935 177.745 72.2285 175.669 73.4601 175.508C73.5481 175.677 73.6296 175.849 73.3807 175.882C74.6786 175.042 77.5978 176.524 77.6431 175.076L78.2372 175.697C78.7948 175.236 78.6211 174.905 79.6014 174.742C80.2685 174.991 79.6229 175.282 79.8739 175.513C80.0991 174.932 81.861 175.26 82.5784 174.438C82.5434 173.541 81.2788 175.63 80.423 174.79C80.3804 174.608 80.4928 174.56 80.6486 174.544C76.5693 174.639 73.5878 177.181 70.1221 176.202C69.4051 176.794 68.7978 176.15 68.4309 175.493C69.0313 175.241 70.7524 174.752 70.8575 176.035L71.8788 175.28C72.2868 175.371 72.1989 174.074 72.3599 173.872C71.6196 173.969 70.7103 172.65 71.6823 172.252C69.717 171.971 72.4705 175.021 70.712 174.578L70.4058 173.632C70.7629 174.151 69.2768 174.478 68.6999 174.125L68.9262 173.958C67.7693 173.984 66.521 173.956 65.2052 173.885C63.8959 173.812 62.5228 173.606 61.1346 173.423C58.3624 173.019 55.5271 172.589 52.955 171.999C51.6861 174.099 49.196 170.633 47.991 172.301C47.4311 171.909 48.8069 171.611 47.7245 171.168C47.1832 170.946 47.1271 171.534 47.148 171.713C46.9848 171.626 46.8238 171.547 46.6542 171.461C46.2156 173.615 47.1203 175.736 50.6826 177.737L50.6934 177.725Z" fill="#9F5225"/>
<path d="M101.503 169.478C101.126 169.167 100.423 169.122 100.551 169.721C100.47 169.32 100.248 168.997 99.8832 168.75C99.9642 169.15 99.5327 169.101 99.2618 169.105C99.4263 168.787 99.7159 168.699 100.295 168.523C100.999 169.316 101.887 167.84 102.578 168.717C102.247 168.984 102.003 169.649 101.503 169.478Z" fill="white"/>
<path d="M99.5309 172.472L99.4057 172.242L100.428 172.49C100.202 172.323 99.5093 172.187 99.5309 172.472Z" fill="white"/>
<path d="M96.3387 172.181C96.498 172.612 96.0605 172.926 96.1351 173.328C96.0048 172.439 95.3435 173.237 94.901 173.173L94.6229 172.509C94.9503 171.971 96.0084 172.068 96.8608 171.897L96.3387 172.181Z" fill="#9F5225"/>
<path d="M95.6435 172.773L95.2966 172.367C95.5438 172.457 96.0865 172.458 95.6435 172.773Z" fill="white"/>
<path d="M95.8169 170.31C96.4817 170.172 95.4627 170.644 96.1637 170.716C95.9166 170.625 95.6441 170.621 95.8169 170.31Z" fill="white"/>
<path d="M93.2182 172.004L94.7124 172.168L94.1626 172.529L93.2182 172.004Z" fill="#9F5225"/>
<path d="M93.3696 173.464C93.558 173.439 93.8158 173.157 93.5087 172.951C93.08 173.552 92.6389 172.828 92.2268 173.337L92.7222 173.518C92.7461 174.093 91.6742 173.048 91.8509 174.056C91.1135 173.395 92.1929 173.161 91.3055 172.717C92.0973 172.835 92.6237 172.541 93.2328 172.295C93.0786 172.522 93.0003 172.491 92.7613 172.688C93.2227 172.668 93.8789 172.902 94.425 172.911C94.2417 173.595 93.7522 173.051 93.3654 173.474L93.3696 173.464Z" fill="#9F5225"/>
<path d="M91.0791 173.85C90.5902 173.949 89.8302 174.025 89.5882 173.263C90.0324 172.693 90.2193 173.328 90.4968 173.631C90.6279 173.498 91.1168 173.4 90.8517 173.014C90.801 173.187 91.2545 173.547 91.0726 173.852L91.0791 173.85Z" fill="#9F5225"/>
<path d="M89.1431 174.121L88.6852 173.462L88.9351 173.561L88.8924 173.071C88.9518 173.187 89.2467 174.066 89.7314 173.977C89.5242 174.369 89.3756 173.925 89.1344 174.114L89.1431 174.121Z" fill="#9F5225"/>
<path d="M88.5663 170.759C88.2786 171.111 88.0627 170.932 87.6519 170.754C88.1939 170.799 88.9387 170.719 89.1379 170.99L89.0785 170.874C89.0785 170.874 89.627 171.2 90.0464 171.639C89.4408 171.207 88.5713 171.982 88.564 170.751L88.5663 170.759Z" fill="#9F5225"/>
<path d="M87.5899 174.047L88.3203 173.785L88.155 173.998L87.5899 174.047Z" fill="#9F5225"/>
<path d="M88.2168 171.946C87.6241 172.073 88.4769 171.39 87.9117 171.439C87.7465 171.37 88.7479 171.413 88.8326 171.724C88.7015 171.857 88.1994 171.369 88.2168 171.946Z" fill="#9F5225"/>
<path d="M85.5718 174.521L85.4044 174.162C84.837 174.484 83.9558 174.012 83.6088 174.812C83.6595 174.358 83.2486 173.898 83.7631 173.739C83.8754 173.973 84.0681 173.964 84.0681 174.246C84.2863 174.151 84.1993 173.831 84.3369 173.697C84.7754 174.079 85.3493 173.754 85.7072 174.096C85.542 174.027 85.5167 174.113 85.4109 174.16C86.1587 174.756 86.0796 173.211 86.5015 174.249C86.224 173.946 85.9087 174.658 85.5783 174.519L85.5718 174.521Z" fill="#9F5225"/>
<path d="M85.3204 172.049L85.8349 171.891C85.6081 171.416 85.1806 171.894 85.0407 171.456C85.0385 171.166 85.5465 171.01 85.3283 170.823C85.532 171.956 86.0609 170.851 85.9407 172.126C86.648 172.24 86.0632 171.423 86.7957 171.451L87.0755 172.044C86.2306 171.782 86.1588 172.313 85.3139 172.051L85.3204 172.049Z" fill="#9F5225"/>
<path d="M83.2845 172.308L83.0686 172.693L83.1446 172.153C81.946 172.102 81.5079 174.309 80.7496 174.033C79.7693 173.35 79.0561 174.443 78.1303 174.371C77.6264 173.928 78.5268 174.086 78.5398 173.801C78.2968 172.908 78.1644 174.291 77.862 173.564C77.7205 172.916 78.7122 172.82 79.0622 172.416C79.4182 172.495 79.4393 172.701 79.585 173.057C79.6256 172.694 79.9604 172.567 80.0075 172.202C80.7804 172.686 81.0373 171.708 81.8084 172.237C81.9713 171.734 81.2726 172.164 81.4929 172.077L81.8765 172.077L81.8424 172.157C82.4203 172.642 83.3287 172.138 83.6251 171.792C83.3816 171.974 83.2504 172.388 83.5808 172.527L83.7627 171.94L84.5338 172.75C83.9554 172.213 83.5048 173.349 83.2758 172.302L83.2845 172.308Z" fill="#9F5225"/>
<path d="M83.901 171.247C84.6589 170.907 83.9119 172.107 84.7503 171.807L83.825 171.787L83.901 171.247Z" fill="#9F5225"/>
<path d="M80.2644 172.813L79.9151 173.216C80.0342 172.401 80.7796 173.454 80.2644 172.813Z" fill="white"/>
<path d="M78.807 172.857L79.103 173.586L78.6795 173.183L78.807 172.857Z" fill="white"/>
<path d="M77.5889 173.808C77.2467 173.445 77.562 173.121 77.9172 173.2C77.6083 173.241 77.4898 173.572 77.5889 173.808Z" fill="#9F5225"/>
<path d="M75.5886 175.328C76.2492 175.296 75.0268 175.543 75.5908 176.181C75.4649 175.872 75.0718 175.478 75.5886 175.328Z" fill="white"/>
<path d="M73.6912 177.194C73.9473 177.317 74.0219 177.182 74.0335 176.995C73.8672 177.023 73.7357 177.076 73.6912 177.194Z" fill="#9F5225"/>
<path d="M81.684 174.528C81.7587 174.525 81.8419 174.528 81.9099 174.501C81.8311 174.514 81.7565 174.517 81.684 174.528Z" fill="#9F5225"/>
<path d="M81.5378 174.557L81.6843 174.543C81.629 174.541 81.576 174.547 81.5378 174.557Z" fill="#9F5225"/>
<path d="M76.7742 176.345C76.7742 176.345 76.805 176.299 76.818 176.268L76.7742 176.345Z" fill="#9F5225"/>
<path d="M97.6633 173.031C97.8021 173.055 97.8996 173.055 97.9797 173.042L97.6698 173.03L97.6633 173.031Z" fill="#9F5225"/>
<path d="M97.8417 171.965C97.2146 171.556 97.4563 173.136 96.5142 172.901C96.8851 172.958 97.2733 173.001 97.67 173.025C98.0475 172.235 97.2145 172.683 97.844 171.973L97.8417 171.965Z" fill="#9F5225"/>
<path d="M90.3843 171.888C90.3843 171.888 90.36 171.876 90.3511 171.87C90.2959 171.848 90.3249 171.877 90.3843 171.888Z" fill="#9F5225"/>
<path d="M121.661 168.898L121.708 169.096L122.127 168.744L121.661 168.898Z" fill="white"/>
<path d="M121.672 169.274L120.942 169.818L125.782 168.959L125.564 168.72C125.548 168.354 121.603 169.637 121.672 169.274Z" fill="white"/>
<path d="M121.369 169.011C120.716 168.274 120.662 169.459 119.954 168.984C120.424 169.304 120.791 169.679 121.112 169.398L121.367 169.002L121.369 169.011Z" fill="white"/>
<path d="M118.19 165.418C118.149 165.413 118.111 165.423 118.074 165.433C118.128 165.461 118.176 165.49 118.214 165.53L118.184 165.42L118.19 165.418Z" fill="#9F5225"/>
<path d="M118.222 165.529L118.3 165.816C118.347 165.689 118.303 165.604 118.222 165.529Z" fill="#9F5225"/>
<path d="M118.07 165.436C117.946 165.364 117.8 165.29 117.709 165.183L117.81 165.12C117.643 165.069 117.329 164.89 117.294 165.067C117.579 164.963 117.626 165.161 117.722 165.566L117.253 165.712C117.551 166.652 117.658 165.584 118.073 165.444L118.07 165.436Z" fill="#9F5225"/>
<path d="M115.909 166.244C116.057 166.38 116.528 166.242 116.29 166.544C116.392 166.639 116.478 166.598 116.578 166.58C116.225 166.509 116.39 165.814 115.911 166.253L115.909 166.244Z" fill="#9F5225"/>
<path d="M116.588 166.579C116.63 166.585 116.671 166.59 116.729 166.583C116.68 166.571 116.634 166.575 116.588 166.579Z" fill="#9F5225"/>
<path d="M115.042 167.014L114.864 167.063C114.915 167.049 114.962 167.045 115.01 167.049L115.042 167.014Z" fill="#9F5225"/>
<path d="M131.609 168.96C131.002 169.267 130.426 169.583 129.402 169.432C129.265 168.747 128.981 169.318 128.755 168.614C129.749 168.5 125.005 168.971 125.705 168.498L126.009 168.767L125.605 168.103C125.187 168.384 124.678 169.078 124.264 168.734C124.227 168.982 128.238 167.945 128.127 168.178C128.292 167.297 122.527 168.523 122.29 168.165L122.322 168.614C121.496 168.294 120.898 167.762 120.225 167.568L120.207 168.119C120.611 167.858 120.815 168.199 121.318 168.334C120.511 168.388 120.44 168.742 119.82 168.744C119.689 168.058 120.261 168.315 119.423 168.078C119.269 168.411 119.933 169.057 119.226 169.047C118.447 169.384 118.393 168.342 117.668 168.417L118.09 168.073C117.821 168.085 117.299 168.034 117.127 168.451C117.412 168.347 118.25 168.584 118.374 169.272C118.042 169.178 117.428 169.558 117.161 169.578L117.423 170.026C117.231 170.527 116.917 169.882 116.643 170.362C116.245 170.154 116.702 169.633 116.471 169.476C116.436 169.653 115.821 170.033 115.525 169.762C115.473 168.728 116.382 169.914 116.599 168.869L116.01 169.162C115.402 168.236 117.022 168.99 116.642 168.232C115.945 167.286 115.866 169.404 115.146 168.166C115.384 167.863 116.308 167.671 116.113 167.338C115.86 167.768 115.478 167.106 114.999 167.061L114.553 167.624C114.256 167.353 114.44 167.311 114.577 167.071C113.895 167.795 112.395 167.352 111.4 168.258C110.696 168.23 111.222 167.831 110.847 167.529C110.611 168.201 109.9 167.788 109.53 167.863C109.428 167.926 109.108 167.362 109.162 167.101L110.178 167.324C110.065 167.012 110.098 166.466 110.449 166.475C110.458 167.688 111.62 165.53 111.964 166.844L111.829 166.247L113.118 166.449L113.099 166.534C113.052 166.335 114.202 166.769 114.81 166.391C114.579 166.234 113.516 166.657 114.03 165.882C113.465 165.623 112.701 166.326 111.751 166.216L111.841 165.777C110.78 165.363 109.691 166.331 108.612 166.362L109.034 166.863C108.712 167.136 108.326 167.664 107.885 167.248C108.339 167.203 108.047 166.922 107.917 166.702C107.253 166.487 106.433 166.985 105.564 166.888C105.564 166.888 105.629 167.002 105.611 167.087L104.675 166.876C104.284 167.027 104.204 167.375 104.023 167.785C103.856 167.734 103.484 167.801 103.564 167.453C103.635 167.407 103.715 167.368 103.771 167.397C103.219 166.852 103.498 167.621 102.88 167.324C103.399 167.771 102.888 168.07 103.035 168.584C102.351 168.454 102.8 167.671 102.675 167.441C101.952 167.859 101.936 168.313 101.173 168.53C101.067 168.216 101.684 168.232 101.688 167.861C101.483 167.979 101.215 167.991 101.153 167.867L101.588 167.545C100.847 168.047 100.081 168.257 99.1311 168.121L99.1753 167.95L98.6148 168.042L98.9247 168.618C98.5945 168.506 98.3671 169.079 98.1165 168.619L98.2201 168.564L97.8094 168.412L98.3077 168.963C97.8702 169.276 96.9903 168.117 96.2269 168.308C96.2029 169.143 97.6233 168.446 97.9107 169.476C97.6847 169.67 97.2661 169.899 97.0626 169.638C97.0474 169.352 97.2292 169.328 97.4153 169.295C96.6339 168.831 95.7596 169.819 95.1679 168.95L95.6242 168.553C95.0086 168.519 94.8093 169.656 94.5058 169.079L95.1504 170.065C94.4537 169.63 93.6881 169.813 93.0573 169.493C92.9486 168.889 93.8801 169.418 93.8207 169.302L93.4795 168.893C92.6466 169.341 93.2876 169.289 92.2685 169.771L92.1939 169.368C91.9324 170.021 90.791 168.951 91.3168 169.987L91.5682 169.707L91.6174 170.195C91.1836 170.138 90.7561 170.053 90.3243 169.977C90.496 170.326 89.8824 170.274 90.1135 170.739L89.5948 170.344C89.481 171.053 90.5605 171.101 90.6902 171.629C90.7208 171.947 90.4995 171.927 90.3843 171.888C91.0184 172.348 91.1155 171.143 91.6652 171.063L92.0064 171.471L91.8977 170.867C92.1454 170.958 92.4019 171.337 92.5184 171.56C92.932 170.672 93.6801 171.603 94.4754 171.324C93.7345 171.06 94.8194 170.693 94.6753 170.547C95.0454 170.499 96.1556 171.454 96.349 170.679C96.5157 170.369 95.8131 170.297 96.3122 170.108C96.6635 170.144 96.9517 170.435 96.7851 170.744C97.5766 170.836 98.4481 170.606 99.2772 170.502L99.0078 170.127C99.4619 169.721 100.068 170.207 100.42 170.603C100.464 170.433 100.523 170.549 100.398 170.319C100.932 169.565 101.398 171.022 102.457 170.715C102.503 171.292 102.027 171.414 101.631 171.188L101.844 171.816C100.905 171.976 99.8194 171.983 98.9917 171.708L99.4284 172.134C98.9286 173.09 98.8071 171.362 98.3623 172.417C97.8604 172.237 98.639 172.051 98.2407 171.816C97.9455 172.038 98.5265 172.918 97.9834 173.023C100.095 173.123 102.404 172.72 104.558 172.517C104.624 172.631 104.514 172.688 104.412 172.751C105.326 173.522 110.787 170.257 111.311 171.901C111.366 171.64 110.965 171.424 111.427 171.377C111.492 171.491 111.641 171.626 111.586 171.887C112.54 170.781 114.264 171.48 115.512 170.637C115.542 170.928 115.874 171.022 115.921 171.22C116.249 170.479 117.209 171.035 117.568 170.585L117.497 170.939L118.884 170.682C118.95 170.796 118.763 170.83 118.664 170.901C118.997 170.995 118.985 170.619 118.957 170.336L119.731 170.926C121.277 169.411 123.931 170.789 125.835 169.616C126.274 170.103 126.594 170.28 127.134 170.238L126.914 170.456C127.554 170.809 126.877 170.167 127.387 170.3C127.78 170.589 127.68 171.118 127.186 170.892C126.967 171.137 127.176 171.291 127.392 171.391C129.044 170.983 130.507 170.265 131.607 168.951L131.609 168.96Z" fill="#9F5225"/>
<path d="M68.1772 179.14C68.3007 178.851 67.4438 179.007 67.7619 178.382C68.9265 177.104 71.3148 177.736 72.8392 176.755C73.2171 176.299 73.3361 176.275 73.7046 176.016C73.7291 176.106 73.7409 176.226 73.7352 176.333C74.1832 176.263 74.9403 176.382 75.3605 176.082C75.5087 176.191 75.6551 176.627 75.4009 176.538C76.1424 176.881 76.4862 175.659 76.9242 175.989C76.6232 176.291 77.313 176.393 76.9423 176.644C77.6749 176.672 77.4138 175.124 77.969 174.91C78.0155 175.029 78.0706 175.155 77.956 175.195C78.5054 174.499 79.9432 175.506 79.8741 174.406L80.183 174.85C80.4186 174.486 80.317 174.241 80.7664 174.074C81.0883 174.232 80.7999 174.479 80.9355 174.644C81.0101 174.201 81.8434 174.369 82.1376 173.734C82.076 173.046 81.5923 174.675 81.15 174.074C81.1208 173.942 81.1703 173.893 81.2416 173.873C79.341 174.112 78.1168 176.094 76.484 175.651C76.2018 176.151 75.8799 175.711 75.664 175.251C75.92 175.013 76.6703 174.517 76.8119 175.473L77.2208 174.824C77.4118 174.86 77.2873 173.89 77.349 173.733C77.0141 173.859 76.5043 172.934 76.9262 172.563C75.9939 172.492 77.4791 174.595 76.6346 174.386L76.4256 173.695C76.63 174.062 75.9675 174.419 75.6776 174.199L75.7697 174.05C73.6582 174.488 70.756 174.375 68.3558 174.442C68.09 176.232 66.5154 174.057 66.2429 175.54C65.9402 175.35 66.487 174.875 65.9551 174.739C65.6859 174.671 65.7544 175.128 65.7878 175.251C65.7031 175.221 65.6226 175.182 65.5379 175.152C65.6917 176.845 66.437 178.252 68.1685 179.134L68.1772 179.14Z" fill="#9F5225"/>
<path d="M90.886 172.409C90.5845 172.095 90.0555 172.047 90.1988 172.65C90.109 172.252 89.9195 171.931 89.6302 171.687C89.7242 172.084 89.3967 172.033 89.1952 172.036C89.2967 171.717 89.5041 171.634 89.9166 171.459C90.5012 172.25 91.0447 170.79 91.6234 171.661C91.4023 171.924 91.2687 172.586 90.8817 172.419L90.886 172.409Z" fill="white"/>
<path d="M89.6352 175.376L89.5251 175.151L90.3049 175.404C90.1194 175.235 89.594 175.097 89.6287 175.378L89.6352 175.376Z" fill="white"/>
<path d="M87.2331 175.102C87.386 175.536 87.0719 175.842 87.1595 176.241C87.001 175.351 86.5629 176.149 86.2309 176.081L85.981 175.418C86.1914 174.885 86.9852 174.985 87.6102 174.823L87.2396 175.1L87.2331 175.102Z" fill="#9F5225"/>
<path d="M86.7532 175.688L86.469 175.283C86.66 175.371 87.0643 175.375 86.7532 175.688Z" fill="white"/>
<path d="M86.7198 173.24C87.2052 173.107 86.478 173.579 87.0039 173.646C86.813 173.557 86.6162 173.55 86.7198 173.24Z" fill="white"/>
<path d="M84.892 174.906L86.0223 175.09L85.6371 175.442L84.892 174.906Z" fill="#9F5225"/>
<path d="M85.104 176.369C85.2447 176.348 85.418 176.063 85.1738 175.857C84.8901 176.454 84.5139 175.712 84.234 176.22L84.6189 176.405C84.671 176.981 83.8026 175.915 83.9923 176.92C83.4045 176.271 84.1934 176.02 83.5119 175.59C84.1065 175.7 84.488 175.437 84.9325 175.201C84.8346 175.43 84.7694 175.395 84.6062 175.59C84.9506 175.575 85.4551 175.815 85.8648 175.835C85.7725 176.521 85.3718 175.97 85.1085 176.385L85.104 176.369Z" fill="#9F5225"/>
<path d="M83.4054 176.718C83.0486 176.816 82.4837 176.891 82.2634 176.132C82.5579 175.55 82.7318 176.189 82.9595 176.488C83.0472 176.349 83.4062 176.26 83.191 175.878C83.1662 176.044 83.5244 176.412 83.4054 176.718Z" fill="#9F5225"/>
<path d="M81.9761 176.995L81.6027 176.339L81.7898 176.438L81.7341 175.951C81.7805 176.071 82.0538 176.947 82.4105 176.849C82.2792 177.237 82.1393 176.8 81.9739 176.986L81.9761 176.995Z" fill="#9F5225"/>
<path d="M81.3682 173.659C81.178 174.011 81.0033 173.83 80.6922 173.659C81.0911 173.691 81.6388 173.629 81.8012 173.893L81.7483 173.775C81.7483 173.775 82.1666 174.083 82.506 174.536C82.0347 174.111 81.4318 174.892 81.3617 173.661L81.3682 173.659Z" fill="#9F5225"/>
<path d="M80.8109 176.938L81.3441 176.669L81.2352 176.884L80.8109 176.938Z" fill="#9F5225"/>
<path d="M81.1713 174.83C80.7412 174.965 81.3339 174.274 80.9162 174.327C80.7943 174.264 81.5269 174.292 81.6139 174.612C81.5239 174.742 81.128 174.26 81.1713 174.83Z" fill="#9F5225"/>
<path d="M79.3234 177.411L79.1841 177.053C78.7684 177.369 78.0974 176.901 77.8586 177.689C77.8834 177.242 77.559 176.767 77.9458 176.626C78.0386 176.865 78.1751 176.854 78.1903 177.14C78.352 177.043 78.2716 176.722 78.3745 176.588C78.7155 176.97 79.1312 176.654 79.4112 176.991C79.2871 176.919 79.2683 177.004 79.1906 177.051C79.7738 177.658 79.6514 176.106 80.0082 177.136C79.7848 176.827 79.5845 177.551 79.3299 177.409L79.3234 177.411Z" fill="#9F5225"/>
<path d="M79.0422 174.952L79.4158 174.789C79.2324 174.319 78.937 174.796 78.8166 174.354C78.8014 174.067 79.1707 173.913 79.0003 173.722C79.1952 174.849 79.5379 173.751 79.5086 175.027C80.0339 175.139 79.5682 174.324 80.1058 174.353L80.3444 174.948C79.7075 174.682 79.6813 175.227 79.0444 174.961L79.0422 174.952Z" fill="#9F5225"/>
<path d="M77.5545 175.184L77.4057 175.559L77.4493 175.028C76.5734 174.959 76.276 177.145 75.7037 176.835C74.9659 176.121 74.4344 177.165 73.7314 177.04C73.3659 176.568 74.0371 176.781 74.05 176.495C73.8893 175.597 73.7589 176.962 73.5496 176.218C73.4644 175.573 74.2009 175.538 74.4514 175.153C74.7079 175.25 74.7225 175.457 74.8358 175.822C74.8698 175.461 75.1204 175.357 75.1457 174.989C75.7174 175.502 75.9006 174.536 76.4682 175.085C76.5771 174.588 76.0731 174.99 76.2351 174.92L76.5169 174.931L76.498 175.015C76.933 175.512 77.5967 175.031 77.7956 174.686C77.6279 174.864 77.5379 175.276 77.786 175.42L77.905 174.832L78.5028 175.646C78.0566 175.108 77.7576 176.238 77.5632 175.19L77.5545 175.184Z" fill="#9F5225"/>
<path d="M77.9688 174.124C78.5122 173.79 78.0079 174.985 78.6101 174.688L77.9339 174.662L77.9688 174.124Z" fill="#9F5225"/>
<path d="M75.3275 175.616L75.0732 176.01C75.16 175.205 75.7174 176.282 75.3275 175.616Z" fill="white"/>
<path d="M74.2447 175.575L74.4606 176.317L74.1497 175.892L74.2447 175.575Z" fill="white"/>
<path d="M73.324 176.445C73.0811 176.063 73.3188 175.761 73.5834 175.864C73.3586 175.882 73.2551 176.191 73.324 176.445Z" fill="#9F5225"/>
<path d="M71.7428 177.747C72.2567 177.791 71.2954 177.896 71.6929 178.589C71.606 178.269 71.3339 177.833 71.7428 177.747Z" fill="white"/>
<path d="M70.1247 179.342C70.3144 179.502 70.3937 179.383 70.4162 179.21C70.2776 179.212 70.1738 179.241 70.1247 179.342Z" fill="#9F5225"/>
<path d="M76.4019 177.372C76.4572 177.375 76.5187 177.375 76.5738 177.351C76.5144 177.359 76.4613 177.365 76.4019 177.372Z" fill="#9F5225"/>
<path d="M76.2943 177.387L76.4019 177.372C76.3615 177.367 76.3245 177.378 76.2943 177.387Z" fill="#9F5225"/>
<path d="M72.6175 178.872C72.6175 178.872 72.6433 178.838 72.6561 178.807L72.6175 178.872Z" fill="#9F5225"/>
<path d="M88.2873 175.953C88.3899 175.977 88.4645 175.973 88.522 175.958L88.2915 175.943L88.2873 175.953Z" fill="#9F5225"/>
<path d="M88.3438 174.889C87.851 174.487 88.1404 176.063 87.4192 175.82C87.7014 175.884 87.9963 175.917 88.2868 175.935C88.5104 175.143 87.9223 175.594 88.3416 174.881L88.3438 174.889Z" fill="#9F5225"/>
<path d="M82.7778 174.756C82.7778 174.756 82.7609 174.744 82.7525 174.737C82.7126 174.714 82.7338 174.743 82.7778 174.756Z" fill="#9F5225"/>
<path d="M105.836 171.497L105.902 171.69L106.166 171.327L105.836 171.497Z" fill="white"/>
<path d="M105.901 171.86L105.431 172.438C106.602 172.082 107.78 171.698 108.949 171.202L108.737 170.987C108.688 170.806 107.995 171.155 107.297 171.46C106.6 171.765 105.902 172.045 105.903 171.868L105.901 171.86Z" fill="white"/>
<path d="M105.641 171.621C105.049 170.929 105.175 172.11 104.582 171.673C104.976 171.97 105.302 172.321 105.508 172.027L105.643 171.629L105.641 171.621Z" fill="white"/>
<path d="M102.798 168.216C102.798 168.216 102.741 168.223 102.719 168.237C102.76 168.268 102.799 168.29 102.833 168.322L102.804 168.214L102.798 168.216Z" fill="#9F5225"/>
<path d="M102.834 168.33L102.924 168.614C102.95 168.483 102.909 168.407 102.834 168.33Z" fill="#9F5225"/>
<path d="M102.712 168.231C102.609 168.162 102.494 168.097 102.417 167.995L102.484 167.932C102.354 167.889 102.105 167.719 102.098 167.897C102.29 167.783 102.35 167.978 102.479 168.374L102.159 168.532C102.5 169.451 102.441 168.393 102.719 168.237L102.712 168.231Z" fill="#9F5225"/>
<path d="M101.235 169.102C101.361 169.234 101.686 169.075 101.548 169.385C101.636 169.475 101.694 169.433 101.763 169.405C101.496 169.347 101.53 168.652 101.235 169.102Z" fill="#9F5225"/>
<path d="M101.776 169.402C101.776 169.402 101.837 169.41 101.873 169.4C101.837 169.385 101.807 169.394 101.776 169.402Z" fill="#9F5225"/>
<path d="M100.694 169.885L100.563 169.921C100.6 169.91 100.636 169.918 100.677 169.923L100.694 169.885Z" fill="#9F5225"/>
<path d="M113.395 169.736C113.052 170.27 112.694 170.799 111.848 170.943C111.546 170.321 111.488 170.953 111.122 170.323C111.484 170.144 110.796 170.483 110.067 170.7C109.341 170.925 108.575 171.029 108.796 170.766L109.079 170.988L108.639 170.395C108.386 170.72 108.13 171.468 107.759 171.156C107.764 171.277 108.483 171.001 109.179 170.661C109.876 170.329 110.538 169.919 110.53 170.045C110.47 169.594 109.475 169.981 108.428 170.286C107.386 170.606 106.301 170.894 106.189 170.74L106.281 171.181C105.618 170.923 105.097 170.414 104.575 170.266L104.64 170.812C104.907 170.536 105.098 170.854 105.491 170.966C104.896 171.059 104.896 171.42 104.431 171.45C104.248 170.778 104.7 171.007 104.047 170.807C103.975 171.135 104.561 171.749 104.03 171.771C103.496 172.138 103.321 171.111 102.791 171.212L103.063 170.856C102.868 170.883 102.474 170.841 102.399 171.258C102.6 171.15 103.247 171.352 103.432 172.032C103.173 171.953 102.758 172.348 102.564 172.375L102.814 172.809C102.729 173.316 102.419 172.688 102.271 173.169C101.946 172.976 102.228 172.449 102.034 172.3C102.027 172.478 101.616 172.864 101.358 172.608C101.197 171.578 102.014 172.737 102.056 171.687L101.651 171.991C101.093 171.096 102.384 171.791 102.016 171.055C101.392 170.143 101.577 172.232 100.902 171.034C101.043 170.731 101.709 170.514 101.522 170.186C101.389 170.619 101.024 169.97 100.666 169.936L100.402 170.502C100.148 170.236 100.282 170.191 100.359 169.959C99.9397 170.699 98.7794 170.277 98.1406 171.182C97.6118 171.16 97.9706 170.762 97.6606 170.468C97.5574 171.139 96.9889 170.74 96.7229 170.813C96.6562 170.875 96.3637 170.313 96.3769 170.054L97.1456 170.266C97.0327 169.953 97.0025 169.407 97.2583 169.425C97.3845 170.632 98.0268 168.484 98.4137 169.778L98.251 169.18L99.2144 169.365L99.2108 169.454C99.1573 169.257 100.045 169.675 100.453 169.281C100.263 169.122 99.5345 169.568 99.8254 168.793C99.3815 168.544 98.9059 169.256 98.1902 169.161L98.2106 168.724C97.3929 168.331 96.6917 169.29 95.9012 169.33L96.2603 169.83C96.0479 170.1 95.8093 170.632 95.4465 170.22C95.7755 170.174 95.5328 169.897 95.4163 169.674C94.9077 169.47 94.348 169.949 93.6973 169.863C93.6973 169.863 93.7567 169.979 93.7508 170.059L93.045 169.848C92.7666 170.003 92.7411 170.345 92.6359 170.752C92.5098 170.699 92.2351 170.765 92.2649 170.413C92.3166 170.373 92.3683 170.332 92.4161 170.354C91.9613 169.81 92.2315 170.572 91.7482 170.282C92.1698 170.73 91.8125 171.03 91.9637 171.535C91.447 171.403 91.7162 170.625 91.6039 170.392C91.1022 170.802 91.123 171.263 90.5721 171.467C90.4721 171.151 90.9317 171.175 90.9007 170.804C90.7586 170.923 90.5571 170.925 90.5042 170.807L90.8008 170.488C90.2867 170.981 89.7379 171.193 89.0218 171.046L89.0378 170.874L88.6289 170.96L88.9019 171.528C88.6475 171.412 88.5176 171.985 88.304 171.533L88.3794 171.477L88.0619 171.335L88.4669 171.876C88.1616 172.188 87.4313 171.041 86.8781 171.236C86.9148 172.063 87.9212 171.356 88.2087 172.387C88.0542 172.588 87.759 172.809 87.5924 172.555C87.5555 172.266 87.6962 172.245 87.8347 172.216C87.2223 171.759 86.6405 172.746 86.1463 171.877L86.4575 171.484C86 171.442 85.9286 172.588 85.6663 172.008L86.2111 172.986C85.6683 172.554 85.1084 172.725 84.6227 172.4C84.5011 171.799 85.2311 172.33 85.1804 172.221L84.9021 171.813C84.316 172.246 84.7881 172.214 84.0592 172.66L83.9781 172.259C83.8206 172.91 82.9086 171.812 83.3673 172.858L83.5364 172.583L83.6051 173.066L82.6305 172.84C82.7827 173.194 82.3207 173.136 82.5172 173.601L82.1089 173.202C82.0645 173.91 82.8666 173.964 82.9941 174.483C83.0312 174.799 82.8664 174.783 82.7794 174.745C83.2771 175.216 83.2785 173.992 83.6789 173.926L83.9572 174.334L83.8421 173.732C84.0269 173.822 84.2487 174.202 84.348 174.439C84.6057 173.567 85.2152 174.501 85.7895 174.229C85.2197 173.953 86.0035 173.607 85.8876 173.462C86.1602 173.414 87.0538 174.367 87.1454 173.602C87.2492 173.292 86.7222 173.225 87.0804 173.03C87.3406 173.065 87.579 173.352 87.4752 173.662C88.0695 173.746 88.7004 173.502 89.3085 173.406L89.0825 173.037C89.3915 172.635 89.8783 173.118 90.1674 173.515C90.1834 173.343 90.2428 173.459 90.1305 173.225C90.4758 172.471 90.929 173.931 91.6981 173.633C91.7761 174.201 91.426 174.324 91.1144 174.101L91.3208 174.731C90.6308 174.885 89.8248 174.894 89.1834 174.612L89.5442 175.041C89.2373 175.988 89.0227 174.277 88.7664 175.334C88.3772 175.158 88.9434 174.959 88.6318 174.736C88.4277 174.96 88.9176 175.838 88.5284 175.945C90.1108 176.022 91.8154 175.652 93.4107 175.445C93.4701 175.56 93.3947 175.616 93.3215 175.68C94.0749 176.451 97.8939 173.196 98.4371 174.808C98.4568 174.547 98.1345 174.336 98.4699 174.288C98.5271 174.396 98.656 174.537 98.6364 174.798C99.2476 173.688 100.613 174.353 101.456 173.48C101.512 173.764 101.773 173.851 101.833 174.046C102.001 173.304 102.783 173.821 102.998 173.357L102.988 173.703L103.999 173.4C104.063 173.506 103.929 173.551 103.858 173.624C104.123 173.701 104.064 173.329 104.01 173.054L104.668 173.604C105.158 172.818 105.931 172.739 106.763 172.67C107.59 172.611 108.493 172.548 109.116 171.841C109.551 172.259 109.838 172.392 110.259 172.25L110.133 172.504C110.718 172.732 110.044 172.229 110.478 172.26C110.854 172.465 110.891 173.01 110.446 172.885C110.32 173.166 110.52 173.288 110.716 173.34C111.984 172.623 113.046 171.425 113.401 169.734L113.395 169.736Z" fill="#9F5225"/>
<path d="M64.898 179.609C65.1155 179.435 64.2181 179.108 64.7527 178.741C65.5222 178.496 66.347 178.684 67.1846 178.842C68.0135 178.993 68.8421 179.119 69.4916 178.765C69.8397 178.379 69.9307 178.38 70.239 178.182C70.2506 178.275 70.2471 178.391 70.2414 178.498C70.599 178.506 71.1814 178.725 71.5305 178.471C71.6332 178.592 71.7277 179.042 71.5274 178.921C72.0897 179.348 72.4275 178.181 72.7465 178.534C72.5016 178.813 73.0315 178.967 72.7341 179.18C73.309 179.27 73.1584 177.717 73.5884 177.555C73.6218 177.678 73.6553 177.801 73.5732 177.832C74.0038 177.186 75.0823 178.256 75.0437 177.166L75.279 177.621C75.4604 177.263 75.3806 177.021 75.7153 176.867C75.9571 177.039 75.7422 177.274 75.8431 177.44C75.8961 176.994 76.5303 177.199 76.7357 176.57C76.6806 175.881 76.342 177.506 76.0035 176.876C75.9808 176.742 76.0173 176.697 76.0692 176.682C74.6622 176.865 73.6798 178.737 72.4273 178.155C72.186 178.626 71.9527 178.153 71.8147 177.671C72.0255 177.472 72.616 177.055 72.6884 178.013L73.0261 177.41C73.1739 177.466 73.1036 176.49 73.1587 176.334C72.8994 176.432 72.554 175.47 72.883 175.142C72.1951 174.996 73.226 177.197 72.602 176.927L72.4731 176.223C72.6104 176.599 72.0991 176.898 71.8891 176.638L71.9639 176.503C70.3599 176.704 68.1416 176.211 66.3787 175.47C66.0748 176.249 65.7304 175.982 65.4312 175.676C65.1233 175.364 64.8671 175.012 64.505 175.551C64.364 175.238 64.9178 175.121 64.5985 174.742C64.4433 174.555 64.3141 174.952 64.2912 175.073C64.2452 175.006 64.2034 174.929 64.1552 174.854C63.8704 175.575 63.6788 176.306 63.7629 177.102C63.8383 177.891 64.1916 178.754 64.913 179.587L64.898 179.609Z" fill="#9F5225"/>
<path d="M99.3943 172.043C99.041 171.744 98.4104 171.731 98.558 172.325C98.4596 171.929 98.2419 171.616 97.9051 171.385C98.0056 171.781 97.6131 171.747 97.375 171.768C97.5025 171.443 97.753 171.339 98.2628 171.138C98.9447 171.902 99.6417 170.391 100.305 171.239C100.025 171.518 99.8549 172.199 99.3966 172.051L99.3943 172.043Z" fill="white"/>
<path d="M97.8246 175.112L97.7016 174.891L98.6284 175.095C98.4105 174.934 97.79 174.831 97.8246 175.112Z" fill="white"/>
<path d="M94.9704 175.026C95.1405 175.446 94.7725 175.785 94.8753 176.188C94.6909 175.305 94.1664 176.144 93.7717 176.103L93.4699 175.454C93.7148 174.894 94.6706 174.923 95.4208 174.709L94.9769 175.024L94.9704 175.026Z" fill="#9F5225"/>
<path d="M94.397 175.66L94.0567 175.279C94.2865 175.357 94.7641 175.323 94.397 175.66Z" fill="white"/>
<path d="M94.3783 173.181C94.9628 173.003 94.087 173.542 94.7185 173.562C94.4887 173.485 94.251 173.506 94.3783 173.181Z" fill="white"/>
<path d="M92.1781 175.031L93.5221 175.103L93.0658 175.501L92.1781 175.031Z" fill="#9F5225"/>
<path d="M92.4349 176.489C92.5971 176.445 92.8028 176.15 92.5154 175.965C92.1779 176.595 91.7283 175.89 91.4074 176.427L91.8657 176.574C91.9372 177.145 90.8897 176.163 91.1335 177.162C90.4269 176.563 91.3604 176.228 90.5364 175.864C91.2475 175.916 91.6914 175.601 92.2201 175.315C92.1027 175.55 92.0267 175.526 91.8333 175.738C92.2381 175.689 92.8485 175.883 93.3293 175.857C93.2198 176.556 92.7435 176.035 92.4327 176.481L92.4349 176.489Z" fill="#9F5225"/>
<path d="M90.4252 177.035C90.0015 177.168 89.331 177.317 89.0587 176.572C89.4007 175.959 89.6178 176.578 89.8951 176.854C90.0001 176.702 90.4238 176.568 90.1589 176.209C90.1299 176.385 90.5592 176.707 90.4252 177.035Z" fill="#9F5225"/>
<path d="M88.7399 177.465L88.2845 176.841L88.5083 176.92L88.4308 176.431C88.4902 176.547 88.8196 177.399 89.252 177.272C89.0991 177.683 88.9333 177.253 88.7312 177.458L88.7399 177.465Z" fill="#9F5225"/>
<path d="M87.9652 174.15C87.7471 174.526 87.5399 174.354 87.1748 174.216C87.6429 174.22 88.2832 174.089 88.478 174.344L88.4186 174.228C88.4186 174.228 88.9256 174.503 89.3318 174.92C88.7612 174.539 88.0657 175.39 87.9587 174.151L87.9652 174.15Z" fill="#9F5225"/>
<path d="M87.345 177.516L87.9775 177.202L87.8514 177.43L87.345 177.516Z" fill="#9F5225"/>
<path d="M87.7553 175.356C87.2517 175.529 87.9351 174.787 87.4482 174.868C87.3004 174.811 88.169 174.776 88.2754 175.09C88.1682 175.234 87.6967 174.782 87.7553 175.356Z" fill="#9F5225"/>
<path d="M85.5491 178.074L85.3839 177.723C84.8708 178.066 84.0698 177.581 83.7507 178.355C83.8014 177.901 83.4294 177.43 83.9007 177.292C84 177.529 84.1733 177.526 84.1733 177.808C84.372 177.718 84.2915 177.397 84.4162 177.266C84.8135 177.65 85.3223 177.317 85.6586 177.656C85.5086 177.592 85.4897 177.676 85.3926 177.729C86.0905 178.322 85.9594 176.764 86.3833 177.784C86.121 177.486 85.8601 178.218 85.5513 178.082L85.5491 178.074Z" fill="#9F5225"/>
<path d="M85.2436 175.599L85.6843 175.426C85.4662 174.957 85.1255 175.447 84.9856 175.01C84.9704 174.723 85.3981 174.553 85.2082 174.368C85.4313 175.495 85.8301 174.373 85.7901 175.661C86.4062 175.748 85.8627 174.954 86.4932 174.94L86.7749 175.515C86.0257 175.297 85.9908 175.835 85.2479 175.589L85.2436 175.599Z" fill="#9F5225"/>
<path d="M83.483 175.845L83.2908 176.215L83.3626 175.685C82.3284 175.598 81.853 177.745 81.1765 177.41C80.3171 176.659 79.6337 177.683 78.8048 177.531C78.3743 177.05 79.1756 177.28 79.1973 177.001C79.0279 176.097 78.8324 177.453 78.6014 176.706C78.5075 176.054 79.4045 176.046 79.7353 175.674C80.0503 175.781 80.0562 175.982 80.1717 176.356C80.2275 175.997 80.5302 175.905 80.5859 175.547C81.2617 176.084 81.521 175.141 82.1818 175.7C82.3341 175.209 81.713 175.59 81.9096 175.519L82.25 175.54L82.2224 175.618C82.7247 176.132 83.5337 175.673 83.7824 175.332C83.5714 175.504 83.4532 175.915 83.7447 176.064L83.9071 175.483L84.5894 176.3C84.0804 175.761 83.6817 176.883 83.4851 175.827L83.483 175.845Z" fill="#9F5225"/>
<path d="M84.0083 174.805C84.6515 174.479 84.0257 175.663 84.7407 175.371L83.9453 175.342L84.0083 174.805Z" fill="#9F5225"/>
<path d="M80.7856 176.177L80.4555 176.549C80.5943 175.755 81.2189 176.849 80.7856 176.177Z" fill="white"/>
<path d="M79.4776 176.112L79.7087 176.858L79.3456 176.421L79.4776 176.112Z" fill="white"/>
<path d="M78.3349 176.931C78.0422 176.546 78.3448 176.252 78.6591 176.359C78.3846 176.373 78.2616 176.688 78.3349 176.931Z" fill="#9F5225"/>
<path d="M76.4524 178.251C77.0528 178.28 75.9314 178.411 76.4025 179.092C76.3026 178.776 75.9742 178.338 76.4524 178.251Z" fill="white"/>
<path d="M74.6134 179.9C74.842 180.049 74.9191 179.922 74.9416 179.748C74.7834 179.756 74.6602 179.79 74.6134 179.9Z" fill="#9F5225"/>
<path d="M81.9995 177.983C82.0699 177.99 82.1382 177.989 82.2084 177.969C82.1338 177.972 82.0741 177.98 81.9995 177.983Z" fill="#9F5225"/>
<path d="M81.8639 177.982L81.9945 177.971C81.9467 177.968 81.9011 177.972 81.8639 177.982Z" fill="#9F5225"/>
<path d="M77.476 179.364C77.476 179.364 77.5091 179.327 77.5222 179.296L77.476 179.364Z" fill="#9F5225"/>
<path d="M96.2136 175.783C96.3331 175.794 96.4228 175.795 96.4908 175.768L96.2178 175.773L96.2136 175.783Z" fill="#9F5225"/>
<path d="M96.2934 174.718C95.712 174.349 96.0339 175.916 95.1831 175.735C95.5214 175.775 95.866 175.786 96.2149 175.787C96.4947 174.971 95.7878 175.473 96.2999 174.716L96.2934 174.718Z" fill="#9F5225"/>
<path d="M89.6509 175.116C89.6509 175.116 89.6289 175.113 89.6177 175.098C89.5625 175.076 89.598 175.103 89.6509 175.116Z" fill="#9F5225"/>
<path d="M117.271 170.393L117.337 170.586L117.671 170.205L117.271 170.393Z" fill="white"/>
<path d="M117.324 170.775L116.726 171.37C118.14 170.983 119.55 170.553 120.946 170.101L120.726 169.879C120.677 169.523 117.299 171.143 117.324 170.775Z" fill="white"/>
<path d="M117.025 170.524C116.378 169.838 116.437 171.029 115.765 170.605C116.211 170.888 116.571 171.239 116.831 170.939L117.019 170.526L117.025 170.524Z" fill="white"/>
<path d="M113.89 167.176C113.857 167.176 113.821 167.186 113.793 167.202C113.84 167.231 113.885 167.252 113.919 167.284L113.89 167.176Z" fill="#9F5225"/>
<path d="M113.927 167.284L114.005 167.571C114.05 167.435 114.009 167.359 113.927 167.284Z" fill="#9F5225"/>
<path d="M113.792 167.197C113.677 167.132 113.542 167.072 113.453 166.973L113.539 166.905C113.389 166.867 113.093 166.702 113.079 166.881C113.319 166.763 113.379 166.958 113.499 167.348L113.099 167.519C113.44 168.438 113.447 167.362 113.799 167.195L113.792 167.197Z" fill="#9F5225"/>
<path d="M111.95 168.136C112.096 168.263 112.495 168.093 112.309 168.407C112.409 168.494 112.48 168.448 112.564 168.425C112.246 168.38 112.338 167.67 111.95 168.136Z" fill="#9F5225"/>
<path d="M112.578 168.418C112.613 168.425 112.652 168.423 112.701 168.409C112.658 168.396 112.615 168.408 112.578 168.418Z" fill="#9F5225"/>
<path d="M111.249 168.951L111.09 168.994C111.135 168.982 111.184 168.986 111.226 168.991L111.249 168.951Z" fill="#9F5225"/>
<path d="M126.126 169.446C125.624 169.83 125.151 170.215 124.223 170.187C124.014 169.522 123.83 170.127 123.548 169.447C124.417 169.235 120.254 170.199 120.828 169.646L121.129 169.88L120.695 169.26C120.348 169.574 119.973 170.32 119.576 170.015C119.575 170.138 120.437 169.85 121.284 169.556C122.136 169.253 122.972 168.944 122.943 169.067C122.963 168.603 121.738 168.868 120.469 169.145C119.203 169.439 117.891 169.763 117.772 169.611L117.845 170.057C117.087 169.807 116.5 169.316 115.89 169.175L115.923 169.729C116.257 169.444 116.469 169.765 116.929 169.868C116.222 169.982 116.185 170.336 115.635 170.389C115.459 169.715 115.983 169.924 115.225 169.753C115.115 170.091 115.768 170.696 115.138 170.737C114.475 171.121 114.335 170.094 113.703 170.205L114.049 169.837C113.814 169.867 113.347 169.844 113.227 170.274C113.473 170.153 114.235 170.341 114.405 171.017C114.099 170.942 113.587 171.364 113.351 171.393L113.62 171.821C113.488 172.333 113.158 171.71 112.952 172.207C112.573 172.02 112.948 171.477 112.728 171.335C112.715 171.515 112.191 171.922 111.908 171.674C111.781 170.643 112.682 171.779 112.791 170.719L112.286 171.042C111.675 170.153 113.173 170.817 112.777 170.08C112.086 169.177 112.18 171.291 111.445 170.101C111.631 169.786 112.435 169.54 112.235 169.216C112.05 169.662 111.651 169.015 111.228 168.998L110.873 169.588C110.587 169.332 110.747 169.28 110.856 169.038C110.314 169.812 108.941 169.431 108.13 170.392C107.504 170.396 107.947 169.976 107.583 169.688C107.419 170.367 106.762 170.001 106.437 170.09C106.351 170.157 106.026 169.603 106.059 169.339L106.977 169.51C106.857 169.2 106.849 168.656 107.154 168.652C107.248 169.868 108.124 167.655 108.524 168.946L108.361 168.348L109.506 168.483L109.496 168.574C109.443 168.378 110.485 168.752 110.994 168.34C110.778 168.188 109.874 168.682 110.269 167.878C109.756 167.658 109.131 168.384 108.281 168.335L108.327 167.89C107.367 167.537 106.462 168.542 105.518 168.633L105.929 169.119C105.659 169.405 105.355 169.954 104.932 169.551C105.332 169.485 105.05 169.219 104.921 168.999C104.315 168.821 103.63 169.352 102.845 169.286C102.845 169.286 102.911 169.4 102.899 169.482L102.059 169.316C101.722 169.487 101.671 169.836 101.539 170.251C101.387 170.204 101.061 170.285 101.112 169.936C101.177 169.892 101.242 169.848 101.296 169.868C100.77 169.343 101.068 170.107 100.501 169.839C100.994 170.268 100.552 170.591 100.718 171.101C100.098 170.997 100.451 170.196 100.326 169.966C99.7076 170.409 99.7242 170.88 99.0587 171.123C98.9458 170.811 99.5026 170.808 99.4781 170.436C99.3036 170.563 99.0631 170.576 98.9995 170.47L99.3674 170.132C98.7388 170.665 98.0668 170.911 97.2124 170.819L97.2414 170.643L96.7504 170.76L97.0624 171.318C96.7561 171.217 96.5895 171.808 96.3411 171.357L96.4295 171.297L96.0472 171.173L96.5236 171.694C96.1556 172.033 95.2913 170.931 94.6171 171.168C94.6495 172.005 95.8828 171.209 96.2027 172.231C96.0093 172.442 95.6537 172.698 95.4524 172.445C95.4155 172.156 95.5799 172.12 95.7443 172.084C95.0174 171.666 94.2974 172.709 93.7104 171.883L94.0971 171.46C93.5403 171.463 93.4452 172.625 93.131 172.059L93.7861 173.007C93.1352 172.613 92.4545 172.852 91.8608 172.566C91.7133 171.972 92.6009 172.442 92.535 172.328L92.1941 171.946C91.4807 172.449 92.0477 172.356 91.17 172.896L91.063 172.502C90.8904 173.175 89.7733 172.168 90.3336 173.177L90.5371 172.875L90.621 173.363L89.4522 173.243C89.6346 173.58 89.0885 173.571 89.3304 174.024L88.8358 173.667C88.7958 174.391 89.7467 174.351 89.9066 174.862C89.9589 175.182 89.7617 175.174 89.6575 175.15C90.2587 175.567 90.234 174.323 90.7207 174.216L91.0617 174.598L90.9141 174.005C91.1422 174.074 91.4029 174.443 91.5324 174.663C91.8353 173.752 92.57 174.634 93.2631 174.313C92.5832 174.094 93.5246 173.66 93.385 173.531C93.7138 173.458 94.7715 174.349 94.8911 173.559C95.0186 173.233 94.3858 173.213 94.8196 172.988C95.136 172.999 95.4133 173.275 95.2858 173.6C95.9946 173.644 96.755 173.339 97.4929 173.207L97.228 172.849C97.6082 172.427 98.1772 172.879 98.5182 173.261C98.5472 173.086 98.6043 173.194 98.4813 172.972C98.9109 172.194 99.4137 173.633 100.336 173.283C100.417 173.86 99.9951 174.002 99.6252 173.795L99.851 174.42C99.0269 174.619 98.061 174.681 97.3029 174.431L97.7199 174.836C97.3308 175.814 97.114 174.095 96.7886 175.179C96.3303 175.031 97.0045 174.794 96.6411 174.585C96.3938 174.829 96.9658 175.676 96.4945 175.814C98.3663 175.777 100.404 175.299 102.315 174.996C102.381 175.11 102.292 175.169 102.2 175.239C103.061 175.971 107.721 172.477 108.303 174.078C108.336 173.814 107.962 173.617 108.368 173.55C108.432 173.656 108.574 173.793 108.541 174.057C109.315 172.903 110.906 173.524 111.958 172.602C112.008 172.888 112.314 172.963 112.37 173.168C112.609 172.407 113.505 172.91 113.785 172.428L113.749 172.781L114.964 172.431C115.034 172.535 114.868 172.589 114.782 172.657C115.088 172.732 115.048 172.355 114.992 172.071L115.73 172.609C116.975 170.982 119.478 172.164 121.055 170.79C121.497 171.233 121.81 171.385 122.283 171.281L122.114 171.53C122.727 171.811 122.051 171.248 122.518 171.323C122.897 171.563 122.871 172.107 122.408 171.943C122.236 172.21 122.441 172.348 122.648 172.414C124.09 171.826 125.319 170.935 126.122 169.482L126.126 169.446Z" fill="#9F5225"/>
<path d="M69.3366 181C69.4907 180.746 68.6586 180.737 69.0314 180.185C70.2499 179.156 72.3981 180.135 73.8634 179.347C74.2394 178.936 74.3499 178.932 74.7036 178.721C74.7152 178.814 74.7269 178.934 74.7125 179.035C75.1263 179.019 75.8059 179.211 76.2049 178.961C76.3293 179.086 76.4432 179.53 76.2083 179.409C76.8659 179.828 77.2468 178.641 77.6202 179.014C77.3319 179.287 77.955 179.451 77.6013 179.662C78.2672 179.753 78.1101 178.202 78.6159 178.037C78.6494 178.16 78.698 178.288 78.5942 178.316C79.1245 177.678 80.3681 178.79 80.3641 177.699L80.6233 178.165C80.8504 177.822 80.7748 177.569 81.179 177.441C81.4664 177.627 81.1994 177.849 81.3069 178.014C81.3902 177.577 82.1416 177.803 82.4273 177.187C82.3939 176.501 81.9077 178.096 81.5258 177.461C81.5031 177.326 81.5483 177.287 81.6132 177.269C79.8892 177.363 78.6921 179.214 77.2381 178.634C76.9535 179.1 76.6877 178.635 76.515 178.154C76.7583 177.947 77.4593 177.526 77.5403 178.49L77.9474 177.885C78.1233 177.943 78.053 176.967 78.1147 176.809C77.8055 176.903 77.3908 175.942 77.7891 175.613C76.9538 175.463 78.1819 177.672 77.4366 177.391L77.2882 176.692C77.4471 177.071 76.8361 177.362 76.5872 177.113L76.6772 176.983C74.7549 177.218 72.1319 176.774 69.9712 176.441C69.5487 178.142 68.3561 175.756 67.9419 177.129C67.6865 176.882 68.2385 176.528 67.7708 176.295C67.5381 176.183 67.5415 176.631 67.562 176.757L67.3463 176.605C67.2855 178.277 67.7802 179.788 69.3147 180.971L69.3366 181Z" fill="#9F5225"/>
</svg>
