<svg width="181" height="89" viewBox="0 0 181 89" fill="none" xmlns="http://www.w3.org/2000/svg">
<path d="M96.0571 25.0888C95.9356 25.2404 96.1536 24.9143 96.4224 24.6381C97.5662 23.4474 98.7784 22.459 100.486 23.6059C102.021 24.6365 102.359 26.1628 101.431 28.1878C100.961 29.2099 100.352 30.1574 99.82 31.1487C99.5533 31.6506 99.3184 32.1699 98.9568 32.9078C100.64 33.0278 102.311 33.628 103.496 33.0902C104.59 32.5939 105.473 30.9783 105.886 29.6648C106.393 28.0542 106.176 26.2119 106.553 24.5367C106.762 23.612 107.385 22.4722 108.129 22.1148C108.621 21.8774 109.941 22.6574 110.409 23.3347C111.792 25.3343 112.958 27.4995 114.174 29.6203C114.897 30.8762 115.61 32.1466 116.215 33.4627C116.446 33.9687 116.375 34.6186 116.441 35.204C115.81 35.1198 114.969 35.2694 114.59 34.9047C113.803 34.1491 113.238 33.1364 112.629 32.1957C112.273 31.6486 112.014 31.034 111.71 30.4463C109.407 30.9964 108.095 32.2342 107.918 34.7765C107.836 35.9555 108.069 37.7981 106.307 37.8483C105.932 37.8572 105.493 35.8196 105.046 34.6232C103.916 34.8851 102.408 35.2347 100.899 35.5842C100.461 35.6858 99.8604 35.5945 99.602 35.8642C97.8857 37.6647 97.1126 36.1078 96.4531 34.8496C95.8761 33.7492 95.5855 32.4877 95.2082 31.2835C94.6208 29.4161 94.0657 27.5331 93.4435 25.4723C91.1658 26.5308 89.2335 27.3899 87.3456 28.3416C87.0529 28.4917 86.7663 29.1011 86.815 29.4477C86.9906 30.6741 87.3162 31.878 87.662 33.4434C88.9665 32.1168 90.0568 31.0085 91.3968 29.6449C91.6421 31.9781 90.7787 33.4123 89.4567 34.4797C88.0669 35.5998 88.4415 36.5579 89.3993 37.6195C90.5192 38.8574 91.5267 38.5787 92.4896 37.3971C93.1209 36.6214 93.7929 35.8856 94.6159 34.9339C94.8667 37.0766 93.0095 39.8765 91.2559 40.5009C89.6576 41.0728 87.9926 40.2821 86.8995 38.3921C85.0856 35.254 84.8403 31.7154 84.5519 28.2156C84.5141 27.7389 85.2527 26.963 85.7985 26.7172C87.976 25.7272 90.1676 24.6928 92.4569 24.1007C93.4233 23.852 94.6522 24.6657 96.06 25.0841L96.0571 25.0888ZM98.4761 30.7319C99.0092 29.4935 99.5722 28.4622 99.8743 27.3473C99.9767 26.9656 99.5273 26.2264 99.1371 25.9713C98.9142 25.8255 98.1222 26.1982 97.8905 26.5522C96.9955 27.9156 97.1407 29.256 98.4753 30.728L98.4761 30.7319ZM109.683 26.3455C109.52 26.3628 109.362 26.383 109.199 26.4002C109.125 27.236 109.055 28.0708 108.963 29.1288C109.667 28.9163 110.173 28.7619 110.874 28.5503C110.404 27.6841 110.042 27.0153 109.679 26.3464L109.683 26.3455Z" fill="black"/>
<path d="M140.849 54.3865C140.221 51.5453 139.67 49.2295 139.218 46.8948C139.082 46.1899 139.119 45.4204 139.231 44.7073C139.686 41.7469 141.827 40.7365 144.308 42.272C144.75 42.544 145.165 42.8592 145.658 43.2016C146.024 42.9152 146.395 42.3809 146.712 42.4143C147.449 42.4945 148.163 42.8474 148.885 43.0916C148.597 43.6066 148.431 44.3116 148.004 44.608C145.839 46.1052 145.608 52.6707 147.853 53.9978C148.419 54.3314 149.862 54.0094 150.275 53.4693C151.022 52.4981 151.294 51.1353 151.897 49.6011C150.455 49.857 149.469 50.1265 148.473 50.1681C148.087 50.1835 147.52 49.7594 147.342 49.3813C147.23 49.1479 147.623 48.3369 147.903 48.272C150.441 47.6716 153 47.1651 155.563 46.6821C155.808 46.6378 156.117 46.9405 156.708 47.2397C155.878 47.9422 155.229 48.4957 154.372 49.2208C154.842 51.3498 155.388 53.6752 155.85 56.0199C155.946 56.5078 155.726 57.0605 155.651 57.584C155.169 57.3459 154.502 57.2374 154.244 56.8445C153.607 55.869 153.156 54.764 152.624 53.7026C152.525 53.742 152.365 53.7544 152.301 53.8432C150.616 56.2535 149.156 57.0197 147.373 56.4127C145.62 55.8191 143.926 53.188 144.023 50.7467C144.101 48.7622 144.521 46.7972 144.842 44.4356C143.956 44.3117 142.689 43.7374 142.013 44.1656C141.431 44.535 141.284 46.0664 141.376 47.0406C141.561 48.9559 142.076 50.8399 142.395 52.7489C142.545 53.6643 142.709 54.6219 142.591 55.5255C142.289 57.8623 141.048 58.3101 139.303 56.7605C138.383 55.9411 137.551 55.019 136.332 53.8C136.422 55.0669 136.603 55.9588 136.514 56.8145C136.435 57.5732 136.05 58.2959 135.804 59.0358C135.384 58.4666 134.798 57.9525 134.581 57.3117C134.29 56.4453 134.26 55.4814 134.166 54.5529C133.915 52.1056 133.809 49.6455 132.027 47.6601C131.315 46.8665 132.261 43.3934 133.2 43.3115C133.641 43.2712 134.525 44.2346 134.603 44.8212C135.1 48.5813 137.311 51.249 139.688 53.8451C139.809 53.9775 140.027 54.0094 140.848 54.3826L140.849 54.3865Z" fill="black"/>
<path d="M119.14 61.6486C116.63 64.176 113.365 63.7849 110.521 64.7112C109.824 64.9385 109.046 65.1929 108.544 65.6917C107.664 66.5661 106.97 66.4472 106.65 65.3737C105.614 61.9277 104.664 58.4537 103.797 54.9605C103.684 54.5013 104.227 53.8693 104.468 53.32C104.932 53.7473 105.647 54.0876 105.819 54.6154C106.633 57.1296 107.296 59.6992 108.475 62.2481C108.501 61.6125 108.624 60.9629 108.542 60.3402C108.264 58.2901 107.819 56.2581 107.635 54.2027C107.572 53.4851 108.07 52.7157 108.311 51.9728C108.731 52.5419 109.396 53.0542 109.532 53.6851C110.027 56.0345 110.39 58.4146 110.717 60.7947C110.885 62.0063 111.396 62.3939 112.54 62.1041C113.982 61.7413 115.46 61.5427 116.891 61.1494C118.023 60.8379 118.697 60.2578 117.929 58.8315C117.209 57.4968 116.754 56.0142 116.157 54.6058C115.679 53.4865 115.329 52.494 113.809 52.1098C112.239 51.7125 113.128 50.6097 113.937 49.9533C117.084 47.3976 121.722 47.7256 124.545 50.6794C124.865 51.0125 125.148 51.3787 125.452 51.728C128.914 55.706 128.027 59.1903 123.105 60.9807C122.642 61.1498 122.011 61.3331 121.823 61.7057C120.952 63.4296 120.101 62.8368 119.137 61.6534L119.14 61.6486ZM117.055 51.2424C117.724 52.8112 118.33 54.2627 118.955 55.7058C119.406 56.7408 119.823 57.8001 120.383 58.7688C120.576 59.1026 121.206 59.4174 121.572 59.3489C122.451 59.1905 123.319 58.8742 124.134 58.4962C125.33 57.9393 125.853 56.9584 125.55 55.5722C124.804 52.1744 120.473 49.8211 117.052 51.2472L117.055 51.2424Z" fill="black"/>
<path d="M151.751 14.2625C151.415 15.6567 151.243 17.1242 150.713 18.4317C149.677 20.9754 148.434 21.07 146.854 18.8815C146.632 18.5752 146.392 18.2811 145.754 18.0916C145.987 19.6872 146.331 21.2817 146.396 22.8876C146.425 23.5596 145.856 24.2551 145.557 24.9372C145.082 24.4221 144.277 23.9627 144.186 23.3874C143.796 20.9599 143.665 18.4934 143.348 16.0532C143.076 13.9401 142.598 11.8499 142.386 9.73534C142.317 9.0273 142.785 8.26881 143.007 7.53029C143.651 7.92815 144.558 8.16639 144.89 8.75178C145.863 10.4723 146.625 12.3237 147.432 14.1402C147.882 15.1508 148.249 16.2011 149.12 17.2128C149.293 16.2882 149.48 15.3688 149.637 14.4438C149.879 13.0014 149.998 11.5258 150.375 10.1219C150.531 9.53444 151.148 8.9967 151.687 8.66612C151.831 8.57933 152.611 9.25404 152.841 9.71519C153.394 10.8374 153.81 12.0369 154.253 13.2137C155.064 15.3747 155.887 17.533 156.64 19.7159C156.804 20.1919 156.7 20.7632 156.721 21.2891C156.192 21.1977 155.432 21.2998 155.181 20.9753C154.27 19.8001 153.413 18.5466 152.762 17.2039C152.326 16.3094 152.279 15.2138 152.057 14.2081C151.954 14.2278 151.854 14.2427 151.751 14.2625Z" fill="black"/>
<path d="M72.2902 76.9785C71.9266 76.2318 71.4192 75.5183 71.2324 74.7265C70.6805 72.3903 69.9812 70.0347 69.875 67.665C69.7925 65.763 70.2312 63.7196 70.9328 61.9486C71.4553 60.6263 72.4024 61.3694 72.812 62.414C73.6171 64.4572 74.3596 66.523 75.1533 68.5688C75.3575 69.0974 75.667 69.581 75.9291 70.0839C76.1404 70.1049 76.3509 70.1219 76.5583 70.1438C77.4182 67.2006 78.2359 64.2467 79.1649 61.3286C79.3953 60.6088 79.9735 60.0059 80.3927 59.3493C80.7691 59.9737 81.2555 60.5563 81.4954 61.2288C82.7676 64.7927 83.9811 68.3785 85.1945 71.9643C85.3333 72.3765 85.3545 72.8323 85.5365 73.872C81.9138 71.7742 81.3037 68.3654 80.1256 64.9936C79.2106 67.2913 78.4532 69.3674 77.5626 71.3797C76.9239 72.8235 76.0345 73.9964 74.4962 72.7896C74.0479 74.214 73.5988 75.6345 73.1496 77.055C72.8613 77.0272 72.573 76.9993 72.2809 76.9724L72.2902 76.9785Z" fill="black"/>
<path d="M85.4176 62.6038C84.2933 61.8318 83.2838 61.4898 82.9482 60.7983C82.674 60.2406 82.9867 59.0657 83.4415 58.516C84.2566 57.529 85.2584 56.577 86.3785 56.0171C89.4437 54.4759 92.1825 56.5481 91.8864 60.0641C91.8423 60.5844 91.6894 61.0971 91.6212 61.4543C92.8184 62.1066 94.1196 62.4921 94.9732 63.3516C96.3637 64.753 96.2384 66.5962 95.5601 68.3825C94.8441 70.268 93.7857 71.953 91.7001 72.136C89.7238 72.3101 88.5385 70.7583 87.8161 69.1073C86.8109 66.8062 86.065 64.3832 85.4205 62.599L85.4176 62.6038ZM90.9182 70.3055C93.0328 70.0377 94.15 68.8532 94.171 67.0054C94.1802 66.1476 93.3799 64.6299 92.8065 64.553C91.8682 64.4248 90.4706 64.9338 89.8744 65.689C88.4901 67.4455 90.4035 68.7135 90.9182 70.3055ZM88.4277 64.6091C89.6827 62.8785 90.4777 61.3326 90.0726 59.4272C89.7948 58.134 88.8874 57.8218 87.7043 58.1329C86.3814 58.4765 86.6521 59.36 86.9753 60.3012C87.4251 61.5998 87.8531 62.9075 88.4277 64.6091Z" fill="black"/>
<path d="M70.1375 70.1287C69.8364 70.906 69.7862 71.1645 69.6544 71.3596C68.3287 73.3452 68.5542 75.1935 70.2449 76.8381C70.5533 77.1369 70.5867 77.738 70.7472 78.1944C70.1856 78.3328 69.3593 78.7834 69.1144 78.5563C68.3289 77.8251 67.7648 76.8368 67.0988 75.9627C66.7007 75.4379 66.2692 74.9414 65.851 74.4336C65.2492 75.0914 64.3944 75.6473 64.1017 76.4268C63.5218 77.9928 63.7158 79.9142 61.6326 81.0798C61.5084 80.2118 61.4234 79.5034 61.3073 78.798C61.1554 77.8583 60.9534 76.926 60.8249 75.9849C60.7748 75.6139 60.7115 75.0938 60.9023 74.8603C62.5324 72.9029 62.0133 70.4274 62.5102 68.1978C62.7441 67.1521 63.4266 66.2124 63.9078 65.2246C64.6935 65.9929 65.4993 66.7441 66.2561 67.5437C66.4691 67.77 66.6071 68.1247 66.6695 68.4434C67.0246 70.2124 67.7847 71.2786 70.132 70.1217L70.1375 70.1287Z" fill="black"/>
<path d="M51.0807 69.3276C54.8769 66.0949 56.7604 65.0867 59.5009 65.044C58.8742 65.6788 58.503 66.1392 58.0529 66.4944C56.2679 67.9118 54.3003 69.1328 52.7256 70.7648C52.0245 71.4949 52.0955 73.0212 51.8168 74.1883L52.4998 74.5277C54.0046 73.1547 55.5056 71.7826 57.0104 70.4096C57.1692 70.5168 57.331 70.6191 57.4897 70.7263C56.8612 71.8387 56.28 72.9854 55.5941 74.0535C55.2069 74.6574 54.7394 75.3293 54.1482 75.6391C51.673 76.9367 52.1841 78.9985 52.6801 81.1174C52.9632 82.3271 53.6347 82.6322 54.6815 82.1182C56.7047 81.131 58.1927 79.7002 58.4477 77.2386C58.477 76.9398 58.6453 76.6581 59.2457 76.2639C59.4178 76.8452 59.7768 77.4449 59.7301 78.007C59.5322 80.5828 56.6269 83.9629 54.15 84.6232C52.6378 85.0271 51.5532 84.4351 51.1425 82.9176C50.7606 81.5128 50.618 80.0402 49.9399 78.8233C49.6471 78.2536 49.0211 77.255 49.1082 77.1813C51.2491 75.4141 50.2153 72.8933 50.6121 70.7321C50.7038 70.2295 50.9445 69.7541 51.1149 69.2663L51.0732 69.3294L51.0807 69.3276Z" fill="black"/>
<path d="M46.264 50.943C44.6989 50.4418 43.2382 49.9822 41.7779 49.506C38.7085 48.51 37.9109 46.7161 39.3727 43.9255C41.6721 39.5299 48.4421 36.3568 52.5404 36.452C53.1874 36.4667 53.8324 36.7779 54.9181 37.0694C54.24 37.4898 54.0032 37.7668 53.7613 37.7694C50.7301 37.8095 48.2205 39.3289 45.6918 40.7623C45.1724 41.0554 44.8659 41.7188 44.405 42.1506C44.0072 42.5267 43.5449 43.0781 43.0928 43.1005C41.4457 43.1819 41.0664 44.541 40.9373 45.6652C40.8782 46.189 41.9738 47.0829 42.7128 47.4423C43.986 48.0605 45.4555 48.2548 46.7074 48.9027C47.3222 49.2209 47.9843 50.1494 48.0199 50.8323C48.16 53.445 45.2932 56.4418 42.7224 56.5151C42.2959 56.5275 41.8612 56.1428 41.4277 55.943C41.7542 55.5505 42.0234 54.9163 42.4216 54.8117C44.2976 54.3277 45.777 53.4871 46.2678 50.9421L46.264 50.943Z" fill="black"/>
<path d="M78.8364 47.3561C78.6604 46.0558 78.5921 45.3147 78.4548 44.5854C77.4936 39.4973 76.6345 34.3854 75.4767 29.3428C75.1411 27.8779 73.877 26.6528 73.1658 25.2503C72.8967 24.7161 72.9833 23.9926 72.9092 23.3516C73.5328 23.458 74.4364 23.3391 74.7272 23.7201C75.6722 24.9575 76.735 26.2785 77.1383 27.7442C78.1888 31.5817 78.9214 35.5093 79.7628 39.4075C79.9028 40.0415 79.9626 40.69 80.0476 41.2544C82.7736 41.0383 85.3244 40.838 87.8751 40.6378C87.9487 40.9169 88.0223 41.1961 88.0968 41.4791C87.5909 41.8514 87.1278 42.3454 86.5684 42.5655C85.735 42.8944 84.8382 43.0981 83.9493 43.23C82.1868 43.4903 80.4818 43.7414 80.0267 45.9984C79.963 46.3217 79.5451 46.5707 78.8364 47.3561Z" fill="black"/>
<path d="M58.5645 44.0218C55.1192 45.7129 56.3002 50.1413 53.7162 53.015C53.4836 51.9623 53.2085 51.4542 53.3031 51.0373C54.2228 47.0519 55.1538 43.0638 56.2223 39.122C56.4099 38.4245 57.4671 37.3279 57.7622 37.4406C58.5784 37.7533 59.2399 38.5709 59.8926 39.2589C60.1369 39.519 60.1921 39.967 60.3267 40.306L62.1413 39.8856C62.2121 40.0625 62.2733 40.1594 62.2549 40.1842C59.3428 43.6235 61.8042 46.8501 62.6299 50.1556C62.7958 50.8165 62.7054 51.5408 62.7361 52.2372C62.1313 51.8919 61.1849 51.6916 60.9804 51.1795C60.081 48.9073 59.3931 46.5491 58.5645 44.0218Z" fill="black"/>
<path d="M129.206 19.0793C129.063 18.2527 128.978 17.7787 128.86 17.082C128.185 17.5142 127.503 17.738 127.156 18.2174C126.648 18.9234 126.181 19.7967 126.113 20.6393C126.089 20.9247 127.288 21.4039 127.973 21.6647C129.828 22.3786 131.781 22.8722 133.535 23.782C134.159 24.1064 134.724 25.4195 134.637 26.1966C134.345 28.7943 131.126 30.9882 128.718 30.3244C128.096 30.1518 127.626 29.3927 127.084 28.9011C127.695 28.7349 128.311 28.4111 128.913 28.4363C130.647 28.5157 132.068 28.1494 132.988 25.9821C131.373 25.3444 129.852 24.7178 128.308 24.154C127.583 23.8902 126.798 23.7923 126.065 23.5507C123.929 22.8403 123.318 21.8713 124.32 19.8453C125.137 18.1998 126.406 16.7293 127.715 15.4427C128.567 14.6036 130.036 13.9339 130.867 15.4816C131.652 16.9493 130.747 18.0682 129.209 19.0746L129.206 19.0793Z" fill="black"/>
<path d="M95.8338 58.8167C96.9292 60.735 97.9224 62.7304 99.1619 64.5454C99.9558 65.7107 100.866 65.4257 101.141 64.0046C101.797 60.5737 102.041 57.2714 98.7976 54.8019C98.3108 54.4334 98.4247 53.2222 98.2629 52.3999C98.9796 52.6041 99.8944 52.5896 100.378 53.0534C103.175 55.7458 104.186 60.8635 102.781 64.5417C101.529 67.8144 99.1747 68.2366 96.9058 65.5577C94.8623 63.1433 94.0191 60.2081 93.7512 57.1067C93.7014 56.5217 94.3726 55.8725 94.7092 55.2556C95.1085 55.7678 95.6009 56.2338 95.8832 56.8101C96.1412 57.3304 96.1711 57.9693 96.3 58.5524L95.8413 58.815L95.8338 58.8167Z" fill="black"/>
<path d="M38.8904 52.6411C38.8934 53.2122 39.0735 53.8657 38.8732 54.3441C38.3082 55.6721 37.7182 57.0306 36.8884 58.1855C35.5297 60.0759 33.7232 60.0832 32.4824 58.0464C31.2497 56.0283 29.9128 53.9521 30.2905 51.2729C30.4826 49.912 30.4185 48.4705 30.2307 47.0989C30.0231 45.5838 30.6008 44.6189 31.7989 44.0163C33.6688 43.0729 35.5857 42.2338 37.4808 41.3504L37.8749 41.9831C37.5726 42.2876 37.306 42.6456 36.9616 42.8858C36.3237 43.3258 35.639 43.6983 34.9709 44.0917C32.8737 45.3319 31.992 47.3545 32.3256 50.1596C33.6784 48.9082 34.992 47.6946 36.3084 46.4763L36.9034 46.9391C35.9631 48.313 35.1014 49.755 34.0639 51.0485C32.2306 53.3451 32.1927 54.6127 34.0317 56.8029C34.771 57.6848 35.3576 57.6599 36.0534 56.7623C37.0176 55.5145 38.055 54.328 39.0627 53.1154C39.0046 52.9602 38.9456 52.8011 38.8912 52.645L38.8904 52.6411Z" fill="black"/>
<path d="M136.26 18.539C135.93 17.4925 135.718 16.8217 135.51 16.15C136.161 16.0567 136.855 15.7642 137.451 15.9059C142.38 17.0799 144.623 21.8546 142.408 26.3254C140.994 29.1746 138.494 29.4413 136.552 26.9458C134.628 24.4791 134.591 21.0898 136.264 18.5381L136.26 18.539ZM137.954 18.8129C136.766 21.0628 137.033 23.1855 138.135 25.1721C138.439 25.7188 139.376 26.201 139.982 26.1552C140.424 26.1228 141.014 25.2332 141.162 24.627C141.782 22.1466 140.803 20.4113 137.95 18.8099L137.954 18.8129Z" fill="black"/>
<path d="M27.2008 60.6722C26.5595 59.4961 26.1051 58.9144 25.9026 58.2497C24.2689 52.9059 22.6504 47.5587 21.1294 42.1847C20.9059 41.3891 21.2161 40.4368 21.2803 39.5581C21.5053 39.5512 21.734 39.5434 21.959 39.5366C23.9288 46.0242 25.9091 52.5053 27.8382 59.0065C27.93 59.3143 27.5646 59.7651 27.2054 60.6752L27.2008 60.6722Z" fill="black"/>
<path d="M28.2296 32.0696C27.6546 32.4168 27.0723 32.7492 26.5045 33.1111C21.4762 36.3249 16.9451 40.0447 14.2515 45.6959C14.0729 46.0746 13.5319 46.2699 13.1605 46.5493C13.062 46.0497 12.7211 45.3882 12.9107 45.0769C14.2775 42.8637 15.4757 40.4263 17.2661 38.6375C19.6812 36.2225 22.5399 34.2684 25.3011 32.2504C26.0264 31.7203 27.0895 31.6756 28.0007 31.411C28.0764 31.6279 28.153 31.8488 28.2288 32.0657L28.2296 32.0696Z" fill="black"/>
<path d="M49.0376 88.1027C48.4776 86.5212 47.8958 84.9488 47.366 83.3602C46.3209 80.2126 45.272 77.0659 44.3016 73.8969C44.1407 73.3664 44.3547 72.7162 44.3974 72.1181C44.9698 72.3886 45.8753 72.512 46.0643 72.9536C46.9683 75.0849 47.7365 77.2846 48.4441 79.4984C49.0905 81.5249 49.6534 83.5871 50.1314 85.6607C50.2943 86.3799 50.0829 87.1859 50.0454 87.9515L49.0414 88.1018L49.0376 88.1027Z" fill="black"/>
<path d="M158.314 42.5252C157.551 41.6651 156.898 41.1912 156.597 40.5453C154.974 37.0667 153.397 33.5611 151.914 30.0171C151.743 29.6041 152.243 28.8961 152.43 28.322C152.962 28.5526 153.825 28.6486 153.979 29.0368C155.572 33.1188 157.051 37.2435 158.55 41.3639C158.603 41.5121 158.484 41.7289 158.314 42.5252Z" fill="black"/>
<path d="M51.1227 69.2647C46.4242 69.8886 42.537 72.3855 38.672 74.9472C38.2945 75.1992 37.6898 75.0884 37.19 75.1466C37.3358 74.6191 37.3159 73.8997 37.6493 73.5921C40.7307 70.7389 44.494 69.1922 48.4013 68.0812C49.1269 67.876 50.1769 68.8874 51.0818 69.3318L51.1227 69.2647Z" fill="black"/>
<path d="M127.951 51.067C127.722 50.0299 127.416 49.0025 127.303 47.9509C127.255 47.5217 127.631 47.0439 127.816 46.5895C128.214 46.8264 128.868 46.9793 128.969 47.3097C129.988 50.6649 130.954 54.0449 131.827 57.442C131.923 57.8189 131.365 58.3718 131.112 58.8459C130.771 58.5259 130.259 58.2744 130.12 57.8788C129.326 55.6356 128.624 53.3548 127.889 51.0897C127.911 51.0844 127.933 51.0753 127.955 51.0661L127.951 51.067Z" fill="black"/>
<path d="M51.4708 49.1283C51.6852 50.0989 51.9892 51.061 52.0792 52.0439C52.1287 52.5919 51.8247 53.1766 51.683 53.7401C51.2755 53.4067 50.6632 53.1536 50.5013 52.7263C49.9515 51.2452 49.617 49.6772 49.0882 48.183C48.5406 46.6397 47.7911 45.172 47.2775 43.6208C47.0981 43.0782 47.3686 42.3779 47.4325 41.7501C47.9614 41.9854 48.7809 42.0794 48.9697 42.4841C49.962 44.6195 50.7938 46.8375 51.6826 49.0258C51.6113 49.0628 51.5392 49.096 51.4717 49.1322L51.4708 49.1283Z" fill="black"/>
<path d="M163.259 48.4878C162.579 49.0074 162.077 49.6502 161.791 49.5602C161.15 49.355 160.397 48.8999 160.124 48.3258C159.976 48.0185 160.726 47.2565 161.068 46.7C161.704 47.2232 162.343 47.7415 163.256 48.4926L163.259 48.4878Z" fill="black"/>
<path d="M70.0869 9.83938C70.3766 9.67775 70.2633 9.4272 69.522 9.61807L68.9522 10.1706L70.0888 9.8456L70.0869 9.83938Z" fill="#9F5225"/>
<path d="M65.2513 9.92097C64.3721 10.3337 63.3934 10.9355 63.9532 11.2194C64.7934 10.6008 64.9902 10.7286 65.9235 10.0185C66.6648 9.8276 67.1933 9.93047 67.0569 10.1177C67.3226 9.95707 68.1752 10.0102 68.5994 9.65518C67.6886 9.49113 66.4547 9.65636 65.1899 10.2342C64.924 10.197 65.1859 10.0239 65.2513 9.92097Z" fill="#9F5225"/>
<path d="M6.58827 44.5132L6.86008 44.2145C6.76313 44.2934 6.6738 44.3971 6.58827 44.5132Z" fill="#9F5225"/>
<path d="M5.51135 71.6815C5.37503 71.5138 5.26582 71.4739 5.19774 71.489C5.35039 71.631 5.48248 71.7454 5.51135 71.6815Z" fill="#9F5225"/>
<path d="M8.07635 75.6531C8.01466 75.5706 7.95679 75.5005 7.89891 75.4304C7.93133 75.536 7.96374 75.6416 8.07635 75.6531Z" fill="#9F5225"/>
<path d="M6.58897 44.5125L5.89419 45.289C6.08292 45.3511 6.3051 44.8905 6.58897 44.5125Z" fill="#9F5225"/>
<path d="M55.5831 13.5241C55.82 13.4274 56.0071 13.3263 56.1793 13.2163C55.9865 13.2988 55.8029 13.3716 55.6063 13.4417C55.6029 13.47 55.5976 13.4922 55.5812 13.5179L55.5831 13.5241Z" fill="#9F5225"/>
<path d="M16.9934 31.8563L17.2401 31.6334C17.2503 31.5481 17.2476 31.4601 17.2319 31.3695L16.9934 31.8563Z" fill="#9F5225"/>
<path d="M28.8433 23.1934C28.5315 23.362 28.7706 23.6673 28.8111 23.8385C28.8349 23.6398 28.9862 23.4614 29.2242 23.2892C29.161 23.2413 29.0427 23.2111 28.8452 23.1996L28.8433 23.1934Z" fill="#9F5225"/>
<path d="M51.8071 13.1876L52.207 12.9908C52.1024 13.0449 51.9226 13.13 51.8071 13.1876Z" fill="#9F5225"/>
<path d="M10.1111 38.655C10.0156 38.6591 9.9147 38.6849 9.83952 38.7158C9.90386 38.7284 10.0029 38.6965 10.1111 38.655Z" fill="#9F5225"/>
<path d="M56.8702 11.7972C56.8702 11.7972 56.8569 11.7541 56.8622 11.7321C56.7713 11.7884 56.7461 11.8236 56.8702 11.7972Z" fill="#9F5225"/>
<path d="M39.2191 14.2362L39.4617 14.1581C39.4738 14.0792 39.4989 14.0031 39.489 13.9313L39.2191 14.2362Z" fill="#9F5225"/>
<path d="M16.0538 81.3461C16.0538 81.3461 16.037 81.331 16.0222 81.3222C15.7079 81.2459 15.8616 81.3124 16.0538 81.3461Z" fill="#9F5225"/>
<path d="M138.601 66.716C137.041 67.1635 140.388 65.2737 138.14 66.0452C138.433 66.0532 136.804 67.4173 138.601 66.716Z" fill="#9F5225"/>
<path d="M55.1925 13.5961C54.9941 13.66 54.7956 13.7239 54.5971 13.7878C54.8766 13.7116 55.053 13.6548 55.1925 13.5961Z" fill="#9F5225"/>
<path d="M138.14 66.0452L137.909 66.1199C138.008 66.088 138.063 66.07 138.14 66.0452Z" fill="#9F5225"/>
<path d="M43.9951 86.1339C43.9723 86.0595 43.8943 86.0029 43.8034 85.9436C43.7909 85.9817 43.832 86.0366 43.9951 86.1339Z" fill="#9F5225"/>
<path d="M23.2124 82.7136L23.642 82.8893C23.4825 82.8041 23.3456 82.7527 23.2124 82.7136Z" fill="#9F5225"/>
<path d="M56.1582 85.7175C56.4572 85.7441 56.5333 85.7947 56.9772 85.7405C56.9475 85.7228 56.9179 85.705 56.8771 85.6908C56.7007 85.7476 56.4797 85.7778 56.1582 85.7175Z" fill="#9F5225"/>
<path d="M68.6616 85.3461C68.6042 85.3169 68.5266 85.301 68.4692 85.2718C68.3403 85.2861 68.1985 85.2977 68.0566 85.3093L68.6597 85.3399L68.6616 85.3461Z" fill="#9F5225"/>
<path d="M95.7242 4.94793C95.4797 4.86229 95.3493 4.75359 95.2449 4.65026C95.3621 4.91383 93.4868 5.20262 95.7242 4.94793Z" fill="#9F5225"/>
<path d="M55.5239 13.3331C55.4734 13.4449 55.3764 13.5239 55.1947 13.6029C55.3381 13.5568 55.4666 13.5017 55.61 13.4556C55.6278 13.3952 55.6236 13.342 55.5258 13.3393L55.5239 13.3331Z" fill="#9F5225"/>
<path d="M58.2593 82.532L60.1591 82.5619C59.6405 82.5309 58.947 82.5221 58.2593 82.532Z" fill="#9F5225"/>
<path d="M169.037 18.2368L168.757 18.0749C168.83 18.1537 168.912 18.2227 169.037 18.2368Z" fill="#9F5225"/>
<path d="M65.98 82.3367C66.2616 82.4644 66.5979 82.5336 66.9616 82.5735C67.0609 82.5415 67.1601 82.5096 67.2316 82.4661L65.98 82.3367Z" fill="#9F5225"/>
<path d="M81.7681 7.34058C83.6836 7.06553 82.7594 6.70022 83.2186 6.3405C85.5524 5.84875 84.2188 6.55835 84.9545 6.70418C86.4099 6.35175 87.6062 5.74785 88.6802 5.6139C88.74 5.69031 88.9467 5.69213 88.6751 5.83422C90.2973 5.19576 93.1552 5.26646 95.0641 4.53565C95.1825 4.56588 95.2309 4.60498 95.2553 4.64496C95.0499 4.41039 95.0786 4.14831 95.1891 3.95555C96.0569 3.86065 96.8829 3.47168 97.1092 3.77466C96.5876 3.81277 96.4987 3.95756 96.2234 4.08722L97.1691 3.85108C97.8281 4.26075 95.8882 4.14046 95.7813 4.50291C97.5708 4.17275 99.7538 3.54505 101.042 3.59503C101.155 4.0437 97.8644 4.02355 99.5107 4.29304L97.504 4.31044C98.8531 4.9148 96.2652 4.38129 97.4637 5.04781C100.124 4.90882 100.557 4.54376 103.198 4.45895C103.901 4.1437 103.142 4.08049 103.857 3.76168C107.861 3.06679 106.363 4.77936 109.391 4.02299C110.242 3.674 110.812 3.046 112.626 3.3093L111.699 3.88127C114.215 3.86396 113.533 3.06516 116.01 3.39521C115.424 3.61809 113.928 3.60094 114.274 3.66052C115.759 4.07745 115.641 3.3365 116.969 3.31898L116.985 3.80582C118.326 3.79096 119.778 3.70594 121.268 3.62271C122.743 3.57145 124.257 3.52819 125.731 3.55245C125.47 3.69099 124.882 3.82592 125.455 3.9966C129.192 4.00972 133.036 4.64474 136.008 5.44395L137.609 5.20882C137.891 5.26129 137.973 5.48784 137.605 5.51087C138.713 5.88509 137.892 5.26128 138.627 5.209C139.36 5.30775 139.356 5.6098 138.799 5.65234C140.043 5.67567 141.798 5.74618 143.394 6.01121C144.196 6.13573 145.002 6.27269 145.69 6.46116C146.369 6.6594 146.96 6.88605 147.387 7.13133L146.844 7.14189C148.359 7.73384 149.617 6.81635 150.725 7.66231L150.356 7.64447C151.182 7.96623 152.102 8.23736 152.961 8.54846C153.822 8.86577 154.692 9.17332 155.525 9.47908C156.338 9.79816 157.069 10.1643 157.735 10.5171C158.058 10.7002 158.367 10.8806 158.642 11.0654C158.899 11.2698 159.121 11.4786 159.305 11.6857C159.878 11.5356 160.542 11.964 161.207 12.3514C161.871 12.7389 162.445 13.1486 163.079 12.8422C164.132 14.143 163.553 13.9537 165.203 15.6162C165.681 16.0294 166.735 15.7515 167.458 16.2091L166.875 16.5608L168.335 16.8969L168.061 17.6618C168.297 17.7978 168.553 17.9204 168.777 18.0599C168.613 17.8396 168.57 17.5046 168.78 17.4371C169.961 18.0477 170.348 19.5838 170.027 19.7623C170.791 20.3159 171.513 20.89 172.183 21.4942C171.889 21.5617 171.553 21.2596 171.181 21.072C172.635 21.8612 170.666 21.5659 171.968 22.2946C172.029 22.0974 172.401 22.2032 172.548 22.1695C172.512 22.8438 173.176 24.0175 173.718 24.8749L173.181 24.8632C173.764 26.5273 174.56 28.3282 174.428 30.3867C174.676 29.6164 175.517 29.5917 175.548 30.2038L174.805 30.5866C175.228 30.9012 175.124 29.8893 175.622 30.6036C175.448 31.4183 174.736 31.2716 174.553 30.8726C174.619 31.1658 174.629 31.4768 174.673 31.7771C174.445 31.8641 174.369 31.6562 174.1 31.6472C174.197 31.7254 174.182 31.8738 174.128 32.055C174.04 32.2407 173.902 32.4628 173.766 32.6911C173.503 33.1379 173.281 33.5989 173.586 33.8424L173.354 33.917C173.234 34.434 172.953 34.9004 172.814 35.3143C172.65 35.7292 172.534 36.1014 172.377 36.4594C171.983 37.1878 171.695 37.8683 171.126 38.7415C171.671 38.8189 171.031 39.4966 171.078 40.083C170.538 40.735 169.736 41.3967 169.001 42.0842C168.295 42.7832 167.431 43.4849 166.696 44.2479C165.857 45.3858 166.804 44.6779 166.577 45.2429C166.042 45.1966 164.395 46.7039 164.964 45.8307C164.474 46.289 164.078 46.6559 163.721 46.9961C163.339 47.3309 162.996 47.6329 162.632 47.9482C161.919 48.5878 161.181 49.3037 159.84 50.4601C160.31 50.295 160.747 50.0587 160.686 50.256C160.211 50.6823 159.306 51.0899 159.212 50.9424L159.319 50.819C157.93 52.1753 155.646 53.4231 153.448 54.5545C152.364 55.1291 151.281 55.6691 150.331 56.2073C149.384 56.7517 148.581 57.297 147.977 57.8539L148.11 57.7358C147.182 58.4241 146.271 59.1276 145.304 59.8079C143.788 60.5966 145.959 59.1391 144.697 59.607C143.237 60.7741 141.854 61.5201 140.52 62.1889C139.189 62.87 137.908 63.4739 136.601 64.3869C133.58 64.8537 128.614 68.6534 125.073 69.6362L125.417 69.7304C124.778 70.2918 124.364 70.0901 123.734 70.3271C123.936 70.4329 124.737 70.0795 124.332 70.4214C121.034 72.1532 117.412 73.661 113.719 74.8979C110.03 76.1472 106.312 77.0643 102.668 77.8685C101.343 78.1721 100.976 78.5567 100.502 78.9075C100.035 79.2424 99.4634 79.5905 97.7448 79.6382L98.736 78.9978C95.9981 79.8315 93.1735 80.3037 90.381 80.6834C87.5886 81.0631 84.8337 81.3283 82.0719 81.8075C82.4301 81.6716 82.484 81.5313 83.0037 81.4869C81.9868 81.254 78.8384 81.8167 78.7048 82.092C77.8788 82.1257 78.6064 81.8504 78.1516 81.7508C77.1062 81.6227 75.1422 82.3712 74.6723 82.0647C74.5961 82.014 75.0325 81.935 75.2516 81.8986C74.4421 82.1046 71.8406 82.0402 72.3756 82.4009C70.4563 82.3082 68.4596 82.7529 66.9747 82.575C65.7382 83.0483 63.6498 82.4838 63.0421 83.11C63.4854 82.4615 59.8097 82.6883 58.4258 82.9972C58.9457 82.7956 57.4481 82.8131 58.065 82.5325C56.634 82.5695 55.2978 82.6786 55.364 83.0126C54.2662 82.6349 52.8936 82.783 51.6681 82.8973C50.4446 83.0179 49.3663 83.0986 48.9514 82.5761C44.6597 82.8099 40.7752 82.8305 37.174 82.5891C37.4788 82.2791 38.4609 82.3592 39.4043 82.4314C40.3495 82.5097 41.3015 82.5312 41.453 82.1954C37.9262 82.1966 35.5796 82.5284 32.5441 81.8793C31.8095 81.658 33.2356 81.684 33.5928 81.6236C30.1891 81.3938 27.6947 80.4543 24.7949 80.0895C24.8534 80.0434 25.2058 80.0461 25.5159 80.0692C24.9763 79.9696 24.4638 79.6426 24.2141 79.9348L24.7701 80.0087C25.1383 80.6555 21.9151 80.224 21.5683 80.3972C22.4454 80.1353 21.8546 79.9087 21.4183 79.6323C20.9819 79.3559 20.6434 79.0822 21.8398 78.8337C21.4813 78.7714 20.9425 78.7536 20.7989 78.957C20.4147 78.7321 20.402 78.5722 21.0971 78.5466C19.2771 78.0665 19.5127 78.5579 18.1023 77.9117C18.2707 77.7892 18.6239 77.8736 18.9625 77.792C17.9434 77.71 16.8433 77.6405 15.9465 76.8906C16.1176 76.8559 16.127 76.6889 16.4517 76.8782C15.5167 76.3592 14.4312 76.1005 13.556 75.6579C12.6625 75.2349 11.6731 74.8154 11.1163 73.9491C12.4275 73.9164 10.8569 73.3014 11.5253 72.8333C11.189 72.6067 10.7885 72.4076 10.4945 72.1606C10.4631 72.3347 10.4428 72.5053 10.4335 72.6723C9.7767 71.9544 8.69146 71.5384 8.38663 70.7823L9.1785 71.1902L8.52599 70.5256L7.96703 69.8103C8.05337 70.131 8.11956 70.4651 8.22987 70.7849C7.28632 70.1593 7.291 71.3196 6.8084 70.1424C7.03538 70.329 6.2908 69.3249 6.49104 68.7137C6.04133 68.3938 5.55089 68.0597 5.455 67.3525C5.6423 67.094 6.41211 67.1537 6.54129 66.9823C5.60093 66.8408 5.56357 65.0214 4.66564 64.7023C4.89941 64.832 5.33341 64.706 5.40257 64.6153L4.72737 64.4296C4.76491 63.9596 4.85803 63.8681 5.21185 63.8362C5.07459 62.5204 4.23439 64.5609 4.40152 62.8943C4.47089 63.0018 4.54195 62.9175 4.67347 63.1485C4.56484 61.5706 3.89789 60.2272 4.15115 58.6833C4.58876 58.3715 4.60319 58.6949 4.64689 58.9952C4.70354 59.2981 4.7343 59.5957 5.08133 59.2653C4.95807 58.2321 4.82527 57.1678 4.69437 56.1096C4.68503 55.5659 4.68672 55.0187 4.73635 54.4697C4.76116 54.1951 4.78598 53.9206 4.83667 53.6515C4.90943 53.3752 4.99512 53.1016 5.09376 52.8306L4.8933 53.2437C3.83458 53.072 5.88306 51.5719 5.73392 50.5333C5.71823 50.7981 6.23878 50.8355 6.13484 50.7733C6.52366 50.0262 6.74277 49.2791 6.94237 48.4289C7.18991 47.577 7.50469 46.6282 7.89308 45.4849L8.03987 45.7657C8.78888 44.889 9.57266 43.4543 10.3285 42.5208C10.2608 42.2214 10.7016 41.6831 10.0646 41.977C11.0017 41.2789 11.6273 40.5923 12.1919 39.9048C12.7954 39.2252 13.2623 38.535 13.7201 37.8546C14.15 37.1626 14.7372 36.5089 15.3263 35.8613C15.9412 35.2191 16.6247 34.6027 17.5932 34.0858C17.2716 34.3807 17.0347 34.8329 17.2905 34.6001L19.3657 32.4764C18.8072 32.5127 18.831 32.669 18.0505 33.0092C18.1301 32.676 18.5658 32.0027 19.2136 31.5071C18.3221 32.5117 19.8226 31.7142 20.5148 31.4025C20.3158 31.4255 20.3582 31.2479 20.2087 31.2345C22.1575 30.4362 19.7021 30.7689 21.9282 29.4918L22.0128 29.649C22.6137 29.0797 23.0503 28.4881 23.8784 27.9481C24.5808 27.9065 23.2894 28.5956 23.5662 28.7867C24.6224 28.0024 24.9571 26.8422 26.4002 26.3708C26.0075 26.75 25.3113 27.2065 24.9613 27.6063C26.4553 27.0637 26.5168 26.9482 27.4005 26.4313L27.307 26.482L29.4034 25.3354L28.8139 25.5867C29.0532 24.8263 29.8156 24.3485 30.6312 23.8467C31.4746 23.3564 32.3507 22.8147 33.169 22.0455C31.6263 23.5741 33.1124 22.4532 33.2878 22.8273C33.9147 22.6186 34.824 22.2643 34.6823 22.4739C35.4086 21.7207 36.4752 21.76 37.5433 20.6986C37.697 20.7652 38.6317 20.1773 38.6446 20.5353C39.8766 19.8106 38.1777 20.5148 38.1722 20.3389C39.9065 18.9604 43.3007 18.4484 46.0125 16.7005C47.2823 16.0593 47.9876 15.593 48.6948 15.133C49.4116 14.704 50.1063 14.2821 51.3659 13.7262C52.2999 13.61 50.8362 14.4093 50.8362 14.4093C51.5632 14.2504 52.1866 14.0702 52.7746 13.8535C53.3665 13.6493 53.9545 13.4326 54.5953 13.1511C54.363 13.3421 54.6545 13.3439 55.0955 13.3591C56.1358 12.9968 55.6899 12.6893 57.126 12.432C56.9124 12.6443 56.6593 12.9649 56.192 13.2589C57.3892 12.7367 58.5845 12.2084 59.8689 11.7333C60.2355 11.8613 59.1276 12.2795 58.7116 12.5433C59.4248 12.3 60.3494 11.9955 61.1542 11.6953C61.959 11.3952 62.6463 11.1466 62.8633 10.9059L61.9087 10.9945C62.4478 10.8551 62.2028 11.2415 61.8133 11.3943C60.5891 11.9866 60.0075 11.7502 59.9122 11.6374L60.8292 11.3079C59.7748 10.8342 57.0795 12.3991 55.2576 12.9789L55.8952 12.2132L54.1038 13.2479C53.6537 13.2425 53.2772 13.0425 54.1827 12.6757C52.7458 12.8514 53.0411 13.221 51.7955 13.3487C51.6516 13.354 51.6972 13.3052 51.8109 13.2412L50.5575 13.8567C50.7749 13.6568 50.1931 13.5776 51.0246 13.3646C49.7879 13.6398 48.8664 14.0731 48.1416 14.4364C47.4225 14.8182 46.8962 15.1175 46.3593 15.1059L46.5335 15.002C43.4257 16.4468 46.4111 15.4719 44.2966 16.8361L42.1593 16.7042L42.0867 17.1786C41.7524 17.3136 41.104 17.5702 41.1205 17.3872C40.0936 18.1484 41.4383 17.4353 40.9088 17.9611C39.1164 18.3606 36.8916 20.1156 36.0637 19.7877C35.7552 20.2833 37.6813 19.2531 36.2304 20.2124C35.248 19.9341 34.5315 21.2719 32.9484 21.7611C33.0579 21.2885 34.4852 20.7264 32.8839 21.2352C32.5607 22.0773 30.2033 22.6108 29.2057 23.3489C29.4049 23.524 28.8555 23.9059 28.0619 24.4006C27.3 24.9193 26.2809 25.5481 25.5016 26.168C25.4055 25.9735 22.0497 28.2294 20.3656 29.2978L20.3188 29.2241C20.5966 29.695 19.0093 30.8416 18.0652 31.7538C17.748 31.5894 17.8068 31.386 18.2366 30.8513C17.8982 31.131 17.5431 31.3957 17.2326 31.6871C17.2058 31.9554 17.0079 32.2583 16.4679 32.8285L16.2483 32.4687C15.6253 33.0451 15.1226 33.658 14.5556 34.2985C14.0293 34.9531 13.4368 35.6291 12.5294 36.345C12.9222 36.5192 14.9625 35.4659 13.758 37.0702C13.4445 37.0754 12.9628 37.046 13.2553 36.617C13.1664 36.7618 12.9766 37.1304 12.6435 37.388C12.6779 37.1446 12.74 36.9127 12.8003 36.6746C11.9418 37.3132 12.8213 37.0984 12.2956 37.6367C11.9424 37.5522 11.6796 37.999 11.4569 37.8657C11.5439 37.7147 12.0203 37.411 12.0676 37.1702C11.4671 37.7805 10.5855 38.5017 10.0915 38.7086C10.3513 38.6864 10.5995 38.7842 10.2576 39.2497C9.7491 39.8439 9.57113 39.9354 9.40716 39.954C9.23215 39.9762 9.08409 39.9282 8.7169 40.2719C8.76824 40.5971 7.91826 41.3423 8.48719 41.4188C8.2197 41.7715 7.90469 41.8114 7.64039 41.9375C7.59415 42.1027 7.43272 42.3665 7.25687 42.6624C7.105 42.9573 6.92766 43.2877 6.77388 43.5764C6.48836 44.1467 6.35791 44.5509 6.89671 44.2134L7.04074 44.0509C7.04074 44.0509 7.0138 44.1211 6.99937 44.153C6.84241 44.6683 6.54162 45.1888 6.26671 45.7147C6.00284 46.2371 5.6819 46.7709 5.34802 47.3021C4.63232 48.3663 4.09926 49.4332 3.8146 50.4406L3.60078 50.4548C3.4576 51.0544 3.30955 51.7171 3.2071 52.331C3.09362 52.9484 3.02575 53.517 3.135 53.9123C3.07031 54.2544 2.5907 54.7847 2.35163 54.6771C2.36819 55.5602 2.56801 55.6189 2.0269 56.9754C1.76915 56.1358 1.62132 57.352 1.88858 56.0905C1.6754 56.699 1.50231 57.0828 1.4582 57.4523C1.40305 57.8254 1.44378 58.195 1.71149 58.7512C1.18987 58.434 0.901399 59.7843 1.15002 60.2783C1.27602 59.978 1.36892 59.6884 1.53183 59.3899C1.60439 59.9816 1.62285 60.5156 1.59719 61.0637L0.836081 60.9534C0.65451 61.5859 0.649427 62.1616 0.791134 62.6627C0.967842 63.1593 1.22707 63.6089 1.47865 64.0336C1.91755 64.9105 2.47312 65.6542 1.97888 66.7291C2.67106 67.1281 1.95617 65.4312 2.72131 65.752C2.82993 66.2638 2.71072 66.8625 2.57772 67.3769C2.46679 67.8841 2.3881 68.299 2.44686 68.4509C2.70185 69.9133 4.00515 69.3023 4.58575 70.6803C4.73233 70.4076 5.30527 69.984 6.15697 70.8236C6.62218 71.7468 5.87593 72.3561 5.25142 71.9011C5.09063 71.6932 5.09656 71.5546 5.19775 71.5289C4.91477 71.2783 4.56815 70.9388 4.52149 71.4186L4.85177 71.4284C4.82463 72.0112 5.86575 73.1521 5.23404 73.0685C6.01616 73.6025 5.86576 73.1521 5.59465 72.6243C5.87233 73.2525 6.23274 73.6763 6.60418 74.0966C6.97562 74.5169 7.4756 74.8821 7.90962 75.4668C7.86104 75.2295 7.97601 74.9328 8.14741 75.0963C9.49464 76.7606 9.27529 75.5328 10.6087 76.4019C10.9778 77.1304 9.53643 76.6993 11.092 77.4627C11.649 78.1717 10.6728 77.953 10.1754 77.833C10.9515 78.1503 11.509 78.5448 11.9466 78.9438C12.3732 79.3463 12.6689 79.7568 13.0219 79.9986L12.1446 79.707C12.6702 79.8794 13.0026 80.0936 13.3753 80.2811C13.3626 80.1212 13.3662 79.9355 13.3736 79.7623C13.6958 80.0617 14.118 80.2129 13.9275 80.3425C14.6489 80.3631 14.2491 79.6923 15.5197 79.8435C15.906 80.2727 17.5298 80.5084 17.2617 80.9775C15.4921 80.0301 16.9369 81.4989 15.2422 80.8349C15.6213 80.9247 15.972 81.1194 16.3949 81.3522C16.416 81.4206 16.2185 81.409 16.0651 81.3832C17.567 82.4851 17.512 81.2796 19.5211 82.02C18.984 82.1656 19.4996 82.6214 19.9042 82.6757C19.0565 82.4019 19.9504 82.1551 20.9158 82.2201C22.0492 82.8324 22.5275 82.5349 23.2343 82.7447L22.4989 82.4416C23.0283 82.2711 23.7002 82.4854 24.7349 82.6579C24.6301 82.8693 23.7231 82.56 23.9831 82.7359C25.4593 82.6092 26.0119 83.7775 27.8642 83.8098C28.4448 84.1218 27.504 84.2948 28.0598 84.5259C30.1715 84.4952 29.718 85.229 31.9222 85.2231C31.6265 84.8126 31.4668 84.8846 33.1069 84.7392C31.9756 84.6866 30.8386 84.6153 29.7381 84.5049C30.5565 84.4464 31.3365 84.4208 32.1712 84.3366C31.2107 84.2085 30.0026 84.2216 29.4865 84.0802C30.677 83.9703 30.5024 84.0333 30.2977 83.6824C31.1409 84.4154 33.0933 83.7868 34.3256 84.3263L33.6222 85.1542C35.6783 85.8111 38.1029 85.1807 41.0457 85.6068L40.1544 85.3881C40.7914 85.0942 42.0958 85.4737 43.2071 85.3824C42.9296 85.6631 43.5028 85.7929 43.8295 85.9884C43.9012 85.7877 46.1418 86.0981 46.7576 85.5377L47.9517 85.9528C50.4567 86.1371 51.3342 85.2054 53.7608 85.292C52.849 85.5992 53.8804 85.8002 52.0824 86.0237C52.918 86.0212 53.6379 86.0764 53.7576 85.8739C54.1524 86.0543 56.2677 85.4825 56.9011 85.7296C57.3202 85.5947 57.5809 85.2989 58.5052 85.3088C58.5832 85.3657 58.4273 85.4501 58.4273 85.4501C58.4941 85.3124 59.9856 85.2354 59.324 84.9359C61.4796 85.7589 66.563 84.6689 68.4844 85.3213C70.3715 85.1511 72.6364 84.948 74.334 84.832C74.1929 84.9252 74.2691 84.9759 73.9628 84.9652C76.2032 85.0775 75.7041 84.0833 78.2543 84.1779C79.4532 84.53 76.749 84.5259 77.5341 84.6353C77.5693 85.5397 80.8045 84.2726 82.4535 84.63L81.997 84.7223C83.3012 84.9038 85.5185 84.0327 87.7925 83.8199C87.7925 83.8199 87.6644 83.9158 87.7497 83.9567C89.4452 83.2809 92.4387 82.7271 94.6743 82.1918C93.945 82.659 93.634 82.5541 94.0224 82.8322C95.0328 82.6094 93.8012 82.3089 95.7979 81.8642C96.4277 81.9416 97.854 81.8104 98.031 82.1498L96.1278 82.5439C97.0751 82.8265 98.5982 82.0628 99.5926 81.9066L99.4605 82.1474C100.938 81.7878 101.667 81.4779 102.425 81.1449C103.184 80.8119 103.957 80.5286 105.523 80.0998L105.175 80.034C106.768 79.0633 106.661 79.9383 108.255 79.0493L108.893 79.3906C110.004 78.9439 112.648 77.6482 114.52 76.8339C113.603 77.6004 111.351 78.5924 109.941 79.2922C111.066 78.9299 113.718 77.9736 114.16 77.517C113.739 77.7275 113.243 78.0446 112.77 78.1218C113.963 77.2727 115.6 76.445 117.703 75.5969C117.775 76.1069 119.196 75.6016 120.821 74.9348C122.445 74.2616 124.255 73.4464 125.249 73.4066C128.635 71.4074 132.474 70.0551 136.479 67.8979C134.444 68.061 137.641 67.2638 136.77 66.7928C137.662 66.2661 138.029 66.0796 138.149 66.0752L141.358 64.9191C142.219 64.7238 140.612 65.5284 140.843 65.6111C142.942 64.5525 141.977 65.3963 143.506 64.8084C142.992 64.755 143.877 64.1218 145.136 63.5658L143.195 64.1909C145.681 62.3382 146.209 63.3093 148.703 61.4059L148.017 62.0916C149.357 61.1679 153.37 58.9601 154.128 57.6774C154.463 57.5833 155.012 57.5158 154.439 57.9395C157.93 55.8861 161.064 52.7515 163.826 51.1654L163.814 51.4425C164.329 50.9896 164.4 50.5089 165.303 50.0542C165.361 50.1244 165.315 50.3305 165.58 50.1289C165.788 49.8571 166.638 48.7974 167.477 48.2538C167.383 48.4617 167.251 48.6616 167.142 48.8606C170.262 46.585 170.636 44.9611 172.318 42.8612C173.123 43.0328 175.209 41.0627 176.041 40.0226L176.141 40.0723C176.436 39.6904 176.708 39.3155 176.961 38.954C177.177 38.5907 177.358 38.2318 177.531 37.8889C177.839 37.1951 178.22 36.5395 178.339 35.8999C178.483 35.2656 178.63 34.6375 178.784 33.9935C178.867 33.3583 178.901 32.7186 179.007 32.0355C179.823 31.1028 180.138 29.6006 180.137 28.0565C180.146 26.5089 179.787 24.9435 179.639 23.6313C179.579 24.0675 178.883 23.8133 178.609 23.4366C178.597 22.8049 177.259 22.197 178.175 21.9431L178.238 22.1483C178.929 21.3995 178.065 20.3999 177.534 19.5798L176.334 19.9323C176.413 18.5331 175.144 17.2811 173.837 16.26C172.538 15.2293 171.158 14.4437 171.265 13.5686C170.491 13.2984 169.778 12.831 168.99 12.5927L169.551 12.289C169.194 11.994 168.885 11.7381 168.582 11.5008C168.27 11.2733 167.952 11.068 167.621 10.8601C166.94 10.4575 166.251 9.9892 165.061 9.47016L165.869 9.45609C164.634 8.78779 162.863 9.65188 161.699 9.0973L162.055 8.40175C160.875 7.9138 159.889 7.26775 158.745 6.74072C157.574 6.243 156.37 5.75594 154.814 5.6215C154.949 5.55046 155.21 5.41191 155.656 5.52127C155.061 5.32304 153.989 4.86888 153.023 4.56487C152.066 4.25109 151.124 4.18517 150.957 4.62846C151.447 4.12926 148.295 3.81152 146.558 3.76235L147.16 3.43198C145.423 3.65643 145.275 3.76567 143.389 3.54589C143.011 3.42145 143.298 3.17186 143.771 3.36828C142.528 2.91408 142.332 3.5377 140.807 3.03104L141.663 2.89882C140.22 2.61871 140.236 2.7502 139.164 2.93124C138.093 2.95503 136.407 2.43856 136.469 2.04945C136.1 2.22973 135.043 2.41965 134.221 2.22672C134.199 2.07658 134.597 2.03045 134.796 2.00739C133.611 1.73976 132.57 1.74668 131.641 1.75895C130.704 1.78721 129.878 1.82082 129.106 1.55682C129.162 1.42268 129.089 1.3436 128.965 1.29472C130.01 1.38197 130.942 1.45765 131.601 1.51197C132.242 1.58582 132.61 1.6383 132.516 1.64806C132.79 1.27942 131.167 1.0437 132.849 0.67976C131.293 0.825175 128.553 1.25644 127.014 0.979864C126.954 0.944317 126.893 0.902552 126.874 0.84036L127.071 0.81108C126.703 0.758597 126.333 0.775408 125.972 0.823316C125.473 0.737938 125.164 0.680136 124.646 0.648948C124.633 0.331785 122.762 0.394521 121.885 0.382812C121.718 0.785229 120.614 0.703293 121.498 1.05437C121.379 1.02415 121.689 1.00644 122.281 1.00033C122.423 0.988802 122.58 0.986164 122.681 0.960418C122.659 0.967522 122.626 0.978177 122.594 0.995051C123.174 0.986273 123.912 1.02194 124.746 1.05408C123.94 1.23161 123.14 1.35229 122.317 1.11849C121.717 1.37335 121.079 1.62643 120.728 1.7463C119.881 1.15802 117.73 0.825367 117.572 0.50729C114.756 0.730654 111.067 0.797502 109.03 1.62423C108.213 1.76445 108.228 1.45885 107.98 1.36108C108.459 1.26166 108.997 1.23866 109.287 1.11789C107.643 1.4081 104.624 1.44397 104.049 2.01867C102.157 1.93748 105.339 1.44588 102.583 1.74566L103.009 1.55384C100.478 1.32329 98.1357 1.90654 95.7875 2.43027C93.4176 3.00197 91.0325 3.52391 88.1391 3.41678C88.5413 3.42396 88.7479 3.42577 88.8077 3.50219C82.0023 3.95759 74.5652 6.10617 67.8041 6.74548C65.868 6.99299 65.6432 7.36607 64.4585 7.85004L64.0457 7.53191L62.0186 8.43061C60.5793 8.91453 59.3492 8.93474 58.0054 9.01889C56.6654 9.11548 55.2227 9.27247 53.4135 10.0122L53.8893 10.1802C52.5841 10.4296 49.7785 11.3192 49.9703 10.9568C49.8384 11.0403 49.5666 11.3396 49.0408 11.3244L48.9797 11.1254L45.8171 12.2736C43.3299 12.7395 46.1357 11.3372 42.5037 12.2196C41.169 12.6494 38.737 13.8083 39.261 13.8173C39.8038 13.6903 40.6586 13.5928 40.7197 13.7918L39.5049 14.2171C39.3588 14.8861 38.4952 15.745 41.5316 15.4097L43.5678 14.5013L44.2737 14.6293L42.5262 15.0963C43.5521 15.1214 44.1528 14.7093 44.8354 14.3665C45.0174 14.4855 45.3203 14.5247 45.7423 14.4777L47.7341 13.3853C47.9961 13.5675 46.8597 14.0905 48.2392 13.8856C49.1727 13.3731 47.2823 13.5718 48.8516 12.9982C49.8702 13.0392 49.5874 13.3421 50.7478 12.8182C50.9187 12.9408 50.6769 13.1007 50.2232 13.2809C51.2516 12.8405 52.9658 12.5414 53.4922 12.0848C54.5448 12.197 56.9987 11.1882 56.9202 11.8012C57.2407 11.5818 58.7464 10.9193 59.6939 10.6894C57.9566 11.7818 63.2721 9.94734 62.7997 10.817C64.0981 9.91373 67.4552 9.55721 69.7472 8.77139C69.6133 8.84865 69.3567 8.99964 69.1649 9.00671C70.4504 8.81149 70.804 8.93682 71.6152 8.89433C71.8269 8.32046 73.8251 7.84109 74.9466 7.30914C76.4616 7.54573 73.922 8.1174 74.3745 8.52526C74.3425 8.10503 77.1427 7.59294 76.6493 7.3281C77.8145 7.4518 77.6637 7.31585 78.2169 7.6571C78.5194 6.94465 79.3482 7.35436 80.3955 6.77797C82.0819 6.8227 80.7389 7.34395 82.6686 6.8388C83.5271 6.91092 81.8131 7.40811 81.8131 7.40811L81.7681 7.34058ZM125.8 3.42098C125.434 3.41558 125.128 3.40486 124.923 3.40927C125.106 3.41197 125.361 3.41201 125.798 3.41476L125.8 3.42098ZM129.233 3.66858C128.831 3.62053 128.31 3.58312 127.753 3.54393C127.731 3.39379 127.958 3.2659 128.294 3.29439C128.04 3.37607 128.798 3.5148 129.233 3.66858ZM123.579 0.452417C124.188 0.420546 124.336 0.509413 124.363 0.596481C124.082 0.5911 123.767 0.590154 123.334 0.599847C123.312 0.60695 123.258 0.630925 123.238 0.644248C123.337 0.571417 123.449 0.501255 123.59 0.448865L123.579 0.452417Z" fill="#9F5225"/>
<path d="M122.23 0.948863C122.136 0.958637 122.08 0.976393 121.972 0.977295C122.068 1.01455 122.162 1.0456 122.268 1.0731C122.363 1.02871 122.461 0.990541 122.545 0.949708C122.436 0.95061 122.327 0.951512 122.23 0.948863Z" fill="#9F5225"/>
<path d="M6.9036 44.1559L6.85988 44.2108C6.9074 44.1683 6.95683 44.1319 7.00816 44.1018C6.95873 44.1381 6.9458 44.1355 6.9036 44.1559Z" fill="#9F5225"/>
<path d="M166.733 16.6564L166.865 16.5729L166.59 16.5046L166.733 16.6564Z" fill="#9F5225"/>
<path d="M20.4979 31.3871C20.5677 31.378 20.6668 31.3461 20.8024 31.2757C20.7656 31.2741 20.6373 31.3288 20.4979 31.3871Z" fill="#9F5225"/>
<path d="M27.3938 26.4065L28.544 25.8114C28.0265 26.0597 27.6725 26.2486 27.3938 26.4065Z" fill="#9F5225"/>
<path d="M33.3084 22.9728C33.3294 22.8841 33.3051 22.8442 33.2917 22.8007L33.2807 22.8042L33.3084 22.9728Z" fill="#9F5225"/>
<path d="M25.5034 80.0691C25.581 80.085 25.6567 80.0947 25.7323 80.1044C26.2932 80.1553 25.9369 80.0998 25.5034 80.0691Z" fill="#9F5225"/>
<path d="M6.4674 68.716C6.69005 68.8491 6.91078 68.976 7.09122 69.1295C6.94794 68.8207 6.81652 68.59 6.4674 68.716Z" fill="#9F5225"/>
<path d="M58.0527 82.532C58.1246 82.5292 58.1964 82.5265 58.2701 82.5299L58.0637 82.5284L58.0527 82.532Z" fill="#9F5225"/>
<path d="M7.57892 69.8884C7.51083 69.5482 7.32945 69.3127 7.10057 69.1199C7.21576 69.3766 7.33328 69.6805 7.57892 69.8884Z" fill="#9F5225"/>
<path d="M61.6616 11.8487L61.9948 11.7892C61.9948 11.7892 62.0054 11.7449 62.0346 11.7218L61.6707 11.839L61.6616 11.8487Z" fill="#9F5225"/>
<path d="M62.0214 11.7186L62.3846 11.6016C62.2121 11.6305 62.0671 11.6705 62.0214 11.7186Z" fill="#9F5225"/>
<path d="M63.1616 11.3243L62.3949 11.5917C62.6674 11.5314 62.9879 11.4694 63.1616 11.3243Z" fill="#9F5225"/>
<path d="M52.6071 14.3403L52.5487 14.5002C52.5487 14.5002 52.615 14.4049 52.6071 14.3403Z" fill="#9F5225"/>
<path d="M49.9204 15.334C50.584 15.1271 51.6415 15.0187 52.5024 14.6255L52.5472 14.495C52.2002 14.8252 50.4435 14.9061 49.9204 15.334Z" fill="#9F5225"/>
<path d="M37.855 18.7116C38.6152 18.3849 39.3678 18.0334 40.1337 17.7254C39.6437 17.7875 39.0047 17.8773 40.0139 17.3748C36.9075 18.3887 40.7899 17.3366 37.855 18.7116Z" fill="#9F5225"/>
<path d="M31.0218 22.1166C32.0769 21.4078 30.8341 21.9788 30.8184 21.8882C30.2242 22.4007 30.0927 22.5251 31.0218 22.1166Z" fill="#9F5225"/>
<path d="M2.07467 54.9976L1.51775 54.9995C1.49085 55.6225 1.73875 54.9693 2.07467 54.9976Z" fill="#9F5225"/>
<path d="M4.67296 60.6225L4.99848 59.9853L4.45856 59.8452L4.67296 60.6225Z" fill="#9F5225"/>
<path d="M1.19136 65.2692C1.13345 65.199 1.08466 65.119 1.04881 65.0417C1.1903 65.3447 1.37783 65.6397 1.55241 65.932L1.2043 65.2719L1.19136 65.2692Z" fill="#9F5225"/>
<path d="M66.2672 85.7996L66.1812 85.3616C65.4978 85.4652 65.1343 85.9795 66.2672 85.7996Z" fill="#9F5225"/>
<path d="M105.179 80.4017C105.641 80.4851 106.801 80.3163 107.439 79.9062C106.543 80.1469 105.62 80.2189 105.179 80.4017Z" fill="#9F5225"/>
<path d="M176.406 18.5515C176.591 18.642 176.756 18.7458 176.931 18.8399C176.692 18.6163 176.423 18.4095 176.162 18.1931L176.406 18.5515Z" fill="#9F5225"/>
</svg>
