<svg width="36" height="4" viewBox="0 0 36 4" fill="none" xmlns="http://www.w3.org/2000/svg">
<path d="M16.1527 1.62605C16.3282 1.74683 16.6999 1.79221 16.6828 1.58262C16.6942 1.72235 16.7864 1.84039 16.9594 1.93674C16.9481 1.79845 17.175 1.83311 17.3196 1.84168C17.2058 1.94317 17.0435 1.96265 16.7203 1.99928C16.4086 1.70557 15.8161 2.15451 15.5207 1.85035C15.7174 1.76399 15.9018 1.54599 16.1544 1.62587L16.1527 1.62605Z" fill="white"/>
<path d="M17.4534 0.695003L17.5002 0.777195L16.9729 0.652495C17.0822 0.719317 17.4395 0.792382 17.4534 0.695003Z" fill="white"/>
<path d="M19.1446 0.942354C19.0936 0.788679 19.3585 0.708136 19.3504 0.567324C19.3466 0.87287 19.7686 0.642625 19.9981 0.685721L20.0928 0.924107C19.8733 1.08918 19.3115 0.998664 18.8383 1.0077L19.1446 0.942354Z" fill="#9F5225"/>
<path d="M19.5705 0.778263L19.7239 0.934107C19.5981 0.890842 19.3076 0.860779 19.5705 0.778263Z" fill="white"/>
<path d="M19.2652 1.5992C18.8978 1.61004 19.4852 1.50382 19.1136 1.44318C19.2394 1.48644 19.3829 1.50166 19.2652 1.5992Z" fill="white"/>
<path d="M20.8073 1.19401C20.5439 1.14145 20.2807 1.07578 20.0169 1.03633C20.1261 1.00508 20.2333 0.971855 20.3431 0.947068L20.8073 1.19401Z" fill="#9F5225"/>
<path d="M20.8489 0.693502C20.7444 0.687205 20.5829 0.763269 20.7311 0.854277C21.0143 0.686767 21.1891 0.962384 21.4546 0.822924L21.2036 0.725437C21.2384 0.532105 21.729 0.961507 21.7179 0.613953C22.0563 0.883018 21.4568 0.892435 21.8973 1.09613C21.481 1.00538 21.1733 1.05779 20.8242 1.095C20.9246 1.02981 20.9662 1.04717 21.1099 0.999157C20.8614 0.973336 20.5257 0.843474 20.2355 0.800298C20.3909 0.585395 20.6083 0.806337 20.8523 0.693137L20.8489 0.693502Z" fill="#9F5225"/>
<path d="M22.1148 0.731126C22.384 0.724222 22.8002 0.764859 22.8656 1.03688C22.5792 1.19164 22.5338 0.961082 22.4071 0.843814C22.3246 0.880951 22.0563 0.881207 22.1636 1.02671C22.2045 0.972215 21.993 0.822573 22.1148 0.731126Z" fill="#9F5225"/>
<path d="M23.1728 0.787023L23.3626 1.04142L23.2374 0.987199L23.2187 1.15266C23.1984 1.10905 23.1112 0.79359 22.8418 0.783071C22.9857 0.671829 23.0301 0.828389 23.1725 0.784868L23.1728 0.787023Z" fill="#9F5225"/>
<path d="M23.2063 1.94635C23.3899 1.85049 23.4937 1.93097 23.6987 2.02027C23.4126 1.96577 23.0019 1.9289 22.9179 1.82234L22.9398 1.86577C22.9398 1.86577 22.6712 1.71568 22.4819 1.53098C22.7725 1.7245 23.3046 1.53701 23.2063 1.94635Z" fill="#9F5225"/>
<path d="M24.003 0.933571L23.5893 0.9646L23.692 0.905697L24.003 0.933571Z" fill="#9F5225"/>
<path d="M23.4911 1.58605C23.8202 1.58803 23.3078 1.74944 23.6156 1.77984C23.6972 1.81473 23.1648 1.72327 23.1424 1.61014C23.2235 1.57535 23.4527 1.77759 23.4911 1.58605Z" fill="#9F5225"/>
<path d="M25.1258 0.944021L25.1867 1.07702C25.5203 1.02403 25.9525 1.26348 26.2064 1.03154C26.1405 1.17588 26.3236 1.36778 26.0331 1.37041C25.9942 1.28084 25.8907 1.2679 25.9118 1.1741C25.7869 1.18741 25.8057 1.29875 25.7224 1.32942C25.5179 1.16378 25.186 1.21659 25.0214 1.06849C25.1035 1.10769 25.1249 1.08143 25.1867 1.07702C24.8363 0.809235 24.7508 1.32184 24.6072 0.949175C24.7307 1.06896 24.9602 0.86795 25.1258 0.944021Z" fill="#9F5225"/>
<path d="M25.0546 1.78605L24.7658 1.7885C24.8472 1.96727 25.115 1.84936 25.1544 2.00863C25.1316 2.10261 24.8465 2.10684 24.947 2.18984C24.9311 1.79703 24.5577 2.10929 24.7254 1.70127C24.3554 1.60775 24.6005 1.926 24.211 1.86071L24.1082 1.64282C24.5398 1.79515 24.6243 1.61396 25.0546 1.78605Z" fill="#9F5225"/>
<path d="M26.1646 1.89107L26.3126 1.78593L26.2252 1.95653C26.5436 2.02068 26.8086 1.87691 27.0425 1.74953C27.2767 1.62432 27.4798 1.50022 27.6694 1.59116C28.1328 1.92757 28.6139 1.65178 29.1038 1.78265C29.3296 1.98525 28.8631 1.8301 28.8295 1.92086C28.8703 2.23909 29.0785 1.80496 29.1663 2.07677C29.1765 2.30236 28.6396 2.21791 28.4177 2.31132C28.2376 2.24551 28.2459 2.17706 28.2002 2.04026C28.1432 2.15531 27.9529 2.15598 27.8977 2.27085C27.5287 2.02465 27.3052 2.31438 26.9435 2.05434C26.8152 2.19878 27.2226 2.1401 27.0965 2.14264L26.8914 2.1013L26.9148 2.07702C26.6463 1.8637 26.12 1.94377 25.9338 2.03119C26.077 1.99414 26.1848 1.8693 26.0209 1.79305L25.8734 1.96788L25.5293 1.62967C25.7928 1.86096 26.1312 1.52846 26.1634 1.89556L26.1646 1.89107Z" fill="#9F5225"/>
<path d="M25.7464 2.18471C25.3145 2.22421 25.813 1.90079 25.3392 1.92078L25.8321 2.01428L25.7464 2.18471Z" fill="#9F5225"/>
<path d="M27.8236 2.04008L28.0455 1.94668C27.908 2.19891 27.6043 1.76921 27.8236 2.04008Z" fill="white"/>
<path d="M28.6025 2.19169L28.513 1.92007L28.7001 2.10065L28.6025 2.19169Z" fill="white"/>
<path d="M29.3436 2.03443C29.4893 2.19981 29.2896 2.25815 29.109 2.18803C29.276 2.21165 29.3725 2.12725 29.3436 2.03443Z" fill="#9F5225"/>
<path d="M30.5709 1.82688C30.2104 1.74106 30.8977 1.84 30.6648 1.55531C30.6997 1.67147 30.8665 1.85639 30.5709 1.82688Z" fill="white"/>
<path d="M31.8102 1.52465C31.6855 1.44205 31.6262 1.47017 31.6009 1.52517C31.6965 1.54549 31.7734 1.55255 31.8102 1.52465Z" fill="#9F5225"/>
<path d="M27.2198 1.31367C27.1791 1.30493 27.1332 1.29674 27.0934 1.29663C27.1374 1.30285 27.1776 1.30727 27.2198 1.31367Z" fill="#9F5225"/>
<path d="M27.3023 1.32392L27.2198 1.31367C27.2501 1.32134 27.2779 1.32217 27.3023 1.32392Z" fill="#9F5225"/>
<path d="M30.0386 1.33461C30.0285 1.34017 30.0182 1.34351 30.0066 1.35148L30.0386 1.33461Z" fill="#9F5225"/>
<path d="M18.5023 0.587714C18.4316 0.57346 18.3772 0.566183 18.3342 0.568588C18.3903 0.575682 18.4464 0.582776 18.5009 0.590052C18.5009 0.590052 18.5009 0.590052 18.5026 0.58987L18.5023 0.587714Z" fill="#9F5225"/>
<path d="M18.3176 0.931786C18.6179 1.10248 18.624 0.559108 19.1087 0.690523C18.9141 0.650244 18.7098 0.617526 18.499 0.587692C18.2308 0.832057 18.7164 0.727984 18.3159 0.931969L18.3176 0.931786Z" fill="#9F5225"/>
<path d="M22.3199 1.43119C22.3199 1.43119 22.3311 1.43672 22.3369 1.44059C22.3665 1.45089 22.3512 1.44131 22.3199 1.43119Z" fill="#9F5225"/>
<path d="M5.36721 2.03146L5.35131 1.96341L5.10874 2.10696L5.36721 2.03146Z" fill="white"/>
<path d="M5.3805 1.89815L5.79733 1.66845L4.48517 1.94128L3.18195 2.26546L3.28651 2.33714C3.28142 2.40307 3.81741 2.25222 4.34656 2.10209C4.87764 1.95393 5.40875 1.83847 5.3805 1.89815Z" fill="white"/>
<path d="M5.52563 1.97829C5.83018 2.2052 5.92856 1.78059 6.27502 1.91366C6.04405 1.82495 5.87066 1.70829 5.68421 1.82625L5.52734 1.97811L5.52563 1.97829Z" fill="white"/>
<path d="M7.00088 3.08608C7.02313 3.0837 7.04366 3.08152 7.06545 3.07483C7.0384 3.06464 7.0133 3.05642 6.99333 3.04765L7.00088 3.08608Z" fill="#9F5225"/>
<path d="M6.99118 3.04664L6.97206 2.94842C6.93387 2.99608 6.95078 3.02479 6.99118 3.04664Z" fill="#9F5225"/>
<path d="M7.06388 3.07464C7.12676 3.09627 7.1999 3.11681 7.24168 3.15158L7.18557 3.17718C7.27172 3.1898 7.42623 3.24307 7.45596 3.18105C7.29981 3.22603 7.28561 3.1578 7.25893 3.02115L7.51513 2.95679C7.4137 2.63848 7.29292 3.01535 7.06582 3.07661L7.06388 3.07464Z" fill="#9F5225"/>
<path d="M8.25889 2.72241C8.18858 2.67978 7.93068 2.74432 8.07606 2.63074C8.02789 2.601 7.9777 2.61725 7.92535 2.62937C8.10847 2.64254 7.97608 2.89423 8.25912 2.72457L8.25889 2.72241Z" fill="#9F5225"/>
<path d="M7.92283 2.62897C7.90012 2.62703 7.87765 2.62724 7.84536 2.63286C7.87172 2.63659 7.89739 2.63386 7.92283 2.62897Z" fill="#9F5225"/>
<path d="M8.76327 2.42776L8.86331 2.40838C8.83422 2.41148 8.80684 2.4144 8.78071 2.41282L8.76327 2.42776Z" fill="#9F5225"/>
<path d="M0.104492 2.75094C0.440021 2.58657 0.758438 2.42404 1.2912 2.38904C1.33359 2.62428 1.50957 2.39192 1.59325 2.62494C1.3285 2.69021 1.82835 2.57372 2.3435 2.47086C2.86242 2.38721 3.39711 2.32149 3.19901 2.42761L3.05099 2.35403L3.23254 2.56353C3.46986 2.43579 3.77518 2.15041 3.97388 2.24475C3.98982 2.19946 3.45439 2.33936 2.92216 2.47674C2.389 2.6055 1.86923 2.7786 1.90205 2.72933C1.86948 2.81345 2.03947 2.81713 2.31188 2.77501C2.58453 2.73505 2.96725 2.67246 3.35326 2.59208C3.73951 2.51385 4.13602 2.43453 4.43934 2.37386C4.74242 2.31104 4.96112 2.30081 4.98613 2.3243L4.99377 2.16873C5.41321 2.23954 5.70208 2.40055 6.04631 2.43143L6.08941 2.23503C5.86074 2.34659 5.77304 2.23824 5.5145 2.21566C5.94583 2.15443 6.00312 2.02626 6.33338 1.99106C6.36207 2.22776 6.07521 2.16679 6.50535 2.20813C6.60635 2.08402 6.29109 1.88659 6.66505 1.85544C7.09847 1.70026 7.06714 2.07196 7.45614 2.01959L7.20901 2.15274C7.35275 2.13741 7.62679 2.14308 7.74385 1.9911C7.58599 2.03627 7.15401 1.97769 7.12725 1.74297C7.29932 1.76604 7.64991 1.61315 7.79365 1.59782L7.68083 1.44856C7.81372 1.26657 7.94051 1.48191 8.11734 1.30613C8.31749 1.36544 8.03914 1.56294 8.15338 1.61179C8.18311 1.54977 8.53348 1.39472 8.67604 1.48197C8.63694 1.84577 8.23016 1.45539 8.04881 1.83218L8.38186 1.70949C8.64778 2.01244 7.83282 1.80289 7.98622 2.05681C8.29437 2.36616 8.47112 1.62151 8.77592 2.0293C8.63054 2.14288 8.12714 2.24231 8.20993 2.35336C8.36931 2.19252 8.53319 2.41481 8.78407 2.41422L9.05738 2.202C9.198 2.28727 9.09648 2.30899 9.00892 2.39679C9.4175 2.1222 10.1877 2.26896 10.777 1.93588C11.149 1.93545 10.8409 2.08163 11.0211 2.18013C11.1054 2.06216 11.2355 2.03303 11.3706 2.03388C11.5062 2.03905 11.6442 2.06793 11.7452 2.05717C11.8035 2.0357 11.9353 2.23307 11.8861 2.32332L11.3599 2.24209C11.3973 2.34926 11.3433 2.54029 11.1583 2.54256C11.2362 2.12014 10.4718 2.8882 10.3803 2.43588L10.4128 2.64383L9.74436 2.59085L9.7602 2.56082C9.77314 2.63355 9.18959 2.48433 8.84504 2.6453C8.90131 2.66982 9.07595 2.63594 9.19665 2.63179C9.31781 2.63196 9.38503 2.66184 9.22313 2.79898C9.50544 2.88223 9.95613 2.6293 10.4536 2.65256L10.3766 2.8068C10.6431 2.87211 10.9364 2.8147 11.2364 2.73913C11.5342 2.65943 11.8415 2.58744 12.1264 2.58105L11.938 2.40496C12.1307 2.3125 12.3727 2.13195 12.5769 2.27801C12.3326 2.29098 12.4692 2.38757 12.5209 2.46706C12.858 2.54447 13.3275 2.37019 13.7825 2.41759C13.7825 2.41759 13.7574 2.37668 13.7751 2.34863L14.2557 2.44125C14.4761 2.39814 14.5431 2.27984 14.6708 2.14635C14.7545 2.16795 14.959 2.15486 14.8884 2.27138C14.8448 2.28474 14.8029 2.29792 14.7725 2.28809C15.0254 2.48562 14.9346 2.21849 15.2407 2.32972C14.9983 2.16594 15.2947 2.07331 15.2566 1.89429C15.6106 1.95245 15.3096 2.21339 15.3597 2.29306C15.7751 2.16378 15.8206 2.00635 16.2459 1.96974C16.2767 2.0798 15.9481 2.04943 15.9182 2.17468C16.0378 2.14449 16.1807 2.15324 16.2058 2.19415L15.9489 2.28474C16.3842 2.1468 16.809 2.10587 17.3041 2.18823L17.2686 2.24433L17.574 2.23575L17.4569 2.03028C17.6234 2.08228 17.7937 1.89411 17.8874 2.0585L17.8267 2.07368L18.0361 2.13855L17.8171 1.93521C18.0767 1.83779 18.4533 2.28588 18.878 2.26022C18.9627 1.9831 18.1384 2.14071 18.072 1.77726C18.2116 1.72315 18.4533 1.66905 18.5418 1.7686C18.5279 1.86598 18.4256 1.86381 18.3235 1.86379C18.703 2.0631 19.2575 1.77731 19.5013 2.10006L19.2221 2.20829C19.5488 2.2541 19.7546 1.87907 19.867 2.08941L19.6032 1.7252C19.7724 1.81833 19.9617 1.857 20.1507 1.89351C20.3381 1.93021 20.5242 1.9714 20.6795 2.04857C20.6879 2.25692 20.2308 2.0114 20.2527 2.05483L20.4014 2.21553C20.8854 2.12906 20.5392 2.09622 21.1278 2.01605L21.1322 2.15507C21.3292 1.95752 21.8524 2.40088 21.6571 2.01411L21.4973 2.08999L21.5124 1.92273L22.1907 2.08365C22.1268 1.95533 22.4549 2.01407 22.3691 1.84231C22.4528 1.8966 22.5355 1.95753 22.6176 2.01416C22.6765 1.90108 22.5638 1.8172 22.4309 1.73982C22.2985 1.66675 22.1478 1.6 22.1364 1.50966C22.1474 1.40169 22.2655 1.4218 22.323 1.44182C22.0217 1.24508 21.8655 1.64752 21.5647 1.63381L21.416 1.47311L21.4227 1.68165C21.2982 1.63389 21.1909 1.48839 21.1473 1.40368C20.8485 1.66875 20.5283 1.29529 20.0763 1.34129C20.4519 1.47127 19.839 1.53441 19.9039 1.59071C19.6994 1.58853 19.1846 1.20748 19.0139 1.45672C18.896 1.55211 19.2693 1.61258 18.9845 1.65166C18.7978 1.62143 18.6681 1.50884 18.786 1.41344C18.5779 1.37678 18.3518 1.36601 18.1214 1.36441C17.8908 1.36065 17.6542 1.38151 17.429 1.37936L17.5422 1.51552C17.2641 1.63452 16.983 1.44871 16.8252 1.29987C16.7879 1.35616 16.7645 1.31506 16.8131 1.39707C16.4641 1.63043 16.3369 1.11871 15.7444 1.17751C15.7667 0.981147 16.0326 0.95934 16.2277 1.05189L16.1659 0.829614C16.6817 0.813867 17.2657 0.854051 17.6877 0.981257L17.4887 0.81938C17.8391 0.5183 17.7575 1.10023 18.0852 0.764523C18.3401 0.850688 17.9066 0.875103 18.1006 0.974299C18.2761 0.916355 18.0421 0.588203 18.3409 0.582508C18.0598 0.542729 17.769 0.525779 17.472 0.516023C17.1748 0.504112 16.8731 0.499214 16.57 0.496653C16.2671 0.496247 15.9622 0.493869 15.6593 0.493464C15.3576 0.503833 15.0573 0.511865 14.7641 0.521323C14.739 0.48041 14.7994 0.463068 14.8597 0.443571C14.7536 0.374229 14.4724 0.38241 14.1103 0.427545C13.9292 0.449035 13.7265 0.479362 13.5154 0.512756C13.3053 0.55477 13.0866 0.597697 12.8699 0.642596C12.0025 0.817882 11.1716 0.945688 11.0867 0.669205C11.0377 0.761611 11.2371 0.829724 10.9887 0.854017C10.9621 0.815442 10.8916 0.77065 10.9406 0.678244C10.3538 1.08299 9.47568 0.849651 8.75283 1.17954C8.75595 1.07894 8.58218 1.05605 8.5697 0.987639C8.34605 1.25995 7.87178 1.09691 7.64932 1.26665L7.71027 1.14028L6.95282 1.27551C6.92473 1.23927 7.02625 1.21755 7.0843 1.19393C6.91053 1.17104 6.89328 1.30147 6.89358 1.4017C6.76747 1.33886 6.64228 1.28464 6.51857 1.22808C6.06187 1.53831 5.50277 1.60227 4.91833 1.65585C4.62651 1.67824 4.32877 1.70997 4.03937 1.77134C3.74974 1.83055 3.46458 1.91543 3.19714 2.05292C2.98974 1.90938 2.82782 1.86779 2.53774 1.92269L2.66613 1.82836C2.34252 1.74733 2.66985 1.92822 2.40733 1.91697C2.21412 1.84166 2.29362 1.64575 2.54419 1.69096C2.67166 1.58801 2.57032 1.5465 2.4593 1.52782C1.55923 1.80249 0.752577 2.2067 0.113175 2.76745L0.104492 2.75094Z" fill="#9F5225"/>
<path d="M35.0929 2.00038C34.9778 2.05625 35.4746 2.20381 35.201 2.3158C34.7853 2.37755 34.2818 2.23287 33.7584 2.07943C33.2334 1.94359 32.6911 1.79215 32.2156 1.81232C31.954 1.89034 31.8884 1.87554 31.6601 1.89333C31.6601 1.86064 31.6645 1.82094 31.6801 1.78876C31.4316 1.73025 31.0324 1.58971 30.7744 1.62157C30.7079 1.56545 30.6735 1.40564 30.8053 1.47225C30.441 1.25388 30.1212 1.59748 29.9215 1.42914C30.1163 1.3735 29.753 1.2444 29.982 1.2178C29.5858 1.10528 29.5683 1.63897 29.2506 1.62925C29.2353 1.58293 29.2216 1.53643 29.2859 1.5383C28.9238 1.69678 28.2465 1.20446 28.1762 1.56723L28.0513 1.38655C27.8917 1.47986 27.9221 1.57034 27.6678 1.57129C27.5094 1.48138 27.6843 1.43439 27.6303 1.36604C27.5498 1.50323 27.118 1.34873 26.9033 1.52637C26.8756 1.75382 27.2801 1.27914 27.4622 1.52564C27.4655 1.57324 27.4352 1.58083 27.3951 1.57856C28.4297 1.72112 29.2864 1.20259 30.1222 1.59083C30.3275 1.47087 30.4547 1.65783 30.5206 1.83825C30.3587 1.87731 29.9039 1.93014 29.9296 1.60264L29.6408 1.75112C29.5414 1.71159 29.5109 2.04178 29.462 2.08623C29.653 2.09203 29.829 2.46123 29.5672 2.52183C30.0523 2.67282 29.4808 1.79216 29.9071 1.97558L29.9459 2.22645C29.8768 2.08125 30.2656 2.05942 30.397 2.17183L30.333 2.2048C30.6263 2.24546 30.9406 2.30351 31.2701 2.37518C31.598 2.44704 31.9365 2.5548 32.2798 2.6577C32.9638 2.8725 33.6626 3.09661 34.2885 3.3503C34.6945 2.87328 35.1826 3.84784 35.5549 3.47685C35.6804 3.59861 35.3207 3.61734 35.5761 3.7732C35.7039 3.85113 35.742 3.70539 35.744 3.6594C35.7817 3.68808 35.8191 3.7146 35.8585 3.7431C36.057 3.21845 35.9147 2.6473 35.0961 1.99786L35.0929 2.00038Z" fill="#9F5225"/>
<path d="M21.92 2.00891C22.0027 2.10254 22.1783 2.14267 22.1703 1.98659C22.1745 2.09076 22.2176 2.18134 22.2997 2.25833C22.2955 2.15415 22.4025 2.18415 22.4711 2.19428C22.4166 2.26766 22.3398 2.27802 22.1863 2.29875C22.0408 2.07014 21.7564 2.4056 21.6173 2.15669C21.712 2.10301 21.8007 1.94533 21.92 2.00891Z" fill="white"/>
<path d="M22.5394 1.33709L22.5617 1.40011L22.3135 1.29579C22.3639 1.34708 22.5333 1.40967 22.5394 1.33709Z" fill="white"/>
<path d="M23.3346 1.53894C23.3119 1.42366 23.4352 1.36257 23.4327 1.25821C23.4294 1.48742 23.629 1.31358 23.7382 1.34771L23.7814 1.52618C23.6768 1.6485 23.4134 1.58067 23.1911 1.58911L23.3346 1.53894Z" fill="#9F5225"/>
<path d="M23.5339 1.41596L23.6052 1.5326C23.5463 1.49965 23.4089 1.47724 23.5339 1.41596Z" fill="white"/>
<path d="M23.3899 2.03009C23.2159 2.03774 23.4932 1.96023 23.3186 1.91345C23.3775 1.94641 23.4463 1.95869 23.3899 2.03009Z" fill="white"/>
<path d="M24.1159 1.71175L23.745 1.60961L23.8986 1.54092L24.1159 1.71175Z" fill="#9F5225"/>
<path d="M24.1361 1.33818C24.0875 1.33682 24.0109 1.3973 24.0801 1.46185C24.2129 1.32781 24.2948 1.52832 24.4197 1.41693L24.3019 1.35102C24.3192 1.20532 24.5475 1.51228 24.5439 1.25111C24.7033 1.44772 24.4211 1.46255 24.6272 1.61059C24.432 1.54857 24.287 1.60108 24.1231 1.63817C24.1713 1.58726 24.1898 1.59836 24.2582 1.55838C24.1408 1.54474 23.9846 1.45895 23.847 1.43439C23.9211 1.26955 24.0227 1.42656 24.1376 1.33584L24.1361 1.33818Z" fill="#9F5225"/>
<path d="M24.7315 1.33293C24.8591 1.32805 25.0542 1.33995 25.0843 1.54162C24.9489 1.66722 24.9276 1.49948 24.8698 1.41192C24.8312 1.44 24.7037 1.44488 24.755 1.55275C24.7748 1.51141 24.6749 1.40218 24.7333 1.33275L24.7315 1.33293Z" fill="#9F5225"/>
<path d="M25.2306 1.34188L25.3195 1.52639L25.2604 1.49128L25.2512 1.6165C25.2409 1.5849 25.2022 1.35145 25.0761 1.35399C25.1444 1.26389 25.1639 1.38169 25.2325 1.34386L25.2306 1.34188Z" fill="#9F5225"/>
<path d="M25.2405 2.2128C25.3275 2.13595 25.3747 2.18976 25.4713 2.2514C25.3362 2.21785 25.1447 2.20774 25.1054 2.13129L25.1157 2.16288C25.1157 2.16288 24.9904 2.05855 24.9023 1.93062C25.0377 2.0644 25.289 1.90466 25.2407 2.21495L25.2405 2.2128Z" fill="#9F5225"/>
<path d="M25.6199 1.427L25.4247 1.46306L25.4751 1.41628L25.6199 1.427Z" fill="#9F5225"/>
<path d="M25.3763 1.92914C25.5312 1.92134 25.288 2.05843 25.4327 2.06915C25.4717 2.09334 25.2204 2.04166 25.2117 1.95976C25.2502 1.93168 25.3572 2.07502 25.3763 1.92914Z" fill="#9F5225"/>
<path d="M26.1493 1.38815L26.177 1.48546C26.3335 1.42737 26.5369 1.58223 26.6572 1.39505C26.6259 1.50737 26.7109 1.63997 26.5745 1.65887C26.5556 1.5955 26.5066 1.58983 26.5181 1.51886C26.4591 1.53386 26.468 1.61791 26.4278 1.64618C26.3326 1.53209 26.1744 1.59037 26.0978 1.48954C26.1368 1.51373 26.1467 1.49306 26.1753 1.48565C26.0107 1.30485 25.9677 1.6974 25.9034 1.41873C25.9612 1.50629 26.0698 1.33996 26.1476 1.38834L26.1493 1.38815Z" fill="#9F5225"/>
<path d="M26.1134 2.02108L25.977 2.03998C26.015 2.16889 26.1424 2.06594 26.16 2.18177C26.1487 2.25489 26.014 2.27361 26.0615 2.32958C26.0562 2.0359 25.8776 2.29252 25.9598 1.97642C25.7858 1.91869 25.9003 2.14842 25.7164 2.11136L25.6698 1.95067C25.8726 2.05111 25.9123 1.92046 26.1151 2.0209L26.1134 2.02108Z" fill="#9F5225"/>
<path d="M26.6374 2.03884L26.7076 1.95071L26.6664 2.0837C26.9672 2.14536 27.1677 1.60742 27.3481 1.70807C27.5679 1.92003 27.7926 1.67376 28.0236 1.72979C28.1329 1.86199 27.9118 1.78529 27.8969 1.85663C27.922 2.09154 28.0117 1.74849 28.0585 1.94402C28.0679 2.11303 27.8135 2.09656 27.7086 2.18403C27.6218 2.14968 27.6249 2.09705 27.6026 2.00134C27.5775 2.0912 27.4878 2.10948 27.461 2.19952C27.2854 2.04605 27.1808 2.2817 27.0075 2.11709C26.9458 2.237 27.1398 2.15747 27.0806 2.17032L26.9838 2.15449L26.9956 2.13579C26.8693 1.99014 26.6193 2.08 26.5304 2.15487C26.5993 2.11919 26.6493 2.02014 26.5714 1.97177L26.5016 2.11217L26.3398 1.87658C26.464 2.03553 26.6241 1.76781 26.6394 2.04081L26.6374 2.03884Z" fill="#9F5225"/>
<path d="M26.4388 2.28277C26.2334 2.33735 26.471 2.06573 26.247 2.10705L26.48 2.14978L26.4388 2.28277Z" fill="#9F5225"/>
<path d="M27.4217 2.03507L27.5266 1.9476C27.4632 2.14835 27.3174 1.8522 27.4217 2.03507Z" fill="white"/>
<path d="M27.792 2.08502L27.7469 1.8893L27.8374 2.00824L27.792 2.08502Z" fill="white"/>
<path d="M28.1383 1.89525C28.2101 2.00093 28.1171 2.0697 28.0303 2.03536C28.1102 2.03774 28.1537 1.95899 28.1383 1.89525Z" fill="#9F5225"/>
<path d="M28.705 1.5965C28.5368 1.57737 28.8557 1.56518 28.7392 1.38143C28.7584 1.46439 28.8417 1.57975 28.705 1.5965Z" fill="white"/>
<path d="M29.2597 1.20136C29.1999 1.15978 29.1755 1.19072 29.1649 1.23761C29.2082 1.23736 29.2436 1.22922 29.2597 1.20136Z" fill="#9F5225"/>
<path d="M27.1338 1.54607C27.1145 1.54377 27.0933 1.53949 27.0747 1.54365C27.0955 1.54362 27.1148 1.54592 27.1338 1.54607Z" fill="#9F5225"/>
<path d="M27.1717 1.54447L27.1333 1.54201C27.1475 1.54486 27.1614 1.54556 27.1717 1.54447Z" fill="#9F5225"/>
<path d="M28.445 1.2932C28.445 1.2932 28.4361 1.30255 28.4319 1.3093L28.445 1.2932Z" fill="#9F5225"/>
<path d="M23.0335 1.27262C22.9994 1.261 22.9748 1.25709 22.954 1.25713L23.0318 1.27281L23.0335 1.27262Z" fill="#9F5225"/>
<path d="M22.9452 1.52904C23.087 1.65778 23.0902 1.24985 23.3187 1.34755C23.2273 1.31807 23.131 1.29128 23.0317 1.26917C22.9042 1.45277 23.1329 1.3739 22.9449 1.52689L22.9452 1.52904Z" fill="#9F5225"/>
<path d="M24.8271 1.85575C24.8271 1.85575 24.8324 1.85939 24.8342 1.8613C24.8463 1.86841 24.8406 1.86061 24.8271 1.85575Z" fill="#9F5225"/>
<path d="M16.8034 1.33128L16.7996 1.27938L16.6792 1.35107L16.8034 1.33128Z" fill="white"/>
<path d="M16.8157 1.23556L17.0224 1.12853L15.7644 1.1471L15.8099 1.21636C15.799 1.30906 16.8478 1.14714 16.8157 1.23556Z" fill="white"/>
<path d="M16.881 1.31431C17.0161 1.52659 17.0779 1.23011 17.2374 1.37876C17.1316 1.27888 17.0541 1.16944 16.9617 1.22725L16.8812 1.31647L16.881 1.31431Z" fill="white"/>
<path d="M17.5386 2.35091C17.5493 2.35412 17.5596 2.35303 17.5698 2.35193C17.5567 2.34244 17.5453 2.33275 17.5371 2.32055L17.5403 2.35072L17.5386 2.35091Z" fill="#9F5225"/>
<path d="M17.5342 2.31965L17.5261 2.24422C17.5092 2.27436 17.5167 2.29754 17.5342 2.31965Z" fill="#9F5225"/>
<path d="M17.5694 2.34966C17.5979 2.37279 17.6317 2.39752 17.6505 2.4282L17.6223 2.43993C17.6625 2.45962 17.7344 2.51734 17.7506 2.4742C17.6743 2.48888 17.6705 2.43697 17.6626 2.33101L17.7871 2.31338C17.7502 2.06448 17.6798 2.32918 17.5692 2.34751L17.5694 2.34966Z" fill="#9F5225"/>
<path d="M18.1485 2.23303C18.1165 2.19285 17.9918 2.20832 18.0644 2.14174C18.0423 2.11358 18.0188 2.12044 17.9929 2.12102C18.0794 2.15321 18.0091 2.32199 18.1483 2.23088L18.1485 2.23303Z" fill="#9F5225"/>
<path d="M17.9921 2.1255C17.9814 2.12228 17.9707 2.11907 17.955 2.11856C17.9677 2.12374 17.9799 2.12462 17.9921 2.1255Z" fill="#9F5225"/>
<path d="M18.3989 2.07618L18.4468 2.07107C18.4332 2.07253 18.4209 2.07165 18.4085 2.06862L18.3989 2.07618Z" fill="#9F5225"/>
<path d="M14.2919 0.911705C14.4576 0.859165 14.6161 0.803044 14.8686 0.882926C14.8755 1.06092 14.9704 0.928744 14.9989 1.11533C14.7433 1.10335 15.961 1.17843 15.7647 1.2691L15.699 1.18891L15.774 1.37272C15.8911 1.31883 16.0478 1.16481 16.1385 1.26849C16.1579 1.20756 15.1022 1.30484 15.1397 1.25071C15.0623 1.46603 16.5688 1.39263 16.614 1.49243L16.6243 1.37799C16.8199 1.49227 16.9493 1.65067 17.1115 1.7271L17.1383 1.58911C17.0259 1.63815 16.9881 1.54409 16.8664 1.4895C17.0727 1.50892 17.105 1.42265 17.2617 1.44736C17.2668 1.62554 17.1328 1.53739 17.3349 1.63136C17.3872 1.55386 17.2459 1.36404 17.424 1.39519C17.6347 1.34222 17.6058 1.60685 17.7921 1.6175L17.6714 1.68703C17.7398 1.69501 17.8697 1.7291 17.9302 1.63111C17.8539 1.64578 17.6518 1.55181 17.6484 1.37345C17.7285 1.41068 17.8992 1.34017 17.9673 1.34599L17.9196 1.22248C17.9883 1.104 18.0416 1.27923 18.1302 1.16951C18.2224 1.23816 18.0855 1.35082 18.1375 1.39978C18.1537 1.35664 18.3244 1.28613 18.3883 1.3665C18.3592 1.62898 18.178 1.29302 18.0805 1.54752L18.2414 1.49768C18.3571 1.75561 17.9785 1.49955 18.0438 1.70619C18.1812 1.97271 18.2874 1.44264 18.419 1.78389C18.3465 1.85047 18.1053 1.86092 18.1411 1.95301C18.2223 1.85499 18.292 2.03719 18.4112 2.06807L18.5469 1.94463C18.6108 2.025 18.5627 2.02795 18.5183 2.08281C18.7199 1.92836 19.081 2.10129 19.3691 1.91365C19.546 1.94929 19.3969 2.02839 19.4793 2.11986C19.5662 1.96022 19.7292 2.09323 19.8257 2.08948C19.8539 2.07776 19.9119 2.23286 19.8876 2.29649L19.64 2.19864C19.6558 2.28196 19.6254 2.41816 19.537 2.40142C19.584 2.09562 19.2026 2.59183 19.1692 2.24664L19.1789 2.40254L18.8616 2.29905L18.8698 2.27856C18.8736 2.33047 18.6008 2.17428 18.4318 2.24461C18.4837 2.29356 18.7694 2.23041 18.608 2.40455C18.7403 2.49289 18.9619 2.34721 19.1974 2.41365L19.1569 2.52041C19.408 2.66801 19.7225 2.46884 19.9963 2.50503L19.9101 2.36165C20.0028 2.306 20.1218 2.18869 20.2163 2.31158C20.0995 2.30441 20.162 2.38711 20.1858 2.44779C20.345 2.5289 20.5723 2.4371 20.7881 2.49692C20.7881 2.49692 20.7761 2.46551 20.7843 2.44502L21.0121 2.53625C21.117 2.51417 21.1513 2.42987 21.2137 2.33385C21.2539 2.35354 21.3507 2.35195 21.3164 2.43625C21.2965 2.4449 21.2747 2.45158 21.2616 2.44208C21.379 2.60176 21.3399 2.39669 21.4838 2.49687C21.3709 2.36287 21.5122 2.30858 21.496 2.17299C21.6634 2.23361 21.5181 2.41257 21.5404 2.47558C21.74 2.39981 21.7625 2.28625 21.9642 2.26258C21.9783 2.34608 21.8228 2.31687 21.8068 2.41012C21.8634 2.38884 21.9317 2.39681 21.9423 2.43056L21.8192 2.49381C22.027 2.39755 22.2289 2.37603 22.4634 2.44911L22.4453 2.49027L22.5907 2.49004L22.5358 2.33242C22.6147 2.37414 22.6954 2.23911 22.74 2.36514L22.7116 2.3747L22.8092 2.42969L22.7057 2.27071C22.829 2.20962 23.0042 2.53751 23.2048 2.52047C23.2448 2.31133 22.8576 2.42889 22.8269 2.15753C22.8919 2.11791 23.007 2.0773 23.0478 2.15142C23.04 2.22418 22.9931 2.22264 22.9447 2.22344C23.1233 2.37224 23.3844 2.15914 23.4985 2.40198L23.367 2.48357C23.5212 2.51727 23.6178 2.23887 23.671 2.39667L23.5483 2.12205C23.7066 2.25992 23.9075 2.24505 24.0539 2.3515C24.0567 2.50813 23.8429 2.33694 23.8532 2.36854L23.9228 2.48536C24.1514 2.40649 23.9874 2.39347 24.2644 2.3138L24.2669 2.41816C24.3596 2.26443 24.6044 2.58053 24.5137 2.29813L24.4388 2.35842L24.4462 2.23339C24.5535 2.26555 24.658 2.30454 24.7641 2.34119C24.7349 2.24622 24.8878 2.28441 24.8483 2.15784L24.9633 2.27854C25.0209 2.10457 24.7501 2.04843 24.7389 1.91013C24.7441 1.82894 24.7992 1.84268 24.8267 1.85718C24.6852 1.71533 24.6116 2.01524 24.4695 2.01296L24.3999 1.89613L24.4028 2.05276C24.3439 2.01981 24.2945 1.91391 24.2741 1.85287C24.1335 2.05967 23.9824 1.79461 23.7701 1.83249C23.9465 1.9292 23.6575 1.97745 23.688 2.01998C23.5925 2.01708 23.3509 1.73115 23.2704 1.91845C23.2157 1.98967 23.3903 2.03645 23.2565 2.06379C23.1692 2.0404 23.1082 1.95536 23.163 1.88414C22.9667 1.82877 22.7372 1.85106 22.5235 1.84332L22.5762 1.94886C22.445 2.03259 22.3116 1.88552 22.2389 1.77122C22.2208 1.81238 22.2105 1.78078 22.2328 1.8438C22.0672 2.01183 22.0088 1.62574 21.7286 1.65996C21.7406 1.51265 21.8657 1.50149 21.9566 1.57463L21.9284 1.40762C22.1722 1.40561 22.4467 1.44828 22.6446 1.55142L22.5517 1.42619C22.7168 1.20588 22.6772 1.64603 22.8325 1.39843C22.952 1.46416 22.7477 1.4794 22.8388 1.55469C22.9224 1.51091 22.8115 1.26554 22.9529 1.26136C22.4236 1.14996 21.8238 1.15722 21.2713 1.12022C21.2593 1.0888 21.2894 1.07905 21.3176 1.06733C21.1181 0.835763 19.6054 1.43511 19.5399 0.999631C19.5155 1.06326 19.6079 1.13406 19.4895 1.12707C19.4775 1.09565 19.4455 1.05547 19.4699 0.991841C19.1839 1.23156 18.7769 0.985064 18.4272 1.14658C18.4314 1.07203 18.3513 1.03479 18.3474 0.982888C18.2344 1.15623 18.0145 0.976963 17.9057 1.07575L17.938 0.989482L17.5771 0.997433C17.5651 0.966018 17.6135 0.965221 17.6414 0.951345C17.5613 0.914113 17.549 1.00915 17.5446 1.08155L17.3731 0.901486C16.9207 1.21998 16.3063 0.764551 15.7774 0.982217C15.6862 0.84154 15.6126 0.784 15.4747 0.772549L15.539 0.726461C15.3917 0.611382 15.5365 0.800829 15.413 0.746424C15.3257 0.657653 15.3725 0.528427 15.488 0.605478C15.5534 0.552742 15.5068 0.505397 15.4564 0.471529C15.0224 0.506903 14.6234 0.627899 14.2921 0.91386L14.2919 0.911705Z" fill="#9F5225"/>
<path d="M30.7324 0.936783C30.6894 1.00457 30.9122 1.00044 30.8064 1.14467C30.4601 1.41916 29.8824 1.16251 29.4574 1.34732C29.3434 1.44666 29.3123 1.44779 29.2087 1.49807C29.2061 1.47436 29.208 1.44364 29.2138 1.41687C29.0978 1.41616 28.9114 1.35539 28.793 1.41378C28.76 1.38025 28.7407 1.2646 28.8013 1.29737C28.6279 1.18072 28.4914 1.47427 28.3941 1.37348C28.4825 1.30957 28.3123 1.25578 28.4162 1.20765C28.2323 1.17059 28.2352 1.57132 28.0862 1.60246C28.0793 1.5705 28.0705 1.53656 28.1011 1.53112C27.934 1.68408 27.6117 1.37188 27.5844 1.65159L27.5244 1.52721C27.4501 1.60924 27.4657 1.67514 27.3454 1.69887C27.2705 1.64582 27.3534 1.59557 27.3259 1.54837C27.289 1.65692 27.0853 1.58056 26.9851 1.72855C26.9727 1.90424 27.1612 1.51361 27.2485 1.68304C27.2505 1.7177 27.236 1.72796 27.2172 1.72997C27.7071 1.74749 28.0971 1.29834 28.4916 1.47642C28.5832 1.36203 28.6466 1.48605 28.6824 1.61083C28.6081 1.66017 28.3984 1.75445 28.4015 1.50782L28.2718 1.65461C28.225 1.6378 28.2169 1.88713 28.1949 1.92435C28.2847 1.90606 28.3758 2.16008 28.2542 2.23626C28.4868 2.2921 28.1972 1.70179 28.402 1.78893L28.4267 1.97157C28.39 1.87086 28.5719 1.80788 28.6362 1.87513L28.6069 1.90877C29.1582 1.88488 29.8868 2.03171 30.496 2.11281C30.636 1.67286 30.9453 2.28505 31.0745 1.92254C31.1433 1.98278 30.9858 2.08022 31.1146 2.13623C31.1799 2.16414 31.1812 2.04631 31.1777 2.01398C31.1979 2.02491 31.2167 2.03817 31.2369 2.04909C31.2669 1.61651 31.1359 1.23161 30.7343 0.938756L30.7324 0.936783Z" fill="#9F5225"/>
<path d="M24.7215 1.69853C24.7849 1.78986 24.9166 1.82377 24.905 1.6659C24.9114 1.76983 24.9463 1.85839 25.0094 1.93157C25.0018 1.82776 25.0825 1.85404 25.1335 1.86168C25.0949 1.93772 25.0391 1.95021 24.9278 1.97733C24.8123 1.75425 24.6155 2.09998 24.5048 1.85677C24.5714 1.79954 24.6321 1.63832 24.723 1.69619L24.7215 1.69853Z" fill="white"/>
<path d="M25.1584 1.00492L25.177 1.06614L24.9903 0.970525C25.0303 1.02075 25.1574 1.07695 25.1601 1.00474L25.1584 1.00492Z" fill="white"/>
<path d="M25.754 1.16951C25.733 1.05404 25.8248 0.98977 25.8189 0.885777C25.8227 1.11641 25.9659 0.933318 26.047 0.963902L26.0832 1.14095C26.0083 1.26663 25.8118 1.20911 25.6473 1.22447L25.7523 1.16969L25.754 1.16951Z" fill="#9F5225"/>
<path d="M25.8994 1.04151L25.9548 1.15548C25.91 1.12537 25.8078 1.10794 25.8994 1.04151Z" fill="white"/>
<path d="M25.8079 1.66099C25.6795 1.67467 25.8829 1.58542 25.7525 1.54701C25.7972 1.57712 25.8467 1.5871 25.8079 1.66099Z" fill="white"/>
<path d="M26.3374 1.31653L26.0593 1.22411L26.1709 1.15118L26.3374 1.31653Z" fill="#9F5225"/>
<path d="M26.344 0.938262C26.3076 0.937782 26.2522 1.00254 26.3056 1.06442C26.4015 0.925595 26.4664 1.12793 26.5578 1.01138L26.4681 0.949018C26.4783 0.801889 26.6544 1.10571 26.6473 0.844904C26.7694 1.03241 26.5599 1.06347 26.7145 1.19955C26.5688 1.14752 26.4617 1.19817 26.3398 1.2395C26.3739 1.18574 26.3889 1.19721 26.4381 1.15492C26.3505 1.14464 26.2328 1.06346 26.1301 1.04171C26.1813 0.872785 26.2601 1.02785 26.3436 0.933952L26.344 0.938262Z" fill="#9F5225"/>
<path d="M26.7862 0.921987C26.8803 0.911955 27.0261 0.916028 27.0509 1.11609C26.9528 1.25079 26.9349 1.08269 26.8895 0.998159C26.8617 1.02946 26.7674 1.03734 26.8062 1.14217C26.8192 1.10156 26.7437 0.994085 26.7862 0.921987Z" fill="#9F5225"/>
<path d="M27.1594 0.907097L27.2271 1.08733L27.1838 1.05489L27.1781 1.17974C27.1712 1.14777 27.1379 0.915934 27.0438 0.925967C27.0927 0.83356 27.1103 0.949389 27.1597 0.909253L27.1594 0.907097Z" fill="#9F5225"/>
<path d="M27.1774 1.77334C27.2397 1.69259 27.2765 1.74534 27.3482 1.80091C27.2487 1.77664 27.1078 1.76986 27.0775 1.69681L27.0861 1.72859C27.0861 1.72859 26.9929 1.6339 26.9256 1.50593C27.0273 1.6324 27.2115 1.4602 27.1791 1.77316L27.1774 1.77334Z" fill="#9F5225"/>
<path d="M27.4516 0.970369L27.306 1.01641L27.3422 0.966775L27.4516 0.970369Z" fill="#9F5225"/>
<path d="M27.2741 1.48793C27.3883 1.4714 27.2105 1.62114 27.3182 1.62491C27.3464 1.64588 27.1624 1.60882 27.1535 1.52477C27.1815 1.49563 27.2619 1.63309 27.2741 1.48793Z" fill="#9F5225"/>
<path d="M27.8465 0.913263L27.8671 1.00915C27.9851 0.946448 28.1355 1.0917 28.2279 0.903123C28.2035 1.01471 28.2661 1.14753 28.1626 1.16728C28.1489 1.10335 28.114 1.10054 28.1218 1.02777C28.077 1.04563 28.0842 1.12986 28.0528 1.15937C27.9822 1.0492 27.8643 1.1119 27.8073 1.01553C27.8357 1.03866 27.8439 1.01817 27.8654 1.00933C27.7428 0.832781 27.7105 1.22854 27.6623 0.954697C27.7062 1.04156 27.7863 0.867377 27.8448 0.913445L27.8465 0.913263Z" fill="#9F5225"/>
<path d="M27.8175 1.54401L27.7165 1.57004C27.7437 1.69573 27.8378 1.58763 27.8502 1.704C27.8424 1.77676 27.7428 1.80046 27.7781 1.85554C27.7747 1.56384 27.6434 1.8263 27.7027 1.50612C27.5746 1.45657 27.6591 1.68078 27.5244 1.65154L27.4884 1.49192C27.6385 1.5849 27.6672 1.44888 27.8173 1.54186L27.8175 1.54401Z" fill="#9F5225"/>
<path d="M28.2034 1.54435L28.2563 1.45589L28.2236 1.58797C28.4421 1.64096 28.6062 1.10254 28.7382 1.20399C28.8956 1.4139 29.0723 1.17274 29.2449 1.23281C29.318 1.36669 29.1571 1.28576 29.1422 1.3571C29.1462 1.58988 29.2348 1.25133 29.2574 1.44726C29.2526 1.61342 29.0651 1.59199 28.9861 1.67888C28.9253 1.64395 28.93 1.59113 28.9163 1.49452C28.893 1.58419 28.8254 1.6001 28.804 1.69175C28.6805 1.53927 28.5949 1.77507 28.4738 1.61361C28.4261 1.73421 28.5698 1.65351 28.526 1.66472L28.4552 1.65046L28.4634 1.62997C28.3738 1.48696 28.1865 1.58102 28.1222 1.6598C28.1718 1.62182 28.2114 1.52171 28.1545 1.47546L28.1005 1.61852L27.9826 1.38916C28.0734 1.54295 28.195 1.27062 28.2014 1.54238L28.2034 1.54435Z" fill="#9F5225"/>
<path d="M28.0544 1.79556C27.9035 1.85741 28.0796 1.57709 27.9154 1.6273L28.0851 1.66151L28.0544 1.79556Z" fill="#9F5225"/>
<path d="M28.7826 1.52887L28.8631 1.43965C28.8082 1.63948 28.7111 1.34469 28.7826 1.52887Z" fill="white"/>
<path d="M29.0553 1.58171L29.0309 1.38596L29.0922 1.50585L29.0553 1.58171Z" fill="white"/>
<path d="M29.3228 1.40339C29.3688 1.50965 29.2963 1.57623 29.2335 1.53933C29.2911 1.54408 29.33 1.4702 29.3228 1.40339Z" fill="#9F5225"/>
<path d="M29.7757 1.13579C29.6477 1.10367 29.8948 1.11656 29.8225 0.925913C29.8315 1.00996 29.8825 1.13095 29.7757 1.13579Z" fill="white"/>
<path d="M30.2493 0.801598C30.2079 0.753706 30.183 0.780331 30.1703 0.823102C30.2054 0.828074 30.2328 0.825156 30.2493 0.801598Z" fill="#9F5225"/>
<path d="M28.5838 1.04204C28.5697 1.03919 28.5538 1.03652 28.5386 1.04032C28.5543 1.04083 28.5682 1.04153 28.5838 1.04204Z" fill="#9F5225"/>
<path d="M28.6136 1.04172L28.5835 1.04045C28.5944 1.04377 28.6049 1.04265 28.6136 1.04172Z" fill="#9F5225"/>
<path d="M29.5991 0.820344C29.5991 0.820344 29.5918 0.827434 29.5876 0.834182L29.5991 0.820344Z" fill="#9F5225"/>
<path d="M25.5222 0.915041C25.4968 0.904664 25.4776 0.90236 25.4622 0.904002L25.5207 0.917378L25.5222 0.915041Z" fill="#9F5225"/>
<path d="M25.4647 1.17968C25.5728 1.30111 25.5639 0.892304 25.7362 0.982914C25.6675 0.955363 25.5944 0.934826 25.5217 0.918598C25.433 1.10896 25.5999 1.01924 25.4649 1.18184L25.4647 1.17968Z" fill="#9F5225"/>
<path d="M26.8659 1.43931C26.8659 1.43931 26.8697 1.44318 26.8716 1.44512C26.8807 1.45269 26.8765 1.44459 26.8659 1.43931Z" fill="#9F5225"/>
<path d="M20.9073 1.31935L20.8983 1.26799L20.8169 1.3486L20.9073 1.31935Z" fill="white"/>
<path d="M20.9058 1.22575L21.0481 1.09943C20.7375 1.14124 20.4243 1.18989 20.1089 1.2671L20.1537 1.3299C20.1587 1.37731 20.348 1.31791 20.5366 1.26946C20.7253 1.22102 20.9129 1.17922 20.9055 1.2236L20.9058 1.22575Z" fill="white"/>
<path d="M20.961 1.29593C21.0826 1.49439 21.0988 1.19188 21.2307 1.32603C21.1432 1.2351 21.0752 1.13336 21.0113 1.19903L20.9608 1.29377L20.961 1.29593Z" fill="white"/>
<path d="M21.5418 2.27185C21.5418 2.27185 21.5577 2.2724 21.5645 2.26944C21.5546 2.25928 21.5449 2.25134 21.5367 2.24099L21.54 2.27204L21.5418 2.27185Z" fill="#9F5225"/>
<path d="M21.536 2.23942L21.5247 2.16435C21.5129 2.19612 21.5202 2.21713 21.536 2.23942Z" fill="#9F5225"/>
<path d="M21.5645 2.26944C21.5875 2.29095 21.6132 2.3119 21.6284 2.3408L21.609 2.35376C21.6402 2.37006 21.696 2.42295 21.7051 2.37839C21.6519 2.39932 21.6447 2.34778 21.6283 2.24272L21.7155 2.216C21.6668 1.97053 21.6384 2.23947 21.5617 2.26726L21.5645 2.26944Z" fill="#9F5225"/>
<path d="M21.9724 2.1115C21.9458 2.07293 21.8569 2.09983 21.9046 2.02719C21.8862 2.00081 21.8698 2.0091 21.8512 2.01327C21.9162 2.03903 21.8794 2.21296 21.9724 2.1115Z" fill="#9F5225"/>
<path d="M21.8501 2.01018C21.8501 2.01018 21.8337 2.0052 21.8232 2.00632C21.8327 2.01204 21.8414 2.01111 21.8501 2.01018Z" fill="#9F5225"/>
<path d="M22.1409 1.93514L22.1769 1.93131C22.1666 1.93241 22.1576 1.92901 22.1469 1.92579L22.1409 1.93514Z" fill="#9F5225"/>
<path d="M18.9263 1.45538C19.0346 1.33486 19.1465 1.21612 19.3662 1.21451C19.4171 1.38345 19.4574 1.22657 19.5244 1.40034C19.4255 1.4305 19.6133 1.37343 19.8062 1.34851C19.9989 1.32143 20.1967 1.3265 20.1301 1.38373L20.0675 1.31629L20.1546 1.48356C20.2318 1.41212 20.327 1.23414 20.408 1.32795C20.4116 1.29705 20.2186 1.33724 20.0291 1.39449C19.8395 1.44958 19.6555 1.52586 19.6625 1.4946C19.6593 1.61046 19.9267 1.55362 20.2034 1.51976C20.4797 1.48159 20.7657 1.45329 20.7877 1.49672L20.7823 1.38177C20.9393 1.47402 21.0504 1.62347 21.1761 1.682L21.1819 1.54188C21.1033 1.60039 21.068 1.51261 20.9733 1.46822C21.1274 1.46923 21.1419 1.37831 21.2608 1.38961C21.2797 1.56633 21.1747 1.49034 21.3317 1.56733C21.363 1.4877 21.2401 1.309 21.3751 1.32512C21.5251 1.25465 21.5274 1.52031 21.6655 1.51649L21.5821 1.59512C21.6325 1.5963 21.7305 1.6229 21.7663 1.521C21.7112 1.53995 21.5559 1.46278 21.5369 1.28391C21.5989 1.31434 21.7199 1.2317 21.7702 1.23287L21.7246 1.1135C21.7668 0.989129 21.8196 1.16005 21.8765 1.04499C21.9506 1.10684 21.858 1.22788 21.9009 1.27344C21.91 1.22887 22.0295 1.14857 22.0842 1.22338C22.0831 1.48941 21.9239 1.16419 21.8705 1.42706L21.9853 1.36688C22.0896 1.61513 21.7919 1.38749 21.8548 1.58785C21.9755 1.84308 22.0138 1.30936 22.1354 1.63859C22.0875 1.70908 21.9105 1.73667 21.9443 1.82679C21.9956 1.72324 22.0613 1.9015 22.1503 1.9247L22.2401 1.79307C22.2933 1.87023 22.2576 1.87621 22.2289 1.93158C22.3649 1.76234 22.6409 1.916 22.8391 1.71396C22.9718 1.74123 22.865 1.82673 22.9313 1.91338C22.9847 1.74857 23.1121 1.87231 23.1823 1.86483C23.2017 1.85186 23.2527 2.00554 23.2388 2.07023L23.0532 1.98539C23.069 2.06871 23.0544 2.20758 22.9905 2.19259C23.0078 1.88343 22.7581 2.39828 22.713 2.05653L22.7297 2.21386L22.4939 2.12784L22.4984 2.10556C22.5039 2.15728 22.2967 2.0159 22.1775 2.09836C22.2189 2.14625 22.4213 2.06365 22.3162 2.24704C22.4182 2.3277 22.5674 2.16796 22.7443 2.22102L22.7214 2.33027C22.912 2.46252 23.1282 2.24985 23.3295 2.27198L23.2592 2.13127C23.3238 2.07206 23.4057 1.94781 23.4807 2.06624C23.3957 2.0644 23.4457 2.14407 23.4661 2.20511C23.5862 2.27731 23.7472 2.17951 23.9081 2.22775C23.9081 2.22775 23.8978 2.19615 23.9025 2.17602L24.0722 2.2582C24.1489 2.23041 24.1693 2.14541 24.2124 2.04709C24.2421 2.06572 24.3142 2.06022 24.2924 2.14755C24.2776 2.15566 24.2629 2.16376 24.2517 2.15624C24.3445 2.312 24.3073 2.1089 24.4176 2.20177C24.3293 2.07169 24.4318 2.01063 24.4141 1.87738C24.5393 1.9316 24.4396 2.11659 24.4585 2.17997C24.602 2.09711 24.6154 1.98015 24.7629 1.95135C24.7753 2.03504 24.6602 2.01026 24.653 2.10475C24.6937 2.08079 24.7447 2.08844 24.7533 2.12021L24.6653 2.18844C24.8153 2.08527 24.9626 2.05431 25.1375 2.12067L25.1265 2.16326L25.2332 2.15841L25.1874 2.00419C25.247 2.04361 25.3031 1.90467 25.3387 2.0273L25.3174 2.03829L25.3918 2.08702L25.3115 1.93429C25.4013 1.86805 25.5391 2.18684 25.6869 2.16019C25.7112 1.95053 25.4282 2.0875 25.3975 1.81614C25.4447 1.77188 25.5283 1.72809 25.5601 1.79881C25.5576 1.87318 25.5212 1.8727 25.4851 1.87438C25.6212 2.01462 25.8083 1.78979 25.8978 2.02872L25.8032 2.11509C25.9171 2.14437 25.9818 1.85848 26.0245 2.01522L25.9266 1.74667C26.0462 1.87778 26.1946 1.8576 26.304 1.95927C26.3103 2.11553 26.1475 1.95198 26.1559 1.9816L26.2096 2.09575C26.3753 2.01052 26.2547 1.9994 26.457 1.91681L26.4612 2.02098C26.5275 1.86352 26.7132 2.1772 26.6399 1.89513L26.586 1.95755L26.5883 1.83307L26.8253 1.92986C26.8013 1.83434 26.9156 1.86792 26.8849 1.74259L26.9718 1.85975C27.0119 1.68329 26.8114 1.63709 26.8003 1.50096C26.8038 1.41994 26.8448 1.43083 26.8652 1.44391C26.7587 1.30488 26.7085 1.61319 26.6047 1.61336L26.5509 1.49921L26.5555 1.65565C26.5125 1.62537 26.4719 1.52071 26.4564 1.45697C26.3559 1.66604 26.2399 1.40595 26.0837 1.45093C26.2165 1.54358 26.0043 1.59889 26.0277 1.63998C25.9569 1.641 25.7699 1.3645 25.7156 1.55337C25.6768 1.62726 25.8072 1.66567 25.7088 1.70014C25.6444 1.68084 25.5959 1.59883 25.6347 1.52495C25.488 1.47956 25.3187 1.51504 25.1611 1.5144L25.2032 1.61672C25.1088 1.70524 25.0054 1.56369 24.9485 1.45206C24.9375 1.49464 24.9272 1.46305 24.9461 1.52642C24.8281 1.70247 24.7731 1.31601 24.5666 1.35981C24.5701 1.21341 24.6635 1.19691 24.7331 1.26578L24.7067 1.09859C24.8872 1.08806 25.0913 1.11862 25.2418 1.21591L25.1681 1.09299C25.2842 0.867015 25.2688 1.30676 25.3765 1.05116C25.4677 1.11118 25.3166 1.13819 25.3862 1.20706C25.4469 1.15918 25.3589 0.917906 25.4615 0.906962C25.0649 0.822824 24.6192 0.846361 24.2077 0.833558C24.1974 0.801961 24.2187 0.79097 24.2398 0.777823C24.0808 0.552833 22.9834 1.21689 22.9118 0.788604C22.8962 0.853473 22.9691 0.919815 22.8824 0.91816C22.8723 0.888718 22.8455 0.847987 22.8611 0.783118C22.6615 1.03761 22.3435 0.814316 22.095 0.999912C22.0923 0.926091 22.03 0.8935 22.0228 0.84196C21.9502 1.02188 21.7737 0.859789 21.7005 0.967862L21.7172 0.881076L21.4492 0.916179C21.4374 0.88692 21.4731 0.880934 21.494 0.865632C21.4302 0.835379 21.43 0.931299 21.4325 1.00296L21.2885 0.837406C21.1327 1.01531 20.9342 1.00378 20.7213 0.987236C20.5098 0.96836 20.2791 0.94718 20.0929 1.09998C20.0002 0.976913 19.9331 0.931756 19.8208 0.950261L19.863 0.891275C19.7246 0.810131 19.8742 0.964184 19.766 0.938674C19.6792 0.871636 19.6921 0.732945 19.7995 0.782526C19.8427 0.716894 19.797 0.678169 19.7498 0.657051C19.4001 0.78587 19.0832 1.04415 18.9246 1.45556L18.9263 1.45538Z" fill="#9F5225"/>
<path d="M31.5796 0.947163C31.5175 0.982111 31.731 1.10103 31.581 1.17151C31.3766 1.20202 31.1758 1.12098 30.9706 1.04695C30.7674 0.974889 30.5631 0.909478 30.3846 0.972098C30.281 1.05507 30.258 1.05098 30.172 1.08848C30.1729 1.06441 30.1785 1.03548 30.1843 1.00871C30.0943 0.992149 29.9561 0.913159 29.8575 0.962896C29.8365 0.928083 29.831 0.810977 29.8766 0.849702C29.7519 0.719138 29.6191 0.999208 29.5529 0.89729C29.6261 0.837176 29.4985 0.776671 29.5823 0.735041C29.4407 0.689108 29.4155 1.0863 29.3003 1.10948C29.2969 1.07715 29.2934 1.04482 29.3154 1.0403C29.1804 1.18547 28.9514 0.872043 28.9168 1.14818L28.8758 1.02395C28.8154 1.10667 28.8258 1.17096 28.735 1.1959C28.6808 1.14282 28.7447 1.09242 28.726 1.04646C28.6944 1.15663 28.5425 1.0791 28.4651 1.22903C28.4509 1.4049 28.6026 1.00948 28.6625 1.18182C28.6628 1.21667 28.6517 1.22657 28.638 1.22803C29.0009 1.23947 29.3253 0.808207 29.6181 1.00586C29.6982 0.897053 29.7379 1.02578 29.7532 1.15275C29.6918 1.19416 29.5256 1.27508 29.5463 1.03094L29.4365 1.16907C29.4014 1.14883 29.3795 1.39746 29.3592 1.4345C29.4287 1.42056 29.4768 1.67698 29.3803 1.74611C29.5482 1.81104 29.3773 1.21461 29.524 1.30796L29.5279 1.49063C29.5085 1.39025 29.6498 1.33595 29.6923 1.40989L29.6679 1.44082C30.0814 1.4556 30.6217 1.67045 31.037 1.92915C31.1455 1.7454 31.2216 1.82664 31.2848 1.91581C31.3499 2.00696 31.4003 2.10621 31.5137 1.98514C31.5366 2.06988 31.3919 2.07658 31.4571 2.18515C31.4888 2.23845 31.5375 2.14389 31.5482 2.11441C31.5571 2.13308 31.5646 2.15408 31.5737 2.1749C31.675 2.00499 31.7532 1.82883 31.7643 1.62494C31.7774 1.42302 31.7233 1.19122 31.5749 0.952021L31.5796 0.947163Z" fill="#9F5225"/>
<path d="M22.5568 1.44487C22.6339 1.53474 22.7928 1.56358 22.7796 1.40805C22.7884 1.51174 22.8306 1.5995 22.9063 1.67135C22.897 1.56772 22.9948 1.59217 23.0559 1.59656C23.0104 1.67334 22.9429 1.68925 22.8059 1.71911C22.6647 1.49876 22.4271 1.85103 22.2941 1.61019C22.3761 1.55132 22.4468 1.38685 22.5566 1.44272L22.5568 1.44487Z" fill="white"/>
<path d="M23.0788 0.73527L23.1009 0.796127L22.875 0.706862C22.9235 0.75618 23.0761 0.807484 23.0788 0.73527Z" fill="white"/>
<path d="M23.7961 0.875271C23.7702 0.76251 23.877 0.692283 23.8674 0.5865C23.8781 0.816401 24.0447 0.626448 24.1428 0.653052L24.1926 0.828643C24.108 0.959727 23.8677 0.913415 23.6694 0.936729L23.7944 0.875454L23.7961 0.875271Z" fill="#9F5225"/>
<path d="M23.9669 0.739308L24.0375 0.849482C23.9825 0.820473 23.8602 0.809535 23.9669 0.739308Z" fill="white"/>
<path d="M23.871 1.36302C23.7157 1.38393 23.9595 1.28385 23.8004 1.25285C23.8554 1.28186 23.9164 1.28625 23.871 1.36302Z" fill="white"/>
<path d="M24.5019 0.98548L24.1653 0.912382L24.2968 0.830798L24.5019 0.98548Z" fill="#9F5225"/>
<path d="M24.4966 0.60889C24.4538 0.613451 24.3899 0.679117 24.455 0.737569C24.5659 0.592791 24.6508 0.788623 24.7537 0.666491L24.6439 0.610627C24.649 0.464045 24.8738 0.753952 24.8528 0.492454C25.007 0.672187 24.7575 0.718396 24.9509 0.843818C24.7733 0.801716 24.6483 0.862991 24.5031 0.913342C24.5423 0.859032 24.5606 0.867984 24.618 0.822625C24.5138 0.818484 24.3675 0.744717 24.2449 0.731624C24.301 0.559992 24.4002 0.710714 24.4968 0.611046L24.4966 0.60889Z" fill="#9F5225"/>
<path d="M25.0255 0.5564C25.1379 0.540051 25.3134 0.530066 25.3519 0.728667C25.2405 0.869134 25.2108 0.704468 25.152 0.623553C25.1193 0.657555 25.0068 0.673904 25.0592 0.775127C25.0736 0.732173 24.9783 0.633355 25.0255 0.5564Z" fill="#9F5225"/>
<path d="M25.4698 0.513369L25.5595 0.689075L25.5061 0.659883L25.5058 0.786339C25.4955 0.754742 25.447 0.526699 25.3325 0.541075C25.3879 0.443629 25.4123 0.558728 25.4717 0.515342L25.4698 0.513369Z" fill="#9F5225"/>
<path d="M25.5304 1.38222C25.6008 1.29624 25.6462 1.34808 25.7328 1.39769C25.6147 1.37759 25.4476 1.38451 25.4087 1.31236L25.419 1.34396C25.419 1.34396 25.3021 1.25398 25.2165 1.13233C25.3451 1.25157 25.5555 1.06568 25.5321 1.38203L25.5304 1.38222Z" fill="#9F5225"/>
<path d="M25.8238 0.558753L25.6512 0.612023L25.6924 0.559685L25.8238 0.558753Z" fill="#9F5225"/>
<path d="M25.6326 1.08451C25.7669 1.06148 25.564 1.22042 25.6903 1.22003C25.7253 1.24027 25.5044 1.21369 25.4904 1.13019C25.5233 1.09834 25.624 1.23146 25.6326 1.08451Z" fill="#9F5225"/>
<path d="M26.3012 0.48952L26.3286 0.584676C26.4722 0.519239 26.6549 0.674137 26.767 0.492175C26.7357 0.604491 26.8105 0.738189 26.6858 0.75366C26.6704 0.689919 26.6265 0.683703 26.6379 0.612733C26.5841 0.627191 26.5914 0.711422 26.5545 0.739324C26.4698 0.626299 26.3277 0.689398 26.2565 0.590182C26.2918 0.612577 26.3 0.592087 26.3267 0.582703C26.1745 0.404943 26.1442 0.80268 26.0786 0.528501C26.1328 0.614273 26.2285 0.440601 26.301 0.487365L26.3012 0.48952Z" fill="#9F5225"/>
<path d="M26.2771 1.12547L26.1587 1.15116C26.1947 1.2781 26.3007 1.16872 26.3183 1.28455C26.3105 1.35731 26.1955 1.38264 26.2359 1.43718C26.2254 1.14405 26.079 1.41031 26.1415 1.08761C25.9894 1.04061 26.0944 1.26264 25.9346 1.24044L25.8868 1.08425C26.0672 1.16963 26.0979 1.03559 26.2756 1.1278L26.2771 1.12547Z" fill="#9F5225"/>
<path d="M26.7311 1.13411L26.7947 1.04887L26.755 1.17952C27.0128 1.24359 27.2203 0.72234 27.3776 0.834169C27.5641 1.0584 27.7785 0.828488 27.9817 0.900546C28.0709 1.03925 27.8778 0.948675 27.861 1.01804C27.867 1.2528 27.9716 0.919064 27.9995 1.1166C27.9967 1.28474 27.7697 1.25008 27.671 1.33035C27.5958 1.29042 27.6025 1.23957 27.5885 1.1408C27.5598 1.22887 27.4796 1.23959 27.4509 1.32766C27.302 1.1648 27.1982 1.39165 27.0539 1.22394C26.9955 1.34133 27.1679 1.27064 27.1154 1.2806L27.0302 1.26134L27.0404 1.24282C26.9344 1.09283 26.7113 1.17546 26.6346 1.25121C26.6949 1.21644 26.7415 1.11775 26.6739 1.06829L26.6092 1.20814L26.4701 0.974494C26.5768 1.13095 26.7232 0.864692 26.7299 1.13861L26.7311 1.13411Z" fill="#9F5225"/>
<path d="M26.5564 1.37904C26.3807 1.43483 26.587 1.16218 26.3944 1.20668L26.5942 1.24641L26.5564 1.37904Z" fill="#9F5225"/>
<path d="M27.4269 1.16399L27.5256 1.08371C27.4581 1.27836 27.3446 0.976594 27.4269 1.16399Z" fill="white"/>
<path d="M27.7546 1.23391L27.7267 1.03636L27.8006 1.16144L27.7546 1.23391Z" fill="white"/>
<path d="M28.0768 1.07458C28.1352 1.18388 28.0466 1.24564 27.9713 1.2057C28.0414 1.21349 28.0854 1.13906 28.0768 1.07458Z" fill="#9F5225"/>
<path d="M28.6065 0.815709C28.456 0.783801 28.7447 0.796624 28.6534 0.605832C28.6657 0.689516 28.7309 0.813351 28.6065 0.815709Z" fill="white"/>
<path d="M29.1376 0.477602C29.0858 0.430804 29.0612 0.459585 29.0485 0.502356C29.0887 0.506781 29.1213 0.503315 29.1376 0.477602Z" fill="#9F5225"/>
<path d="M27.1944 0.65762C27.1766 0.652978 27.159 0.650492 27.1402 0.652499C27.1595 0.654802 27.1751 0.655316 27.1944 0.65762Z" fill="#9F5225"/>
<path d="M27.2306 0.663317L27.1947 0.660419C27.2075 0.66354 27.2201 0.664443 27.2306 0.663317Z" fill="#9F5225"/>
<path d="M28.3918 0.497388C28.3918 0.497388 28.3827 0.504663 28.3785 0.511418L28.3918 0.497388Z" fill="#9F5225"/>
<path d="M23.514 0.63276C23.4838 0.625086 23.4608 0.620992 23.4423 0.625153L23.5125 0.635098L23.514 0.63276Z" fill="#9F5225"/>
<path d="M23.4492 0.897408C23.5811 1.01413 23.5636 0.606231 23.7711 0.686545C23.6873 0.662791 23.6007 0.645868 23.5126 0.631282C23.4087 0.825445 23.6077 0.727945 23.4475 0.897591L23.4492 0.897408Z" fill="#9F5225"/>
<path d="M25.1443 1.06925C25.1443 1.06925 25.1494 1.07081 25.1514 1.0748C25.1635 1.08192 25.1562 1.07429 25.1443 1.06925Z" fill="#9F5225"/>
<path d="M17.9739 1.12935L17.965 1.07799L17.8648 1.1606L17.9739 1.12935Z" fill="white"/>
<path d="M17.9756 1.03463L18.1509 0.909145C17.7779 0.94891 17.4043 0.999632 17.0331 1.05664L17.0798 1.12141C17.0774 1.2132 17.997 0.942985 17.9756 1.03463Z" fill="white"/>
<path d="M18.0405 1.10421C18.1759 1.30338 18.2095 1.0012 18.3622 1.13531C18.261 1.04584 18.1842 0.942859 18.1063 1.00783L18.0422 1.10403L18.0405 1.10421Z" fill="white"/>
<path d="M18.696 2.07957C18.705 2.08086 18.7154 2.07975 18.7239 2.0766C18.7123 2.06663 18.7009 2.05887 18.6927 2.04853L18.696 2.07957Z" fill="#9F5225"/>
<path d="M18.6909 2.04946L18.6828 1.97403C18.6661 2.00633 18.6734 2.02735 18.6909 2.04946Z" fill="#9F5225"/>
<path d="M18.7219 2.07564C18.7484 2.09679 18.78 2.1174 18.7986 2.14593L18.7741 2.15944C18.8104 2.17519 18.8784 2.22897 18.8892 2.18422C18.8239 2.20427 18.8166 2.15273 18.8022 2.04964L18.9101 2.02289C18.8614 1.77742 18.8159 2.04819 18.7202 2.07582L18.7219 2.07564Z" fill="#9F5225"/>
<path d="M19.2267 1.91652C19.195 1.87849 19.0871 1.90525 19.1469 1.83349C19.1251 1.80748 19.1053 1.81613 19.083 1.8185C19.1618 1.8428 19.1095 2.01838 19.2267 1.91652Z" fill="#9F5225"/>
<path d="M19.0818 1.81951C19.0725 1.81602 19.0617 1.81493 19.0476 1.81643C19.0589 1.82195 19.0712 1.82064 19.0818 1.81951Z" fill="#9F5225"/>
<path d="M19.4356 1.73956L19.4783 1.735C19.4664 1.73628 19.4539 1.73324 19.4432 1.73003L19.4356 1.73956Z" fill="#9F5225"/>
<path d="M15.6972 1.00817C15.8397 0.93196 15.975 0.854322 16.2083 0.899208C16.2339 1.0752 16.305 0.930305 16.3487 1.11309C16.1205 1.13089 17.2117 1.05816 17.044 1.17411L16.9776 1.10273L17.0619 1.27683C17.1623 1.21164 17.2875 1.03918 17.3753 1.13226C17.3807 1.10117 17.151 1.13873 16.925 1.17808C16.6976 1.21976 16.4738 1.26323 16.4862 1.23357C16.4622 1.34947 16.7823 1.33278 17.1144 1.31482C17.446 1.29255 17.7909 1.2645 17.8146 1.30776L17.8144 1.19226C17.9957 1.28627 18.1239 1.43389 18.2723 1.49436L18.2867 1.35333C18.1908 1.41151 18.1501 1.32212 18.038 1.27739C18.2215 1.27746 18.245 1.18994 18.3862 1.19887C18.4033 1.37577 18.2795 1.30179 18.4639 1.37585C18.5055 1.29514 18.3652 1.1161 18.5261 1.13164C18.7091 1.06201 18.7026 1.32643 18.8668 1.32419L18.7644 1.40267C18.8252 1.4049 18.9421 1.4295 18.9899 1.32632C18.9228 1.34655 18.738 1.26817 18.7225 1.09109C18.7968 1.1224 18.9435 1.03702 19.0043 1.03926L18.9536 0.920431C19.0079 0.796941 19.0659 0.96731 19.1382 0.850616C19.2262 0.913162 19.1094 1.0346 19.1592 1.07942C19.17 1.03468 19.3188 0.953426 19.3803 1.02751C19.3705 1.29229 19.189 0.969445 19.1183 1.23199L19.2589 1.17123C19.3772 1.42017 19.0258 1.19173 19.0957 1.39351C19.2337 1.64907 19.296 1.11279 19.4332 1.44254C19.3734 1.5143 19.1602 1.54357 19.1974 1.63332C19.2624 1.52831 19.3371 1.70864 19.4432 1.73003L19.5568 1.59502C19.6186 1.67125 19.576 1.67797 19.5387 1.73425C19.7072 1.56154 20.0384 1.71368 20.2827 1.50456C20.441 1.52909 20.3119 1.61696 20.3922 1.70431C20.4612 1.54002 20.6124 1.65904 20.6979 1.64992C20.7224 1.63641 20.782 1.78917 20.763 1.85441L20.5381 1.77376C20.5556 1.8569 20.5356 1.99416 20.4582 1.98279C20.484 1.67272 20.1727 2.19414 20.1242 1.85275L20.141 2.01007L19.8572 1.92917L19.8634 1.9067C19.869 1.95843 19.6207 1.82142 19.4755 1.90446C19.5238 1.95162 19.7724 1.8641 19.6399 2.05041C19.7606 2.12691 19.948 1.96961 20.1607 2.01669L20.1309 2.12667C20.3592 2.25491 20.6286 2.03874 20.8708 2.05433L20.7868 1.91508C20.8668 1.85424 20.9659 1.72816 21.0564 1.8471C20.9526 1.84727 21.0129 1.92585 21.0367 1.98652C21.1825 2.05598 21.3772 1.95023 21.5728 1.99912C21.5728 1.99912 21.5608 1.96771 21.5673 1.9474L21.7727 2.02359C21.8647 1.99416 21.8919 1.90843 21.9419 1.80938C21.9785 1.82728 22.0643 1.82032 22.037 1.90604C22.0189 1.91451 22.0008 1.92299 21.9879 1.91564C22.0995 2.0694 22.0552 1.86488 22.1877 1.95537C22.0806 1.8273 22.2053 1.76387 22.184 1.62882C22.3366 1.68013 22.2147 1.86749 22.2369 1.93051C22.4112 1.84436 22.4262 1.72507 22.6043 1.69083C22.6201 1.77415 22.4793 1.75211 22.4703 1.84678C22.5196 1.82191 22.5809 1.82846 22.5926 1.85772L22.4859 1.92795C22.6664 1.81934 22.8462 1.78492 23.0583 1.84295L23.0439 1.8859L23.1727 1.87653L23.1165 1.72341C23.1898 1.76137 23.256 1.61918 23.3003 1.74305L23.2756 1.7544L23.3671 1.80132L23.268 1.65059C23.3747 1.58037 23.5482 1.89317 23.7283 1.8609C23.7541 1.6489 23.4101 1.79891 23.3709 1.52846C23.4284 1.4831 23.5286 1.43318 23.5692 1.50515C23.5667 1.57951 23.5237 1.58192 23.4807 1.58433C23.6474 1.71913 23.8717 1.48597 23.9865 1.71786L23.8715 1.80858C24.0123 1.83062 24.0836 1.54185 24.14 1.69713L24.0131 1.43168C24.1615 1.55753 24.3432 1.52508 24.4815 1.6215C24.4946 1.77703 24.2895 1.62235 24.3015 1.65376L24.3721 1.76394C24.5728 1.66625 24.4258 1.66667 24.6695 1.56659L24.6805 1.67003C24.7515 1.50772 24.9928 1.80676 24.8923 1.52976L24.8286 1.59758L24.8272 1.47131L25.1176 1.54933C25.0853 1.45688 25.2229 1.48144 25.1802 1.35739L25.2906 1.46768C25.3302 1.28691 25.0883 1.25821 25.0687 1.12298C25.0685 1.04018 25.1181 1.05016 25.1434 1.06053C25.0085 0.931064 24.9641 1.2453 24.8368 1.25233L24.7662 1.14216L24.7793 1.29769C24.7245 1.27084 24.6737 1.16727 24.6499 1.1066C24.5363 1.32359 24.3865 1.07146 24.1983 1.12422C24.3612 1.20712 24.1057 1.27795 24.1357 1.31616C24.0497 1.32097 23.8187 1.05353 23.7563 1.24762C23.7109 1.32439 23.8699 1.35539 23.7512 1.3942C23.6717 1.3787 23.6128 1.29779 23.6583 1.22102C23.481 1.18107 23.2765 1.22685 23.0847 1.22985L23.137 1.33108C23.0238 1.42161 22.8984 1.28458 22.8278 1.17441C22.8134 1.21736 22.8033 1.18792 22.8254 1.24878C22.6852 1.42719 22.6167 1.04434 22.3694 1.09468C22.3726 0.946127 22.4848 0.927623 22.5699 0.994843L22.5383 0.828204C22.7546 0.811686 23.0011 0.835534 23.1825 0.929542L23.0936 0.810417C23.2317 0.579914 23.2165 1.02181 23.3429 0.762052C23.4527 0.817916 23.2727 0.850181 23.356 0.917584C23.4284 0.866274 23.3184 0.629529 23.4431 0.614058C22.9686 0.546932 22.4344 0.584264 21.9392 0.582554C21.9272 0.55114 21.952 0.539783 21.9782 0.526089C21.7904 0.306355 20.4708 0.99628 20.3889 0.569088C20.3699 0.634323 20.4564 0.699206 20.3509 0.699557C20.3391 0.670297 20.3088 0.629931 20.3278 0.564697C20.0855 0.823749 19.7088 0.602346 19.4054 0.791624C19.4044 0.717621 19.3301 0.686307 19.3244 0.63243C19.233 0.814357 19.027 0.651055 18.9366 0.760953L18.9601 0.673437L18.6389 0.71204C18.6254 0.682963 18.6697 0.676065 18.6942 0.662554C18.6199 0.63124 18.6146 0.727707 18.6173 0.801528L18.4525 0.636003C18.0719 0.994791 17.4876 0.595 17.0331 0.876671C16.9397 0.747134 16.8667 0.696061 16.7428 0.702728L16.7957 0.646959C16.6523 0.551094 16.8001 0.720597 16.6853 0.682704C16.5994 0.606863 16.6281 0.470841 16.7384 0.531015C16.7925 0.470753 16.7464 0.427719 16.697 0.402472C16.3085 0.491838 15.9619 0.666097 15.6997 0.999187L15.6972 1.00817Z" fill="#9F5225"/>
<path d="M30.5161 0.414367C30.4669 0.471926 30.6767 0.508408 30.5601 0.631999C30.2104 0.84147 29.7074 0.50711 29.3052 0.645895C29.1934 0.734092 29.1653 0.730545 29.0674 0.769323C29.0683 0.745252 29.0702 0.714534 29.0779 0.689733C28.9727 0.676971 28.8088 0.600718 28.6979 0.647421C28.6715 0.611 28.6608 0.494442 28.7152 0.534409C28.5661 0.402089 28.4216 0.685591 28.3424 0.576329C28.4264 0.519431 28.2756 0.452677 28.3736 0.413898C28.209 0.363871 28.1856 0.760878 28.0511 0.781753C28.0476 0.749426 28.0405 0.71531 28.0679 0.712391C27.908 0.8515 27.639 0.520532 27.5957 0.795427L27.5491 0.66743C27.4778 0.744785 27.4866 0.811411 27.3793 0.827212C27.3142 0.768761 27.3907 0.723551 27.3702 0.67778C27.3314 0.78436 27.1508 0.696818 27.0535 0.840136C27.034 1.0144 27.2218 0.632577 27.2924 0.808134C27.2927 0.842981 27.2797 0.850905 27.2626 0.852729C27.7019 0.899615 28.0797 0.482274 28.4235 0.687564C28.5144 0.581977 28.5626 0.709791 28.5867 0.838003C28.5167 0.880328 28.3225 0.957702 28.3413 0.711587L28.2138 0.847231C28.1717 0.825565 28.1498 1.0742 28.1278 1.11142C28.2097 1.10051 28.2753 1.35942 28.1613 1.42606C28.3663 1.49794 28.1459 0.891529 28.3228 0.992549L28.3318 1.17467C28.3071 1.07269 28.4733 1.02446 28.526 1.0973L28.498 1.12644C28.9933 1.14558 29.6379 1.36457 30.1702 1.53668C30.3462 1.12559 30.5504 1.77514 30.711 1.44635C30.7654 1.51901 30.6116 1.58554 30.7202 1.66332C30.7745 1.70113 30.7918 1.58812 30.7918 1.55543L30.8401 1.60259C30.9235 1.18393 30.86 0.783114 30.5205 0.422622L30.5161 0.414367Z" fill="#9F5225"/>
</svg>
